<svg width="441" height="97" viewBox="0 0 441 97" fill="none" xmlns="http://www.w3.org/2000/svg">
<path d="M44.5644 55.7398C42.0839 57.4078 38.8643 58.2918 34.2176 58.2918H24.877V28.3918H21.9736V25.3198H33.2156C37.3839 25.3198 40.0224 25.8398 42.6096 26.9858C47.6238 29.2258 50.1576 33.4958 50.1576 41.5718C50.1597 48.6058 48.3651 53.1878 44.5644 55.7398ZM40.0778 29.5898C38.39 28.8078 36.119 28.3918 32.8481 28.3918H29.2589V55.2178H33.5852C37.5974 55.2178 40.4454 54.4358 42.5049 52.3518C44.7738 50.0598 45.5664 46.3638 45.5664 41.4118C45.5685 35.0598 44.0367 31.3638 40.0778 29.5898Z" fill="white"/>
<path d="M68.6024 36.1045C68.3375 36.0525 67.7565 36.0005 67.2288 36.0005C65.276 36.0005 63.6929 36.6765 62.6909 37.9785C61.4774 39.4885 61.0564 41.5205 61.0564 44.5945V58.2945H56.9908V36.0005H54.0361V33.0305H59.7895L60.5287 36.6245C61.849 34.0185 64.2761 32.5605 67.1795 32.5605C67.6538 32.5605 68.2883 32.6145 68.6045 32.6665L68.6024 36.1045Z" fill="white"/>
<path d="M109.697 58.2918H105.845V32.6638C105.581 33.9138 104.79 36.2058 104.155 37.7698L95.605 58.2918H92.5968L83.6217 37.2498C83.0961 36.0518 82.4082 34.1238 82.1454 32.6638V58.2898H78.3447V25.3198H82.4082L93.0711 50.0618C93.5455 51.2078 94.1266 52.9298 94.2313 53.7618H94.2826C94.3873 52.9278 94.9684 51.1038 95.3914 50.1138L105.683 25.3218H109.695V58.2918H109.697Z" fill="white"/>
<path d="M136.457 57.7721C135.823 58.1881 134.768 58.5021 133.661 58.5021C131.497 58.5021 130.178 57.5621 129.913 55.5841C128.593 57.6681 125.743 58.7621 122.946 58.7621C117.667 58.7621 114.027 55.7941 114.027 50.4801C114.027 45.3741 117.404 41.9381 124.162 41.9381C126.273 41.9381 128.437 42.3021 129.597 42.6161V41.2601C129.597 39.3341 129.23 38.1341 128.384 37.1441C127.486 36.1021 125.799 35.4261 123.474 35.4261C120.836 35.4261 118.355 36.1041 116.296 37.0921L116.242 34.1241C118.09 33.2901 120.887 32.5601 123.897 32.5601C127.433 32.5601 130.178 33.3961 131.813 35.2201C133.08 36.6261 133.661 38.5021 133.661 41.2101V53.4481C133.661 54.9601 133.924 55.6381 135.032 55.6381C135.56 55.6381 136.193 55.4301 136.616 55.1701L136.457 57.7721ZM129.595 45.3741C128.593 45.1141 126.48 44.7501 124.581 44.7501C119.725 44.7501 118.037 47.0941 118.037 50.2701C118.037 54.0221 120.464 55.8961 123.472 55.8961C125.636 55.8961 127.219 55.2181 128.224 54.0201C129.174 52.8221 129.595 51.2081 129.595 49.1761V45.3741Z" fill="white"/>
<path d="M160.42 58.2921H156.356V42.5601C156.356 40.0081 156.198 38.5501 155.036 37.3001C154.085 36.2581 152.555 35.7361 150.601 35.7361C148.383 35.7361 146.749 36.4161 145.638 37.6661C144.424 39.0201 144.055 40.7381 144.055 43.7081V58.2921H139.989V36.0001H137.034V33.0301H142.681L143.367 36.1041C145.003 33.8121 147.537 32.5601 151.336 32.5601C154.344 32.5601 156.931 33.5501 158.461 35.2201C160.044 36.9901 160.414 39.2821 160.414 42.0941L160.42 58.2921Z" fill="white"/>
<path d="M173.352 57.7722C172.717 58.1882 171.664 58.5021 170.502 58.5021C169.13 58.5021 168.073 58.0861 167.44 57.3562C166.806 56.6262 166.543 55.5841 166.543 54.0741V36.0001H163.588V33.0301H170.608V53.4481C170.608 55.1141 170.925 55.6381 171.98 55.6381C172.508 55.6381 173.194 55.3761 173.563 55.1701L173.352 57.7722ZM168.233 28.4981C166.808 28.4981 165.699 27.3521 165.699 25.9441C165.699 24.5381 166.808 23.3921 168.233 23.3921C169.658 23.3921 170.871 24.5381 170.871 25.9441C170.869 27.3521 169.658 28.4981 168.233 28.4981Z" fill="white"/>
<path d="M183.908 58.7621C181.006 58.7621 178.103 58.0841 175.939 57.1461L176.255 53.8641C178.419 55.1121 181.218 55.8421 183.854 55.8421C187.55 55.8421 189.554 54.1761 189.554 51.8841C189.554 48.9681 187.232 48.0301 183.273 46.6761C179.473 45.3721 176.148 43.9141 176.148 39.5401C176.148 34.9541 180.265 32.5581 185.437 32.5581C187.706 32.5581 189.924 32.9761 191.612 33.5481V36.7261C189.712 35.8401 187.653 35.4241 185.384 35.4241C181.902 35.4241 179.949 36.9361 179.949 39.1741C179.949 41.5721 182.06 42.5601 185.542 43.7601C189.819 45.2701 193.302 46.7281 193.302 51.4681C193.304 55.6881 189.977 58.7621 183.908 58.7621Z" fill="white"/>
<path d="M217.74 58.2925H213.677V42.5605C213.677 40.0085 213.519 38.5506 212.357 37.3006C211.406 36.2586 209.876 35.7366 207.923 35.7366C205.706 35.7366 204.071 36.4166 202.961 37.6666C201.747 39.0206 201.377 40.7386 201.377 43.7086V58.2925H197.314V22.6646H201.377V35.4246C203.014 33.6546 205.441 32.5585 208.663 32.5585C211.671 32.5585 214.256 33.5486 215.788 35.2166C217.371 36.9886 217.74 39.2786 217.74 42.0926V58.2925Z" fill="white"/>
<path d="M244.185 57.7721C243.551 58.1881 242.495 58.5021 241.389 58.5021C239.224 58.5021 237.906 57.5621 237.641 55.5841C236.321 57.6681 233.471 58.7621 230.674 58.7621C225.395 58.7621 221.753 55.7941 221.753 50.4801C221.753 45.3741 225.132 41.9381 231.888 41.9381C233.999 41.9381 236.163 42.3021 237.323 42.6161V41.2601C237.323 39.3341 236.953 38.1341 236.11 37.1441C235.21 36.1021 233.522 35.4261 231.2 35.4261C228.561 35.4261 226.079 36.1041 224.022 37.0921L223.97 34.1241C225.816 33.2901 228.615 32.5601 231.625 32.5601C235.161 32.5601 237.906 33.3961 239.541 35.2201C240.806 36.6261 241.387 38.5021 241.387 41.2101V53.4481C241.387 54.9601 241.649 55.6381 242.758 55.6381C243.286 55.6381 243.92 55.4301 244.341 55.1701L244.185 57.7721ZM237.323 45.3741C236.321 45.1141 234.208 44.7501 232.311 44.7501C227.455 44.7501 225.765 47.0941 225.765 50.2701C225.765 54.0221 228.194 55.8961 231.2 55.8961C233.364 55.8961 234.945 55.2181 235.949 54.0201C236.9 52.8221 237.321 51.2081 237.321 49.1761V45.3741H237.323Z" fill="white"/>
<path d="M266.774 58.2918H256.748V28.3918H253.844V25.3198H266.197C269.678 25.3198 272.213 25.6838 274.273 27.0378C276.437 28.4438 277.49 30.7878 277.49 33.4438C277.49 37.0898 276.065 39.4338 273.267 40.7358C276.961 41.6758 279.443 44.0698 279.443 48.8618C279.441 55.8438 274.85 58.2918 266.774 58.2918ZM271.154 29.4358C269.889 28.6018 268.411 28.3938 265.772 28.3938H261.127V39.8518H265.823C268.727 39.8518 270.468 39.4878 271.684 38.3938C272.739 37.4038 273.267 35.8938 273.267 33.8598C273.269 32.1958 272.634 30.3738 271.154 29.4358ZM273.213 44.3318C271.63 42.9258 269.411 42.6638 266.142 42.6638H261.13V55.2178H266.037C269.468 55.2178 271.579 54.7498 272.951 53.7078C274.322 52.6658 274.852 51.0518 274.852 48.8098C274.85 46.8818 274.378 45.3218 273.213 44.3318Z" fill="white"/>
<path d="M304.411 57.7721C303.774 58.1881 302.721 58.5021 301.61 58.5021C299.448 58.5021 298.129 57.5621 297.865 55.5841C296.542 57.6681 293.696 58.7621 290.898 58.7621C285.619 58.7621 281.976 55.7941 281.976 50.4801C281.976 45.3741 285.354 41.9381 292.111 41.9381C294.222 41.9381 296.386 42.3021 297.548 42.6161V41.2601C297.548 39.3341 297.179 38.1341 296.333 37.1441C295.433 36.1021 293.748 35.4261 291.423 35.4261C288.785 35.4261 286.304 36.1041 284.245 37.0921L284.194 34.1241C286.039 33.2901 288.838 32.5601 291.846 32.5601C295.386 32.5601 298.131 33.3961 299.764 35.2201C301.029 36.6261 301.608 38.5021 301.608 41.2101V53.4481C301.608 54.9601 301.875 55.6381 302.984 55.6381C303.511 55.6381 304.144 55.4301 304.567 55.1701L304.411 57.7721ZM297.548 45.3741C296.544 45.1141 294.433 44.7501 292.536 44.7501C287.678 44.7501 285.99 47.0941 285.99 50.2701C285.99 54.0221 288.417 55.8961 291.425 55.8961C293.59 55.8961 295.171 55.2181 296.175 54.0201C297.125 52.8221 297.548 51.2081 297.548 49.1761V45.3741Z" fill="white"/>
<path d="M328.372 58.2921H324.306V42.5601C324.306 40.0081 324.146 38.5501 322.986 37.3001C322.035 36.2581 320.506 35.7361 318.553 35.7361C316.335 35.7361 314.699 36.4161 313.59 37.6661C312.376 39.0201 312.007 40.7381 312.007 43.7081V58.2921H307.943V36.0001H304.989V33.0301H310.635L311.321 36.1041C312.96 33.8121 315.491 32.5601 319.294 32.5601C322.302 32.5601 324.887 33.5501 326.417 35.2201C328.002 36.9901 328.372 39.2821 328.372 42.0941V58.2921Z" fill="white"/>
<path d="M356.08 57.7721C355.445 58.1881 354.392 58.5021 353.23 58.5021C351.17 58.5021 349.798 57.6181 349.482 55.6361C348.111 57.5121 345.737 58.7621 342.515 58.7621C335.179 58.7621 331.801 53.5001 331.801 46.6761C331.801 42.3001 333.015 38.5501 335.44 35.9981C337.552 33.8081 340.772 32.5581 344.677 32.5581C346.421 32.5581 348.057 32.8701 349.269 33.2881V25.6321H346.314V22.6621H353.334V53.5001C353.334 55.1141 353.651 55.6341 354.706 55.6341C355.236 55.6341 355.919 55.3741 356.289 55.1661L356.08 57.7721ZM349.271 36.1541C348.32 35.7881 346.579 35.4241 344.996 35.4241C339.191 35.4241 335.918 39.0201 335.918 46.4681C335.918 51.8321 338.027 55.7901 342.887 55.7901C345.523 55.7901 347.476 54.4901 348.373 52.5621C349.059 51.1041 349.273 49.6941 349.273 47.7701L349.271 36.1541Z" fill="white"/>
<path d="M366.954 57.7722C366.32 58.1882 365.266 58.5021 364.104 58.5021C362.73 58.5021 361.675 58.0861 361.043 57.3562C360.41 56.6262 360.143 55.5841 360.143 54.0741V36.0001H357.19V33.0301H364.209V53.4481C364.209 55.1141 364.525 55.6381 365.58 55.6381C366.11 55.6381 366.796 55.3761 367.166 55.1701L366.954 57.7722ZM361.833 28.4981C360.408 28.4981 359.299 27.3521 359.299 25.9441C359.299 24.5381 360.408 23.3921 361.833 23.3921C363.256 23.3921 364.472 24.5381 364.472 25.9441C364.474 27.3521 363.258 28.4981 361.833 28.4981Z" fill="white"/>
<path d="M377.508 58.7621C374.607 58.7621 371.703 58.0841 369.537 57.1461L369.853 53.8641C372.02 55.1121 374.816 55.8421 377.453 55.8421C381.149 55.8421 383.155 54.1761 383.155 51.8841C383.155 48.9681 380.832 48.0301 376.874 46.6761C373.071 45.3721 369.746 43.9141 369.746 39.5401C369.746 34.9541 373.863 32.5581 379.036 32.5581C381.303 32.5581 383.522 32.9761 385.21 33.5481V36.7261C383.311 35.8401 381.251 35.4241 378.984 35.4241C375.502 35.4241 373.547 36.9361 373.547 39.1741C373.547 41.5721 375.658 42.5601 379.143 43.7601C383.418 45.2701 386.9 46.7281 386.9 51.4681C386.904 55.6881 383.578 58.7621 377.508 58.7621Z" fill="white"/>
<path d="M411.343 58.2925H407.279V42.5605C407.279 40.0085 407.121 38.5506 405.959 37.3006C405.008 36.2586 403.479 35.7366 401.526 35.7366C399.308 35.7366 397.672 36.4166 396.563 37.6666C395.35 39.0206 394.98 40.7386 394.98 43.7086V58.2925H390.916V22.6646H394.98V35.4246C396.616 33.6546 399.044 32.5585 402.263 32.5585C405.271 32.5585 407.858 33.5486 409.388 35.2166C410.973 36.9886 411.343 39.2786 411.343 42.0926V58.2925Z" fill="white"/>
<path d="M429.076 57.6661C427.916 58.3441 425.907 58.7621 424.219 58.7621C422.002 58.7621 420.156 57.9801 419.1 56.6781C418.098 55.4781 417.78 53.8101 417.78 51.1561V36.0001H413.979V33.0301H417.78V26.4141L421.844 25.0601V33.0301H427.965V36.0001H421.844V51.0521C421.844 52.6661 422.057 53.8101 422.583 54.5941C423.113 55.3761 424.006 55.7401 425.277 55.7401C426.807 55.7401 428.18 55.2721 429.129 54.6981L429.076 57.6661Z" fill="white"/>
<path d="M439.79 57.7722C439.155 58.1882 438.1 58.5021 436.94 58.5021C435.566 58.5021 434.509 58.0861 433.878 57.3562C433.244 56.6262 432.979 55.5841 432.979 54.0741V36.0001H430.022V33.0301H437.044V53.4481C437.044 55.1141 437.361 55.6381 438.418 55.6381C438.946 55.6381 439.632 55.3761 440.001 55.1701L439.79 57.7722ZM434.669 28.4981C433.246 28.4981 432.137 27.3521 432.137 25.9441C432.137 24.5381 433.246 23.3921 434.669 23.3921C436.096 23.3921 437.309 24.5381 437.309 25.9441C437.309 27.3521 436.096 28.4981 434.669 28.4981Z" fill="white"/>
<path d="M176.787 3.12247C199.751 6.39647 222.071 6.77047 236.247 3.16047C225.989 9.80847 198.682 13.5104 174.534 9.77246C125.938 2.25046 85.6211 6.23247 63.5088 11.0504C78.2558 4.31247 120.466 -4.90953 176.787 3.12247Z" fill="#FF6400"/>
<path d="M8.47141 23.5201C8.54738 23.4501 6.40989 24.572 5.46946 27.448C4.99925 28.886 6.22097 30.542 7.22505 32.646C8.04022 34.354 8.35233 36.296 8.73014 39.08C9.10591 41.868 9.67056 43.414 10.2332 46.014C10.7978 48.612 12.6151 56.038 12.6151 56.038C12.6151 56.038 11.0093 51.46 10.1634 49.048C9.31534 46.634 8.04229 41.506 7.05874 39.856C5.38117 37.04 5.24768 40.76 6.18811 43.814C6.86571 46.01 11.5761 60 11.5761 60C11.5761 60 5.36885 44.87 4.23952 42.642C3.11224 40.414 1.51267 37.814 0.855611 34.936C0.709824 34.304 -0.99444 27.386 0.855611 22.128C1.57633 20.078 3.3381 14.922 6.53103 11.05C9.53916 7.39804 15.6232 5.79004 15.6232 5.79004C15.6232 5.79004 11.9867 7.15004 10.2927 8.45004C8.60079 9.75004 6.59262 11.916 5.55979 13.586C4.52491 15.258 3.67689 17.298 3.8658 18.322C4.05265 19.342 3.77134 19.806 5.27643 19.622C6.78152 19.436 6.50023 19.53 7.25174 18.508C8.00326 17.486 8.19217 16.558 9.50835 16.466C10.8245 16.374 12.3296 17.674 11.2948 18.788C10.2599 19.9 9.60282 19.714 8.56794 19.9C7.53306 20.086 6.97045 20.644 6.97045 21.386C6.97045 22.128 7.15731 22.592 8.8513 22.128C10.5453 21.664 11.9251 21.572 13.0524 20.83C14.1797 20.086 15.6232 19.53 17.0318 17.58C18.4445 15.632 20.6066 11.918 20.6066 11.918C20.6066 11.918 18.7237 17.582 16.2803 19.716C14.6971 21.098 13.3645 21.852 11.5761 22.502C9.78761 23.148 8.47141 23.5201 8.47141 23.5201Z" fill="white"/>
<path d="M108.011 11.7103C108.011 11.7103 92.5761 4.48231 81.5189 5.85431C71.4925 7.09631 63.1313 11.6963 54.0885 12.8383C44.9881 13.9843 37.8877 13.8843 28.0481 10.3363C19.4447 7.23231 15.7939 3.21631 15.7939 3.21631C15.7939 3.21631 19.5453 10.1983 30.2924 14.2563C38.6392 17.4083 51.9386 19.7903 68.7308 15.3463C87.0116 10.5083 96.9107 11.4283 108.011 11.7103Z" fill="#04DD32"/>
<path d="M64.9971 56.25C64.9971 55.5596 65.5567 55 66.2471 55C66.9375 55 67.4971 55.5596 67.4971 56.25C67.4971 56.9404 66.9375 57.5 66.2471 57.5C65.5567 57.5 64.9971 56.9404 64.9971 56.25Z" fill="white"/>
<path d="M27.7549 87.1723H40.3936V89.0004H25.5752V63.4066H27.7549V87.1723ZM46.4229 89.0004H44.3135V69.9809H46.4229V89.0004ZM43.9444 64.4789C43.9444 64.0805 44.0733 63.7465 44.3311 63.477C44.5889 63.1957 44.9405 63.0551 45.3858 63.0551C45.8311 63.0551 46.1826 63.1957 46.4405 63.477C46.71 63.7465 46.8448 64.0805 46.8448 64.4789C46.8448 64.8774 46.71 65.2113 46.4405 65.4809C46.1826 65.7504 45.8311 65.8853 45.3858 65.8853C44.9405 65.8853 44.5889 65.7504 44.3311 65.4809C44.0733 65.2113 43.9444 64.8774 43.9444 64.4789ZM53.6651 89.0004V71.7035H50.5186V69.9809H53.6651V67.6781C53.6651 65.7328 54.1573 64.2387 55.1416 63.1957C56.1377 62.1527 57.5205 61.6313 59.2901 61.6313C60.0869 61.6313 60.8311 61.7309 61.5225 61.9301L61.3643 63.6879C60.7783 63.5473 60.1397 63.477 59.4483 63.477C58.2881 63.477 57.3858 63.8402 56.7412 64.5668C56.0967 65.2816 55.7744 66.3012 55.7744 67.6254V69.9809H60.3096V71.7035H55.7744V89.0004H53.6651ZM71.0147 89.352C69.3975 89.352 67.9326 88.9535 66.6201 88.1566C65.3194 87.3598 64.3057 86.2524 63.5791 84.8344C62.8526 83.4047 62.4893 81.8051 62.4893 80.0356V79.2797C62.4893 77.4516 62.8409 75.8051 63.544 74.3402C64.2588 72.8754 65.2491 71.727 66.5147 70.8949C67.7803 70.0512 69.1514 69.6293 70.628 69.6293C72.9366 69.6293 74.7647 70.4203 76.1123 72.0024C77.4717 73.5727 78.1514 75.7231 78.1514 78.4535V79.6313H64.5811V80.0356C64.5811 82.1918 65.1963 83.9906 66.4268 85.432C67.669 86.8617 69.2276 87.5766 71.1026 87.5766C72.2276 87.5766 73.2178 87.3715 74.0733 86.9613C74.9405 86.5512 75.7256 85.8949 76.4287 84.9926L77.7471 85.9945C76.2002 88.2328 73.9561 89.352 71.0147 89.352ZM70.628 71.4223C69.0459 71.4223 67.71 72.0024 66.6201 73.1625C65.542 74.3227 64.8858 75.8813 64.6514 77.8383H76.0596V77.6098C76.001 75.7816 75.4795 74.2934 74.4951 73.1449C73.5108 71.9965 72.2217 71.4223 70.628 71.4223ZM93.6377 84.1664C93.6377 83.1234 93.2159 82.2856 92.3721 81.6527C91.5401 81.0199 90.2803 80.5277 88.5928 80.1762C86.9053 79.8129 85.5928 79.4027 84.6553 78.9457C83.7295 78.477 83.0381 77.9086 82.5811 77.2406C82.1358 76.5727 81.9131 75.7641 81.9131 74.8149C81.9131 73.3149 82.5401 72.0785 83.794 71.1059C85.0479 70.1215 86.6533 69.6293 88.6104 69.6293C90.7315 69.6293 92.4307 70.1566 93.708 71.2113C94.9971 72.2543 95.6416 73.6195 95.6416 75.307H93.5323C93.5323 74.1938 93.0635 73.268 92.126 72.5297C91.2002 71.7914 90.0283 71.4223 88.6104 71.4223C87.2276 71.4223 86.1143 71.7328 85.2705 72.3539C84.4385 72.9633 84.0225 73.7602 84.0225 74.7445C84.0225 75.6938 84.3682 76.432 85.0596 76.9594C85.7627 77.475 87.0342 77.9496 88.8741 78.3832C90.7256 78.8168 92.1084 79.2797 93.0225 79.7719C93.9483 80.2641 94.6338 80.8559 95.0791 81.5473C95.5244 82.2387 95.7471 83.0766 95.7471 84.0609C95.7471 85.6664 95.0967 86.9496 93.7959 87.9106C92.5069 88.8715 90.8194 89.352 88.7334 89.352C86.5186 89.352 84.7198 88.8188 83.3369 87.7524C81.9659 86.6742 81.2803 85.3149 81.2803 83.6742H83.3897C83.4717 84.9047 83.9873 85.8656 84.9366 86.557C85.8975 87.2367 87.1631 87.5766 88.7334 87.5766C90.1983 87.5766 91.3819 87.2543 92.2842 86.6098C93.1866 85.9652 93.6377 85.1508 93.6377 84.1664ZM103.763 65.1117V69.9809H107.7V71.7035H103.763V84.3774C103.763 85.432 103.95 86.2172 104.325 86.7328C104.712 87.2484 105.351 87.5063 106.241 87.5063C106.593 87.5063 107.161 87.4477 107.946 87.3305L108.034 89.0531C107.483 89.2524 106.733 89.352 105.784 89.352C104.343 89.352 103.294 88.9359 102.638 88.1039C101.981 87.2602 101.653 86.0238 101.653 84.3949V71.7035H98.1553V69.9809H101.653V65.1117H103.763ZM118.089 85.977L123.643 69.9809H125.911L117.79 92.2348L117.368 93.2192C116.325 95.5277 114.714 96.682 112.534 96.682C112.03 96.682 111.491 96.6 110.917 96.4359L110.899 94.6957L111.989 94.8012C113.02 94.8012 113.852 94.5434 114.485 94.0277C115.13 93.5238 115.675 92.6508 116.12 91.4086L117.052 88.8422L109.88 69.9809H112.183L118.089 85.977ZM131.536 89.0004H129.427V62.0004H131.536V89.0004ZM144.632 89.352C143.015 89.352 141.55 88.9535 140.237 88.1566C138.936 87.3598 137.923 86.2524 137.196 84.8344C136.47 83.4047 136.106 81.8051 136.106 80.0356V79.2797C136.106 77.4516 136.458 75.8051 137.161 74.3402C137.876 72.8754 138.866 71.727 140.132 70.8949C141.397 70.0512 142.768 69.6293 144.245 69.6293C146.554 69.6293 148.382 70.4203 149.729 72.0024C151.089 73.5727 151.768 75.7231 151.768 78.4535V79.6313H138.198V80.0356C138.198 82.1918 138.813 83.9906 140.044 85.432C141.286 86.8617 142.845 87.5766 144.72 87.5766C145.845 87.5766 146.835 87.3715 147.69 86.9613C148.558 86.5512 149.343 85.8949 150.046 84.9926L151.364 85.9945C149.817 88.2328 147.573 89.352 144.632 89.352ZM144.245 71.4223C142.663 71.4223 141.327 72.0024 140.237 73.1625C139.159 74.3227 138.503 75.8813 138.268 77.8383H149.677V77.6098C149.618 75.7816 149.097 74.2934 148.112 73.1449C147.128 71.9965 145.839 71.4223 144.245 71.4223ZM166.13 89.0004V71.7035H162.983V69.9809H166.13V67.6781C166.13 65.7328 166.622 64.2387 167.606 63.1957C168.602 62.1527 169.985 61.6313 171.755 61.6313C172.552 61.6313 173.296 61.7309 173.987 61.9301L173.829 63.6879C173.243 63.5473 172.604 63.477 171.913 63.477C170.753 63.477 169.851 63.8402 169.206 64.5668C168.561 65.2816 168.239 66.3012 168.239 67.6254V69.9809H172.774V71.7035H168.239V89.0004H166.13ZM175.376 79.2094C175.376 77.3813 175.727 75.7348 176.431 74.2699C177.145 72.8051 178.147 71.6684 179.436 70.8598C180.737 70.0395 182.208 69.6293 183.849 69.6293C186.38 69.6293 188.431 70.5199 190.001 72.3012C191.571 74.0707 192.356 76.4203 192.356 79.35V79.7895C192.356 81.6293 191.999 83.2875 191.284 84.7641C190.581 86.2289 189.585 87.3598 188.296 88.1566C187.007 88.9535 185.536 89.352 183.884 89.352C181.364 89.352 179.313 88.4673 177.731 86.6978C176.161 84.9165 175.376 82.5609 175.376 79.6313V79.2094ZM177.485 79.7895C177.485 82.0629 178.071 83.932 179.243 85.3969C180.427 86.85 181.974 87.5766 183.884 87.5766C185.782 87.5766 187.317 86.85 188.489 85.3969C189.673 83.932 190.265 82.0043 190.265 79.6137V79.2094C190.265 77.7563 189.995 76.4262 189.456 75.2192C188.917 74.0121 188.161 73.0805 187.188 72.4242C186.216 71.7563 185.102 71.4223 183.849 71.4223C181.974 71.4223 180.444 72.1606 179.261 73.6371C178.077 75.102 177.485 77.0238 177.485 79.4027V79.7895ZM205.505 71.7738C205.059 71.6918 204.585 71.6508 204.081 71.6508C202.768 71.6508 201.655 72.0199 200.741 72.7582C199.839 73.4848 199.194 74.5453 198.808 75.9399V89.0004H196.716V69.9809H198.772L198.808 73.0043C199.921 70.7543 201.708 69.6293 204.169 69.6293C204.755 69.6293 205.218 69.7055 205.558 69.8578L205.505 71.7738ZM237.058 89.0004H234.878V76.7309H220.253V89.0004H218.091V63.4066H220.253V74.9027H234.878V63.4066H237.058V89.0004ZM250.452 89.352C248.835 89.352 247.37 88.9535 246.058 88.1566C244.757 87.3598 243.743 86.2524 243.017 84.8344C242.29 83.4047 241.927 81.8051 241.927 80.0356V79.2797C241.927 77.4516 242.278 75.8051 242.981 74.3402C243.696 72.8754 244.686 71.727 245.952 70.8949C247.218 70.0512 248.589 69.6293 250.065 69.6293C252.374 69.6293 254.202 70.4203 255.55 72.0024C256.909 73.5727 257.589 75.7231 257.589 78.4535V79.6313H244.018V80.0356C244.018 82.1918 244.634 83.9906 245.864 85.432C247.106 86.8617 248.665 87.5766 250.54 87.5766C251.665 87.5766 252.655 87.3715 253.511 86.9613C254.378 86.5512 255.163 85.8949 255.866 84.9926L257.185 85.9945C255.638 88.2328 253.393 89.352 250.452 89.352ZM250.065 71.4223C248.483 71.4223 247.147 72.0024 246.058 73.1625C244.979 74.3227 244.323 75.8813 244.089 77.8383H255.497V77.6098C255.438 75.7816 254.917 74.2934 253.933 73.1449C252.948 71.9965 251.659 71.4223 250.065 71.4223ZM273.69 89.0004C273.479 88.4027 273.345 87.518 273.286 86.3461C272.548 87.307 271.604 88.0512 270.456 88.5785C269.319 89.0942 268.112 89.352 266.835 89.352C265.007 89.352 263.524 88.8423 262.388 87.8228C261.263 86.8032 260.7 85.5141 260.7 83.9555C260.7 82.1039 261.468 80.6391 263.003 79.5609C264.55 78.4828 266.7 77.9438 269.454 77.9438H273.268V75.7816C273.268 74.4223 272.847 73.3559 272.003 72.5824C271.171 71.7973 269.952 71.4047 268.347 71.4047C266.882 71.4047 265.669 71.7797 264.708 72.5297C263.747 73.2797 263.267 74.182 263.267 75.2367L261.157 75.2192C261.157 73.7074 261.86 72.4008 263.267 71.2992C264.673 70.1859 266.401 69.6293 268.452 69.6293C270.573 69.6293 272.243 70.1625 273.462 71.2289C274.692 72.2836 275.325 73.7602 275.36 75.6586V84.6586C275.36 86.4984 275.554 87.8754 275.94 88.7895V89.0004H273.69ZM267.081 87.4887C268.487 87.4887 269.741 87.1488 270.843 86.4692C271.956 85.7895 272.765 84.8813 273.268 83.7445V79.5609H269.507C267.409 79.5844 265.768 79.9711 264.585 80.7211C263.401 81.4594 262.809 82.4789 262.809 83.7797C262.809 84.8461 263.202 85.7309 263.987 86.434C264.784 87.1371 265.815 87.4887 267.081 87.4887ZM283.341 89.0004H281.231V62.0004H283.341V89.0004ZM292.341 65.1117V69.9809H296.278V71.7035H292.341V84.3774C292.341 85.432 292.528 86.2172 292.903 86.7328C293.29 87.2484 293.929 87.5063 294.819 87.5063C295.171 87.5063 295.739 87.4477 296.524 87.3305L296.612 89.0531C296.061 89.2524 295.311 89.352 294.362 89.352C292.921 89.352 291.872 88.9359 291.216 88.1039C290.559 87.2602 290.231 86.0238 290.231 84.3949V71.7035H286.733V69.9809H290.231V65.1117H292.341ZM302.729 73.1978C303.421 72.061 304.306 71.182 305.384 70.5609C306.462 69.9399 307.64 69.6293 308.917 69.6293C310.956 69.6293 312.474 70.2035 313.47 71.352C314.466 72.5004 314.97 74.2231 314.981 76.5199V89.0004H312.89V76.5024C312.878 74.8031 312.515 73.5375 311.8 72.7055C311.097 71.8734 309.966 71.4574 308.407 71.4574C307.106 71.4574 305.952 71.8676 304.944 72.6879C303.948 73.4965 303.21 74.5922 302.729 75.975V89.0004H300.638V62.0004H302.729V73.1978Z" fill="white"/>
</svg>
