<svg width="256" height="69" viewBox="0 0 256 69" fill="none" xmlns="http://www.w3.org/2000/svg">
<g filter="url(#filter0_d)">
<rect x="0.367188" y="0.418945" width="246.914" height="59.7756" rx="7" fill="#A8A8A8"/>
<path d="M94.2842 36.4186C93.5056 36.4186 92.8016 36.2853 92.1722 36.0186C91.5536 35.752 91.0629 35.368 90.7002 34.8666C90.3376 34.3653 90.1509 33.7733 90.1402 33.0906H92.5402C92.5722 33.5493 92.7322 33.912 93.0202 34.1786C93.3189 34.4453 93.7242 34.5786 94.2362 34.5786C94.7589 34.5786 95.1696 34.456 95.4682 34.2106C95.7669 33.9546 95.9162 33.624 95.9162 33.2186C95.9162 32.888 95.8149 32.616 95.6122 32.4026C95.4096 32.1893 95.1536 32.024 94.8442 31.9066C94.5456 31.7786 94.1296 31.64 93.5962 31.4906C92.8709 31.2773 92.2789 31.0693 91.8202 30.8666C91.3722 30.6533 90.9829 30.3386 90.6522 29.9226C90.3322 29.496 90.1722 28.9306 90.1722 28.2266C90.1722 27.5653 90.3376 26.9893 90.6682 26.4986C90.9989 26.008 91.4629 25.6346 92.0602 25.3786C92.6576 25.112 93.3402 24.9786 94.1082 24.9786C95.2602 24.9786 96.1936 25.2613 96.9082 25.8266C97.6336 26.3813 98.0336 27.16 98.1082 28.1626H95.6442C95.6229 27.7786 95.4576 27.464 95.1482 27.2186C94.8496 26.9626 94.4496 26.8346 93.9482 26.8346C93.5109 26.8346 93.1589 26.9466 92.8922 27.1706C92.6362 27.3946 92.5082 27.72 92.5082 28.1466C92.5082 28.4453 92.6042 28.696 92.7962 28.8986C92.9989 29.0906 93.2442 29.2506 93.5322 29.3786C93.8309 29.496 94.2469 29.6346 94.7802 29.7946C95.5056 30.008 96.0976 30.2213 96.5562 30.4346C97.0149 30.648 97.4096 30.968 97.7402 31.3946C98.0709 31.8213 98.2362 32.3813 98.2362 33.0746C98.2362 33.672 98.0816 34.2266 97.7722 34.7386C97.4629 35.2506 97.0096 35.6613 96.4122 35.9706C95.8149 36.2693 95.1056 36.4186 94.2842 36.4186ZM99.6022 31.8426C99.6022 30.9466 99.7782 30.152 100.13 29.4586C100.493 28.7653 100.978 28.232 101.586 27.8586C102.205 27.4853 102.893 27.2986 103.65 27.2986C104.312 27.2986 104.888 27.432 105.378 27.6986C105.88 27.9653 106.28 28.3013 106.578 28.7066V27.4426H108.834V36.3066H106.578V35.0106C106.29 35.4266 105.89 35.7733 105.378 36.0506C104.877 36.3173 104.296 36.4506 103.634 36.4506C102.888 36.4506 102.205 36.2586 101.586 35.8746C100.978 35.4906 100.493 34.952 100.13 34.2586C99.7782 33.5546 99.6022 32.7493 99.6022 31.8426ZM106.578 31.8746C106.578 31.3306 106.472 30.8666 106.258 30.4826C106.045 30.088 105.757 29.7893 105.394 29.5866C105.032 29.3733 104.642 29.2666 104.226 29.2666C103.81 29.2666 103.426 29.368 103.074 29.5706C102.722 29.7733 102.434 30.072 102.21 30.4666C101.997 30.8506 101.89 31.3093 101.89 31.8426C101.89 32.376 101.997 32.8453 102.21 33.2506C102.434 33.6453 102.722 33.9493 103.074 34.1626C103.437 34.376 103.821 34.4826 104.226 34.4826C104.642 34.4826 105.032 34.3813 105.394 34.1786C105.757 33.9653 106.045 33.6666 106.258 33.2826C106.472 32.888 106.578 32.4186 106.578 31.8746ZM114.718 34.2426L116.958 27.4426H119.342L116.062 36.3066H113.342L110.078 27.4426H112.478L114.718 34.2426ZM121.736 26.3866C121.341 26.3866 121.011 26.264 120.744 26.0186C120.488 25.7626 120.36 25.448 120.36 25.0746C120.36 24.7013 120.488 24.392 120.744 24.1466C121.011 23.8906 121.341 23.7626 121.736 23.7626C122.131 23.7626 122.456 23.8906 122.712 24.1466C122.979 24.392 123.112 24.7013 123.112 25.0746C123.112 25.448 122.979 25.7626 122.712 26.0186C122.456 26.264 122.131 26.3866 121.736 26.3866ZM122.84 27.4426V36.3066H120.6V27.4426H122.84ZM129.965 27.3146C131.021 27.3146 131.875 27.6506 132.525 28.3226C133.176 28.984 133.501 29.912 133.501 31.1066V36.3066H131.261V31.4106C131.261 30.7066 131.085 30.168 130.733 29.7946C130.381 29.4106 129.901 29.2186 129.293 29.2186C128.675 29.2186 128.184 29.4106 127.821 29.7946C127.469 30.168 127.293 30.7066 127.293 31.4106V36.3066H125.053V27.4426H127.293V28.5466C127.592 28.1626 127.971 27.864 128.429 27.6506C128.899 27.4266 129.411 27.3146 129.965 27.3146ZM139.103 27.2986C139.765 27.2986 140.346 27.432 140.847 27.6986C141.349 27.9546 141.743 28.2906 142.031 28.7066V27.4426H144.287V36.3706C144.287 37.192 144.122 37.9226 143.791 38.5626C143.461 39.2133 142.965 39.7253 142.303 40.0986C141.642 40.4826 140.842 40.6746 139.903 40.6746C138.645 40.6746 137.61 40.3813 136.799 39.7946C135.999 39.208 135.546 38.408 135.439 37.3946H137.663C137.781 37.8 138.031 38.12 138.415 38.3546C138.81 38.6 139.285 38.7226 139.839 38.7226C140.49 38.7226 141.018 38.5253 141.423 38.1306C141.829 37.7466 142.031 37.16 142.031 36.3706V34.9946C141.743 35.4106 141.343 35.7573 140.831 36.0346C140.33 36.312 139.754 36.4506 139.103 36.4506C138.357 36.4506 137.674 36.2586 137.055 35.8746C136.437 35.4906 135.946 34.952 135.583 34.2586C135.231 33.5546 135.055 32.7493 135.055 31.8426C135.055 30.9466 135.231 30.152 135.583 29.4586C135.946 28.7653 136.431 28.232 137.039 27.8586C137.658 27.4853 138.346 27.2986 139.103 27.2986ZM142.031 31.8746C142.031 31.3306 141.925 30.8666 141.711 30.4826C141.498 30.088 141.21 29.7893 140.847 29.5866C140.485 29.3733 140.095 29.2666 139.679 29.2666C139.263 29.2666 138.879 29.368 138.527 29.5706C138.175 29.7733 137.887 30.072 137.663 30.4666C137.45 30.8506 137.343 31.3093 137.343 31.8426C137.343 32.376 137.45 32.8453 137.663 33.2506C137.887 33.6453 138.175 33.9493 138.527 34.1626C138.89 34.376 139.274 34.4826 139.679 34.4826C140.095 34.4826 140.485 34.3813 140.847 34.1786C141.21 33.9653 141.498 33.6666 141.711 33.2826C141.925 32.888 142.031 32.4186 142.031 31.8746ZM147.467 36.4186C147.062 36.4186 146.726 36.296 146.459 36.0506C146.203 35.7946 146.075 35.48 146.075 35.1066C146.075 34.7333 146.203 34.424 146.459 34.1786C146.726 33.9226 147.062 33.7946 147.467 33.7946C147.862 33.7946 148.187 33.9226 148.443 34.1786C148.699 34.424 148.827 34.7333 148.827 35.1066C148.827 35.48 148.699 35.7946 148.443 36.0506C148.187 36.296 147.862 36.4186 147.467 36.4186ZM151.623 36.4186C151.218 36.4186 150.882 36.296 150.615 36.0506C150.359 35.7946 150.231 35.48 150.231 35.1066C150.231 34.7333 150.359 34.424 150.615 34.1786C150.882 33.9226 151.218 33.7946 151.623 33.7946C152.018 33.7946 152.343 33.9226 152.599 34.1786C152.855 34.424 152.983 34.7333 152.983 35.1066C152.983 35.48 152.855 35.7946 152.599 36.0506C152.343 36.296 152.018 36.4186 151.623 36.4186ZM155.78 36.4186C155.374 36.4186 155.038 36.296 154.772 36.0506C154.516 35.7946 154.388 35.48 154.388 35.1066C154.388 34.7333 154.516 34.424 154.772 34.1786C155.038 33.9226 155.374 33.7946 155.78 33.7946C156.174 33.7946 156.5 33.9226 156.756 34.1786C157.012 34.424 157.14 34.7333 157.14 35.1066C157.14 35.48 157.012 35.7946 156.756 36.0506C156.5 36.296 156.174 36.4186 155.78 36.4186Z" fill="white"/>
</g>
<defs>
<filter id="filter0_d" x="0.367188" y="0.418945" width="254.914" height="67.7756" filterUnits="userSpaceOnUse" color-interpolation-filters="sRGB">
<feFlood flood-opacity="0" result="BackgroundImageFix"/>
<feColorMatrix in="SourceAlpha" type="matrix" values="0 0 0 0 0 0 0 0 0 0 0 0 0 0 0 0 0 0 127 0"/>
<feOffset dx="4" dy="4"/>
<feGaussianBlur stdDeviation="2"/>
<feColorMatrix type="matrix" values="0 0 0 0 0 0 0 0 0 0 0 0 0 0 0 0 0 0 0.25 0"/>
<feBlend mode="normal" in2="BackgroundImageFix" result="effect1_dropShadow"/>
<feBlend mode="normal" in="SourceGraphic" in2="effect1_dropShadow" result="shape"/>
</filter>
</defs>
</svg>
