<svg width="225" height="254" viewBox="0 0 225 254" fill="none" xmlns="http://www.w3.org/2000/svg">
<path opacity="0.1" d="M115.576 171.435C166.713 171.435 208.168 133.102 208.168 85.8153C208.168 38.5291 166.713 0.196045 115.576 0.196045C64.4392 0.196045 22.9844 38.5291 22.9844 85.8153C22.9844 133.102 64.4392 171.435 115.576 171.435Z" fill="#FF6400"/>
<path opacity="0.1" d="M44.324 135.095C63.1792 135.095 78.4643 132.64 78.4643 129.612C78.4643 126.584 63.1792 124.129 44.324 124.129C25.4688 124.129 10.1836 126.584 10.1836 129.612C10.1836 132.64 25.4688 135.095 44.324 135.095Z" fill="#FF6400"/>
<path opacity="0.1" d="M60.7322 161.215C68.066 161.215 74.0112 159.943 74.0112 158.373C74.0112 156.803 68.066 155.531 60.7322 155.531C53.3983 155.531 47.4531 156.803 47.4531 158.373C47.4531 159.943 53.3983 161.215 60.7322 161.215Z" fill="#FF6400"/>
<path opacity="0.1" d="M151.47 150.281C158.804 150.281 164.749 149.008 164.749 147.438C164.749 145.869 158.804 144.596 151.47 144.596C144.137 144.596 138.191 145.869 138.191 147.438C138.191 149.008 144.137 150.281 151.47 150.281Z" fill="#FF6400"/>
<path opacity="0.1" d="M106.406 147.895C118.332 147.895 128 146.198 128 144.105C128 142.011 118.332 140.314 106.406 140.314C94.4804 140.314 84.8125 142.011 84.8125 144.105C84.8125 146.198 94.4804 147.895 106.406 147.895Z" fill="#FF6400"/>
<path opacity="0.1" d="M170.036 132.652C194.91 132.652 215.075 129.379 215.075 125.343C215.075 121.306 194.91 118.034 170.036 118.034C145.161 118.034 124.996 121.306 124.996 125.343C124.996 129.379 145.161 132.652 170.036 132.652Z" fill="#FF6400"/>
<path d="M19.5153 112.586C18.5036 114.625 18.0311 116.905 18.1458 119.195C18.2605 121.485 18.9583 123.703 20.1683 125.622C20.5653 126.239 20.9305 126.684 21.2223 126.801C22.6217 127.37 25.4244 128.771 25.4244 128.771L32.173 126.023C32.173 126.023 33.2687 120.018 34.3048 114.862C35.0115 111.346 35.6943 108.226 35.9741 107.679C36.6728 106.332 35.9741 91.6663 35.9741 91.6663C35.9741 91.6663 29.2255 91.1974 27.3696 96.5877L26.5577 98.2329L19.5153 112.586Z" fill="#A8A8A8"/>
<path opacity="0.1" d="M28.4744 114.206C32.5772 119.078 34.308 114.864 34.308 114.864C35.0147 111.348 35.6975 108.228 35.9773 107.681C36.676 106.334 35.9773 91.6683 35.9773 91.6683C35.9773 91.6683 29.2287 91.1994 27.3728 96.5896L26.561 98.2349C26.0409 102.548 25.5268 110.7 28.4744 114.206Z" fill="white"/>
<path d="M29.3789 127.786L53.1978 124.935L57.4475 95.9623L54.2339 88.4373C52.8762 85.2326 50.9962 82.294 48.6762 79.7503C47.0585 77.9837 45.1033 76.285 43.047 75.4315C42.766 75.3141 42.479 75.2125 42.1875 75.1271C41.8523 75.0216 41.4979 74.9996 41.153 75.0629C40.8081 75.1261 40.4824 75.2729 40.2026 75.4911C37.2649 77.6485 36.2149 86.8208 35.8755 91.2362C35.7359 93.0507 35.4993 94.8557 35.1669 96.643L29.3789 127.786Z" fill="#A8A8A8"/>
<path opacity="0.1" d="M45.237 95.65L40.2748 108.298C42.875 106.328 46.7277 95.5986 46.7277 95.5986L50.1794 107.831L47.4284 94.9384C47.8311 92.1387 47.9482 89.3028 47.7777 86.4777C47.5594 83.2406 44.6277 78.0457 43.0358 75.4298C42.7548 75.3124 42.4679 75.2108 42.1763 75.1254C41.8412 75.0199 41.4867 74.9979 41.1418 75.0612C40.7969 75.1244 40.4713 75.2712 40.1914 75.4894C41.4419 78.091 44.5681 84.5959 45.5209 86.5291C46.7297 88.9641 45.237 95.65 45.237 95.65Z" fill="#04DD32"/>
<path d="M49.2852 128.771H62.2089C62.7405 128.771 63.2666 128.659 63.7551 128.442C64.2437 128.225 64.6846 127.907 65.0509 127.508C65.4172 127.109 65.7013 126.637 65.886 126.12C66.0707 125.604 66.152 125.054 66.1251 124.504C65.8393 118.762 65.1148 108.524 63.3919 102.025C62.461 98.5188 61.3792 96.6782 60.3867 95.7712C59.9213 95.3059 59.3205 95.013 58.6777 94.9383C58.1902 94.8947 57.7022 95.0175 57.2883 95.2879C54.8885 97.6715 52.0859 110.215 52.0859 110.215L49.2852 128.771Z" fill="#A8A8A8"/>
<path opacity="0.1" d="M61.2167 117.647C61.7487 119.175 61.9591 120.938 61.2167 122.655L58.3366 124.129C58.3366 124.129 50.5955 120.73 51.5363 113.762C51.5363 113.762 51.7904 112.323 54.4561 112.434C55.9553 112.509 57.399 113.045 58.603 113.973C59.8071 114.902 60.717 116.181 61.2167 117.647V117.647Z" fill="white"/>
<path opacity="0.1" d="M58.1424 99.3311C58.0531 96.8879 59.3334 96.0406 60.3913 95.7711C59.9259 95.3058 59.3251 95.0129 58.6823 94.9382C57.9459 95.5767 57.424 96.4408 57.1917 97.4061L54.4922 111.039C54.4922 111.039 58.2933 103.426 58.1424 99.3311Z" fill="white"/>
<path d="M45.8861 110.112L52.2854 119.181L53.395 126.667L49.2822 128.771L43.3533 130.128C42.7823 130.26 42.1952 130.299 41.6126 130.246L25.4336 128.771L27.6349 123.484L35.237 112.425L45.8861 110.112Z" fill="#A8A8A8"/>
<path opacity="0.1" d="M43.4109 106.998C43.4109 106.998 47.7777 107.309 46.1382 115.082C44.4986 122.856 27.6289 123.479 27.6289 123.479C27.6289 123.479 31.2136 116.898 36.7277 112.183C37.347 111.654 37.9445 111.103 38.5141 110.515C39.7825 109.201 42.208 106.891 43.4109 106.998Z" fill="white"/>
<path opacity="0.1" d="M47.3398 112.859C47.3398 112.859 53.2568 118.439 52.6991 127.025Z" fill="black"/>
<path opacity="0.1" d="M57.2922 95.2881C57.2922 95.2881 51.0834 103.843 50.3867 117.008Z" fill="black"/>
<path opacity="0.1" d="M35.9822 91.6621C35.9822 91.6621 38.9873 105.801 31.4844 116.458Z" fill="black"/>
<path d="M90.7186 144.027H123.1C123.413 144.025 123.721 143.939 123.992 143.778C124.264 143.617 124.491 143.386 124.65 143.107C124.81 142.828 124.898 142.511 124.904 142.187C124.911 141.863 124.837 141.542 124.688 141.256L108.505 110.103C108.35 109.805 108.12 109.555 107.839 109.381C107.558 109.207 107.237 109.115 106.909 109.115C106.582 109.115 106.261 109.207 105.98 109.381C105.699 109.555 105.469 109.805 105.314 110.103L89.1228 141.256C88.9741 141.543 88.8997 141.864 88.9067 142.189C88.9137 142.514 89.0019 142.831 89.1626 143.11C89.3234 143.389 89.5513 143.62 89.824 143.781C90.0967 143.942 90.4049 144.026 90.7186 144.027V144.027ZM108.97 138.334H104.849V134.067H108.97V138.334ZM108.97 131.22H104.849V122.683H108.97V131.22Z" fill="#464353"/>
<path opacity="0.1" d="M90.7186 144.027H123.1C123.413 144.025 123.721 143.939 123.992 143.778C124.264 143.617 124.491 143.386 124.65 143.107C124.81 142.828 124.898 142.511 124.904 142.187C124.911 141.863 124.837 141.542 124.688 141.256L108.505 110.103C108.35 109.805 108.12 109.555 107.839 109.381C107.558 109.207 107.237 109.115 106.909 109.115C106.582 109.115 106.261 109.207 105.98 109.381C105.699 109.555 105.469 109.805 105.314 110.103L89.1228 141.256C88.9741 141.543 88.8997 141.864 88.9067 142.189C88.9137 142.514 89.0019 142.831 89.1626 143.11C89.3234 143.389 89.5513 143.62 89.824 143.781C90.0967 143.942 90.4049 144.026 90.7186 144.027V144.027ZM108.97 138.334H104.849V134.067H108.97V138.334ZM108.97 131.22H104.849V122.683H108.97V131.22Z" fill="black"/>
<path d="M90.7186 145.055H123.1C123.413 145.053 123.721 144.968 123.992 144.806C124.264 144.645 124.491 144.414 124.65 144.135C124.81 143.856 124.898 143.539 124.904 143.215C124.911 142.891 124.837 142.57 124.688 142.285L108.505 111.132C108.35 110.833 108.12 110.584 107.839 110.41C107.558 110.236 107.237 110.144 106.909 110.144C106.582 110.144 106.261 110.236 105.98 110.41C105.699 110.584 105.469 110.833 105.314 111.132L89.1228 142.285C88.9741 142.571 88.8997 142.892 88.9067 143.217C88.9137 143.542 89.0019 143.86 89.1626 144.139C89.3234 144.418 89.5513 144.649 89.824 144.809C90.0967 144.97 90.4049 145.055 90.7186 145.055V145.055ZM108.97 139.362H104.849V135.095H108.97V139.362ZM108.97 132.249H104.849V123.712H108.97V132.249Z" fill="#464353"/>
<path d="M56.5928 48.8794C56.571 49.3092 56.7774 49.702 56.8985 50.1134C57.0988 50.9078 57.0788 51.7446 56.8409 52.5278C56.6186 53.3504 56.2454 54.2203 56.5293 55.0245C56.5948 55.2137 56.694 55.3864 56.7536 55.5756C56.9997 56.3571 56.5432 57.1798 56.043 57.8193L58.006 59.2446C58.2927 59.4907 58.6336 59.6596 58.9985 59.7361C59.3657 59.7813 59.7925 59.5777 59.8679 59.2034C59.8937 59.0759 59.8679 58.9422 59.8917 58.8127C59.9159 58.6451 59.9784 58.486 60.074 58.3486C60.1697 58.2112 60.2957 58.0996 60.4415 58.0229C60.7364 57.8731 61.0652 57.8098 61.3923 57.8399C62.5971 57.9078 63.6213 58.7284 64.717 59.2548C65.4394 59.5789 66.1879 59.8363 66.954 60.024C67.3887 60.1412 67.871 60.2482 68.264 60.024C68.657 59.7998 68.8377 59.2795 68.8079 58.8086C68.7469 58.3402 68.6057 57.8868 68.3911 57.4697C68.1744 57.0532 68.044 56.5944 68.008 56.1227C68.008 55.4317 68.3732 54.8024 68.4963 54.1237C68.669 53.1591 68.3176 52.1782 67.8889 51.3021C67.4602 50.426 66.9401 49.5828 66.7317 48.6285C66.6903 48.3393 66.6177 48.0557 66.5153 47.7833C66.416 47.5763 66.2815 47.3896 66.1184 47.2321C65.382 46.4773 64.3319 46.1195 63.3038 46.0413C62.2756 45.9632 61.2375 46.138 60.2172 46.321C59.828 46.3786 59.4446 46.4729 59.0719 46.6028C58.5394 46.8221 58.0337 47.1058 57.5654 47.448C57.1009 47.7812 56.6226 48.2686 56.5928 48.8794Z" fill="#464353"/>
<g opacity="0.1">
<path opacity="0.1" d="M67.9962 55.7009C67.9962 55.7626 67.9962 55.8243 68.0081 55.8839C68.0697 55.2814 68.3753 54.7158 68.4845 54.1132C68.5267 53.8718 68.5393 53.6258 68.5222 53.3811C68.5222 53.488 68.5024 53.5868 68.4845 53.7019C68.3595 54.3806 67.9883 55.0099 67.9962 55.7009Z" fill="black"/>
<path opacity="0.1" d="M57.0262 50.9357C57.0496 50.5196 57.0046 50.1023 56.8932 49.7018C56.7757 49.3897 56.6796 49.0695 56.6054 48.7434C56.6054 48.7866 56.5895 48.8277 56.5875 48.8709C56.5657 49.3007 56.7721 49.6935 56.8932 50.1049C56.9699 50.3752 57.0146 50.6542 57.0262 50.9357V50.9357Z" fill="black"/>
<path opacity="0.1" d="M68.7843 58.6953C68.7704 58.8791 68.715 59.0569 68.6226 59.2145C68.5302 59.372 68.4034 59.5048 68.2523 59.6023C67.8553 59.8264 67.377 59.7195 66.9423 59.6023C66.1759 59.4148 65.4272 59.1567 64.7053 58.831C63.6096 58.3066 62.5854 57.4861 61.3806 57.4182C61.0535 57.3881 60.7246 57.4514 60.4298 57.6012C60.284 57.6778 60.158 57.7895 60.0623 57.9269C59.9666 58.0643 59.9041 58.2234 59.88 58.3909C59.8661 58.5205 59.88 58.6542 59.8562 58.7817C59.7787 59.156 59.354 59.3596 58.9868 59.3143C58.6219 59.2378 58.2809 59.069 57.9943 58.8228L56.2297 57.5395C56.1642 57.6321 56.0987 57.7226 56.0312 57.8069L57.9943 59.2341C58.2809 59.4803 58.6219 59.6491 58.9868 59.7257C59.354 59.7709 59.7807 59.5673 59.8562 59.193C59.882 59.0655 59.8562 58.9318 59.88 58.8023C59.9041 58.6347 59.9666 58.4756 60.0623 58.3382C60.158 58.2008 60.284 58.0891 60.4298 58.0125C60.7246 57.8627 61.0535 57.7994 61.3806 57.8295C62.5854 57.8974 63.6096 58.7179 64.7053 59.2424C65.4272 59.568 66.1759 59.8261 66.9423 60.0136C67.377 60.1308 67.8593 60.2377 68.2523 60.0136C68.6453 59.7894 68.8259 59.2691 68.7962 58.7981C68.7942 58.7632 68.7882 58.7303 68.7843 58.6953Z" fill="black"/>
<path opacity="0.1" d="M56.7482 55.5652C56.7726 55.6479 56.7906 55.7325 56.8018 55.8181C56.8325 55.5954 56.8142 55.3683 56.7482 55.1539C56.6886 54.9647 56.5894 54.7919 56.5239 54.6027C56.4761 54.4654 56.4454 54.3223 56.4326 54.177C56.4032 54.4596 56.4344 54.7454 56.5239 55.014C56.5894 55.2032 56.6886 55.378 56.7482 55.5652Z" fill="black"/>
</g>
<path d="M59.0826 133.602C59.069 133.66 59.0368 133.712 58.9913 133.75C58.943 133.776 58.8888 133.788 58.8345 133.785C58.1279 133.801 57.4212 133.785 56.7166 133.836C56.0497 133.896 55.3807 134.042 54.7158 133.964C54.5031 133.972 54.2933 133.911 54.1155 133.789C53.9376 133.668 53.8006 133.493 53.7233 133.287C53.6814 133.197 53.6443 133.105 53.6122 133.012C53.429 132.527 53.3367 132.01 53.3403 131.49C53.3403 131.352 53.3403 131.218 53.3403 131.078C53.3316 130.928 53.3123 130.778 53.2827 130.63C53.2225 130.461 53.2296 130.274 53.3025 130.11C53.5844 129.577 54.2652 129.47 54.7892 129.429C56.0032 129.334 57.2241 129.427 58.4117 129.705C58.505 130.178 58.6102 130.646 58.7213 131.115C58.8034 131.46 58.8907 131.802 58.9833 132.144C59.0455 132.355 59.0959 132.57 59.1342 132.787C59.1833 133.059 59.1655 133.339 59.0826 133.602Z" fill="#464353"/>
<path opacity="0.06" d="M59.0837 133.602C59.0701 133.66 59.0379 133.713 58.9924 133.75C58.9441 133.776 58.8899 133.788 58.8356 133.785C58.129 133.801 57.4223 133.785 56.7177 133.836C56.0508 133.896 55.3818 134.042 54.7169 133.964C54.5042 133.972 54.2944 133.911 54.1166 133.789C53.9387 133.668 53.8017 133.493 53.7244 133.287C53.6825 133.198 53.6454 133.106 53.6133 133.012H53.8673C54.703 133.012 55.5406 132.981 56.3763 132.981C56.6284 132.981 56.8824 132.968 57.1325 132.938C57.3826 132.907 57.5871 132.864 57.8153 132.835C58.157 132.801 58.5003 132.786 58.8435 132.792H59.1254C59.177 133.061 59.1627 133.34 59.0837 133.602Z" fill="black"/>
<path d="M73.7041 129.783C73.4828 130.05 73.2003 130.256 72.8823 130.381C71.4691 130.998 69.8355 130.72 68.3766 130.219C68.0502 130.093 67.7151 129.993 67.3742 129.92C67.0631 129.875 66.7494 129.853 66.4353 129.853C66.211 129.853 65.9867 129.834 65.7625 129.82C65.1948 129.783 64.6291 129.725 64.0654 129.667C63.6724 129.638 63.2822 129.576 62.8982 129.484C62.7891 129.455 62.6842 129.411 62.5866 129.353V129.353C62.5033 129.315 62.4322 129.253 62.3816 129.175C62.3309 129.097 62.3029 129.005 62.3008 128.911C62.3167 128.649 62.5787 128.499 62.8089 128.386C64.8514 127.471 67.0705 127.074 69.2738 126.755C69.4979 126.717 69.7161 126.647 69.9228 126.55C70.1709 126.447 70.1967 126.616 70.3198 126.805C70.3779 126.892 70.4444 126.974 70.5183 127.047C70.7576 127.271 71.0386 127.442 71.344 127.549C71.8799 127.755 72.4536 127.81 72.9895 128.006C73.1516 128.064 73.3068 128.141 73.452 128.236C73.5801 128.308 73.6906 128.41 73.775 128.534C73.8594 128.657 73.9154 128.799 73.9388 128.948C73.9621 129.097 73.9522 129.25 73.9098 129.395C73.8674 129.539 73.7937 129.672 73.6941 129.783H73.7041Z" fill="#464353"/>
<path opacity="0.06" d="M73.6994 129.783C73.4782 130.051 73.1956 130.256 72.8777 130.381C71.4644 130.998 69.8308 130.721 68.3719 130.219C68.0456 130.093 67.7105 129.994 67.3696 129.921C67.0585 129.875 66.7448 129.853 66.4307 129.853C66.2064 129.853 65.9821 129.834 65.7578 129.82C65.9404 129.641 66.127 129.466 66.3176 129.298C66.4557 129.164 66.6147 129.055 66.788 128.977C67.0037 128.903 67.2336 128.887 67.4569 128.929C68.5923 129.092 69.6125 129.917 70.7578 129.845C71.2914 129.781 71.8075 129.608 72.2762 129.337C72.6574 129.176 72.9972 128.925 73.2687 128.604C73.3506 128.494 73.4131 128.369 73.4533 128.236C73.5814 128.309 73.6919 128.41 73.7763 128.534C73.8607 128.657 73.9167 128.799 73.9401 128.948C73.9634 129.097 73.9535 129.25 73.9111 129.395C73.8687 129.54 73.795 129.672 73.6954 129.783H73.6994Z" fill="black"/>
<path d="M73.3025 94.0417C73.104 94.453 72.8499 94.8993 72.4212 95.0268C71.7979 95.2119 71.1985 94.6319 70.9265 94.0232C70.5559 93.1297 70.486 92.133 70.7281 91.1933C70.8412 90.7183 71.0139 90.2617 71.1111 89.7846C71.1813 89.3831 71.2238 88.9769 71.2382 88.5692C71.2968 87.9609 71.2828 87.3476 71.1965 86.7429C70.8769 84.9763 69.4101 83.6581 68.9218 81.9223C68.6757 81.0565 68.6876 80.1352 68.7015 79.2323C68.6969 79.0041 68.7195 78.7761 68.769 78.5537C68.7837 78.493 68.8037 78.4338 68.8285 78.3768C69.156 77.6241 70.1266 77.5213 70.8015 77.0832C71.1747 76.8426 72.0222 76.0673 72.3358 76.7747C72.4035 76.9323 72.4541 77.0971 72.4867 77.2662C72.6157 77.8955 72.5641 78.6339 72.5958 79.2282C72.7169 81.474 73.2568 83.7156 73.0067 85.9491C72.9471 86.3298 72.9179 86.715 72.9194 87.1008C72.973 88.0673 73.5565 88.9044 73.8245 89.8298C74.2374 91.2221 73.9059 92.7378 73.3025 94.0417Z" fill="#FBBEBE"/>
<path opacity="0.1" d="M72.4951 77.2701C72.3476 77.2146 72.186 77.2146 72.0385 77.2701L70.6948 77.6814C70.2239 77.8115 69.7649 77.9843 69.3232 78.1976C69.1304 78.2957 68.9475 78.4135 68.7773 78.5493C68.7921 78.4886 68.812 78.4294 68.8369 78.3724C69.1644 77.6197 70.135 77.5169 70.8099 77.0788C71.183 76.8382 72.0306 76.0629 72.3442 76.7703C72.4125 76.9305 72.4631 77.0982 72.4951 77.2701V77.2701Z" fill="black"/>
<path d="M72.5859 77.114C72.5049 77.0631 72.4136 77.0324 72.3192 77.0246C72.2247 77.0167 72.1298 77.0319 72.042 77.0688L70.6983 77.4801C70.2274 77.6102 69.7684 77.7829 69.3267 77.9963C69.0923 78.1145 68.8729 78.2623 68.6737 78.4364C68.0464 77.3073 67.8797 75.9685 67.7646 74.6729C67.7011 73.9181 67.6534 73.1613 67.6256 72.4106C67.5945 71.8704 67.6051 71.3285 67.6574 70.7901C67.7328 70.1731 67.9055 69.5705 68.0127 68.9577C68.0765 68.5989 68.1177 68.2361 68.1358 67.8718C68.1872 67.0757 68.152 66.2761 68.0306 65.4882C67.9152 64.6508 67.7306 63.8251 67.4788 63.0203C67.3517 62.6522 67.1989 62.2964 67.06 61.9345L67.0123 61.807C66.7614 61.1436 66.5564 60.4625 66.399 59.7689C66.3355 59.4851 66.3315 59.1869 66.1211 58.9936C66.3186 58.9689 66.5178 58.9607 66.7166 58.9689C66.7563 58.9689 66.796 58.9689 66.8357 58.9689C67.6511 59.022 68.4367 59.3066 69.1064 59.7915C69.9689 60.4363 70.6245 61.3348 70.9881 62.3705C71.4069 63.5283 71.4764 64.7869 71.5299 66.0229C71.6371 68.4524 71.7033 70.8833 71.7284 73.3155C71.7284 73.7824 71.7483 74.2801 72.0063 74.6646C72.0787 74.7594 72.145 74.859 72.2048 74.9629C72.2981 75.1685 72.2842 75.3968 72.3596 75.6045C72.415 75.7292 72.478 75.8501 72.5482 75.9665C72.6371 76.1426 72.6866 76.3372 72.6931 76.5358C72.6996 76.7344 72.663 76.932 72.5859 77.114Z" fill="#464353"/>
<path d="M59.3728 52.974C59.1743 52.9061 58.9758 52.8341 58.7773 52.7683L59.1902 52.8012C59.259 52.8491 59.3206 52.9073 59.3728 52.974Z" fill="#FBBEBE"/>
<path d="M67.5056 60.3961C67.4659 60.5359 67.4262 60.6758 67.3825 60.8074C67.2818 61.1453 67.1591 61.4758 67.0153 61.7966C66.7904 62.3236 66.4719 62.8022 66.0765 63.2074C65.9459 63.3499 65.7857 63.4596 65.608 63.5283C65.4578 63.5681 65.3024 63.5834 65.1475 63.5735C64.6182 63.5735 64.0889 63.5653 63.5596 63.5488C63.1475 63.5536 62.7362 63.5115 62.3329 63.4234C61.8891 63.2979 61.4671 63.1008 61.0825 62.8393C59.5997 61.8892 58.381 60.4413 57.859 58.7262C57.7935 58.5082 57.7478 58.247 57.8927 58.0763C58.0353 57.9557 58.2149 57.8923 58.3989 57.8974H58.4227C58.8494 57.8398 59.2606 57.6936 59.6315 57.4675C59.8718 57.3401 60.0655 57.1351 60.1833 56.8835C60.2637 56.5852 60.2575 56.2691 60.1654 55.9745L59.7248 53.9014C59.6789 53.5694 59.5586 53.2532 59.3734 52.978C59.5025 53.0253 59.6315 53.0685 59.7704 53.1055C60.9971 53.449 62.3389 53.2413 63.5417 53.6917C64.0022 53.8665 64.4627 54.1811 64.6017 54.6706C64.8339 55.4932 64.0578 56.3467 64.2801 57.1693C64.429 57.7287 64.9788 58.0516 65.4711 58.3128L65.8026 58.4876L66.7216 58.9709L66.8486 59.0367L66.8685 59.047C67.1582 59.1992 67.4639 59.3884 67.5652 59.7113C67.6083 59.9408 67.5877 60.1783 67.5056 60.3961V60.3961Z" fill="#FBBEBE"/>
<path opacity="0.1" d="M69.9272 65.2246C69.8936 65.7503 69.7699 66.2656 69.562 66.7464C69.1635 67.5781 68.9498 68.4916 68.9367 69.42C68.7839 72.1964 67.7656 75.5013 69.2245 77.8334C69.2603 77.891 69.296 77.9486 69.3297 78.0082C69.0953 78.1264 68.876 78.2742 68.6767 78.4483C68.0495 77.3193 67.8827 75.9804 67.7676 74.6848C67.7041 73.93 67.6565 73.1732 67.6287 72.4226C67.5975 71.8824 67.6081 71.3405 67.6604 70.802C67.7358 70.185 67.9085 69.5825 68.0157 68.9696C68.0796 68.6108 68.1207 68.2481 68.1388 67.8837C68.1903 67.0876 68.155 66.2881 68.0336 65.5002C67.9182 64.6627 67.7336 63.837 67.4818 63.0323C67.3547 62.6641 67.2019 62.3084 67.063 61.9464L67.0153 61.8189C66.7904 62.3459 66.4719 62.8245 66.0765 63.2297C65.9459 63.3722 65.7857 63.4819 65.608 63.5505C65.4577 63.5904 65.3024 63.6056 65.1475 63.5958C64.6182 63.5958 64.0889 63.5875 63.5596 63.5711C63.1475 63.5758 62.7362 63.5338 62.3329 63.4456C61.8891 63.3202 61.4671 63.1231 61.0825 62.8616C59.5997 61.9114 58.381 60.4636 57.859 58.7484C57.7935 58.5304 57.7478 58.2693 57.8927 58.0986C58.0353 57.978 58.2149 57.9145 58.3989 57.9196H58.4227L60.2091 60.2086C60.414 60.4509 60.5875 60.7198 60.7252 61.0086C60.7518 61.1055 60.8074 61.1912 60.884 61.2533C60.9461 61.2827 61.0143 61.2955 61.0825 61.2904C62.7597 61.2904 64.9947 61.2904 66.6719 61.2904C66.6774 60.9824 66.5915 60.6802 66.4258 60.4245C66.3742 60.4369 66.3047 60.441 66.4119 60.4081C66.3149 59.7405 66.1067 59.0954 65.7966 58.5016C65.7781 58.4608 65.7575 58.421 65.7351 58.3824C65.6018 58.1789 65.5025 57.9536 65.4413 57.716C65.6531 57.6461 65.8806 57.6461 66.0924 57.716C66.3365 57.825 66.4635 58.0986 66.5707 58.3515C66.662 58.5572 66.7533 58.7772 66.8347 58.9932C66.8347 59.0158 66.8546 59.0405 66.8625 59.0631C67.0356 59.4886 67.1466 59.9384 67.192 60.3978C67.2039 60.5664 67.2436 60.7803 67.3786 60.8359C67.3998 60.8459 67.4227 60.8515 67.4461 60.8523C67.5858 60.7993 67.7376 60.7906 67.8822 60.8272C68.0267 60.8638 68.1575 60.9441 68.2579 61.058C68.4531 61.2897 68.5896 61.5682 68.6549 61.8682C68.7194 62.1682 68.8138 62.4605 68.9367 62.7402C69.1928 63.2462 68.8017 63.4724 69.2642 63.7829C69.4805 63.9062 69.6666 64.0793 69.8081 64.2888C69.9389 64.5809 69.9805 64.9074 69.9272 65.2246V65.2246Z" fill="black"/>
<path opacity="0.1" d="M58.3922 129.713C58.4854 130.186 58.5906 130.655 58.7018 131.124L58.6899 131.152C57.7828 130.741 56.8539 130.311 55.8634 130.221C54.9444 130.139 53.946 130.396 53.3207 131.087C53.312 130.936 53.2928 130.786 53.2632 130.638C53.203 130.469 53.2101 130.282 53.283 130.118C53.5649 129.585 54.2457 129.478 54.7697 129.437C55.9837 129.343 57.2045 129.435 58.3922 129.713Z" fill="black"/>
<path opacity="0.1" d="M66.2149 60.8013C66.3082 60.8013 66.2745 60.8013 66.2288 60.8177C66.1831 60.8342 66.1077 60.8342 66.2149 60.8013Z" fill="black"/>
<path opacity="0.1" d="M70.5282 127.047C69.643 127.632 68.8112 128.299 68.0431 129.04C67.8201 129.288 67.5541 129.489 67.2591 129.635C66.9544 129.736 66.6325 129.771 66.3143 129.735C65.0656 129.683 63.8209 129.555 62.5866 129.353V129.353C62.5033 129.315 62.4322 129.253 62.3816 129.175C62.3309 129.097 62.3029 129.005 62.3008 128.911C62.3167 128.649 62.5787 128.499 62.8089 128.386C64.8514 127.471 67.0705 127.074 69.2738 126.755C69.4979 126.717 69.7161 126.647 69.9228 126.55C70.1709 126.447 70.1967 126.616 70.3198 126.805C70.3811 126.893 70.4509 126.974 70.5282 127.047V127.047Z" fill="black"/>
<path d="M55.9634 58.4157C56.2552 58.6851 56.5887 58.9031 56.8844 59.1643C57.6784 59.8615 58.1786 60.8363 58.6708 61.7864C58.3789 61.8957 58.0632 61.9178 57.7598 61.8502C57.6037 62.7625 57.63 63.6984 57.8372 64.5998C57.44 64.8821 57.1315 65.279 56.9499 65.7412C56.8088 66.2103 56.7118 66.6924 56.6601 67.1808C56.3743 69.321 56.0872 71.4612 55.7987 73.6014C55.7929 73.8109 55.7234 74.0132 55.6002 74.1793C55.5451 74.2254 55.4946 74.2771 55.4493 74.3336C55.3886 74.4719 55.3646 74.6246 55.3799 74.7757C55.368 74.9259 55.2727 75.1048 55.1278 75.0842C55.0574 75.0668 54.995 75.0246 54.9511 74.9649C54.8062 74.8059 54.6735 74.6354 54.5542 74.4549C53.3831 76.783 52.8193 79.292 52.2001 81.838C51.7574 83.6519 51.3148 85.4864 51.293 87.3579C51.2989 88.2432 51.3526 89.1276 51.4537 90.0067L51.6284 91.8124C51.7693 93.2643 51.9103 94.7183 52.0631 96.1703C52.1623 97.0916 52.2616 98.0212 52.5812 98.8891C53.0575 100.207 52.5295 101.694 52.732 103.089C52.8908 104.181 53.2064 105.31 52.8888 106.363C52.7618 106.784 52.5395 107.169 52.3727 107.576C51.9639 108.588 51.9222 109.713 51.8864 110.809C51.8222 111.77 51.8568 112.735 51.9897 113.688C52.1604 114.673 52.5434 115.638 52.468 116.633C52.3628 118.05 51.3545 119.261 51.2314 120.676C51.1342 121.805 51.6125 122.895 52.1266 123.897C52.5057 124.635 51.9777 125.59 51.7773 126.402C51.3803 127.994 52.0413 129.66 52.8511 131.072C52.8718 131.121 52.9083 131.16 52.9543 131.183C53.0476 131.218 53.131 131.124 53.1925 131.044C53.8019 130.233 54.8817 129.927 55.8721 130.015C56.8626 130.104 57.7895 130.527 58.6986 130.947L59.9868 127.975C60.2052 127.471 60.4275 126.926 60.3183 126.385C60.2409 125.999 60.0007 125.672 59.83 125.318C59.4331 124.483 59.4132 123.51 59.4092 122.575L59.3854 117.289C60.3898 115.981 61.0031 114.426 61.3902 112.802C61.984 115.087 62.0249 117.489 61.5093 119.794C61.4139 120.143 61.3475 120.499 61.3108 120.859C61.2334 122.326 62.3429 123.566 62.6387 125.001C62.6673 125.111 62.6754 125.226 62.6625 125.339C62.6292 125.478 62.5735 125.61 62.4977 125.729C61.9658 126.729 62.0234 127.94 62.1008 129.08C63.4927 129.331 64.8991 129.487 66.3107 129.546C66.629 129.579 66.9504 129.545 67.2556 129.446C67.5507 129.3 67.8167 129.097 68.0396 128.849C68.9408 127.971 69.9303 127.195 70.9912 126.536C70.3988 125.517 69.5697 124.669 68.5795 124.068C68.8991 123.58 69.6275 123.619 70.0523 123.229C70.2656 123.01 70.4049 122.726 70.4493 122.418C70.6081 121.612 70.4116 120.773 70.2151 119.981C69.834 118.422 69.4509 116.857 68.8256 115.385C68.5429 114.78 68.2937 114.158 68.0793 113.524C67.5593 111.751 67.9225 109.822 67.5295 108.01C67.4025 107.43 67.198 106.832 67.3409 106.254C67.5593 105.363 68.5319 104.835 68.7462 103.942C69.5144 100.765 69.6513 97.4721 70.088 94.2289C70.1857 93.6093 70.2381 92.983 70.2448 92.3553C70.2448 91.6993 70.1317 91.0494 70.086 90.3954C69.9074 87.7774 70.7153 85.1655 70.5088 82.5496C70.3766 80.9375 69.8641 79.3838 69.0162 78.0251C67.5573 75.6909 68.5755 72.3881 68.7284 69.6117C68.7399 68.6833 68.9529 67.7696 69.3516 66.9381C69.5613 66.4578 69.6857 65.9423 69.7188 65.4163C69.78 65.092 69.7412 64.756 69.6077 64.4559C69.468 64.2454 69.2823 64.072 69.0658 63.9499C68.6033 63.6373 68.9943 63.4111 68.7383 62.9052C68.6151 62.6256 68.5207 62.3333 68.4564 62.0332C68.3915 61.7336 68.255 61.4557 68.0595 61.225C67.9591 61.1111 67.8283 61.0308 67.6837 60.9942C67.5392 60.9576 67.3874 60.9663 67.2476 61.0193C67.0591 61.0193 67.0074 60.7602 66.9916 60.5648C66.938 59.8491 66.6522 59.1766 66.3723 58.5185C66.2651 58.2656 66.1381 57.992 65.8939 57.883C65.6813 57.8141 65.4535 57.8141 65.2409 57.883C65.3023 58.1215 65.4023 58.3475 65.5366 58.5514C65.8807 59.1768 66.1095 59.863 66.2115 60.5751C66.013 60.6368 66.41 60.5751 66.2115 60.5751C66.3892 60.8317 66.4806 61.1417 66.4715 61.4574C64.7963 61.4574 62.5613 61.4574 60.884 61.4574C60.8159 61.4629 60.7475 61.4502 60.6855 61.4203C60.609 61.3577 60.5529 61.2723 60.5248 61.1756C60.3883 60.8867 60.2147 60.6183 60.0087 60.3777L58.0436 57.8666C58 57.801 57.9422 57.7468 57.8749 57.7082C57.7938 57.6845 57.7079 57.6845 57.6268 57.7082C56.9896 57.8049 56.5192 58.0805 55.9634 58.4157Z" fill="#FF6400"/>
<path opacity="0.1" d="M63.017 92.4396C63.3558 92.4349 63.6896 92.5243 63.9837 92.6988C64.1296 92.7877 64.2507 92.9146 64.3349 93.0667C64.4191 93.2189 64.4636 93.3912 64.464 93.5666C64.4422 93.9553 64.1544 94.2638 63.946 94.5949C63.817 94.7967 63.7142 95.0152 63.6403 95.2448C63.6175 95.297 63.6119 95.3556 63.6244 95.4114C63.6482 95.4895 63.7296 95.5286 63.7991 95.5636C64.0516 95.6819 64.2673 95.8708 64.4219 96.1091C64.5766 96.3475 64.664 96.6257 64.6744 96.9127C64.6566 97.7147 63.9003 98.3646 63.942 99.1749C63.9609 99.3436 63.9888 99.5111 64.0254 99.6767C64.1162 100.367 64.0235 101.071 63.7574 101.711C63.5172 102.356 63.1897 102.963 62.9317 103.603C62.235 105.341 62.0841 107.265 62.1377 109.155C62.1794 110.439 61.7407 111.66 61.3438 112.882C61.5681 110.421 61.6278 107.947 61.5224 105.478C61.4946 104.808 61.4132 104.174 61.443 103.502C61.4906 102.435 62.0663 101.464 62.2131 100.417C62.2965 99.8186 62.2409 99.2099 62.2548 98.6052C62.2826 97.3713 62.6062 96.1538 62.628 94.9157C62.6558 94.0417 62.5784 93.1409 63.017 92.4396Z" fill="black"/>
<path d="M54.7324 58.8559C54.3378 59.0597 53.9685 59.3125 53.6328 59.6086C53.2819 59.9698 52.9885 60.3863 52.7634 60.8425C52.4893 61.3598 52.2434 61.8926 52.027 62.4384C51.7471 63.1459 51.5149 63.9295 51.7074 64.6678C51.8821 65.3362 52.3763 65.8565 52.7177 66.4508C53.0591 67.0452 53.2596 67.7423 53.5216 68.3943C53.8709 69.2642 54.3493 70.0745 54.6947 70.9465C55.0401 71.8185 55.2485 72.7974 55.0301 73.7043C54.9666 73.9717 54.5478 74.1794 54.5478 74.4529C54.5478 74.9054 55.179 75.3969 55.5978 75.5285C56.0801 75.6828 56.6061 75.4524 57.0011 75.1172C57.7256 74.5229 58.1663 73.6324 58.4918 72.7357C59.0158 71.2961 59.2957 69.7681 59.5478 68.2503C59.7304 67.1357 59.9011 66.0189 59.9984 64.896C60.0877 63.8842 60.1155 62.8395 59.8574 61.8688C59.6166 60.9778 59.1483 60.1707 58.5017 59.5325C57.9857 59.0184 57.1401 58.3274 56.3898 58.3089C55.7963 58.3068 55.2405 58.5659 54.7324 58.8559Z" fill="#464353"/>
<path d="M60.3775 83.6479C60.356 83.7885 60.3052 83.9225 60.2288 84.0407C60.1524 84.159 60.0521 84.2586 59.9349 84.3327C59.7006 84.4802 59.4454 84.5885 59.1786 84.6536C58.6467 84.814 58.083 84.9621 57.545 84.8202C57.1223 84.6775 56.732 84.4473 56.3978 84.1435L50.3875 79.3764C49.9046 79.0218 49.4607 78.6135 49.0635 78.1589C48.8355 77.8654 48.626 77.557 48.4363 77.2355C48.1851 76.8675 47.9884 76.4627 47.8527 76.0345C47.8043 75.846 47.7803 75.6516 47.7813 75.4566C47.7797 75.2721 47.8234 75.0902 47.9083 74.928C48.0532 74.6771 48.3629 74.6257 48.6169 74.5558C49.4697 74.3274 50.3548 74.2577 51.2311 74.3501C51.308 74.3463 51.3841 74.3685 51.4478 74.4134C51.5116 74.4583 51.5595 74.5234 51.5844 74.599C51.7174 74.8519 51.8325 75.1152 51.9516 75.3784C52.1344 75.8273 52.3726 76.2496 52.6602 76.635C52.9373 76.9471 53.2323 77.2418 53.5435 77.5173C54.1786 78.1342 54.6987 78.8746 55.3755 79.4422C56.1596 80.0983 57.1123 80.4911 58.0055 80.9744C58.8987 81.4577 59.78 82.0849 60.2286 83.0207C60.3327 83.2117 60.3842 83.4286 60.3775 83.6479Z" fill="#FBBEBE"/>
<path opacity="0.1" d="M67.3332 50.3888C67.3334 51.6872 66.8549 52.9367 65.9955 53.8817C65.1361 54.8267 63.9608 55.3959 62.7098 55.4728C61.4588 55.5498 60.2267 55.1287 59.2655 54.2956C58.3042 53.4626 57.6864 52.2806 57.5383 50.9912C57.3903 49.7019 57.7232 48.4027 58.469 47.3592C59.2148 46.3158 60.3172 45.6069 61.5507 45.3776C62.7842 45.1484 64.0556 45.4159 65.105 46.1257C66.1544 46.8354 66.9024 47.9337 67.1962 49.196C67.2873 49.5865 67.3333 49.9869 67.3332 50.3888V50.3888Z" fill="black"/>
<path d="M67.3332 50.1829C67.3334 51.4814 66.8549 52.7308 65.9955 53.6759C65.1361 54.6209 63.9608 55.1901 62.7098 55.267C61.4588 55.3439 60.2267 54.9229 59.2655 54.0898C58.3042 53.2568 57.6864 52.0748 57.5383 50.7854C57.3903 49.4961 57.7232 48.1969 58.469 47.1534C59.2148 46.11 60.3172 45.4011 61.5507 45.1718C62.7842 44.9425 64.0556 45.2101 65.105 45.9199C66.1544 46.6296 66.9024 47.7279 67.1962 48.9901C67.2873 49.3807 67.3333 49.7811 67.3332 50.1829V50.1829Z" fill="#FBBEBE"/>
<path opacity="0.1" d="M51.9516 75.3702C51.7253 75.5203 51.3899 75.471 51.11 75.4052C50.0064 75.1502 48.7876 74.9671 47.7813 75.4566C47.7797 75.2721 47.8234 75.0902 47.9083 74.928C48.0532 74.6771 48.3629 74.6257 48.6169 74.5558C49.4697 74.3274 50.3548 74.2577 51.2311 74.3501C51.308 74.3463 51.3841 74.3685 51.4478 74.4134C51.5116 74.4583 51.5595 74.5234 51.5844 74.599C51.7174 74.8437 51.8325 75.107 51.9516 75.3702Z" fill="black"/>
<path d="M49.8752 68.4452C49.6311 69.2679 49.4306 70.1131 48.9523 70.8103C48.7941 70.9936 48.6751 71.2095 48.6029 71.4437C48.5975 71.6167 48.5701 71.7882 48.5215 71.9538C48.454 72.0936 48.3111 72.1862 48.2536 72.3301C48.1682 72.5358 48.2794 72.8011 48.1662 72.9944C48.1133 73.072 48.0497 73.1413 47.9777 73.2C47.7077 73.4592 47.6402 73.8725 47.6343 74.2551C47.6283 74.6376 47.664 75.0283 47.543 75.3882C48.591 74.7404 49.9249 74.9337 51.1158 75.2093C51.4473 75.2854 51.8582 75.343 52.0725 75.0674C52.2869 74.7918 52.1638 74.4299 52.1936 74.0988C52.2333 73.6669 52.5191 73.309 52.6958 72.9162C52.8943 72.4741 52.9618 71.9805 53.1146 71.5198C53.4302 70.5512 54.107 69.7614 54.5417 68.8463C54.7027 68.5315 54.7986 68.1856 54.8236 67.8303C54.8086 67.3699 54.6925 66.9191 54.4842 66.5121C54.0711 65.5643 53.5797 64.6553 53.0154 63.7953C52.7633 63.4107 52.3286 62.6992 51.9375 63.3141C51.62 63.8097 51.4215 64.4411 51.1873 64.984C50.6825 66.1091 50.2444 67.265 49.8752 68.4452Z" fill="#464353"/>
<path d="M67.787 60.4619C67.191 60.5044 66.5933 60.4085 66.0377 60.1812C65.4821 59.9538 64.9825 59.6007 64.5754 59.1477C64.5068 59.0831 64.4573 58.9997 64.4325 58.9071C64.4211 58.7868 64.4537 58.6665 64.5238 58.5698C64.762 58.1894 65.1728 57.9385 65.3634 57.5292C65.5539 57.12 65.4884 56.649 65.5063 56.2007C65.5381 55.3966 65.8437 54.6007 65.8695 53.8089C65.8787 53.6062 65.8641 53.4032 65.8259 53.2042C65.7345 52.9088 65.6785 52.6028 65.6591 52.2932C65.6849 51.6906 66.209 51.2217 66.2963 50.6274C66.4094 49.8705 65.804 49.2124 65.1947 48.7764C64.73 48.4425 64.2256 48.1723 63.6941 47.9723C63.3676 47.8512 63.0296 47.7664 62.6857 47.7194C62.0447 47.6296 61.3922 47.7052 60.7862 47.9394C60.5353 48.0375 60.2978 48.1688 60.0796 48.3302C59.9496 48.4153 59.8413 48.5317 59.764 48.6695C59.7003 48.8246 59.6718 48.9927 59.6806 49.161C59.6687 50.0022 59.76 50.8968 59.3729 51.6289C59.1744 52.0217 58.837 52.3405 58.6723 52.7559C58.6048 52.9288 58.5627 53.1111 58.5472 53.2968C58.5273 53.4894 58.5174 53.683 58.5174 53.8767C58.5055 54.9606 58.5174 56.104 59.0494 57.0439C59.2371 57.328 59.4075 57.6241 59.5595 57.9303C59.6332 58.0851 59.6674 58.257 59.6587 58.4295C59.65 58.602 59.5988 58.7693 59.5099 58.9154C59.4024 59.0487 59.2665 59.1543 59.1129 59.2238C58.7188 59.4198 58.2899 59.5293 57.8531 59.5456C57.4163 59.5619 56.9809 59.4845 56.5742 59.3184C57.0498 58.8515 57.3764 58.2453 57.5105 57.5809C57.6446 56.9164 57.5797 56.2254 57.3245 55.6001C57.1811 55.3476 57.088 55.0679 57.0506 54.7775C57.0705 54.5159 57.1378 54.2606 57.2491 54.0248C57.5212 53.252 57.5633 52.4124 57.3702 51.6145C57.2491 51.125 57.0387 50.652 57.001 50.1482C56.9695 49.7679 56.9855 49.3849 57.0486 49.0088C57.1574 48.336 57.4435 47.7074 57.8754 47.1924C58.3073 46.6774 58.8681 46.2961 59.496 46.0906C59.5972 46.0556 59.6945 46.0227 59.8056 45.9939C60.2872 45.8831 60.7792 45.8286 61.2725 45.8314C62.3741 45.7944 63.4916 45.7615 64.5535 46.0597C65.177 46.2288 65.757 46.5377 66.2526 46.9646C66.6044 47.271 66.8853 47.6555 67.0744 48.0895C67.1777 48.3396 67.2555 48.6001 67.3066 48.8669C67.3523 49.087 67.386 49.3091 67.4197 49.5312C67.6599 51.1127 67.9001 52.7251 67.644 54.3045C67.5428 54.9215 67.3662 55.5385 67.2868 56.1678C67.0942 57.6177 67.4416 59.0593 67.787 60.4619Z" fill="#464353"/>
<path d="M60.7325 62.4938C60.9364 62.4938 61.1017 62.3225 61.1017 62.1113C61.1017 61.9 60.9364 61.7288 60.7325 61.7288C60.5286 61.7288 60.3633 61.9 60.3633 62.1113C60.3633 62.3225 60.5286 62.4938 60.7325 62.4938Z" fill="white"/>
<path d="M66.9629 62.3127C67.1668 62.3127 67.3321 62.1414 67.3321 61.9301C67.3321 61.7189 67.1668 61.5476 66.9629 61.5476C66.759 61.5476 66.5938 61.7189 66.5938 61.9301C66.5938 62.1414 66.759 62.3127 66.9629 62.3127Z" fill="white"/>
<path opacity="0.1" d="M60.7315 42.7794L59.9375 41.2267C59.9878 41.1646 60.0429 41.1068 60.1023 41.054C60.2169 40.9808 60.3512 40.9476 60.4853 40.9593L60.7315 42.7794Z" fill="black"/>
<path opacity="0.1" d="M62.923 40.8872L62.0238 42.2651L61.5117 40.7535C61.7302 40.6563 61.9667 40.6099 62.2045 40.6178C62.4568 40.6655 62.6996 40.7566 62.923 40.8872V40.8872Z" fill="black"/>
<g opacity="0.1">
<path opacity="0.1" d="M59.5099 58.5085C59.4024 58.6418 59.2665 58.7474 59.1129 58.817C58.409 59.166 57.6061 59.2355 56.8561 59.0124C56.7689 59.1223 56.6747 59.226 56.5742 59.3229C56.9809 59.489 57.4163 59.5664 57.8531 59.5501C58.2899 59.5338 58.7188 59.4243 59.1129 59.2283C59.2665 59.1588 59.4024 59.0531 59.5099 58.9198C59.5782 58.8172 59.6248 58.7007 59.6467 58.5781C59.6686 58.4555 59.6653 58.3294 59.6369 58.2083C59.6171 58.317 59.5737 58.4197 59.5099 58.5085Z" fill="black"/>
<path opacity="0.1" d="M57.3571 51.6208C57.4219 51.8903 57.4598 52.1659 57.4702 52.4434C57.4931 52.0285 57.4549 51.6125 57.3571 51.2095C57.236 50.72 57.0256 50.247 56.9879 49.7431C56.9879 49.6794 56.9879 49.6156 56.978 49.5498C56.9684 49.7514 56.9717 49.9533 56.9879 50.1544C57.0256 50.6583 57.236 51.1313 57.3571 51.6208Z" fill="black"/>
<path opacity="0.1" d="M67.6288 54.3108C67.7131 53.7669 67.749 53.2162 67.736 52.6655C67.7291 53.079 67.6932 53.4914 67.6288 53.8995C67.5276 54.5165 67.3509 55.1334 67.2715 55.7627C67.2306 56.1003 67.2153 56.4407 67.2259 56.7808C67.2313 56.5779 67.2465 56.3754 67.2715 56.1741C67.3509 55.5447 67.5276 54.9339 67.6288 54.3108Z" fill="black"/>
<path opacity="0.1" d="M57.317 55.1931C57.213 54.9906 57.1292 54.7777 57.0669 54.5576C57.05 54.6317 57.042 54.7077 57.0431 54.7838C57.0804 55.0742 57.1736 55.354 57.317 55.6065C57.4627 55.9512 57.5468 56.3206 57.5651 56.6965C57.601 56.1819 57.5159 55.666 57.317 55.1931V55.1931Z" fill="black"/>
<path opacity="0.1" d="M65.825 53.1964C65.8425 53.2902 65.855 53.3849 65.8627 53.4802C65.8627 53.4493 65.8627 53.4205 65.8627 53.3897C65.8719 53.187 65.8573 52.984 65.8191 52.785C65.7754 52.5691 65.704 52.3552 65.6702 52.1372C65.6604 52.186 65.6544 52.2355 65.6523 52.2853C65.6737 52.5952 65.7316 52.9011 65.825 53.1964V53.1964Z" fill="black"/>
<path opacity="0.1" d="M64.5719 58.7284C64.5413 58.6954 64.5128 58.6603 64.4865 58.6235C64.4377 58.706 64.4174 58.8031 64.429 58.8991C64.4538 58.9917 64.5033 59.0751 64.5719 59.1397C64.979 59.5927 65.4786 59.9458 66.0342 60.1732C66.5898 60.4005 67.1875 60.4964 67.7835 60.4539C67.7497 60.3182 67.716 60.1845 67.6842 60.0426C67.1045 60.0702 66.526 59.967 65.9886 59.7401C65.4512 59.5132 64.9678 59.168 64.5719 58.7284V58.7284Z" fill="black"/>
<path opacity="0.1" d="M66.2969 50.2368C66.296 50.2293 66.296 50.2217 66.2969 50.2142C66.4101 49.4574 65.8047 48.7993 65.1953 48.3633C64.7306 48.0294 64.2263 47.7591 63.6947 47.5592C63.3682 47.438 63.0302 47.3532 62.6864 47.3062C62.0454 47.2165 61.3929 47.2921 60.7868 47.5262C60.536 47.6243 60.2985 47.7557 60.0802 47.917C59.9502 48.0022 59.842 48.1186 59.7646 48.2563C59.701 48.4114 59.6725 48.5796 59.6812 48.7478C59.6812 48.8897 59.6812 49.0316 59.6812 49.1756V49.1592C59.6725 48.9909 59.701 48.8227 59.7646 48.6676C59.842 48.5299 59.9502 48.4135 60.0802 48.3283C60.2985 48.167 60.536 48.0356 60.7868 47.9376C61.3929 47.7034 62.0454 47.6278 62.6864 47.7175C63.0302 47.7645 63.3682 47.8493 63.6947 47.9705C64.2263 48.1704 64.7306 48.4407 65.1953 48.7746C65.7015 49.1283 66.1997 49.6383 66.2969 50.2368Z" fill="black"/>
<path opacity="0.1" d="M59.375 51.2216C59.1765 51.6145 58.8391 51.9332 58.6744 52.3486C58.6069 52.5215 58.5648 52.7038 58.5493 52.8895C58.5294 53.0822 58.5195 53.2757 58.5195 53.4695C58.5195 53.6443 58.5195 53.8211 58.5195 53.998C58.5195 53.9589 58.5195 53.9199 58.5195 53.8808C58.5195 53.6871 58.5294 53.4935 58.5493 53.3008C58.5648 53.1151 58.6069 52.9328 58.6744 52.76C58.8391 52.3486 59.1686 52.0258 59.375 51.633C59.6946 51.016 59.6886 50.3065 59.6827 49.6011C59.709 50.1592 59.6034 50.7155 59.375 51.2216V51.2216Z" fill="black"/>
</g>
<path opacity="0.1" d="M67.2892 48.8815C67.2619 48.9217 67.2299 48.9583 67.194 48.9905C67.1239 49.0502 67.0456 49.0987 66.9617 49.1344C66.3841 49.3936 66.4079 48.5483 66.1062 48.2583C65.9128 48.1105 65.6753 48.0377 65.4353 48.0527C64.8544 48.0225 64.2728 47.9958 63.6906 47.9725C62.72 47.9354 61.7514 47.9169 60.7827 47.9396C60.3183 47.9478 59.8551 47.9677 59.3933 47.9992C58.8574 48.0362 58.2817 48.1082 57.8252 48.3714C57.6689 48.4605 57.5275 48.5751 57.4064 48.7108C57.2972 48.8342 57.1821 48.9905 57.0312 49.0193C57.14 48.3464 57.4262 47.7178 57.858 47.2028C58.2899 46.6878 58.8508 46.3065 59.4786 46.101C60.4951 45.3165 61.7649 44.9695 63.0226 45.1323C64.2802 45.2952 65.4285 45.9555 66.2273 46.975C66.5791 47.2815 66.86 47.6659 67.0491 48.1C67.1554 48.351 67.2359 48.613 67.2892 48.8815V48.8815Z" fill="black"/>
<path d="M66.9625 48.723C66.3849 48.9821 66.4087 48.1368 66.107 47.8469C65.9135 47.699 65.6761 47.6262 65.4361 47.6412C63.4247 47.5041 61.4074 47.4863 59.394 47.5877C58.6775 47.6371 57.8915 47.7481 57.4091 48.2993C57.2861 48.4392 57.157 48.6201 56.9724 48.614C56.9109 48.2026 56.8672 47.7749 56.8375 47.3533C56.8195 47.1954 56.8275 47.0354 56.8613 46.8803C56.9109 46.7034 57.024 46.5533 57.0816 46.3805C57.1383 46.1608 57.1584 45.9327 57.1412 45.706C57.1499 44.8669 57.3675 44.0444 57.7729 43.3181C58.1784 42.5917 58.758 41.9861 59.4556 41.5599C59.6307 41.4712 59.793 41.3577 59.9379 41.2226C59.9882 41.1605 60.0433 41.1028 60.1026 41.0499C60.2173 40.9767 60.3516 40.9435 60.4857 40.9553C60.581 40.9553 60.6842 40.9553 60.7676 40.9553C61.0243 40.926 61.2752 40.8566 61.5119 40.7496C61.7305 40.6524 61.9669 40.606 62.2047 40.6139C62.457 40.6616 62.6998 40.7527 62.9232 40.8833C63.0306 40.9369 63.143 40.9789 63.2586 41.0088C63.4393 41.0519 63.6259 41.0499 63.8065 41.0869C64.0991 41.1641 64.3769 41.292 64.6282 41.4653C64.9282 41.6329 65.2058 41.8403 65.454 42.0823C65.7238 42.4018 65.9399 42.7661 66.0931 43.1599C66.356 43.704 66.5559 44.2783 66.6886 44.871C66.8493 45.7224 66.77 46.6438 67.1511 47.417C67.3833 47.9024 67.5957 48.4412 66.9625 48.723Z" fill="#FED253"/>
<path opacity="0.1" d="M56.9023 48.0771C56.9023 48.0771 61.0171 44.1984 67.1445 47.4149C67.1445 47.4149 60.2271 45.784 56.9023 48.0771Z" fill="black"/>
<path d="M12.0691 67.8965C11.5094 66.9464 10.6678 66.0765 10.7988 64.9988C12.3391 65.1819 13.8 64.7932 15.2112 64.1165C16.6225 63.4399 17.9326 62.5618 19.2545 61.7001C19.7745 61.3607 20.2926 61.0276 20.8087 60.7191C21.6265 60.2337 22.4383 59.6908 23.27 59.2157C24.4609 58.5371 25.6757 57.9818 27.0135 57.8749C27.2558 57.8553 27.499 57.8491 27.742 57.8563C29.3894 57.8892 31.0964 58.3479 32.5454 57.5828L32.6347 57.5335C33.4565 57.0666 34.054 56.2728 34.7586 55.6291C35.2652 55.1751 35.8168 54.778 36.4041 54.4445C37.4739 53.8275 38.6331 53.3339 39.7268 52.7519C40.0068 52.6025 40.2726 52.4263 40.5208 52.2254L40.7074 52.0712L40.749 52.0342C40.7947 51.9951 40.8403 51.956 40.884 51.9149L40.9694 51.8368L41.0567 51.7545L41.1242 51.6887L41.2334 51.5817L41.2453 51.5673L41.418 51.3905L41.4874 51.3185L41.6085 51.1889L41.68 51.1149C41.801 50.9853 41.9221 50.8537 42.0452 50.7262C42.1682 50.5987 42.335 50.4259 42.4838 50.284L42.6268 50.1524L42.6684 50.1154L42.7836 50.0167L42.8372 49.9694L42.9503 49.8789L43.0059 49.8336C43.0615 49.7905 43.119 49.7493 43.1766 49.7082C43.2296 49.6702 43.2853 49.6365 43.3433 49.6074L42.9721 48.6758L44.04 48.2192L58.768 85.2478L57.6981 85.7044L49.2742 64.5217L49.2147 64.5834C47.2632 66.5786 44.8729 68.0522 42.2496 68.8775H42.2337C40.7669 69.3361 39.1254 69.6611 37.8908 70.5125C37.453 70.8073 37.0726 71.1847 36.7693 71.6251C36.4795 72.0529 36.277 72.5403 35.9753 72.9516C35.9178 73.0277 35.8543 73.1017 35.7907 73.1716C35.4298 73.5424 35.0304 73.8707 34.5998 74.1506L34.4112 74.2842C33.1324 75.2166 31.8 76.0675 30.4216 76.8323C29.6261 77.2613 28.7967 77.6191 27.9424 77.9018C27.3212 78.1074 26.68 78.2575 26.0588 78.4611C25.6408 78.5923 25.235 78.7616 24.846 78.9671C23.794 79.5367 22.9861 80.4293 22.2219 81.3815C21.553 82.2165 20.9178 83.1008 20.1834 83.8617C19.7229 84.3347 19.0223 84.7831 18.4665 84.5054L18.3534 84.4375C18.3712 84.4067 18.3851 84.3759 18.401 84.3429C18.8397 83.3908 18.2998 82.2144 17.5733 81.4514C17.4979 81.3712 17.4204 81.293 17.341 81.219C17.2617 81.145 17.1187 81.0134 17.0056 80.9105C16.3843 80.3573 15.7234 79.8432 15.2926 79.1295C14.9639 78.5301 14.7407 77.8748 14.6336 77.1943C14.4351 76.2257 14.3022 75.2282 13.794 74.4035C13.4606 73.8585 12.9643 73.3938 12.6031 72.8714C12.3747 72.5623 12.2246 72.1989 12.1664 71.8143C12.085 71.1459 12.3847 70.4919 12.4979 69.8256C12.5315 69.6441 12.5455 69.4592 12.5396 69.2744C12.4981 68.7812 12.3362 68.3071 12.0691 67.8965V67.8965Z" fill="url(#paint0_linear)"/>
<path d="M57.3235 85.3863L58.375 84.9373L43.8924 48.5312L42.8409 48.9803L57.3235 85.3863Z" fill="#D6D8E1"/>
<path d="M14.1445 74.2738C14.6427 75.0861 14.7757 76.0651 14.9683 77.0173C15.0751 77.6866 15.2948 78.3313 15.6173 78.9217C16.0421 79.6229 16.6912 80.1289 17.3005 80.6718C17.4117 80.7726 17.5228 80.8775 17.63 80.9762C17.7074 81.0481 17.7848 81.1263 17.8583 81.2024C18.5729 81.953 19.1028 83.1109 18.6721 84.0466C18.6589 84.0785 18.6436 84.1094 18.6265 84.1392C18.6613 84.1637 18.6978 84.1857 18.7356 84.205C19.2835 84.4806 19.9722 84.0405 20.4248 83.5736C21.1473 82.825 21.7725 81.9572 22.4295 81.1366C23.1798 80.1988 23.9758 79.3206 25.0099 78.7612C25.3917 78.5586 25.7903 78.3921 26.2008 78.2636C26.8102 78.0579 27.4414 77.9119 28.0528 77.7144C28.8925 77.4362 29.7079 77.0846 30.4902 76.6635C31.8478 75.9107 33.1602 75.0735 34.4203 74.1566L34.6069 74.025C35.0301 73.7502 35.4228 73.4281 35.778 73.0645C35.8415 72.9946 35.9031 72.9226 35.9606 72.8465C36.2663 72.4352 36.4668 71.9643 36.7546 71.5427C37.0531 71.1096 37.4274 70.7384 37.8582 70.4486C39.073 69.6116 40.6847 69.2907 42.1277 68.8403H42.1436C44.7223 68.0276 47.0721 66.5788 48.9915 64.6182C49.1506 64.4805 49.2695 64.2996 49.3349 64.0958C49.3965 63.8059 49.2456 63.5179 49.1007 63.2629C48.932 62.9627 48.7672 62.6624 48.6045 62.358C47.8725 60.9777 47.219 59.5541 46.6474 58.0947C46.5223 57.7739 46.4012 57.4552 46.2841 57.1323C45.9837 56.3096 45.7098 55.4754 45.4624 54.6294C45.381 54.3497 45.3016 54.068 45.2262 53.7862C45.2123 53.7328 45.1964 53.6752 45.1825 53.6135C44.853 52.2417 44.4124 49.0314 43.0547 49.9919C42.6509 50.291 42.2754 50.6291 41.9332 51.0016C41.6692 51.2793 41.4112 51.5651 41.1392 51.8407C40.9178 52.0664 40.6838 52.2786 40.4386 52.4762C40.1897 52.6736 39.9239 52.8471 39.6446 52.9944C38.5668 53.5662 37.4275 54.0454 36.3775 54.6582C35.7992 54.9856 35.2563 55.3758 34.7578 55.8222C34.065 56.4557 33.4775 57.2372 32.6697 57.6958L32.5823 57.7451C31.1572 58.4958 29.4799 58.0454 27.8582 58.0125C27.6199 58.0063 27.3814 58.0124 27.1437 58.031C25.8277 58.1338 24.6248 58.6809 23.4617 59.3493C22.6439 59.8182 21.846 60.3487 21.0421 60.8279C20.5339 61.1302 20.0258 61.4572 19.5137 61.7925C18.2156 62.6398 16.8996 63.5282 15.5439 64.1699C14.1545 64.8239 12.7194 65.2146 11.2049 65.0357C11.0759 66.0948 11.9016 66.9503 12.4534 67.884C12.7184 68.2854 12.8791 68.7507 12.9198 69.2352C12.9271 69.4164 12.9145 69.5979 12.8821 69.7761C12.771 70.4321 12.4852 71.0738 12.5566 71.7339C12.6129 72.1104 12.7597 72.4661 12.9834 72.7684C13.3287 73.2805 13.815 73.7391 14.1445 74.2738Z" fill="#04DD32"/>
<path d="M54.4988 78.5576C54.4988 78.5576 56.2376 80.1288 58.0002 80.9659C59.7628 81.8029 58.5957 84.8055 58.5957 84.8055C58.5957 84.8055 56.7279 85.2497 55.4198 83.3659C54.1118 81.4821 54.4988 78.5576 54.4988 78.5576Z" fill="#FBBEBE"/>
<path d="M148.198 105.303C148.198 105.303 143.593 111.582 139.772 111.633C135.951 111.685 133.708 114.278 135.522 115.899C137.336 117.519 157.106 114.973 157.106 114.973C157.106 114.973 157.293 107.257 155.58 106.13C153.867 105.003 148.198 105.303 148.198 105.303Z" fill="#444176"/>
<path d="M197.711 112.841C197.711 112.841 198.416 117.814 196.239 121.205C194.061 124.596 200.173 125.904 200.173 125.904C200.173 125.904 204.613 127.185 204.936 122.64C205.26 118.095 205.155 114.62 204.738 114.25C204.321 113.879 203.974 111.323 203.974 111.323L197.711 112.841Z" fill="#444176"/>
<path d="M128.004 122.233C128.004 122.233 127.843 106.149 143.204 99.6108L146.771 92.5794L148.482 88.2606C149.102 86.6964 150.077 85.3101 151.324 84.2196C152.571 83.129 154.053 82.3663 155.646 81.9963L158.413 81.3526L159.268 77.6179C159.724 75.6215 160.734 73.8072 162.173 72.3987C163.613 70.9902 165.419 70.0492 167.369 69.6918C169.051 69.3682 170.759 69.203 172.47 69.1982C173.227 69.2101 173.968 69.4246 174.622 69.821C175.275 70.2174 175.819 70.7822 176.199 71.4605V71.4605C176.199 71.4605 190.753 71.2939 191.398 79.5037C191.398 79.5037 192.855 87.0411 194.957 88.382C194.957 88.382 198.514 87.5449 202.071 92.9064L205.951 106.644C205.951 106.644 216.138 116.528 213.065 125.565C213.065 125.565 208.861 131.763 187.517 127.574C187.517 127.574 164.719 134.772 152.583 124.901C152.581 124.913 132.371 128.933 128.004 122.233Z" fill="#A8A8A8"/>
<path opacity="0.1" d="M138.188 119.72C138.188 119.72 141.423 115.029 141.26 111.676C141.097 108.324 142.022 100.16 142.022 100.16" stroke="black" stroke-miterlimit="10"/>
<path opacity="0.1" d="M149.992 107.154C149.992 107.154 153.226 100.956 152.902 97.6056C152.902 97.6056 156.298 91.2302 158.885 91.7402" stroke="black" stroke-miterlimit="10"/>
<path opacity="0.1" d="M167.777 89.5623C167.777 89.5623 176.67 86.2122 177.156 83.5325" stroke="black" stroke-miterlimit="10"/>
<path opacity="0.1" d="M171.012 97.2706C171.012 97.2706 180.39 92.9148 180.39 91.7405H185.077C185.077 91.7405 191.869 100.956 191.061 104.977" stroke="black" stroke-miterlimit="10"/>
<path opacity="0.1" d="M182.01 103.971C182.01 103.971 172.955 103.301 169.72 105.982C166.484 108.664 160.665 110.003 160.665 110.003C160.665 110.003 157.268 117.542 155.974 118.881C154.68 120.22 152.578 124.913 152.578 124.913" stroke="black" stroke-miterlimit="10"/>
<path opacity="0.1" d="M182.008 112.851C182.008 112.851 182.976 116.368 184.271 118.379C185.565 120.39 187.504 127.592 187.504 127.592" stroke="black" stroke-miterlimit="10"/>
<path opacity="0.1" d="M197.207 123.07C197.207 123.07 199.259 128.987 201.064 129.045" stroke="black" stroke-miterlimit="10"/>
<path opacity="0.1" d="M183.766 97.6733C183.766 97.6733 189.097 99.1664 191.326 102.784C193.555 106.401 200.363 109.682 200.363 109.682" stroke="black" stroke-miterlimit="10"/>
<path opacity="0.1" d="M186.047 79.8511C186.047 79.8511 186.047 87.5571 188.149 87.5571C190.251 87.5571 194.941 88.3941 194.941 88.3941" stroke="black" stroke-miterlimit="10"/>
<path opacity="0.1" d="M175.748 70.6995C175.748 70.6995 175.21 84.0117 172.461 87.4585" stroke="black" stroke-miterlimit="10"/>
<g opacity="0.05">
<path opacity="0.05" d="M205.617 106.484L201.736 92.7463C198.179 87.3848 194.622 88.2218 194.622 88.2218C192.52 86.8809 191.065 79.3415 191.065 79.3415C190.418 71.1317 175.865 71.3003 175.865 71.3003C175.484 70.6208 174.939 70.0553 174.284 69.6588C173.629 69.2623 172.886 69.0485 172.127 69.0381C171.44 69.0381 170.738 69.0607 170.035 69.1203C170.432 69.1615 170.813 69.2197 171.176 69.2952L172.308 71.3065C172.308 71.3065 186.859 71.1378 187.506 79.3477C187.506 79.3477 188.963 86.8871 191.065 88.228C191.065 88.228 194.622 87.3889 198.179 92.7524L202.06 106.49C202.06 106.49 212.246 116.374 209.174 125.411C209.174 125.411 207.099 128.469 198.471 128.839C210.104 129.281 212.73 125.411 212.73 125.411C215.803 116.368 205.617 106.484 205.617 106.484Z" fill="black"/>
<path opacity="0.05" d="M148.699 124.745C145.276 125.383 141.815 125.775 138.34 125.919C142.391 126.079 146.605 125.625 149.32 125.238C149.11 125.072 148.904 124.911 148.699 124.745Z" fill="black"/>
<path opacity="0.05" d="M183.623 127.426C178.645 128.873 173.521 129.712 168.355 129.927C175.809 130.207 182.869 128.596 185.779 127.823C185.076 127.702 184.364 127.564 183.623 127.426Z" fill="black"/>
</g>
<path d="M54.4141 153.557C54.4141 153.557 58.8622 153.415 60.202 152.426C61.5419 151.436 67.042 150.256 67.3755 151.842C67.709 153.427 74.0587 159.729 69.0369 159.772C64.015 159.815 57.3716 158.961 56.0337 158.116C54.6959 157.271 54.4141 153.557 54.4141 153.557Z" fill="#A8A8A8"/>
<path opacity="0.2" d="M69.1282 159.218C64.1063 159.262 57.4609 158.408 56.1231 157.573C55.1048 156.93 54.6979 154.622 54.5629 153.559H54.4141C54.4141 153.559 54.6959 157.275 56.0337 158.118C57.3716 158.961 64.017 159.815 69.0369 159.774C70.4878 159.761 70.988 159.227 70.9602 158.435C70.7597 158.912 70.206 159.21 69.1282 159.218Z" fill="black"/>
<path d="M162.859 141.999C162.859 141.999 157.621 140.913 156.225 139.465C154.83 138.017 148.544 135.488 147.845 137.295C147.146 139.103 138.419 145.254 144.353 146.344C150.288 147.434 158.319 147.784 160.066 147.068C161.813 146.352 162.859 141.999 162.859 141.999Z" fill="#A8A8A8"/>
<path opacity="0.2" d="M144.352 145.662C150.289 146.745 158.318 147.101 160.065 146.383C161.392 145.832 162.317 143.186 162.683 141.954L162.857 141.993C162.857 141.993 161.809 146.332 160.065 147.056C158.32 147.78 150.289 147.418 144.352 146.332C142.639 146.019 142.149 145.283 142.333 144.354C142.48 144.967 143.078 145.433 144.352 145.662Z" fill="black"/>
<path opacity="0.1" d="M112.706 23.8156H111.459C111.691 23.8156 111.913 23.7203 112.077 23.5506C112.24 23.3809 112.332 23.1507 112.332 22.9108C112.332 22.6708 112.24 22.4406 112.077 22.2709C111.913 22.1012 111.691 22.0059 111.459 22.0059H101.36C101.128 22.0059 100.906 22.1012 100.742 22.2709C100.579 22.4406 100.486 22.6708 100.486 22.9108C100.486 23.1507 100.579 23.3809 100.742 23.5506C100.906 23.7203 101.128 23.8156 101.36 23.8156H102.606C102.382 23.8267 102.171 23.9268 102.016 24.0951C101.861 24.2634 101.775 24.487 101.775 24.7195C101.775 24.952 101.861 25.1756 102.016 25.3439C102.171 25.5122 102.382 25.6123 102.606 25.6234H100.862C100.63 25.6234 100.408 25.7187 100.244 25.8884C100.08 26.0581 99.9883 26.2883 99.9883 26.5283C99.9883 26.7683 100.08 26.9984 100.244 27.1681C100.408 27.3378 100.63 27.4332 100.862 27.4332H110.961C111.192 27.4332 111.415 27.3378 111.578 27.1681C111.742 26.9984 111.834 26.7683 111.834 26.5283C111.834 26.2883 111.742 26.0581 111.578 25.8884C111.415 25.7187 111.192 25.6234 110.961 25.6234H112.706C112.824 25.6292 112.942 25.6102 113.052 25.5674C113.163 25.5246 113.264 25.4589 113.35 25.3744C113.435 25.2899 113.503 25.1883 113.55 25.0757C113.597 24.9632 113.621 24.842 113.621 24.7195C113.621 24.597 113.597 24.4759 113.55 24.3633C113.503 24.2507 113.435 24.1491 113.35 24.0646C113.264 23.9801 113.163 23.9144 113.052 23.8717C112.942 23.8289 112.824 23.8098 112.706 23.8156V23.8156Z" fill="#04DD32"/>
<path opacity="0.1" d="M151.93 55.6535H150.684C150.908 55.6424 151.119 55.5423 151.274 55.374C151.429 55.2057 151.516 54.9821 151.516 54.7496C151.516 54.5171 151.429 54.2935 151.274 54.1252C151.119 53.9569 150.908 53.8568 150.684 53.8458H140.575C140.457 53.8399 140.339 53.859 140.228 53.9018C140.117 53.9446 140.016 54.0102 139.93 54.0947C139.845 54.1792 139.777 54.2808 139.73 54.3934C139.684 54.506 139.66 54.6272 139.66 54.7496C139.66 54.8721 139.684 54.9933 139.73 55.1059C139.777 55.2184 139.845 55.32 139.93 55.4045C140.016 55.4891 140.117 55.5547 140.228 55.5975C140.339 55.6403 140.457 55.6593 140.575 55.6535H141.821C141.597 55.6646 141.386 55.7646 141.231 55.9329C141.076 56.1012 140.989 56.3248 140.989 56.5573C140.989 56.7899 141.076 57.0135 141.231 57.1818C141.386 57.3501 141.597 57.4501 141.821 57.4612H140.076C139.845 57.4612 139.623 57.5565 139.459 57.7262C139.295 57.8959 139.203 58.1261 139.203 58.3661C139.203 58.6061 139.295 58.8363 139.459 59.006C139.623 59.1757 139.845 59.271 140.076 59.271H150.174C150.405 59.271 150.627 59.1757 150.791 59.006C150.955 58.8363 151.047 58.6061 151.047 58.3661C151.047 58.1261 150.955 57.8959 150.791 57.7262C150.627 57.5565 150.405 57.4612 150.174 57.4612H151.93C152.048 57.467 152.166 57.448 152.277 57.4052C152.388 57.3624 152.489 57.2968 152.575 57.2123C152.66 57.1278 152.728 57.0261 152.775 56.9136C152.821 56.801 152.845 56.6798 152.845 56.5573C152.845 56.4349 152.821 56.3137 152.775 56.2011C152.728 56.0885 152.66 55.9869 152.575 55.9024C152.489 55.8179 152.388 55.7523 152.277 55.7095C152.166 55.6667 152.048 55.6476 151.93 55.6535V55.6535Z" fill="#04DD32"/>
<path opacity="0.1" d="M93.8072 49.7633H92.5607C92.6787 49.7692 92.7967 49.7501 92.9075 49.7073C93.0182 49.6646 93.1194 49.5989 93.205 49.5144C93.2905 49.4299 93.3586 49.3283 93.4051 49.2157C93.4517 49.1031 93.4757 48.9819 93.4757 48.8595C93.4757 48.737 93.4517 48.6158 93.4051 48.5033C93.3586 48.3907 93.2905 48.2891 93.205 48.2046C93.1194 48.1201 93.0182 48.0544 92.9075 48.0116C92.7967 47.9688 92.6787 47.9498 92.5607 47.9556H82.4595C82.3414 47.9498 82.2235 47.9688 82.1127 48.0116C82.002 48.0544 81.9008 48.1201 81.8152 48.2046C81.7297 48.2891 81.6616 48.3907 81.615 48.5033C81.5685 48.6158 81.5445 48.737 81.5445 48.8595C81.5445 48.9819 81.5685 49.1031 81.615 49.2157C81.6616 49.3283 81.7297 49.4299 81.8152 49.5144C81.9008 49.5989 82.002 49.6646 82.1127 49.7073C82.2235 49.7501 82.3414 49.7692 82.4595 49.7633H83.706C83.588 49.7575 83.47 49.7766 83.3592 49.8194C83.2485 49.8621 83.1473 49.9278 83.0617 50.0123C82.9762 50.0968 82.9081 50.1984 82.8616 50.311C82.815 50.4236 82.791 50.5447 82.791 50.6672C82.791 50.7897 82.815 50.9109 82.8616 51.0234C82.9081 51.136 82.9762 51.2376 83.0617 51.3221C83.1473 51.4066 83.2485 51.4723 83.3592 51.5151C83.47 51.5579 83.588 51.5769 83.706 51.5711H81.9593C81.7277 51.5711 81.5055 51.6664 81.3417 51.8361C81.178 52.0058 81.0859 52.236 81.0859 52.476C81.0859 52.716 81.178 52.9461 81.3417 53.1158C81.5055 53.2855 81.7277 53.3809 81.9593 53.3809H92.0585C92.2901 53.3809 92.5123 53.2855 92.6761 53.1158C92.8398 52.9461 92.9319 52.716 92.9319 52.476C92.9319 52.236 92.8398 52.0058 92.6761 51.8361C92.5123 51.6664 92.2901 51.5711 92.0585 51.5711H93.8032C93.9213 51.5769 94.0393 51.5579 94.15 51.5151C94.2608 51.4723 94.362 51.4066 94.4475 51.3221C94.5331 51.2376 94.6012 51.136 94.6477 51.0234C94.6942 50.9109 94.7182 50.7897 94.7182 50.6672C94.7182 50.5447 94.6942 50.4236 94.6477 50.311C94.6012 50.1984 94.5331 50.0968 94.4475 50.0123C94.362 49.9278 94.2608 49.8621 94.15 49.8194C94.0393 49.7766 93.9213 49.7575 93.8032 49.7633H93.8072Z" fill="#04DD32"/>
<path d="M12.5329 203.715H5.23688L3.89288 207.435H1.58887L7.63688 190.803H10.1569L16.1809 207.435H13.8769L12.5329 203.715ZM11.9089 201.939L8.88488 193.491L5.86088 201.939H11.9089ZM23.4728 207.651C22.4648 207.651 21.5608 207.483 20.7608 207.147C19.9608 206.795 19.3288 206.315 18.8648 205.707C18.4008 205.083 18.1448 204.371 18.0968 203.571H20.3528C20.4168 204.227 20.7208 204.763 21.2648 205.179C21.8248 205.595 22.5528 205.803 23.4488 205.803C24.2808 205.803 24.9368 205.619 25.4168 205.251C25.8968 204.883 26.1368 204.419 26.1368 203.859C26.1368 203.283 25.8808 202.859 25.3688 202.587C24.8568 202.299 24.0648 202.019 22.9928 201.747C22.0168 201.491 21.2168 201.235 20.5928 200.979C19.9848 200.707 19.4568 200.315 19.0088 199.803C18.5768 199.275 18.3608 198.587 18.3608 197.739C18.3608 197.067 18.5608 196.451 18.9608 195.891C19.3608 195.331 19.9288 194.891 20.6648 194.571C21.4008 194.235 22.2408 194.067 23.1848 194.067C24.6408 194.067 25.8168 194.435 26.7128 195.171C27.6088 195.907 28.0888 196.915 28.1528 198.195H25.9688C25.9208 197.507 25.6408 196.955 25.1288 196.539C24.6328 196.123 23.9608 195.915 23.1128 195.915C22.3288 195.915 21.7048 196.083 21.2408 196.419C20.7768 196.755 20.5448 197.195 20.5448 197.739C20.5448 198.171 20.6808 198.531 20.9528 198.819C21.2408 199.091 21.5928 199.315 22.0088 199.491C22.4408 199.651 23.0328 199.835 23.7848 200.043C24.7288 200.299 25.4968 200.555 26.0888 200.811C26.6808 201.051 27.1848 201.419 27.6008 201.915C28.0328 202.411 28.2568 203.059 28.2728 203.859C28.2728 204.579 28.0728 205.227 27.6728 205.803C27.2728 206.379 26.7048 206.835 25.9688 207.171C25.2488 207.491 24.4168 207.651 23.4728 207.651ZM36.0118 207.651C35.0038 207.651 34.0998 207.483 33.2998 207.147C32.4998 206.795 31.8678 206.315 31.4038 205.707C30.9398 205.083 30.6838 204.371 30.6358 203.571H32.8918C32.9558 204.227 33.2598 204.763 33.8038 205.179C34.3638 205.595 35.0918 205.803 35.9878 205.803C36.8198 205.803 37.4758 205.619 37.9558 205.251C38.4358 204.883 38.6758 204.419 38.6758 203.859C38.6758 203.283 38.4198 202.859 37.9078 202.587C37.3958 202.299 36.6038 202.019 35.5318 201.747C34.5558 201.491 33.7558 201.235 33.1318 200.979C32.5238 200.707 31.9958 200.315 31.5478 199.803C31.1158 199.275 30.8998 198.587 30.8998 197.739C30.8998 197.067 31.0998 196.451 31.4998 195.891C31.8998 195.331 32.4678 194.891 33.2038 194.571C33.9398 194.235 34.7798 194.067 35.7238 194.067C37.1798 194.067 38.3558 194.435 39.2518 195.171C40.1478 195.907 40.6278 196.915 40.6918 198.195H38.5078C38.4598 197.507 38.1798 196.955 37.6678 196.539C37.1718 196.123 36.4998 195.915 35.6518 195.915C34.8678 195.915 34.2438 196.083 33.7798 196.419C33.3158 196.755 33.0838 197.195 33.0838 197.739C33.0838 198.171 33.2198 198.531 33.4918 198.819C33.7798 199.091 34.1318 199.315 34.5478 199.491C34.9798 199.651 35.5718 199.835 36.3238 200.043C37.2678 200.299 38.0358 200.555 38.6278 200.811C39.2198 201.051 39.7238 201.419 40.1398 201.915C40.5718 202.411 40.7958 203.059 40.8118 203.859C40.8118 204.579 40.6118 205.227 40.2118 205.803C39.8118 206.379 39.2438 206.835 38.5078 207.171C37.7878 207.491 36.9558 207.651 36.0118 207.651ZM49.6309 207.651C48.3989 207.651 47.2789 207.371 46.2709 206.811C45.2789 206.251 44.4949 205.459 43.9189 204.435C43.3589 203.395 43.0789 202.195 43.0789 200.835C43.0789 199.491 43.3669 198.307 43.9429 197.283C44.5349 196.243 45.3349 195.451 46.3429 194.907C47.3509 194.347 48.4789 194.067 49.7269 194.067C50.9749 194.067 52.1029 194.347 53.1109 194.907C54.1189 195.451 54.9109 196.235 55.4869 197.259C56.0789 198.283 56.3749 199.475 56.3749 200.835C56.3749 202.195 56.0709 203.395 55.4629 204.435C54.8709 205.459 54.0629 206.251 53.0389 206.811C52.0149 207.371 50.8789 207.651 49.6309 207.651ZM49.6309 205.731C50.4149 205.731 51.1509 205.547 51.8389 205.179C52.5269 204.811 53.0789 204.259 53.4949 203.523C53.9269 202.787 54.1429 201.891 54.1429 200.835C54.1429 199.779 53.9349 198.883 53.5189 198.147C53.1029 197.411 52.5589 196.867 51.8869 196.515C51.2149 196.147 50.4869 195.963 49.7029 195.963C48.9029 195.963 48.1669 196.147 47.4949 196.515C46.8389 196.867 46.3109 197.411 45.9109 198.147C45.5109 198.883 45.3109 199.779 45.3109 200.835C45.3109 201.907 45.5029 202.811 45.8869 203.547C46.2869 204.283 46.8149 204.835 47.4709 205.203C48.1269 205.555 48.8469 205.731 49.6309 205.731ZM58.4304 200.835C58.4304 199.475 58.7024 198.291 59.2464 197.283C59.7904 196.259 60.5424 195.467 61.5024 194.907C62.4784 194.347 63.5904 194.067 64.8384 194.067C66.4544 194.067 67.7824 194.459 68.8224 195.243C69.8784 196.027 70.5744 197.115 70.9104 198.507H68.5584C68.3344 197.707 67.8944 197.075 67.2384 196.611C66.5984 196.147 65.7984 195.915 64.8384 195.915C63.5904 195.915 62.5824 196.347 61.8144 197.211C61.0464 198.059 60.6624 199.267 60.6624 200.835C60.6624 202.419 61.0464 203.643 61.8144 204.507C62.5824 205.371 63.5904 205.803 64.8384 205.803C65.7984 205.803 66.5984 205.579 67.2384 205.131C67.8784 204.683 68.3184 204.043 68.5584 203.211H70.9104C70.5584 204.555 69.8544 205.635 68.7984 206.451C67.7424 207.251 66.4224 207.651 64.8384 207.651C63.5904 207.651 62.4784 207.371 61.5024 206.811C60.5424 206.251 59.7904 205.459 59.2464 204.435C58.7024 203.411 58.4304 202.211 58.4304 200.835ZM74.9526 192.147C74.5366 192.147 74.1846 192.003 73.8966 191.715C73.6086 191.427 73.4646 191.075 73.4646 190.659C73.4646 190.243 73.6086 189.891 73.8966 189.603C74.1846 189.315 74.5366 189.171 74.9526 189.171C75.3526 189.171 75.6886 189.315 75.9606 189.603C76.2486 189.891 76.3926 190.243 76.3926 190.659C76.3926 191.075 76.2486 191.427 75.9606 191.715C75.6886 192.003 75.3526 192.147 74.9526 192.147ZM76.0086 194.283V207.435H73.8246V194.283H76.0086ZM78.9148 200.811C78.9148 199.467 79.1868 198.291 79.7308 197.283C80.2748 196.259 81.0188 195.467 81.9628 194.907C82.9228 194.347 83.9868 194.067 85.1548 194.067C86.3068 194.067 87.3068 194.315 88.1548 194.811C89.0028 195.307 89.6348 195.931 90.0508 196.683V194.283H92.2588V207.435H90.0508V204.987C89.6188 205.755 88.9708 206.395 88.1068 206.907C87.2588 207.403 86.2668 207.651 85.1308 207.651C83.9628 207.651 82.9068 207.363 81.9628 206.787C81.0188 206.211 80.2748 205.403 79.7308 204.363C79.1868 203.323 78.9148 202.139 78.9148 200.811ZM90.0508 200.835C90.0508 199.843 89.8508 198.979 89.4508 198.243C89.0508 197.507 88.5068 196.947 87.8188 196.563C87.1468 196.163 86.4028 195.963 85.5868 195.963C84.7708 195.963 84.0268 196.155 83.3548 196.539C82.6828 196.923 82.1468 197.483 81.7468 198.219C81.3468 198.955 81.1468 199.819 81.1468 200.811C81.1468 201.819 81.3468 202.699 81.7468 203.451C82.1468 204.187 82.6828 204.755 83.3548 205.155C84.0268 205.539 84.7708 205.731 85.5868 205.731C86.4028 205.731 87.1468 205.539 87.8188 205.155C88.5068 204.755 89.0508 204.187 89.4508 203.451C89.8508 202.699 90.0508 201.827 90.0508 200.835ZM98.6136 196.083V203.835C98.6136 204.475 98.7496 204.931 99.0216 205.203C99.2936 205.459 99.7656 205.587 100.438 205.587H102.046V207.435H100.078C98.8616 207.435 97.9496 207.155 97.3416 206.595C96.7336 206.035 96.4296 205.115 96.4296 203.835V196.083H94.7256V194.283H96.4296V190.971H98.6136V194.283H102.046V196.083H98.6136ZM116.692 200.355C116.692 200.771 116.668 201.211 116.62 201.675H106.108C106.188 202.971 106.628 203.987 107.428 204.723C108.244 205.443 109.228 205.803 110.38 205.803C111.324 205.803 112.108 205.587 112.732 205.155C113.372 204.707 113.82 204.115 114.076 203.379H116.428C116.076 204.643 115.372 205.675 114.316 206.475C113.26 207.259 111.948 207.651 110.38 207.651C109.132 207.651 108.012 207.371 107.02 206.811C106.044 206.251 105.276 205.459 104.716 204.435C104.156 203.395 103.876 202.195 103.876 200.835C103.876 199.475 104.148 198.283 104.692 197.259C105.236 196.235 105.996 195.451 106.972 194.907C107.964 194.347 109.1 194.067 110.38 194.067C111.628 194.067 112.732 194.339 113.692 194.883C114.652 195.427 115.388 196.179 115.9 197.139C116.428 198.083 116.692 199.155 116.692 200.355ZM114.436 199.899C114.436 199.067 114.252 198.355 113.884 197.763C113.516 197.155 113.012 196.699 112.372 196.395C111.748 196.075 111.052 195.915 110.284 195.915C109.18 195.915 108.236 196.267 107.452 196.971C106.684 197.675 106.244 198.651 106.132 199.899H114.436ZM118.759 200.811C118.759 199.467 119.031 198.291 119.575 197.283C120.119 196.259 120.863 195.467 121.807 194.907C122.767 194.347 123.839 194.067 125.023 194.067C126.047 194.067 126.999 194.307 127.879 194.787C128.759 195.251 129.431 195.867 129.895 196.635V189.675H132.103V207.435H129.895V204.963C129.463 205.747 128.823 206.395 127.975 206.907C127.127 207.403 126.135 207.651 124.999 207.651C123.831 207.651 122.767 207.363 121.807 206.787C120.863 206.211 120.119 205.403 119.575 204.363C119.031 203.323 118.759 202.139 118.759 200.811ZM129.895 200.835C129.895 199.843 129.695 198.979 129.295 198.243C128.895 197.507 128.351 196.947 127.663 196.563C126.991 196.163 126.247 195.963 125.431 195.963C124.615 195.963 123.871 196.155 123.199 196.539C122.527 196.923 121.991 197.483 121.591 198.219C121.191 198.955 120.991 199.819 120.991 200.811C120.991 201.819 121.191 202.699 121.591 203.451C121.991 204.187 122.527 204.755 123.199 205.155C123.871 205.539 124.615 205.731 125.431 205.731C126.247 205.731 126.991 205.539 127.663 205.155C128.351 204.755 128.895 204.187 129.295 203.451C129.695 202.699 129.895 201.827 129.895 200.835ZM155.08 190.707V207.435H152.896V199.851H144.376V207.435H142.192V190.707H144.376V198.051H152.896V190.707H155.08ZM170.809 200.355C170.809 200.771 170.785 201.211 170.737 201.675H160.225C160.305 202.971 160.745 203.987 161.545 204.723C162.361 205.443 163.345 205.803 164.497 205.803C165.441 205.803 166.225 205.587 166.849 205.155C167.489 204.707 167.937 204.115 168.193 203.379H170.545C170.193 204.643 169.489 205.675 168.433 206.475C167.377 207.259 166.065 207.651 164.497 207.651C163.249 207.651 162.129 207.371 161.137 206.811C160.161 206.251 159.393 205.459 158.833 204.435C158.273 203.395 157.993 202.195 157.993 200.835C157.993 199.475 158.265 198.283 158.809 197.259C159.353 196.235 160.113 195.451 161.089 194.907C162.081 194.347 163.217 194.067 164.497 194.067C165.745 194.067 166.849 194.339 167.809 194.883C168.769 195.427 169.505 196.179 170.017 197.139C170.545 198.083 170.809 199.155 170.809 200.355ZM168.553 199.899C168.553 199.067 168.369 198.355 168.001 197.763C167.633 197.155 167.129 196.699 166.489 196.395C165.865 196.075 165.169 195.915 164.401 195.915C163.297 195.915 162.353 196.267 161.569 196.971C160.801 197.675 160.361 198.651 160.249 199.899H168.553ZM172.876 200.811C172.876 199.467 173.148 198.291 173.692 197.283C174.236 196.259 174.98 195.467 175.924 194.907C176.884 194.347 177.948 194.067 179.116 194.067C180.268 194.067 181.268 194.315 182.116 194.811C182.964 195.307 183.596 195.931 184.012 196.683V194.283H186.22V207.435H184.012V204.987C183.58 205.755 182.932 206.395 182.068 206.907C181.22 207.403 180.228 207.651 179.092 207.651C177.924 207.651 176.868 207.363 175.924 206.787C174.98 206.211 174.236 205.403 173.692 204.363C173.148 203.323 172.876 202.139 172.876 200.811ZM184.012 200.835C184.012 199.843 183.812 198.979 183.412 198.243C183.012 197.507 182.468 196.947 181.78 196.563C181.108 196.163 180.364 195.963 179.548 195.963C178.732 195.963 177.988 196.155 177.316 196.539C176.644 196.923 176.108 197.483 175.708 198.219C175.308 198.955 175.108 199.819 175.108 200.811C175.108 201.819 175.308 202.699 175.708 203.451C176.108 204.187 176.644 204.755 177.316 205.155C177.988 205.539 178.732 205.731 179.548 205.731C180.364 205.731 181.108 205.539 181.78 205.155C182.468 204.755 183.012 204.187 183.412 203.451C183.812 202.699 184.012 201.827 184.012 200.835ZM192.095 189.675V207.435H189.911V189.675H192.095ZM198.481 196.083V203.835C198.481 204.475 198.617 204.931 198.889 205.203C199.161 205.459 199.633 205.587 200.305 205.587H201.913V207.435H199.945C198.729 207.435 197.817 207.155 197.209 206.595C196.601 206.035 196.297 205.115 196.297 203.835V196.083H194.593V194.283H196.297V190.971H198.481V194.283H201.913V196.083H198.481ZM211.087 194.043C212.079 194.043 212.975 194.259 213.775 194.691C214.575 195.107 215.199 195.739 215.647 196.587C216.111 197.435 216.343 198.467 216.343 199.683V207.435H214.183V199.995C214.183 198.683 213.855 197.683 213.199 196.995C212.543 196.291 211.647 195.939 210.511 195.939C209.359 195.939 208.439 196.299 207.751 197.019C207.079 197.739 206.743 198.787 206.743 200.163V207.435H204.559V189.675H206.743V196.155C207.175 195.483 207.767 194.963 208.519 194.595C209.287 194.227 210.143 194.043 211.087 194.043ZM69.4226 231.603C69.4226 232.995 68.9426 234.155 67.9826 235.083C67.0386 235.995 65.5906 236.451 63.6386 236.451H60.4226V243.435H58.2386V226.707H63.6386C65.5266 226.707 66.9586 227.163 67.9346 228.075C68.9266 228.987 69.4226 230.163 69.4226 231.603ZM63.6386 234.651C64.8546 234.651 65.7506 234.387 66.3266 233.859C66.9026 233.331 67.1906 232.579 67.1906 231.603C67.1906 229.539 66.0066 228.507 63.6386 228.507H60.4226V234.651H63.6386ZM74.3211 232.419C74.7051 231.667 75.2491 231.083 75.9531 230.667C76.6731 230.251 77.5451 230.043 78.5691 230.043V232.299H77.9931C75.5451 232.299 74.3211 233.627 74.3211 236.283V243.435H72.1371V230.283H74.3211V232.419ZM86.8262 243.651C85.5942 243.651 84.4742 243.371 83.4662 242.811C82.4742 242.251 81.6902 241.459 81.1142 240.435C80.5542 239.395 80.2742 238.195 80.2742 236.835C80.2742 235.491 80.5622 234.307 81.1382 233.283C81.7302 232.243 82.5302 231.451 83.5382 230.907C84.5462 230.347 85.6742 230.067 86.9222 230.067C88.1702 230.067 89.2982 230.347 90.3062 230.907C91.3142 231.451 92.1062 232.235 92.6822 233.259C93.2742 234.283 93.5702 235.475 93.5702 236.835C93.5702 238.195 93.2662 239.395 92.6582 240.435C92.0662 241.459 91.2582 242.251 90.2342 242.811C89.2102 243.371 88.0742 243.651 86.8262 243.651ZM86.8262 241.731C87.6102 241.731 88.3462 241.547 89.0342 241.179C89.7222 240.811 90.2742 240.259 90.6902 239.523C91.1222 238.787 91.3382 237.891 91.3382 236.835C91.3382 235.779 91.1302 234.883 90.7142 234.147C90.2982 233.411 89.7542 232.867 89.0822 232.515C88.4102 232.147 87.6822 231.963 86.8982 231.963C86.0982 231.963 85.3622 232.147 84.6902 232.515C84.0342 232.867 83.5062 233.411 83.1062 234.147C82.7062 234.883 82.5062 235.779 82.5062 236.835C82.5062 237.907 82.6982 238.811 83.0822 239.547C83.4822 240.283 84.0102 240.835 84.6662 241.203C85.3222 241.555 86.0422 241.731 86.8262 241.731ZM98.6258 232.731C99.0738 231.947 99.7298 231.307 100.594 230.811C101.458 230.315 102.442 230.067 103.546 230.067C104.73 230.067 105.794 230.347 106.738 230.907C107.682 231.467 108.426 232.259 108.97 233.283C109.514 234.291 109.786 235.467 109.786 236.811C109.786 238.139 109.514 239.323 108.97 240.363C108.426 241.403 107.674 242.211 106.714 242.787C105.77 243.363 104.714 243.651 103.546 243.651C102.41 243.651 101.41 243.403 100.546 242.907C99.6978 242.411 99.0578 241.779 98.6258 241.011V243.435H96.4418V225.675H98.6258V232.731ZM107.554 236.811C107.554 235.819 107.354 234.955 106.954 234.219C106.554 233.483 106.01 232.923 105.322 232.539C104.65 232.155 103.906 231.963 103.09 231.963C102.29 231.963 101.546 232.163 100.858 232.563C100.186 232.947 99.6418 233.515 99.2258 234.267C98.8258 235.003 98.6258 235.859 98.6258 236.835C98.6258 237.827 98.8258 238.699 99.2258 239.451C99.6418 240.187 100.186 240.755 100.858 241.155C101.546 241.539 102.29 241.731 103.09 241.731C103.906 241.731 104.65 241.539 105.322 241.155C106.01 240.755 106.554 240.187 106.954 239.451C107.354 238.699 107.554 237.819 107.554 236.811ZM114.845 225.675V243.435H112.661V225.675H114.845ZM130.567 236.355C130.567 236.771 130.543 237.211 130.495 237.675H119.983C120.063 238.971 120.503 239.987 121.303 240.723C122.119 241.443 123.103 241.803 124.255 241.803C125.199 241.803 125.983 241.587 126.607 241.155C127.247 240.707 127.695 240.115 127.951 239.379H130.303C129.951 240.643 129.247 241.675 128.191 242.475C127.135 243.259 125.823 243.651 124.255 243.651C123.007 243.651 121.887 243.371 120.895 242.811C119.919 242.251 119.151 241.459 118.591 240.435C118.031 239.395 117.751 238.195 117.751 236.835C117.751 235.475 118.023 234.283 118.567 233.259C119.111 232.235 119.871 231.451 120.847 230.907C121.839 230.347 122.975 230.067 124.255 230.067C125.503 230.067 126.607 230.339 127.567 230.883C128.527 231.427 129.263 232.179 129.775 233.139C130.303 234.083 130.567 235.155 130.567 236.355ZM128.311 235.899C128.311 235.067 128.127 234.355 127.759 233.763C127.391 233.155 126.887 232.699 126.247 232.395C125.623 232.075 124.927 231.915 124.159 231.915C123.055 231.915 122.111 232.267 121.327 232.971C120.559 233.675 120.119 234.651 120.007 235.899H128.311ZM149.266 230.043C150.29 230.043 151.202 230.259 152.002 230.691C152.802 231.107 153.434 231.739 153.898 232.587C154.362 233.435 154.594 234.467 154.594 235.683V243.435H152.434V235.995C152.434 234.683 152.106 233.683 151.45 232.995C150.81 232.291 149.938 231.939 148.834 231.939C147.698 231.939 146.794 232.307 146.122 233.043C145.45 233.763 145.114 234.811 145.114 236.187V243.435H142.954V235.995C142.954 234.683 142.626 233.683 141.97 232.995C141.33 232.291 140.458 231.939 139.354 231.939C138.218 231.939 137.314 232.307 136.642 233.043C135.97 233.763 135.634 234.811 135.634 236.187V243.435H133.45V230.283H135.634V232.179C136.066 231.491 136.642 230.963 137.362 230.595C138.098 230.227 138.906 230.043 139.786 230.043C140.89 230.043 141.866 230.291 142.714 230.787C143.562 231.283 144.194 232.011 144.61 232.971C144.978 232.043 145.586 231.323 146.434 230.811C147.282 230.299 148.226 230.043 149.266 230.043ZM162.832 243.651C161.824 243.651 160.92 243.483 160.12 243.147C159.32 242.795 158.688 242.315 158.224 241.707C157.76 241.083 157.504 240.371 157.456 239.571H159.712C159.776 240.227 160.08 240.763 160.624 241.179C161.184 241.595 161.912 241.803 162.808 241.803C163.64 241.803 164.296 241.619 164.776 241.251C165.256 240.883 165.496 240.419 165.496 239.859C165.496 239.283 165.24 238.859 164.728 238.587C164.216 238.299 163.424 238.019 162.352 237.747C161.376 237.491 160.576 237.235 159.952 236.979C159.344 236.707 158.816 236.315 158.368 235.803C157.936 235.275 157.72 234.587 157.72 233.739C157.72 233.067 157.92 232.451 158.32 231.891C158.72 231.331 159.288 230.891 160.024 230.571C160.76 230.235 161.6 230.067 162.544 230.067C164 230.067 165.176 230.435 166.072 231.171C166.968 231.907 167.448 232.915 167.512 234.195H165.328C165.28 233.507 165 232.955 164.488 232.539C163.992 232.123 163.32 231.915 162.472 231.915C161.688 231.915 161.064 232.083 160.6 232.419C160.136 232.755 159.904 233.195 159.904 233.739C159.904 234.171 160.04 234.531 160.312 234.819C160.6 235.091 160.952 235.315 161.368 235.491C161.8 235.651 162.392 235.835 163.144 236.043C164.088 236.299 164.856 236.555 165.448 236.811C166.04 237.051 166.544 237.419 166.96 237.915C167.392 238.411 167.616 239.059 167.632 239.859C167.632 240.579 167.432 241.227 167.032 241.803C166.632 242.379 166.064 242.835 165.328 243.171C164.608 243.491 163.776 243.651 162.832 243.651Z" fill="black"/>
<defs>
<linearGradient id="paint0_linear" x1="-143947" y1="13478.4" x2="-155549" y2="13478.4" gradientUnits="userSpaceOnUse">
<stop stop-color="#808080" stop-opacity="0.25"/>
<stop offset="0.54" stop-color="#808080" stop-opacity="0.12"/>
<stop offset="1" stop-color="#808080" stop-opacity="0.1"/>
</linearGradient>
</defs>
</svg>
