<svg width="217" height="198" viewBox="0 0 217 198" fill="none" xmlns="http://www.w3.org/2000/svg">
<path opacity="0.1" d="M26.5568 15.551C25.2871 16.075 23.984 16.7476 23.2863 17.9266C22.5473 19.1721 22.6357 20.7187 22.7733 22.1597C23.9722 34.6575 27.1307 47.9491 21.6766 59.2698C19.0292 64.762 14.601 69.1633 11.079 74.151C7.55694 79.1388 4.89771 85.3662 6.53295 91.2338C8.52982 98.4036 15.9827 102.379 21.0064 107.896C24.2946 111.504 26.6 115.887 29.668 119.682C32.7361 123.477 36.9401 126.821 41.838 127.044C48.8821 127.366 54.6133 121.315 61.5198 119.913C68.5954 118.478 75.7201 122.13 81.4572 126.502C87.1943 130.874 92.4125 136.171 99.0969 138.9C106.479 141.917 114.801 141.456 122.572 143.268C129.648 144.92 136.161 148.434 143.185 150.307C150.21 152.18 158.443 152.067 163.885 147.282C170.979 141.026 170.42 129.881 174.951 121.604C179.159 113.914 187.396 109.324 192.94 102.525C202.917 90.2895 202.591 71.5877 194.12 58.2805C185.649 44.9732 170.305 36.9157 154.614 34.8178C147.539 33.8734 140.253 34.0025 133.451 31.8537C115.243 26.1053 104.408 5.50897 85.8185 1.22312C74.0023 -1.4966 62.5104 3.21354 52.4454 9.01078C43.7091 14.0435 35.6488 11.7989 26.5568 15.551Z" fill="#FF6400"/>
<path d="M44.3013 55.9265C44.3013 55.9265 37.5933 62.2243 30.3939 62.412C27.3707 62.4719 24.4486 63.5058 22.0664 65.3585C20.9403 66.244 19.8982 67.2303 18.9531 68.305" stroke="#535461" stroke-width="2" stroke-miterlimit="10"/>
<path d="M14.4136 68.4596C15.3806 67.9707 19.0717 68.2953 19.0717 68.2953C19.0717 68.2953 17.1573 71.453 16.1903 71.9418C15.9587 72.0784 15.7014 72.1662 15.4343 72.1997C15.1672 72.2333 14.896 72.2119 14.6376 72.1369C14.3791 72.0618 14.1389 71.9348 13.9319 71.7636C13.7248 71.5924 13.5553 71.3808 13.4339 71.1417C13.3125 70.9027 13.2417 70.6414 13.226 70.374C13.2103 70.1067 13.25 69.8389 13.3426 69.5874C13.4351 69.336 13.5787 69.1061 13.7643 68.9121C13.9499 68.718 14.1735 68.564 14.4214 68.4596H14.4136Z" fill="#04DD32"/>
<path d="M18.2974 62.8773C19.3765 62.9907 22.2971 65.2587 22.2971 65.2587C22.2971 65.2587 18.9559 66.8737 17.8867 66.7623C17.3864 66.6871 16.9346 66.4229 16.6252 66.0247C16.3158 65.6265 16.1727 65.125 16.2256 64.6245C16.2786 64.124 16.5234 63.663 16.9093 63.3376C17.2952 63.0121 17.7924 62.8473 18.2974 62.8773Z" fill="#04DD32"/>
<path d="M27.5124 58.3785C28.385 59.0178 29.7569 62.4434 29.7569 62.4434C29.7569 62.4434 26.0599 62.1638 25.1873 61.5264C24.794 61.2102 24.5382 60.7555 24.4733 60.2566C24.4084 59.7577 24.5392 59.2532 24.8386 58.8478C25.138 58.4424 25.583 58.1674 26.081 58.08C26.5789 57.9926 27.0916 58.0995 27.5124 58.3785Z" fill="#04DD32"/>
<path d="M35.2563 56.5385C36.2253 57.0214 38.1593 60.1674 38.1593 60.1674C38.1593 60.1674 34.4682 60.5134 33.4992 60.0305C33.2548 59.9243 33.0346 59.7697 32.8521 59.5761C32.6696 59.3825 32.5286 59.154 32.4378 58.9045C32.3469 58.655 32.3081 58.3897 32.3237 58.1247C32.3392 57.8598 32.4088 57.6008 32.5282 57.3635C32.6476 57.1262 32.8143 56.9155 33.0182 56.7444C33.2221 56.5732 33.4589 56.4452 33.7141 56.368C33.9694 56.2908 34.2377 56.2661 34.5029 56.2954C34.768 56.3247 35.0244 56.4074 35.2563 56.5385Z" fill="#04DD32"/>
<path d="M24.3526 68.8194C24.6749 67.789 23.7315 64.2227 23.7315 64.2227C23.7315 64.2227 20.9249 66.6315 20.6025 67.6619C20.5117 67.9106 20.4726 68.1751 20.4875 68.4392C20.5024 68.7034 20.5711 68.9618 20.6893 69.1989C20.8076 69.4359 20.9729 69.6465 21.1754 69.8181C21.3779 69.9897 21.6133 70.1186 21.8674 70.197C22.1214 70.2754 22.3888 70.3017 22.6534 70.2743C22.9179 70.2469 23.1741 70.1663 23.4065 70.0375C23.6388 69.9088 23.8425 69.7344 24.0051 69.525C24.1677 69.3156 24.2859 69.0756 24.3526 68.8194Z" fill="#04DD32"/>
<path d="M33.3801 66.5455C33.3801 65.4662 31.4048 62.3457 31.4048 62.3457C31.4048 62.3457 29.4512 65.4741 29.4531 66.5573C29.4547 67.0758 29.6633 67.5725 30.033 67.9381C30.4026 68.3037 30.9032 68.5082 31.4245 68.5066C31.9457 68.5051 32.445 68.2976 32.8125 67.9298C33.18 67.562 33.3855 67.0641 33.384 66.5455H33.3801Z" fill="#04DD32"/>
<path d="M41.8469 63.151C42.0278 62.0874 40.6127 58.6794 40.6127 58.6794C40.6127 58.6794 38.1539 61.4402 37.975 62.5039C37.9146 63.0029 38.0497 63.5058 38.3523 63.9084C38.6548 64.3109 39.1015 64.5821 39.5998 64.6656C40.098 64.7492 40.6094 64.6386 41.0278 64.3569C41.4463 64.0753 41.7396 63.6441 41.8469 63.153V63.151Z" fill="#04DD32"/>
<path d="M53.0175 39.2485C53.0175 39.2485 44.9376 34.8336 42.5359 28.0705C41.5492 25.2265 39.6615 22.7779 37.1565 21.0923C35.9611 20.301 34.6953 19.6203 33.375 19.0588" stroke="#535461" stroke-width="2" stroke-miterlimit="10"/>
<path d="M31.8446 14.806C32.6091 15.5705 33.4327 19.1662 33.4327 19.1662C33.4327 19.1662 29.8241 18.3254 29.0596 17.559C28.7219 17.186 28.5414 16.6981 28.5554 16.1964C28.5694 15.6946 28.7769 15.2175 29.1348 14.8637C29.4927 14.5099 29.9737 14.3066 30.4781 14.2959C30.9825 14.2851 31.4718 14.4678 31.8446 14.806Z" fill="#04DD32"/>
<path d="M38.3796 16.7672C38.6037 17.823 37.332 21.2857 37.332 21.2857C37.332 21.2857 34.7632 18.6285 34.5392 17.5708C34.4727 17.3149 34.459 17.0484 34.4989 16.7872C34.5389 16.5259 34.6316 16.2755 34.7716 16.0509C34.9115 15.8263 35.0958 15.6323 35.3133 15.4806C35.5307 15.3288 35.7768 15.2225 36.0367 15.168C36.2966 15.1135 36.5649 15.112 36.8254 15.1635C37.0859 15.2151 37.3332 15.3186 37.5524 15.4679C37.7715 15.6172 37.958 15.8091 38.1005 16.0321C38.2431 16.2551 38.3387 16.5045 38.3816 16.7652L38.3796 16.7672Z" fill="#04DD32"/>
<path d="M45.5113 24.1168C45.1693 25.1394 42.3135 27.4915 42.3135 27.4915C42.3135 27.4915 41.4448 23.9076 41.7868 22.8831C41.9512 22.3904 42.3057 21.983 42.7721 21.7503C43.2386 21.5177 43.7788 21.4789 44.274 21.6425C44.7692 21.8061 45.1788 22.1587 45.4127 22.6227C45.6466 23.0867 45.6856 23.6242 45.5211 24.1168H45.5113Z" fill="#04DD32"/>
<path d="M49.6561 30.8721C49.493 31.9377 47.0775 34.7356 47.0775 34.7356C47.0775 34.7356 45.6113 31.3492 45.7744 30.2836C45.8016 30.0203 45.8822 29.7651 46.0115 29.5337C46.1407 29.3023 46.3158 29.0994 46.5263 28.9373C46.7367 28.7753 46.978 28.6574 47.2356 28.5908C47.4931 28.5243 47.7616 28.5105 48.0247 28.5502C48.2878 28.59 48.54 28.6825 48.7661 28.8221C48.9922 28.9617 49.1875 29.1456 49.34 29.3625C49.4926 29.5794 49.5992 29.8249 49.6536 30.0841C49.7079 30.3432 49.7088 30.6107 49.6561 30.8702V30.8721Z" fill="#04DD32"/>
<path d="M34.5546 24.3263C35.6395 24.3145 38.7606 22.3241 38.7606 22.3241C38.7606 22.3241 35.5943 20.408 34.5094 20.4197C33.9881 20.4257 33.4906 20.6374 33.1262 21.0083C32.7619 21.3792 32.5605 21.8789 32.5665 22.3974C32.5725 22.916 32.7854 23.411 33.1582 23.7734C33.531 24.1359 34.0333 24.3361 34.5546 24.3302V24.3263Z" fill="#04DD32"/>
<path d="M39.4962 32.1744C40.5261 31.84 42.9062 29.0128 42.9062 29.0128C42.9062 29.0128 39.3075 28.1271 38.2776 28.4614C38.0235 28.5336 37.7866 28.656 37.5811 28.8213C37.3756 28.9866 37.2057 29.1915 37.0816 29.4236C36.9575 29.6558 36.8818 29.9104 36.8589 30.1724C36.8361 30.4343 36.8665 30.6981 36.9485 30.9481C37.0305 31.1981 37.1623 31.429 37.3361 31.6271C37.5099 31.8252 37.722 31.9864 37.9599 32.1011C38.1977 32.2157 38.4563 32.2815 38.7203 32.2944C38.9843 32.3073 39.2482 32.2672 39.4962 32.1763V32.1744Z" fill="#04DD32"/>
<path d="M45.3554 39.1468C46.4285 38.9904 49.2548 36.6051 49.2548 36.6051C49.2548 36.6051 45.8585 35.1269 44.7874 35.2833C44.5236 35.3104 44.268 35.3903 44.036 35.5182C43.8041 35.6461 43.6005 35.8194 43.4377 36.0276C43.2748 36.2358 43.156 36.4747 43.0884 36.7298C43.0208 36.9849 43.0058 37.251 43.0442 37.512C43.0827 37.773 43.1739 38.0236 43.3123 38.2487C43.4508 38.4737 43.6335 38.6686 43.8496 38.8215C44.0657 38.9744 44.3107 39.0823 44.5699 39.1385C44.829 39.1948 45.0968 39.1983 45.3573 39.1488L45.3554 39.1468Z" fill="#04DD32"/>
<path d="M108.621 146.371C147.916 146.371 179.77 114.683 179.77 75.5923C179.77 36.5021 147.916 4.81323 108.621 4.81323C69.327 4.81323 37.4727 36.5021 37.4727 75.5923C37.4727 114.683 69.327 146.371 108.621 146.371Z" fill="url(#paint0_linear)"/>
<path d="M108.622 145.198C147.265 145.198 178.591 114.035 178.591 75.5923C178.591 37.15 147.265 5.98633 108.622 5.98633C69.9787 5.98633 38.6523 37.15 38.6523 75.5923C38.6523 114.035 69.9787 145.198 108.622 145.198Z" fill="#FF6400"/>
<path d="M108.622 130.925C139.341 130.925 164.243 106.152 164.243 75.5924C164.243 45.0329 139.341 20.2595 108.622 20.2595C77.9027 20.2595 53 45.0329 53 75.5924C53 106.152 77.9027 130.925 108.622 130.925Z" fill="#DDE1EC"/>
<path opacity="0.3" d="M110.195 30.0354H107.051V78.916H110.195V30.0354Z" fill="#535461"/>
<g opacity="0.1">
<path opacity="0.1" d="M156.384 74.4189H111.965V78.3294H156.384V74.4189Z" fill="black"/>
<path opacity="0.1" d="M80.6048 59.789L78.7812 63.2532L106.73 77.8133L108.554 74.3491L80.6048 59.789Z" fill="black"/>
<path opacity="0.1" d="M108.623 82.2399C111.879 82.2399 114.519 79.6137 114.519 76.3742C114.519 73.1347 111.879 70.5085 108.623 70.5085C105.366 70.5085 102.727 73.1347 102.727 76.3742C102.727 79.6137 105.366 82.2399 108.623 82.2399Z" fill="black"/>
</g>
<path d="M156.384 73.637H111.965V77.5474H156.384V73.637Z" fill="#535461"/>
<path d="M108.566 73.5716L80.6172 59.0115L78.7936 62.4757L106.742 77.0357L108.566 73.5716Z" fill="#535461"/>
<path d="M108.623 81.4579C111.879 81.4579 114.519 78.8318 114.519 75.5922C114.519 72.3527 111.879 69.7266 108.623 69.7266C105.366 69.7266 102.727 72.3527 102.727 75.5922C102.727 78.8318 105.366 81.4579 108.623 81.4579Z" fill="#535461"/>
<g opacity="0.1">
<path opacity="0.1" d="M57.324 82.2401C57.324 51.68 82.226 26.9073 112.946 26.9073C121.568 26.8997 130.074 28.8894 137.789 32.7189C145.504 36.5483 152.217 42.1122 157.396 48.97C147.93 31.8579 129.652 20.2595 108.622 20.2595C77.9021 20.2595 53.0001 45.0322 53.0001 75.5924C52.982 87.5978 56.9069 99.2804 64.1775 108.862C59.6686 100.707 57.3107 91.5477 57.324 82.2401Z" fill="black"/>
</g>
<path d="M160.014 34.8882C159.354 34.2567 153.795 38.4076 153.795 38.4076C153.795 38.4076 151.816 38.7674 152.288 40.1184C152.76 41.4695 150.214 49.0362 150.214 49.0362L149.179 47.5952C149.279 45.9039 148.811 44.7054 148.355 43.9585C148.318 43.8979 148.28 43.8392 148.243 43.7845L148.424 43.7219C148.355 42.799 146.871 41.3932 146.083 40.705C146.083 40.6053 146.083 40.5095 146.083 40.4078C146.132 39.3051 146.576 38.1417 146.083 37.1426C145.525 36.0027 143.892 35.4298 143.754 34.1785C143.672 33.4316 144.179 32.757 144.403 32.0375C144.937 30.3169 143.827 28.5611 142.765 27.079C142.406 26.5234 141.969 26.0217 141.466 25.5892C140.988 25.2412 140.463 24.9621 139.906 24.7601C138.351 24.1345 136.761 23.8197 135.157 23.3915C133.618 22.9848 132.199 22.7912 130.637 23.3015C130.266 23.401 129.927 23.5943 129.654 23.8627C129.283 24.2772 129.234 24.8677 128.99 25.3623C128.597 26.1581 127.75 26.6332 127.001 27.1436C126.252 27.6539 125.501 28.3538 125.497 29.2337C125.497 30.4831 126.932 31.2691 127.412 32.4324C127.86 33.5156 127.412 34.722 127.162 35.8639C127.058 36.2329 127.048 36.622 127.132 36.9959C127.231 37.2746 127.381 37.533 127.573 37.7585C127.869 38.1495 128.188 38.5132 128.504 38.8847L128.359 38.9414C125.721 38.6716 124.025 42.0033 124.025 42.0033C124.147 42.0287 124.263 42.058 124.377 42.0912L124.265 42.2359C123.468 43.2656 122.817 44.3991 122.329 45.6048L120.167 48.4868C120.167 48.4868 119.695 41.2798 120.827 39.6589C121.959 38.0381 119.792 37.0468 119.792 37.0468C119.792 37.0468 115.075 31.8224 114.42 32.2721C113.766 32.7218 116.022 38.3978 118.001 39.2992C118.001 39.2992 118.198 41.0999 117.805 42.2711C117.567 43.0122 116.297 50.8291 116.297 50.8291C116.297 50.8291 115.167 57.4046 120.35 54.153C123.717 52.0453 125.892 48.4164 127.001 46.1366C127.078 45.9763 127.151 45.8231 127.219 45.6771C127.27 45.9189 127.305 46.1639 127.323 46.4103L127.52 53.9438C127.569 55.8072 127.161 57.6544 126.329 59.3246L124.019 63.9839L124.277 64.0621L124.121 64.285C122.6 66.512 120.014 71.5193 125.338 74.0709L132.414 74.9723L132.036 76.773C132.036 76.773 129.116 82.2672 128.267 86.0506C127.739 88.3674 126.915 90.6074 125.816 92.7159L126.034 92.8313C125.989 92.8821 125.941 92.9349 125.896 92.9897C125.467 93.4697 125.184 94.0608 125.079 94.6946L124.119 96.0476C124.119 96.0476 123.742 101.632 124.497 102.985C124.91 103.724 126.279 104.193 127.445 104.467C129.175 104.875 130.57 103.098 129.652 101.634L129.64 101.614H129.623C129.426 100.705 128.825 97.8836 129.021 96.8121C129.076 96.5071 129.127 96.204 129.153 95.8951C129.2 95.4892 129.324 95.0958 129.518 94.7357C129.55 94.6751 129.583 94.6164 129.617 94.5577L129.719 94.6008C130.035 94.7357 130.348 94.8628 130.645 94.9742C130.185 95.3907 129.859 96.2529 130.252 98.0263C130.252 98.0263 130.289 102.463 130.629 103.161C130.969 103.859 134.774 104.782 135.434 104.062C136.095 103.343 135.01 100.863 135.01 100.863L134.976 100.887C134.758 99.4497 134.489 96.8766 135.151 95.8638C135.419 95.4552 135.678 95.0329 135.91 94.6379L136.054 94.3935C137.284 95.0035 138.585 95.463 139.297 95.1443C139.297 95.1443 142.406 87.9373 142.217 87.0379C142.028 86.1385 147.023 75.9577 147.023 75.9577C147.023 75.9577 151.262 71.2652 146.081 68.0312C144.436 67.0008 143.237 66.3087 142.367 65.8414L141.637 62.0482C141.262 60.0597 141.33 58.0135 141.834 56.0535L142.62 53.0698L142.685 52.8157C142.685 52.8157 144.664 48.7625 144.57 46.8698C144.562 46.7228 144.579 46.5756 144.619 46.4338C144.641 46.5237 144.664 46.6176 144.69 46.7153C145.21 48.6825 145.895 50.6028 146.738 52.4559C148.241 55.8306 150.472 55.5627 151.694 55.0837C151.956 54.983 152.188 54.8191 152.371 54.6068C152.553 54.3945 152.679 54.1405 152.738 53.8676C153.178 51.7677 154.387 45.8844 154.464 44.2596C154.532 42.9891 154.69 41.7249 154.935 40.4762C158.037 38.6716 160.674 35.5197 160.014 34.8882Z" fill="url(#paint1_linear)"/>
<path d="M136.942 92.6107C136.942 92.6107 136.527 93.4377 135.959 94.431C135.737 94.822 135.489 95.2424 135.236 95.6471C134.338 97.0764 135.236 101.63 135.236 101.63L133.27 101.898L131.305 100.92L130.945 97.616V95.1994L133.186 92.7065L134.169 91.6272L136.942 92.6107Z" fill="#F8BDC5"/>
<g opacity="0.1">
<path opacity="0.1" d="M136.943 92.6107C136.943 92.6107 136.529 93.4377 135.961 94.4309C135.093 93.9696 134.254 93.4564 133.449 92.8942L133.276 92.7729L133.184 92.7065L134.166 91.6272L136.943 92.6107Z" fill="black"/>
</g>
<path d="M146.549 75.9089C146.549 75.9089 141.791 85.9998 141.972 86.8933C142.153 87.7869 139.189 94.9312 139.189 94.9312C138.513 95.248 137.27 94.7924 136.099 94.1883C135.216 93.7199 134.362 93.1975 133.544 92.6241L133.371 92.5029L133.267 92.4286L141.078 70.9055L134.167 65.8629L133.656 65.4895L130.566 63.2214L140 64.9186C140 64.9186 140.329 64.8775 142.064 65.8434C142.898 66.3068 144.055 67.0009 145.655 68.045C150.586 71.2652 146.549 75.9089 146.549 75.9089Z" fill="#5E52AD"/>
<g opacity="0.03">
<path opacity="0.03" d="M146.549 75.9089C146.549 75.9089 141.791 85.9998 141.972 86.8933C142.153 87.7869 139.189 94.9312 139.189 94.9312C138.513 95.248 137.27 94.7924 136.099 94.1883C135.216 93.7199 134.362 93.1975 133.544 92.6241L133.371 92.5029L133.267 92.4286L141.078 70.9055L134.167 65.8629L133.656 65.4895L130.566 63.2214L140 64.9186C140 64.9186 140.329 64.8775 142.064 65.8434C142.898 66.3068 144.055 67.0009 145.655 68.045C150.586 71.2652 146.549 75.9089 146.549 75.9089Z" fill="black"/>
</g>
<path d="M132.094 94.3954C132.094 94.3954 129.759 94.0376 130.569 97.7897C130.569 97.7897 130.604 102.189 130.929 102.873C131.253 103.558 134.879 104.48 135.506 103.767C136.133 103.053 135.101 100.597 135.101 100.597C135.101 100.597 132.454 102.517 131.735 100.462C131.015 98.4075 132.094 94.3954 132.094 94.3954Z" fill="#5D3E53"/>
<path d="M130.479 93.6818C130.224 93.9232 130.017 94.2096 129.868 94.5265C129.682 94.8854 129.564 95.275 129.52 95.6762C129.496 95.9812 129.447 96.2843 129.396 96.5854C129.172 97.8582 130.031 101.63 130.031 101.63L126.619 102.166L125.363 100.826L125.094 97.8797C125.429 96.8694 125.61 95.815 125.632 94.7514C125.632 93.983 126.025 93.2967 126.418 92.7961C126.685 92.4621 126.99 92.1609 127.328 91.8987C127.328 91.8987 131.198 93.0562 130.479 93.6818Z" fill="#F8BDC5"/>
<g opacity="0.1">
<path opacity="0.1" d="M130.479 93.6818C130.224 93.9232 130.016 94.2096 129.867 94.5265C128.47 93.8989 127.002 93.107 126.467 92.8137L126.426 92.7922C126.692 92.4582 126.998 92.157 127.336 91.8948C127.336 91.8948 131.198 93.0562 130.479 93.6818Z" fill="black"/>
</g>
<path d="M141.526 73.2302C141.526 73.2302 139.283 77.4281 137.844 80.9103C136.901 83.198 134.951 88.6452 133.717 92.1138L133.536 92.626C132.994 94.1609 132.632 95.1991 132.632 95.1991C132.393 95.2007 132.155 95.1657 131.926 95.0955C131.714 95.0388 131.476 94.9625 131.223 94.8687L130.938 94.7611C130.655 94.6517 130.348 94.5246 130.055 94.3916C128.628 93.7581 127.107 92.933 126.555 92.6319L126.346 92.5166C127.4 90.417 128.186 88.195 128.687 85.902C129.495 82.1519 132.278 76.7125 132.278 76.7125L132.638 74.9254L125.904 74.0319C120.831 71.5096 123.296 66.5375 124.745 64.33C124.992 63.9469 125.259 63.5768 125.545 63.2214L130.932 64.3946C130.932 64.3946 131.781 64.6644 133.668 65.4954L134.535 65.8864C135.592 66.3693 136.893 66.9911 138.465 67.7888C143.768 70.4558 141.526 73.2302 141.526 73.2302Z" fill="#5E52AD"/>
<path d="M129.999 101.362C130.191 101.684 130.283 102.055 130.264 102.429C130.244 102.803 130.113 103.163 129.888 103.463C129.664 103.763 129.354 103.991 129 104.116C128.645 104.242 128.261 104.261 127.896 104.17C126.793 103.898 125.486 103.432 125.093 102.699C124.376 101.36 124.734 95.8228 124.734 95.8228L125.677 94.4385C125.677 94.4385 125.184 100.556 126.351 101.086C127.519 101.616 129.987 101.335 129.987 101.335L129.999 101.362Z" fill="#5D3E53"/>
<path d="M130.951 23.6986C130.592 23.7979 130.266 23.9902 130.007 24.2559C129.653 24.6665 129.614 25.253 129.374 25.7438C129.001 26.5259 128.195 27.0049 127.48 27.5035C126.764 28.0021 126.051 28.704 126.047 29.576C126.047 30.8156 127.423 31.5938 127.871 32.7454C128.297 33.8208 127.871 35.0155 127.633 36.1475C127.534 36.5141 127.524 36.8989 127.605 37.2698C127.699 37.545 127.842 37.8012 128.026 38.0265C128.893 39.1996 129.97 40.2398 130.55 41.5752C130.99 42.59 131.112 43.7103 131.228 44.8111C131.395 46.3949 131.562 48.0079 131.259 49.5721C131.23 49.6657 131.23 49.766 131.259 49.8595C131.311 49.9492 131.392 50.0184 131.489 50.055C132.061 50.3315 132.683 50.49 133.318 50.5211C133.953 50.5523 134.588 50.4553 135.185 50.2362C135.781 50.017 136.327 49.6801 136.789 49.2458C137.252 48.8115 137.621 48.2887 137.875 47.7088C138.268 46.8231 138.419 45.7535 139.198 45.1787C139.288 45.104 139.398 45.0547 139.514 45.036C139.698 45.041 139.875 45.1002 140.025 45.2061C141.035 45.7496 142.26 45.7653 143.386 45.5424C144.066 45.4075 144.762 45.167 145.212 44.6391C146.098 43.5911 145.605 42.0249 145.664 40.6582C145.711 39.5653 146.134 38.4117 145.664 37.4223C145.133 36.2922 143.575 35.7252 143.445 34.4895C143.366 33.7504 143.85 33.0798 144.064 32.3681C144.573 30.6612 143.516 28.921 142.505 27.4527C142.166 26.9049 141.749 26.4079 141.269 25.9765C140.816 25.6332 140.316 25.3566 139.783 25.1553C138.303 24.5355 136.794 24.2226 135.263 23.8003C133.797 23.3838 132.446 23.1903 130.951 23.6986Z" fill="#85555C"/>
<path d="M138.468 49.2064H133.259V40.8106C133.414 40.0043 133.505 39.1871 133.531 38.3666C133.531 38.0909 133.531 37.8094 133.531 37.5259C133.481 36.5248 133.273 35.5257 132.727 34.9156C131.29 33.3084 137.395 33.5763 137.395 33.5763C137.582 34.3143 137.825 35.0372 138.122 35.7388C138.564 36.8335 139.152 37.864 139.871 38.8026C140.503 39.6378 141.313 40.3235 142.243 40.8106C145.828 42.5977 138.468 49.2064 138.468 49.2064Z" fill="#F8BDC5"/>
<g opacity="0.1">
<path opacity="0.1" d="M138.118 35.7388C137.589 36.4247 136.882 36.9538 136.073 37.2688C135.263 37.5837 134.383 37.6727 133.527 37.5259C133.478 36.5248 133.269 35.5257 132.723 34.9156C131.286 33.3084 137.391 33.5763 137.391 33.5763C137.578 34.3143 137.821 35.0372 138.118 35.7388Z" fill="black"/>
</g>
<path d="M134.336 37.3302C136.964 37.3302 139.095 35.2109 139.095 32.5966C139.095 29.9823 136.964 27.863 134.336 27.863C131.708 27.863 129.578 29.9823 129.578 32.5966C129.578 35.2109 131.708 37.3302 134.336 37.3302Z" fill="#F8BDC5"/>
<path d="M154.091 40.7228C153.857 41.9614 153.708 43.2143 153.643 44.4729C153.57 46.082 152.418 51.9164 151.998 53.9988C151.945 54.2658 151.826 54.5156 151.653 54.7261C151.479 54.9365 151.256 55.1011 151.003 55.2051C149.836 55.6803 147.713 55.9462 146.286 52.6008C145.482 50.76 144.829 48.8571 144.334 46.9111C144.16 46.2569 144.028 45.592 143.941 44.9206L147.086 43.2235C147.382 43.499 147.633 43.819 147.829 44.1718C148.263 44.9128 148.71 46.1016 148.615 47.7772L149.598 49.2065C149.598 49.2065 152.021 41.7043 151.563 40.365C151.105 39.0256 153 38.6678 153 38.6678C153 38.6678 158.297 34.5619 158.926 35.1856C159.555 35.8093 157.053 38.9357 154.091 40.7228Z" fill="#F8BDC5"/>
<path d="M128.324 44.2949C128.079 44.9935 127.797 45.6787 127.479 46.3479C126.422 48.6101 124.35 52.2135 121.142 54.2978C116.205 57.5122 117.282 50.9935 117.282 50.9935C117.282 50.9935 118.491 43.243 118.719 42.5098C119.079 41.3484 118.898 39.5632 118.898 39.5632C117.013 38.6697 114.859 33.0445 115.486 32.5968C116.113 32.149 120.596 37.3304 120.596 37.3304C120.596 37.3304 122.662 38.308 121.579 39.921C120.496 41.5341 120.95 48.6726 120.95 48.6726L123.027 45.8199C123.489 44.6296 124.11 43.5064 124.873 42.4804C125.266 41.9467 125.541 41.624 125.541 41.624L128.324 44.2949Z" fill="#F8BDC5"/>
<g opacity="0.1">
<path opacity="0.1" d="M147.831 44.1717C147.171 44.4141 144.614 45.4406 144.331 46.909C144.156 46.2549 144.024 45.5899 143.938 44.9186L147.082 43.2214C147.38 43.4971 147.633 43.8178 147.831 44.1717Z" fill="black"/>
</g>
<g opacity="0.1">
<path opacity="0.1" d="M128.322 44.2949C128.077 44.9935 127.795 45.6787 127.477 46.3479C127.355 45.4641 126.854 43.2039 124.871 42.4746C125.264 41.9408 125.539 41.6182 125.539 41.6182L128.322 44.2949Z" fill="black"/>
</g>
<g opacity="0.1">
<path opacity="0.1" d="M138.47 49.2065H133.262V40.8107C133.416 40.0044 133.507 39.1872 133.533 38.3667C134.604 39.3951 134.339 40.9887 134.339 40.9887L137.122 47.2454L138.47 41.714L138.022 41.0004L139.87 38.8144C140.502 39.6496 141.312 40.3353 142.242 40.8225C145.831 42.5978 138.47 49.2065 138.47 49.2065Z" fill="black"/>
</g>
<g opacity="0.1">
<path opacity="0.1" d="M142.148 66.3498C142.148 66.3498 138.068 66.0272 134.528 65.8747L134.172 65.859C133.669 65.8395 133.19 65.8238 132.72 65.8121C129.284 65.73 125.399 64.5353 124.738 64.3261C124.986 63.9442 125.254 63.5755 125.54 63.2214L130.927 64.3946C130.927 64.3946 131.776 64.6644 133.663 65.4954L130.568 63.2214L140.002 64.9186C140.002 64.9186 140.33 64.8775 142.066 65.8434L142.148 66.3498Z" fill="black"/>
</g>
<path d="M138.471 42.0621L138.023 41.3484L140.016 38.9767C140.016 38.9767 144.126 40.9808 145.203 40.5409C145.203 40.5409 147.807 42.6917 147.896 43.9352C147.896 43.9352 144.126 45.1846 144.214 47.0635C144.303 48.9425 142.426 52.9566 142.426 52.9566L141.64 56.1671C141.156 58.1127 141.089 60.1378 141.443 62.1109L142.16 66.0859C142.16 66.0859 136.504 65.6401 132.726 65.5502C128.949 65.4602 124.646 64.0329 124.646 64.0329L126.85 59.4205C127.644 57.756 128.033 55.9287 127.986 54.0867L127.789 46.6197C127.789 46.6197 127.61 42.8696 124.645 42.2439C124.645 42.2439 126.26 38.9396 128.772 39.2075C128.772 39.2075 132.432 37.6882 133.518 38.7147C134.605 39.7412 134.338 41.3504 134.338 41.3504L137.121 47.6071L138.471 42.0621Z" fill="#ED677B"/>
<g opacity="0.1">
<path opacity="0.1" d="M130.906 31.6212C131.628 31.6212 132.194 30.8606 132.915 30.8997C133.288 30.9193 133.609 31.1558 133.917 31.369C135.083 32.1722 136.381 32.7676 137.752 33.1287C138.284 33.2694 138.849 33.375 139.383 33.246C139.918 33.1169 140.419 32.6985 140.48 32.153C140.495 31.9126 140.463 31.6715 140.385 31.4433C139.78 29.3458 138.411 27.5479 136.545 26.4007C135.798 25.9452 134.886 25.5971 134.059 25.8826C133.312 26.1387 132.83 26.8348 132.29 27.4077C131.883 27.8366 131.42 28.2101 130.914 28.5182C130.521 28.7548 129.931 28.9093 129.705 29.3433C129.279 30.1528 129.949 31.6134 130.906 31.6212Z" fill="black"/>
</g>
<path d="M130.906 31.4432C131.628 31.4432 132.194 30.6826 132.915 30.7217C133.288 30.7413 133.609 30.9779 133.917 31.191C135.083 31.9942 136.381 32.5896 137.752 32.9507C138.284 33.0914 138.849 33.197 139.383 33.068C139.918 32.9389 140.419 32.5205 140.48 31.975C140.495 31.7346 140.463 31.4936 140.385 31.2653C139.78 29.1678 138.411 27.3699 136.545 26.2227C135.798 25.7672 134.886 25.4192 134.059 25.7046C133.312 25.9607 132.83 26.6568 132.29 27.2297C131.883 27.6586 131.42 28.0321 130.914 28.3403C130.521 28.5768 129.931 28.7313 129.705 29.1654C129.279 29.9826 129.949 31.4334 130.906 31.4432Z" fill="#85555C"/>
<path opacity="0.05" d="M128.73 51.8401C128.73 51.8401 133.129 53.4473 136.003 52.1979L137.439 52.2878C137.439 52.2878 139.827 53.9537 142.353 53.2087" fill="black"/>
<path opacity="0.05" d="M149.557 49.1614C149.557 49.1614 148.84 50.8585 149.198 51.3942L149.557 49.1614Z" fill="black"/>
<path opacity="0.05" d="M120.918 48.6257C120.918 48.6257 121.278 50.3229 120.918 50.8586V48.6257Z" fill="black"/>
<path d="M195.373 87.2981C195.373 87.2981 187.15 95.4787 191.792 107.617C196.434 119.755 183.836 139.941 183.836 139.941C183.836 139.941 183.972 139.921 184.229 139.878C201.118 136.912 209.508 117.698 200.118 103.423C196.617 98.1144 193.752 91.889 195.373 87.2981Z" fill="#04DD32"/>
<path opacity="0.1" d="M195.373 86.4326C195.373 86.4326 187.15 94.6133 191.792 106.751C196.434 118.889 183.836 139.073 183.836 139.073C183.836 139.073 183.972 139.054 184.229 139.011C201.118 136.044 209.508 116.83 200.118 102.555C196.617 97.2489 193.752 91.0235 195.373 86.4326Z" fill="#04DD32"/>
<path d="M195.227 87.3572C195.227 87.3572 190.584 97.3836 195.227 105.564C199.869 113.745 196.013 136.701 183.688 140" stroke="#535461" stroke-miterlimit="10"/>
<path d="M210.017 120.385C210.017 120.385 200.634 118.899 199.779 127.263C198.924 135.628 181.73 136.787 181.73 136.787L182.053 137C196.243 146.268 209.811 142.903 207.765 130.597C207.01 126.023 207.073 121.429 210.017 120.385Z" fill="#04DD32"/>
<path d="M210.017 120.385C210.017 120.385 202.733 121.974 203.334 128.563C203.936 135.152 192.525 143.049 181.738 136.789" stroke="#535461" stroke-miterlimit="10"/>
<path d="M201.764 137.092C201.764 137.092 194.374 135.621 192.403 133.66C190.432 131.699 181.564 128.27 180.579 130.728C179.594 133.185 167.277 141.511 175.652 142.981C184.026 144.451 195.359 144.936 197.822 143.959C200.284 142.981 201.764 137.092 201.764 137.092Z" fill="#A8A8A8"/>
<path opacity="0.2" d="M175.65 142.064C184.027 143.534 195.357 144.019 197.82 143.042C199.697 142.295 201 138.709 201.515 137.039L201.761 137.09C201.761 137.09 200.283 142.971 197.82 143.951C195.357 144.93 184.025 144.442 175.65 142.973C173.232 142.549 172.541 141.552 172.802 140.291C173.006 141.114 173.849 141.747 175.65 142.064Z" fill="black"/>
<path d="M14.1811 170.707L8.73309 181.123V187.435H6.54909V181.123L1.07709 170.707H3.50109L7.62909 179.179L11.7571 170.707H14.1811ZM22.2207 187.651C20.9887 187.651 19.8687 187.371 18.8607 186.811C17.8687 186.251 17.0847 185.459 16.5087 184.435C15.9487 183.395 15.6687 182.195 15.6687 180.835C15.6687 179.491 15.9567 178.307 16.5327 177.283C17.1247 176.243 17.9247 175.451 18.9327 174.907C19.9407 174.347 21.0687 174.067 22.3167 174.067C23.5647 174.067 24.6927 174.347 25.7007 174.907C26.7087 175.451 27.5007 176.235 28.0767 177.259C28.6687 178.283 28.9647 179.475 28.9647 180.835C28.9647 182.195 28.6607 183.395 28.0527 184.435C27.4607 185.459 26.6527 186.251 25.6287 186.811C24.6047 187.371 23.4687 187.651 22.2207 187.651ZM22.2207 185.731C23.0047 185.731 23.7407 185.547 24.4287 185.179C25.1167 184.811 25.6687 184.259 26.0847 183.523C26.5167 182.787 26.7327 181.891 26.7327 180.835C26.7327 179.779 26.5247 178.883 26.1087 178.147C25.6927 177.411 25.1487 176.867 24.4767 176.515C23.8047 176.147 23.0767 175.963 22.2927 175.963C21.4927 175.963 20.7567 176.147 20.0847 176.515C19.4287 176.867 18.9007 177.411 18.5007 178.147C18.1007 178.883 17.9007 179.779 17.9007 180.835C17.9007 181.907 18.0927 182.811 18.4767 183.547C18.8767 184.283 19.4047 184.835 20.0607 185.203C20.7167 185.555 21.4367 185.731 22.2207 185.731ZM43.5003 174.283V187.435H41.3163V185.491C40.9003 186.163 40.3163 186.691 39.5643 187.075C38.8283 187.443 38.0123 187.627 37.1163 187.627C36.0923 187.627 35.1723 187.419 34.3563 187.003C33.5403 186.571 32.8923 185.931 32.4123 185.083C31.9483 184.235 31.7163 183.203 31.7163 181.987V174.283H33.8763V181.699C33.8763 182.995 34.2043 183.995 34.8603 184.699C35.5163 185.387 36.4123 185.731 37.5483 185.731C38.7163 185.731 39.6363 185.371 40.3083 184.651C40.9803 183.931 41.3163 182.883 41.3163 181.507V174.283H43.5003ZM49.3718 176.419C49.7558 175.667 50.2998 175.083 51.0038 174.667C51.7238 174.251 52.5958 174.043 53.6198 174.043V176.299H53.0438C50.5958 176.299 49.3718 177.627 49.3718 180.283V187.435H47.1878V174.283H49.3718V176.419ZM67.7474 170.707C69.5714 170.707 71.1474 171.051 72.4754 171.739C73.8194 172.411 74.8434 173.379 75.5474 174.643C76.2674 175.907 76.6274 177.395 76.6274 179.107C76.6274 180.819 76.2674 182.307 75.5474 183.571C74.8434 184.819 73.8194 185.779 72.4754 186.451C71.1474 187.107 69.5714 187.435 67.7474 187.435H62.5394V170.707H67.7474ZM67.7474 185.635C69.9074 185.635 71.5554 185.067 72.6914 183.931C73.8274 182.779 74.3954 181.171 74.3954 179.107C74.3954 177.027 73.8194 175.403 72.6674 174.235C71.5314 173.067 69.8914 172.483 67.7474 172.483H64.7234V185.635H67.7474ZM78.6922 180.811C78.6922 179.467 78.9642 178.291 79.5082 177.283C80.0522 176.259 80.7962 175.467 81.7402 174.907C82.7002 174.347 83.7642 174.067 84.9322 174.067C86.0842 174.067 87.0842 174.315 87.9322 174.811C88.7802 175.307 89.4122 175.931 89.8282 176.683V174.283H92.0362V187.435H89.8282V184.987C89.3962 185.755 88.7482 186.395 87.8842 186.907C87.0362 187.403 86.0442 187.651 84.9082 187.651C83.7402 187.651 82.6842 187.363 81.7402 186.787C80.7962 186.211 80.0522 185.403 79.5082 184.363C78.9642 183.323 78.6922 182.139 78.6922 180.811ZM89.8282 180.835C89.8282 179.843 89.6282 178.979 89.2282 178.243C88.8282 177.507 88.2842 176.947 87.5962 176.563C86.9242 176.163 86.1802 175.963 85.3642 175.963C84.5482 175.963 83.8042 176.155 83.1322 176.539C82.4602 176.923 81.9242 177.483 81.5242 178.219C81.1242 178.955 80.9242 179.819 80.9242 180.811C80.9242 181.819 81.1242 182.699 81.5242 183.451C81.9242 184.187 82.4602 184.755 83.1322 185.155C83.8042 185.539 84.5482 185.731 85.3642 185.731C86.1802 185.731 86.9242 185.539 87.5962 185.155C88.2842 184.755 88.8282 184.187 89.2282 183.451C89.6282 182.699 89.8282 181.827 89.8282 180.835ZM96.8549 172.147C96.4389 172.147 96.0869 172.003 95.7989 171.715C95.5109 171.427 95.3669 171.075 95.3669 170.659C95.3669 170.243 95.5109 169.891 95.7989 169.603C96.0869 169.315 96.4389 169.171 96.8549 169.171C97.2549 169.171 97.5909 169.315 97.8629 169.603C98.1509 169.891 98.2949 170.243 98.2949 170.659C98.2949 171.075 98.1509 171.427 97.8629 171.715C97.5909 172.003 97.2549 172.147 96.8549 172.147ZM97.9109 174.283V187.435H95.7269V174.283H97.9109ZM103.817 169.675V187.435H101.633V169.675H103.817ZM118.867 174.283L110.947 193.627H108.691L111.283 187.291L105.979 174.283H108.403L112.531 184.939L116.611 174.283H118.867ZM136.269 187.435L132.285 180.595H129.645V187.435H127.461V170.707H132.861C134.125 170.707 135.189 170.923 136.053 171.355C136.933 171.787 137.589 172.371 138.021 173.107C138.453 173.843 138.669 174.683 138.669 175.627C138.669 176.779 138.333 177.795 137.661 178.675C137.005 179.555 136.013 180.139 134.685 180.427L138.885 187.435H136.269ZM129.645 178.843H132.861C134.045 178.843 134.933 178.555 135.525 177.979C136.117 177.387 136.413 176.603 136.413 175.627C136.413 174.635 136.117 173.867 135.525 173.323C134.949 172.779 134.061 172.507 132.861 172.507H129.645V178.843ZM147.799 187.651C146.567 187.651 145.447 187.371 144.439 186.811C143.447 186.251 142.663 185.459 142.087 184.435C141.527 183.395 141.247 182.195 141.247 180.835C141.247 179.491 141.535 178.307 142.111 177.283C142.703 176.243 143.503 175.451 144.511 174.907C145.519 174.347 146.647 174.067 147.895 174.067C149.143 174.067 150.271 174.347 151.279 174.907C152.287 175.451 153.079 176.235 153.655 177.259C154.247 178.283 154.543 179.475 154.543 180.835C154.543 182.195 154.239 183.395 153.631 184.435C153.039 185.459 152.231 186.251 151.207 186.811C150.183 187.371 149.047 187.651 147.799 187.651ZM147.799 185.731C148.583 185.731 149.319 185.547 150.007 185.179C150.695 184.811 151.247 184.259 151.663 183.523C152.095 182.787 152.311 181.891 152.311 180.835C152.311 179.779 152.103 178.883 151.687 178.147C151.271 177.411 150.727 176.867 150.055 176.515C149.383 176.147 148.655 175.963 147.871 175.963C147.071 175.963 146.335 176.147 145.663 176.515C145.007 176.867 144.479 177.411 144.079 178.147C143.679 178.883 143.479 179.779 143.479 180.835C143.479 181.907 143.671 182.811 144.055 183.547C144.455 184.283 144.983 184.835 145.639 185.203C146.295 185.555 147.015 185.731 147.799 185.731ZM169.078 174.283V187.435H166.894V185.491C166.478 186.163 165.894 186.691 165.142 187.075C164.406 187.443 163.59 187.627 162.694 187.627C161.67 187.627 160.75 187.419 159.934 187.003C159.118 186.571 158.47 185.931 157.99 185.083C157.526 184.235 157.294 183.203 157.294 181.987V174.283H159.454V181.699C159.454 182.995 159.782 183.995 160.438 184.699C161.094 185.387 161.99 185.731 163.126 185.731C164.294 185.731 165.214 185.371 165.886 184.651C166.558 183.931 166.894 182.883 166.894 181.507V174.283H169.078ZM175.43 176.083V183.835C175.43 184.475 175.566 184.931 175.838 185.203C176.11 185.459 176.582 185.587 177.254 185.587H178.862V187.435H176.894C175.678 187.435 174.766 187.155 174.158 186.595C173.55 186.035 173.246 185.115 173.246 183.835V176.083H171.542V174.283H173.246V170.971H175.43V174.283H178.862V176.083H175.43ZM182.636 172.147C182.22 172.147 181.868 172.003 181.58 171.715C181.292 171.427 181.148 171.075 181.148 170.659C181.148 170.243 181.292 169.891 181.58 169.603C181.868 169.315 182.22 169.171 182.636 169.171C183.036 169.171 183.372 169.315 183.644 169.603C183.932 169.891 184.076 170.243 184.076 170.659C184.076 171.075 183.932 171.427 183.644 171.715C183.372 172.003 183.036 172.147 182.636 172.147ZM183.692 174.283V187.435H181.508V174.283H183.692ZM193.822 174.043C195.422 174.043 196.718 174.531 197.71 175.507C198.702 176.467 199.198 177.859 199.198 179.683V187.435H197.038V179.995C197.038 178.683 196.71 177.683 196.054 176.995C195.398 176.291 194.502 175.939 193.366 175.939C192.214 175.939 191.294 176.299 190.606 177.019C189.934 177.739 189.598 178.787 189.598 180.163V187.435H187.414V174.283H189.598V176.155C190.03 175.483 190.614 174.963 191.35 174.595C192.102 174.227 192.926 174.043 193.822 174.043ZM214.766 180.355C214.766 180.771 214.742 181.211 214.694 181.675H204.182C204.262 182.971 204.702 183.987 205.502 184.723C206.318 185.443 207.302 185.803 208.454 185.803C209.398 185.803 210.182 185.587 210.806 185.155C211.446 184.707 211.894 184.115 212.15 183.379H214.502C214.15 184.643 213.446 185.675 212.39 186.475C211.334 187.259 210.022 187.651 208.454 187.651C207.206 187.651 206.086 187.371 205.094 186.811C204.118 186.251 203.35 185.459 202.79 184.435C202.23 183.395 201.95 182.195 201.95 180.835C201.95 179.475 202.222 178.283 202.766 177.259C203.31 176.235 204.07 175.451 205.046 174.907C206.038 174.347 207.174 174.067 208.454 174.067C209.702 174.067 210.806 174.339 211.766 174.883C212.726 175.427 213.462 176.179 213.974 177.139C214.502 178.083 214.766 179.155 214.766 180.355ZM212.51 179.899C212.51 179.067 212.326 178.355 211.958 177.763C211.59 177.155 211.086 176.699 210.446 176.395C209.822 176.075 209.126 175.915 208.358 175.915C207.254 175.915 206.31 176.267 205.526 176.971C204.758 177.675 204.318 178.651 204.206 179.899H212.51Z" fill="black"/>
<defs>
<linearGradient id="paint0_linear" x1="108.621" y1="146.371" x2="108.621" y2="4.81323" gradientUnits="userSpaceOnUse">
<stop stop-color="#808080" stop-opacity="0.25"/>
<stop offset="0.54" stop-color="#808080" stop-opacity="0.12"/>
<stop offset="1" stop-color="#808080" stop-opacity="0.1"/>
</linearGradient>
<linearGradient id="paint1_linear" x1="34401.6" y1="48638.7" x2="34401.6" y2="14638.4" gradientUnits="userSpaceOnUse">
<stop stop-color="#808080" stop-opacity="0.25"/>
<stop offset="0.54" stop-color="#808080" stop-opacity="0.12"/>
<stop offset="1" stop-color="#808080" stop-opacity="0.1"/>
</linearGradient>
</defs>
</svg>
