<svg width="269" height="197" viewBox="0 0 269 197" fill="none" xmlns="http://www.w3.org/2000/svg">
<path d="M12.0931 170.15V171.926H4.82106V177.566H10.7251V179.342H4.82106V186.878H2.63706V170.15H12.0931ZM13.9148 180.254C13.9148 178.91 14.1868 177.734 14.7308 176.726C15.2748 175.702 16.0188 174.91 16.9628 174.35C17.9228 173.79 18.9868 173.51 20.1548 173.51C21.3068 173.51 22.3068 173.758 23.1548 174.254C24.0028 174.75 24.6348 175.374 25.0508 176.126V173.726H27.2588V186.878H25.0508V184.43C24.6188 185.198 23.9708 185.838 23.1068 186.35C22.2588 186.846 21.2668 187.094 20.1308 187.094C18.9628 187.094 17.9068 186.806 16.9628 186.23C16.0188 185.654 15.2748 184.846 14.7308 183.806C14.1868 182.766 13.9148 181.582 13.9148 180.254ZM25.0508 180.278C25.0508 179.286 24.8508 178.422 24.4508 177.686C24.0508 176.95 23.5068 176.39 22.8188 176.006C22.1468 175.606 21.4028 175.406 20.5868 175.406C19.7708 175.406 19.0268 175.598 18.3548 175.982C17.6828 176.366 17.1468 176.926 16.7468 177.662C16.3468 178.398 16.1468 179.262 16.1468 180.254C16.1468 181.262 16.3468 182.142 16.7468 182.894C17.1468 183.63 17.6828 184.198 18.3548 184.598C19.0268 184.982 19.7708 185.174 20.5868 185.174C21.4028 185.174 22.1468 184.982 22.8188 184.598C23.5068 184.198 24.0508 183.63 24.4508 182.894C24.8508 182.142 25.0508 181.27 25.0508 180.278ZM46.7656 173.486C47.7896 173.486 48.7016 173.702 49.5016 174.134C50.3016 174.55 50.9336 175.182 51.3976 176.03C51.8616 176.878 52.0936 177.91 52.0936 179.126V186.878H49.9336V179.438C49.9336 178.126 49.6056 177.126 48.9496 176.438C48.3096 175.734 47.4376 175.382 46.3336 175.382C45.1976 175.382 44.2936 175.75 43.6216 176.486C42.9496 177.206 42.6136 178.254 42.6136 179.63V186.878H40.4536V179.438C40.4536 178.126 40.1256 177.126 39.4696 176.438C38.8296 175.734 37.9576 175.382 36.8536 175.382C35.7176 175.382 34.8136 175.75 34.1416 176.486C33.4696 177.206 33.1336 178.254 33.1336 179.63V186.878H30.9496V173.726H33.1336V175.622C33.5656 174.934 34.1416 174.406 34.8616 174.038C35.5976 173.67 36.4056 173.486 37.2856 173.486C38.3896 173.486 39.3656 173.734 40.2136 174.23C41.0616 174.726 41.6936 175.454 42.1096 176.414C42.4776 175.486 43.0856 174.766 43.9336 174.254C44.7816 173.742 45.7256 173.486 46.7656 173.486ZM56.8041 171.59C56.3881 171.59 56.0361 171.446 55.7481 171.158C55.4601 170.87 55.3161 170.518 55.3161 170.102C55.3161 169.686 55.4601 169.334 55.7481 169.046C56.0361 168.758 56.3881 168.614 56.8041 168.614C57.2041 168.614 57.5401 168.758 57.8121 169.046C58.1001 169.334 58.2441 169.686 58.2441 170.102C58.2441 170.518 58.1001 170.87 57.8121 171.158C57.5401 171.446 57.2041 171.59 56.8041 171.59ZM57.8601 173.726V186.878H55.6761V173.726H57.8601ZM63.7664 169.118V186.878H61.5824V169.118H63.7664ZM78.8166 173.726L70.8966 193.07H68.6406L71.2326 186.734L65.9286 173.726H68.3526L72.4806 184.382L76.5606 173.726H78.8166ZM104.379 170.27V186.878H102.195V174.494L96.6745 186.878H95.1385L89.5945 174.47V186.878H87.4105V170.27H89.7625L95.9065 183.998L102.051 170.27H104.379ZM120.082 179.798C120.082 180.214 120.058 180.654 120.01 181.118H109.498C109.578 182.414 110.018 183.43 110.818 184.166C111.634 184.886 112.618 185.246 113.77 185.246C114.714 185.246 115.498 185.03 116.122 184.598C116.762 184.15 117.21 183.558 117.466 182.822H119.818C119.466 184.086 118.762 185.118 117.706 185.918C116.65 186.702 115.338 187.094 113.77 187.094C112.522 187.094 111.402 186.814 110.41 186.254C109.434 185.694 108.666 184.902 108.106 183.878C107.546 182.838 107.266 181.638 107.266 180.278C107.266 178.918 107.538 177.726 108.082 176.702C108.626 175.678 109.386 174.894 110.362 174.35C111.354 173.79 112.49 173.51 113.77 173.51C115.018 173.51 116.122 173.782 117.082 174.326C118.042 174.87 118.778 175.622 119.29 176.582C119.818 177.526 120.082 178.598 120.082 179.798ZM117.826 179.342C117.826 178.51 117.642 177.798 117.274 177.206C116.906 176.598 116.402 176.142 115.762 175.838C115.138 175.518 114.442 175.358 113.674 175.358C112.57 175.358 111.626 175.71 110.842 176.414C110.074 177.118 109.634 178.094 109.522 179.342H117.826ZM122.149 180.254C122.149 178.91 122.421 177.734 122.965 176.726C123.509 175.702 124.253 174.91 125.197 174.35C126.157 173.79 127.229 173.51 128.413 173.51C129.437 173.51 130.389 173.75 131.269 174.23C132.149 174.694 132.821 175.31 133.285 176.078V169.118H135.493V186.878H133.285V184.406C132.853 185.19 132.213 185.838 131.365 186.35C130.517 186.846 129.525 187.094 128.389 187.094C127.221 187.094 126.157 186.806 125.197 186.23C124.253 185.654 123.509 184.846 122.965 183.806C122.421 182.766 122.149 181.582 122.149 180.254ZM133.285 180.278C133.285 179.286 133.085 178.422 132.685 177.686C132.285 176.95 131.741 176.39 131.053 176.006C130.381 175.606 129.637 175.406 128.821 175.406C128.005 175.406 127.261 175.598 126.589 175.982C125.917 176.366 125.381 176.926 124.981 177.662C124.581 178.398 124.381 179.262 124.381 180.254C124.381 181.262 124.581 182.142 124.981 182.894C125.381 183.63 125.917 184.198 126.589 184.598C127.261 184.982 128.005 185.174 128.821 185.174C129.637 185.174 130.381 184.982 131.053 184.598C131.741 184.198 132.285 183.63 132.685 182.894C133.085 182.142 133.285 181.27 133.285 180.278ZM140.312 171.59C139.896 171.59 139.544 171.446 139.256 171.158C138.968 170.87 138.824 170.518 138.824 170.102C138.824 169.686 138.968 169.334 139.256 169.046C139.544 168.758 139.896 168.614 140.312 168.614C140.712 168.614 141.048 168.758 141.32 169.046C141.608 169.334 141.752 169.686 141.752 170.102C141.752 170.518 141.608 170.87 141.32 171.158C141.048 171.446 140.712 171.59 140.312 171.59ZM141.368 173.726V186.878H139.184V173.726H141.368ZM144.274 180.278C144.274 178.918 144.546 177.734 145.09 176.726C145.634 175.702 146.386 174.91 147.346 174.35C148.322 173.79 149.434 173.51 150.682 173.51C152.298 173.51 153.626 173.902 154.666 174.686C155.722 175.47 156.418 176.558 156.754 177.95H154.402C154.178 177.15 153.738 176.518 153.082 176.054C152.442 175.59 151.642 175.358 150.682 175.358C149.434 175.358 148.426 175.79 147.658 176.654C146.89 177.502 146.506 178.71 146.506 180.278C146.506 181.862 146.89 183.086 147.658 183.95C148.426 184.814 149.434 185.246 150.682 185.246C151.642 185.246 152.442 185.022 153.082 184.574C153.722 184.126 154.162 183.486 154.402 182.654H156.754C156.402 183.998 155.698 185.078 154.642 185.894C153.586 186.694 152.266 187.094 150.682 187.094C149.434 187.094 148.322 186.814 147.346 186.254C146.386 185.694 145.634 184.902 145.09 183.878C144.546 182.854 144.274 181.654 144.274 180.278ZM158.852 180.254C158.852 178.91 159.124 177.734 159.668 176.726C160.212 175.702 160.956 174.91 161.9 174.35C162.86 173.79 163.924 173.51 165.092 173.51C166.244 173.51 167.244 173.758 168.092 174.254C168.94 174.75 169.572 175.374 169.988 176.126V173.726H172.196V186.878H169.988V184.43C169.556 185.198 168.908 185.838 168.044 186.35C167.196 186.846 166.204 187.094 165.068 187.094C163.9 187.094 162.844 186.806 161.9 186.23C160.956 185.654 160.212 184.846 159.668 183.806C159.124 182.766 158.852 181.582 158.852 180.254ZM169.988 180.278C169.988 179.286 169.788 178.422 169.388 177.686C168.988 176.95 168.444 176.39 167.756 176.006C167.084 175.606 166.34 175.406 165.524 175.406C164.708 175.406 163.964 175.598 163.292 175.982C162.62 176.366 162.084 176.926 161.684 177.662C161.284 178.398 161.084 179.262 161.084 180.254C161.084 181.262 161.284 182.142 161.684 182.894C162.084 183.63 162.62 184.198 163.292 184.598C163.964 184.982 164.708 185.174 165.524 185.174C166.34 185.174 167.084 184.982 167.756 184.598C168.444 184.198 168.988 183.63 169.388 182.894C169.788 182.142 169.988 181.27 169.988 180.278ZM178.071 169.118V186.878H175.887V169.118H178.071ZM201.08 170.15V186.878H198.896V179.294H190.376V186.878H188.192V170.15H190.376V177.494H198.896V170.15H201.08ZM205.937 171.59C205.521 171.59 205.169 171.446 204.881 171.158C204.593 170.87 204.449 170.518 204.449 170.102C204.449 169.686 204.593 169.334 204.881 169.046C205.169 168.758 205.521 168.614 205.937 168.614C206.337 168.614 206.673 168.758 206.945 169.046C207.233 169.334 207.377 169.686 207.377 170.102C207.377 170.518 207.233 170.87 206.945 171.158C206.673 171.446 206.337 171.59 205.937 171.59ZM206.993 173.726V186.878H204.809V173.726H206.993ZM215.371 187.094C214.363 187.094 213.459 186.926 212.659 186.59C211.859 186.238 211.227 185.758 210.763 185.15C210.299 184.526 210.043 183.814 209.995 183.014H212.251C212.315 183.67 212.619 184.206 213.163 184.622C213.723 185.038 214.451 185.246 215.347 185.246C216.179 185.246 216.835 185.062 217.315 184.694C217.795 184.326 218.035 183.862 218.035 183.302C218.035 182.726 217.779 182.302 217.267 182.03C216.755 181.742 215.963 181.462 214.891 181.19C213.915 180.934 213.115 180.678 212.491 180.422C211.883 180.15 211.355 179.758 210.907 179.246C210.475 178.718 210.259 178.03 210.259 177.182C210.259 176.51 210.459 175.894 210.859 175.334C211.259 174.774 211.827 174.334 212.563 174.014C213.299 173.678 214.139 173.51 215.083 173.51C216.539 173.51 217.715 173.878 218.611 174.614C219.507 175.35 219.987 176.358 220.051 177.638H217.867C217.819 176.95 217.539 176.398 217.027 175.982C216.531 175.566 215.859 175.358 215.011 175.358C214.227 175.358 213.603 175.526 213.139 175.862C212.675 176.198 212.443 176.638 212.443 177.182C212.443 177.614 212.579 177.974 212.851 178.262C213.139 178.534 213.491 178.758 213.907 178.934C214.339 179.094 214.931 179.278 215.683 179.486C216.627 179.742 217.395 179.998 217.987 180.254C218.579 180.494 219.083 180.862 219.499 181.358C219.931 181.854 220.155 182.502 220.171 183.302C220.171 184.022 219.971 184.67 219.571 185.246C219.171 185.822 218.603 186.278 217.867 186.614C217.147 186.934 216.315 187.094 215.371 187.094ZM225.918 175.526V183.278C225.918 183.918 226.054 184.374 226.326 184.646C226.598 184.902 227.07 185.03 227.742 185.03H229.35V186.878H227.382C226.166 186.878 225.254 186.598 224.646 186.038C224.038 185.478 223.734 184.558 223.734 183.278V175.526H222.03V173.726H223.734V170.414H225.918V173.726H229.35V175.526H225.918ZM237.732 187.094C236.5 187.094 235.38 186.814 234.372 186.254C233.38 185.694 232.596 184.902 232.02 183.878C231.46 182.838 231.18 181.638 231.18 180.278C231.18 178.934 231.468 177.75 232.044 176.726C232.636 175.686 233.436 174.894 234.444 174.35C235.452 173.79 236.58 173.51 237.828 173.51C239.076 173.51 240.204 173.79 241.212 174.35C242.22 174.894 243.012 175.678 243.588 176.702C244.18 177.726 244.476 178.918 244.476 180.278C244.476 181.638 244.172 182.838 243.564 183.878C242.972 184.902 242.164 185.694 241.14 186.254C240.116 186.814 238.98 187.094 237.732 187.094ZM237.732 185.174C238.516 185.174 239.252 184.99 239.94 184.622C240.628 184.254 241.18 183.702 241.596 182.966C242.028 182.23 242.244 181.334 242.244 180.278C242.244 179.222 242.036 178.326 241.62 177.59C241.204 176.854 240.66 176.31 239.988 175.958C239.316 175.59 238.588 175.406 237.804 175.406C237.004 175.406 236.268 175.59 235.596 175.958C234.94 176.31 234.412 176.854 234.012 177.59C233.612 178.326 233.412 179.222 233.412 180.278C233.412 181.35 233.604 182.254 233.988 182.99C234.388 183.726 234.916 184.278 235.572 184.646C236.228 184.998 236.948 185.174 237.732 185.174ZM249.532 175.862C249.916 175.11 250.46 174.526 251.164 174.11C251.884 173.694 252.756 173.486 253.78 173.486V175.742H253.204C250.756 175.742 249.532 177.07 249.532 179.726V186.878H247.348V173.726H249.532V175.862ZM267.629 173.726L259.709 193.07H257.453L260.045 186.734L254.741 173.726H257.165L261.293 184.382L265.373 173.726H267.629Z" fill="black"/>
<path opacity="0.1" d="M102.076 149.794C111.574 149.794 119.273 148.453 119.273 146.798C119.273 145.144 111.574 143.802 102.076 143.802C92.5783 143.802 84.8789 145.144 84.8789 146.798C84.8789 148.453 92.5783 149.794 102.076 149.794Z" fill="#FF6400"/>
<path opacity="0.1" d="M195.557 149.878C207.409 149.878 217.016 148.537 217.016 146.882C217.016 145.228 207.409 143.887 195.557 143.887C183.705 143.887 174.098 145.228 174.098 146.882C174.098 148.537 183.705 149.878 195.557 149.878Z" fill="#FF6400"/>
<path opacity="0.1" d="M39.6757 64.7864H57.5876V91.2647H40.987C40.9429 91.5366 40.9005 91.8103 40.8546 92.084H57.5876V113.438C57.5576 113.429 57.5311 113.417 57.5028 113.406C57.0298 113.203 56.5604 112.988 56.0909 112.759L55.7909 112.611C55.3203 112.37 54.8496 112.115 54.379 111.846C54.2148 111.752 54.0507 111.654 53.8883 111.555C51.2756 109.967 48.902 107.956 46.85 105.59C46.79 105.527 46.7335 105.46 46.6735 105.399C46.3876 105.062 46.1069 104.721 45.8352 104.373L45.5351 103.99C45.2139 103.563 44.9033 103.125 44.6015 102.681C44.5574 102.616 44.515 102.551 44.4691 102.489C43.2417 100.644 42.2226 98.645 41.4335 96.5363C41.4088 96.4731 41.3876 96.4042 41.3647 96.3449C41.1223 95.6686 40.9076 94.9858 40.7205 94.2968C40.6393 94.0077 40.5617 93.7225 40.4946 93.422C40.4699 93.3339 40.4487 93.2478 40.4293 93.1617C39.4268 88.918 39.3086 84.5097 39.3086 80.1321C39.3086 79.621 39.3086 79.108 39.3086 78.6008C39.3086 76.8302 39.328 75.0481 39.3562 73.268C39.3562 72.8067 39.3739 72.3473 39.3827 71.884C39.4074 70.7087 39.4427 69.5335 39.4886 68.3582C39.4992 68.0309 39.5133 67.7055 39.5292 67.38C39.5292 67.1925 39.538 67.0049 39.5557 66.8173C39.598 66.1359 39.6333 65.4602 39.6757 64.7864Z" fill="#FF6400"/>
<path opacity="0.1" d="M57.5869 35.3048H47.7617C49.3588 32.5936 51.1039 29.9883 52.9876 27.5028C54.4471 25.558 55.9879 23.663 57.5869 21.8369V35.3048Z" fill="#FF6400"/>
<path opacity="0.1" d="M57.5898 36.124V63.9672H39.7344C39.7344 63.8868 39.7467 63.8045 39.752 63.7241C39.7679 63.504 39.7838 63.2838 39.8014 63.0656C39.8209 62.8091 39.842 62.5507 39.865 62.3C39.8879 62.0492 39.9126 61.743 39.9391 61.4654C39.9656 61.1879 39.9903 60.9065 40.0203 60.6289C40.0503 60.3514 40.0768 60.0738 40.1085 59.7982C40.1403 59.5225 40.1685 59.2431 40.2021 58.9674C40.2285 58.7377 40.2568 58.51 40.285 58.2803C40.3256 57.9568 40.368 57.6314 40.4139 57.3098C40.4139 57.2619 40.4262 57.2122 40.4333 57.1662C40.7554 54.8121 41.1943 52.4786 41.7481 50.1758C42.3278 47.7601 43.0681 45.3931 43.963 43.0934C44.9143 40.6877 46.028 38.3614 47.2952 36.1336L57.5898 36.124Z" fill="#FF6400"/>
<path opacity="0.1" d="M61.8672 64.7846V91.2648H100.125V64.7846H61.8672ZM61.8672 92.0822V114.822C62.086 114.872 62.3031 114.92 62.5184 114.96C62.8114 115.021 63.1026 115.077 63.4009 115.125C63.4574 115.134 63.5156 115.144 63.5774 115.15C63.6938 115.171 63.8139 115.188 63.9303 115.205C64.2251 115.249 64.5181 115.285 64.8128 115.314C64.9522 115.329 65.0934 115.343 65.2346 115.354L65.5752 115.383C65.7605 115.398 65.9441 115.41 66.1259 115.416C66.2388 115.416 66.3518 115.427 66.4683 115.431C66.5565 115.431 66.6447 115.431 66.7365 115.431C66.8283 115.431 66.9589 115.431 67.0701 115.431C67.2219 115.431 67.3736 115.431 67.5237 115.431H67.7266C67.8784 115.431 68.0302 115.431 68.1802 115.416H68.1908C68.2949 115.416 68.4008 115.416 68.5067 115.4C68.5361 115.402 68.5656 115.402 68.5949 115.4C68.6832 115.4 68.7714 115.4 68.8561 115.387H68.9179L69.5092 115.337C69.7033 115.318 69.8992 115.293 70.0969 115.27L70.4993 115.218C72.1363 114.97 73.7552 114.596 75.3439 114.101C78.9125 113.021 82.4034 111.511 85.9703 110.404C90.5819 108.978 95.6772 108.278 100.133 110.022V92.0822H61.8672ZM100.125 35.3048V0.0519585C95.9361 0.00274127 91.759 0.534071 87.6946 1.63304C78.0071 4.27265 69.315 9.99786 61.8672 17.3099V35.3029H63.7874V36.1202H61.8672V63.9672H100.125V36.1221H71.6711V35.3048H100.125ZM149.264 23.3969C146.868 23.305 144.485 22.4819 142.33 21.2109C138.209 18.78 134.918 15.0263 131.24 11.8584C123.598 5.26035 114.12 1.27893 104.397 0.291227V35.3048H159.012L159.148 35.1497L149.264 23.3969ZM154.24 22.4398L159.515 28.7182V20.7936C157.748 21.031 156.2 21.5957 154.247 22.4322L154.24 22.4398ZM159.515 120.469V92.0822H148.274C148.244 91.9616 148.214 91.8391 148.179 91.7166C148.213 91.8391 148.241 91.9616 148.273 92.0822H104.405V112.611C104.821 112.946 105.232 113.299 105.64 113.657C106.079 114.039 106.514 114.443 106.95 114.839L107.389 115.234C107.599 115.425 107.811 115.617 108.024 115.797C108.448 116.169 108.876 116.537 109.307 116.899C109.521 117.091 109.74 117.263 109.957 117.443C113.403 120.3 117.039 122.879 120.834 125.159C121.685 125.669 122.543 126.167 123.409 126.654C123.986 126.973 124.567 127.291 125.149 127.599C126.024 128.062 126.907 128.509 127.796 128.939C135.997 132.932 144.669 135.671 153.564 137.08C155.539 137.396 157.522 137.645 159.513 137.826V120.467H159.69L159.515 120.469ZM104.405 36.1221V63.9672H159.522V36.1221H104.405ZM104.405 64.7846V91.2648H159.522V64.7846H104.405ZM163.8 20.7592V29.5987L170.533 21.5861C168.302 21.1956 166.058 20.9168 163.8 20.7496V20.7592ZM163.8 64.7941V91.2648H217.409V64.7846L163.8 64.7941ZM217.213 122.571L217.402 92.0822H163.8V138.131C167.253 138.288 170.711 138.243 174.16 137.997H174.22C175.867 137.885 177.507 137.721 179.139 137.507H179.176C187.882 136.408 196.395 133.944 204.449 130.193L217.213 122.571ZM227.746 69.145C227.544 68.6301 227.334 68.119 227.121 67.6137C226.722 66.6566 226.3 65.7263 225.866 64.796H221.683V91.2648H232.258C232.253 83.769 230.504 76.1125 227.751 69.1354L227.746 69.145ZM221.683 92.0918V118.316C224.662 115.218 227.179 111.675 228.992 107.625C231.171 102.748 232.168 97.4667 232.25 92.0879L221.683 92.0918ZM221.683 57.0782V63.9691H225.474C224.327 61.597 223.064 59.2935 221.688 57.0686L221.683 57.0782ZM185.326 25.9542C185.048 25.8393 184.769 25.7226 184.488 25.6096C181.529 24.4243 178.504 23.4385 175.432 22.658L165.129 34.922L164.931 35.1497L165.064 35.3067H201.735C196.627 31.4938 191.121 28.3512 185.332 25.9446L185.326 25.9542ZM202.809 36.1317H164.552L163.8 36.8782V63.9672H170.39H170.401H217.416V50.8457C213.163 45.2671 208.254 40.3171 202.815 36.1221L202.809 36.1317Z" fill="#FF6400"/>
<path opacity="0.1" d="M57.5898 50.168V63.967H39.7344C39.7344 63.8867 39.7467 63.8043 39.752 63.7239C39.7679 63.5038 39.7838 63.2837 39.8014 63.0655C39.8209 62.809 39.842 62.5506 39.865 62.2998C39.8879 62.0491 39.9126 61.7428 39.9391 61.4653C39.9656 61.1877 39.9903 60.9063 40.0203 60.6288C40.0503 60.3512 40.0768 60.0737 40.1085 59.798C40.1403 59.5224 40.1685 59.2429 40.2021 58.9673C40.2285 58.7376 40.2568 58.5098 40.285 58.2801C40.3256 57.9566 40.368 57.6312 40.4139 57.3096C40.4139 57.2618 40.4262 57.212 40.4333 57.1661C40.7554 54.812 41.1943 52.4785 41.7481 50.1756L57.5898 50.168Z" fill="#FF6400"/>
<path opacity="0.1" d="M39.6757 64.7864H57.5876V91.2647H40.987C40.9429 91.5366 40.9005 91.8103 40.8546 92.084H57.5876V113.438C57.5576 113.429 57.5311 113.417 57.5028 113.406C57.0298 113.203 56.5604 112.988 56.0909 112.759L55.7909 112.611C55.3203 112.37 54.8496 112.115 54.379 111.846C54.2148 111.752 54.0507 111.654 53.8883 111.555C51.2756 109.967 48.902 107.956 46.85 105.59C46.79 105.527 46.7335 105.46 46.6735 105.399C46.3876 105.062 46.1069 104.721 45.8352 104.373L45.5351 103.99C45.2139 103.563 44.9033 103.125 44.6015 102.681C44.5574 102.616 44.515 102.551 44.4691 102.489C43.2417 100.644 42.2226 98.645 41.4335 96.5363C41.4088 96.4731 41.3876 96.4042 41.3647 96.3449C41.1223 95.6686 40.9076 94.9858 40.7205 94.2968C40.6393 94.0077 40.5617 93.7225 40.4946 93.422C40.4699 93.3339 40.4487 93.2478 40.4293 93.1617C39.4268 88.918 39.3086 84.5097 39.3086 80.1321C39.3086 79.621 39.3086 79.108 39.3086 78.6008C39.3086 76.8302 39.328 75.0481 39.3562 73.268C39.3562 72.8067 39.3739 72.3473 39.3827 71.884C39.4074 70.7087 39.4427 69.5335 39.4886 68.3582C39.4992 68.0309 39.5133 67.7055 39.5292 67.38C39.5292 67.1925 39.538 67.0049 39.5557 66.8173C39.598 66.1359 39.6333 65.4602 39.6757 64.7864Z" fill="#FF6400"/>
<path opacity="0.1" d="M75.3351 40.1092V63.9671H61.8672V40.1092H63.7874V32.0315H71.6694V40.1092H75.3351Z" fill="#FF6400"/>
<path opacity="0.1" d="M75.3333 64.7847H61.8672V91.263H75.3333V64.7847Z" fill="#FF6400"/>
<path opacity="0.1" d="M61.8672 92.084H75.3351V114.097C73.7464 114.592 72.1275 114.965 70.4904 115.213L70.088 115.266C69.8904 115.291 69.6945 115.312 69.5003 115.333C69.3062 115.354 69.105 115.37 68.9091 115.383H68.8473C68.7626 115.383 68.6708 115.394 68.5879 115.396H68.4979C68.392 115.396 68.2861 115.408 68.1802 115.412C68.0302 115.421 67.8802 115.423 67.7266 115.425C67.6613 115.425 67.5995 115.425 67.5342 115.425C67.3825 115.425 67.2324 115.425 67.0807 115.425H66.7471C66.6571 115.425 66.5706 115.425 66.4771 115.425L66.1365 115.412C65.96 115.412 65.7694 115.391 65.5858 115.377L65.2469 115.35L64.8251 115.308C64.5286 115.28 64.2339 115.243 63.9427 115.199L63.5897 115.146L63.4132 115.119C63.1185 115.069 62.8273 115.015 62.5308 114.954C62.3137 114.914 62.0984 114.864 61.8795 114.816L61.8672 92.084Z" fill="#FF6400"/>
<path opacity="0.1" d="M159.523 37.2917H148.418V63.9654H159.523V37.2917Z" fill="#FF6400"/>
<path opacity="0.1" d="M159.522 64.7847V91.2649H104.402V79.8432H133.761V86.581H148.415V64.7847H159.522Z" fill="#FF6400"/>
<path opacity="0.1" d="M159.696 120.475H159.52V137.846C157.531 137.663 155.549 137.415 153.572 137.101C144.673 135.688 135.998 132.942 127.794 128.943C125.426 127.787 123.105 126.525 120.833 125.157C117.038 122.876 113.402 120.297 109.955 117.441C109.089 116.721 108.234 115.985 107.39 115.232C106.806 114.709 106.225 114.173 105.638 113.653C105.23 113.295 104.819 112.943 104.402 112.606V92.0841H148.269C148.239 91.9616 148.209 91.8391 148.177 91.7185C148.21 91.8391 148.242 91.9616 148.272 92.0841H159.52V120.463C159.58 120.465 159.638 120.471 159.696 120.475Z" fill="#FF6400"/>
<path opacity="0.1" d="M188.482 35.3049H181.246V32.8662H184.49V25.6021C184.771 25.7131 185.051 25.8273 185.33 25.9447V32.8662H188.482V35.3049Z" fill="#FF6400"/>
<path opacity="0.1" d="M205.918 63.9672H170.394C170.394 63.9672 170.394 63.9672 170.407 63.9768L170.391 63.9672H163.801V37.2936H165.668V57.0093H174.201V45.333H181.25V36.124H188.486V45.3406H195.535V57.0169H205.918V63.9672Z" fill="#FF6400"/>
<path opacity="0.1" d="M163.801 64.7847V91.265H205.918V64.7847H163.801ZM217.351 122.435L217.409 101.475H205.918V92.0957H163.801V138.131C167.254 138.288 170.712 138.244 174.161 137.997H174.221C175.868 137.885 177.508 137.721 179.139 137.507H179.176C187.883 136.408 196.396 133.944 204.45 130.193" fill="#FF6400"/>
<path opacity="0.1" d="M222.429 92.084H232.254C232.167 97.4608 231.172 102.742 228.994 107.619C227.182 111.671 224.663 115.215 221.688 118.31V101.465H222.429V92.084Z" fill="#FF6400"/>
<path opacity="0.1" d="M232.26 91.2649H222.43V69.1355H227.749C230.502 76.1126 232.251 83.7691 232.26 91.2649Z" fill="#FF6400"/>
<path opacity="0.1" d="M159.52 44.707H153.57V53.0699H159.52V44.707Z" fill="#FF6400"/>
<path opacity="0.1" d="M159.52 62.0415H153.57V63.9671H159.52V62.0415Z" fill="#FF6400"/>
<path opacity="0.1" d="M159.52 64.7847H153.57V70.4027H159.52V64.7847Z" fill="#FF6400"/>
<path opacity="0.1" d="M159.52 79.3762H153.57V87.7391H159.52V79.3762Z" fill="#FF6400"/>
<path opacity="0.1" d="M159.52 96.7104H153.57V105.073H159.52V96.7104Z" fill="#FF6400"/>
<path opacity="0.1" d="M159.518 120.463C159.578 120.463 159.636 120.463 159.694 120.475H159.518V122.418H153.57V114.045H159.518V120.463Z" fill="#FF6400"/>
<path opacity="0.1" d="M159.518 131.376V137.836C157.53 137.653 155.547 137.405 153.57 137.091V131.376H159.518Z" fill="#FF6400"/>
<path opacity="0.1" d="M129.9 90.6504H104.402V91.2648H129.9V90.6504Z" fill="#FF6400"/>
<path opacity="0.1" d="M129.9 92.0823H104.402V94.4367H129.9V92.0823Z" fill="#FF6400"/>
<path opacity="0.1" d="M129.9 102.155H104.402V105.941H129.9V102.155Z" fill="#FF6400"/>
<path opacity="0.1" d="M129.899 113.658V117.445H109.955C109.089 116.727 108.234 115.991 107.389 115.236C106.805 114.713 106.226 114.177 105.637 113.658H129.899Z" fill="#FF6400"/>
<path opacity="0.1" d="M129.897 125.161V128.943H127.791C125.425 127.785 123.105 126.523 120.832 125.155L129.897 125.161Z" fill="#FF6400"/>
<path opacity="0.1" d="M179.179 67.3516H174.16V72.7954H179.179V67.3516Z" fill="#FF6400"/>
<path opacity="0.1" d="M70.4998 41.9871H65.4805V47.4309H70.4998V41.9871Z" fill="#FF6400"/>
<path opacity="0.1" d="M70.4998 54.6318H65.4805V60.0757H70.4998V54.6318Z" fill="#FF6400"/>
<path opacity="0.1" d="M70.4998 67.2769H65.4805V72.7207H70.4998V67.2769Z" fill="#FF6400"/>
<path opacity="0.1" d="M70.4998 79.9197H65.4805V85.3635H70.4998V79.9197Z" fill="#FF6400"/>
<path opacity="0.1" d="M70.4998 92.5645H65.4805V98.0083H70.4998V92.5645Z" fill="#FF6400"/>
<path opacity="0.1" d="M70.4998 105.209H65.4805V110.653H70.4998V105.209Z" fill="#FF6400"/>
<path opacity="0.1" d="M198.344 67.3516H193.324V72.7954H198.344V67.3516Z" fill="#FF6400"/>
<path opacity="0.1" d="M179.179 80.7793H174.16V86.2231H179.179V80.7793Z" fill="#FF6400"/>
<path opacity="0.1" d="M198.344 80.7793H193.324V86.2231H198.344V80.7793Z" fill="#FF6400"/>
<path opacity="0.1" d="M179.179 94.2051H174.16V99.6489H179.179V94.2051Z" fill="#FF6400"/>
<path opacity="0.1" d="M198.344 94.2051H193.324V99.6489H198.344V94.2051Z" fill="#FF6400"/>
<path opacity="0.1" d="M179.179 107.633H174.16V113.077H179.179V107.633Z" fill="#FF6400"/>
<path opacity="0.1" d="M198.344 107.633H193.324V113.077H198.344V107.633Z" fill="#FF6400"/>
<path opacity="0.1" d="M179.179 121.061H174.16V126.504H179.179V121.061Z" fill="#FF6400"/>
<path opacity="0.1" d="M198.344 121.061H193.324V126.504H198.344V121.061Z" fill="#FF6400"/>
<path opacity="0.1" d="M174.16 137.997V134.486H179.178V137.497L174.16 137.997Z" fill="#FF6400"/>
<path opacity="0.1" d="M40.4141 57.1624V60.2767H57.5917V57.1624H40.4141ZM42.126 60.0814H40.7247V57.3538H42.1366L42.126 60.0814ZM43.8362 60.0814H42.4243V57.3538H43.8362V60.0814ZM45.5428 60.0814H44.1309V57.3538H45.5428V60.0814ZM47.253 60.0814H45.8429V57.3538H47.2548L47.253 60.0814ZM48.9614 60.0814H47.5495V57.3538H48.9614V60.0814ZM50.6716 60.0814H49.2597V57.3538H50.6716V60.0814ZM52.3818 60.0814H50.9699V57.3538H52.3818V60.0814ZM54.0902 60.0814H52.6783V57.3538H54.0902V60.0814ZM55.7986 60.0814H54.3867V57.3538H55.7986V60.0814ZM57.507 60.0814H56.0951V57.3538H57.507V60.0814Z" fill="#FF6400"/>
<path opacity="0.1" d="M40.4141 66.2241V69.3384H57.5917V66.2241H40.4141ZM42.126 69.1413H40.7247V66.4213H42.1366L42.126 69.1413ZM43.8362 69.1413H42.4243V66.4213H43.8362V69.1413ZM45.5428 69.1413H44.1309V66.4213H45.5428V69.1413ZM47.253 69.1413H45.8429V66.4213H47.2548L47.253 69.1413ZM48.9614 69.1413H47.5495V66.4213H48.9614V69.1413ZM50.6716 69.1413H49.2597V66.4213H50.6716V69.1413ZM52.3818 69.1413H50.9699V66.4213H52.3818V69.1413ZM54.0902 69.1413H52.6783V66.4213H54.0902V69.1413ZM55.7986 69.1413H54.3867V66.4213H55.7986V69.1413ZM57.507 69.1413H56.0951V66.4213H57.507V69.1413Z" fill="#FF6400"/>
<path opacity="0.1" d="M40.4141 75.2893V78.4093H57.5917V75.2893H40.4141ZM42.126 78.2064H40.7247V75.4845H42.1366L42.126 78.2064ZM43.8362 78.2064H42.4243V75.4845H43.8362V78.2064ZM45.5428 78.2064H44.1309V75.4845H45.5428V78.2064ZM47.253 78.2064H45.8429V75.4845H47.2548L47.253 78.2064ZM48.9614 78.2064H47.5495V75.4845H48.9614V78.2064ZM50.6716 78.2064H49.2597V75.4845H50.6716V78.2064ZM52.3818 78.2064H50.9699V75.4845H52.3818V78.2064ZM54.0902 78.2064H52.6783V75.4845H54.0902V78.2064ZM55.7986 78.2064H54.3867V75.4845H55.7986V78.2064ZM57.507 78.2064H56.0951V75.4845H57.507V78.2064Z" fill="#FF6400"/>
<path opacity="0.1" d="M40.4141 84.3547V87.4653H57.5917V84.3547H40.4141ZM42.126 87.2719H40.7247V84.5481H42.1366L42.126 87.2719ZM43.8362 87.2719H42.4243V84.5481H43.8362V87.2719ZM45.5428 87.2719H44.1309V84.5481H45.5428V87.2719ZM47.253 87.2719H45.8429V84.5481H47.2548L47.253 87.2719ZM48.9614 87.2719H47.5495V84.5481H48.9614V87.2719ZM50.6716 87.2719H49.2597V84.5481H50.6716V87.2719ZM52.3818 87.2719H50.9699V84.5481H52.3818V87.2719ZM54.0902 87.2719H52.6783V84.5481H54.0902V87.2719ZM55.7986 87.2719H54.3867V84.5481H55.7986V87.2719ZM57.507 87.2719H56.0951V84.5481H57.507V87.2719Z" fill="#FF6400"/>
<path opacity="0.1" d="M40.4844 93.4182C40.5532 93.7111 40.6309 94.0039 40.712 94.293V93.6135H42.124V96.3354H41.3686C41.3915 96.3986 41.4145 96.4675 41.4374 96.5268H57.5879V93.4182H40.4844ZM43.8377 96.3354H42.4258V93.6135H43.8377V96.3354ZM45.5443 96.3354H44.1324V93.6135H45.5443V96.3354ZM47.2545 96.3354H45.839V93.6135H47.251L47.2545 96.3354ZM48.9629 96.3354H47.551V93.6135H48.9629V96.3354ZM50.6731 96.3354H49.2612V93.6135H50.6731V96.3354ZM52.3833 96.3354H50.9713V93.6135H52.3833V96.3354ZM54.0917 96.3354H52.6798V93.6135H54.0917V96.3354ZM55.8001 96.3354H54.3882V93.6135H55.8001V96.3354ZM57.5085 96.3354H56.0966V93.6135H57.5085V96.3354Z" fill="#FF6400"/>
<path opacity="0.1" d="M44.4727 102.483C44.5168 102.545 44.5591 102.614 44.605 102.675H45.5386V103.982C45.6392 104.112 45.7381 104.242 45.8404 104.365V102.667H47.2524V105.399H46.6805C46.737 105.462 46.7917 105.529 46.857 105.59H57.5928V102.483H44.4727ZM48.9572 105.399H47.5453V102.679H48.9572V105.399ZM50.6674 105.399H49.2555V102.679H50.6674V105.399ZM52.3776 105.399H50.9657V102.679H52.3776V105.399ZM54.086 105.399H52.6741V102.679H54.086V105.399ZM55.7944 105.399H54.3825V102.679H55.7944V105.399ZM57.5028 105.399H56.0909V102.679H57.5028V105.399Z" fill="#FF6400"/>
<path opacity="0.1" d="M53.8984 111.547C54.059 111.647 54.2232 111.739 54.3891 111.838V111.742H55.801V112.604L56.101 112.755V111.742H57.5129V113.398C57.54 113.413 57.5684 113.424 57.5976 113.433V111.547H53.8984Z" fill="#FF6400"/>
<path opacity="0.1" d="M170.392 63.9675H170.403H170.392ZM159.521 120.462H159.697H159.521ZM148.178 91.7168C148.211 91.8394 148.239 91.9618 148.271 92.0824C148.243 91.9618 148.213 91.8394 148.178 91.7168ZM170.392 63.9617H170.403H170.392ZM63.793 35.2993V36.1167H71.6767V35.2993H63.793ZM159.521 120.462H159.697H159.521ZM148.178 91.7168C148.211 91.8394 148.239 91.9618 148.271 92.0824C148.243 91.9618 148.213 91.8394 148.178 91.7168ZM170.392 63.9617H170.403H170.392ZM159.521 120.456H159.697H159.521ZM148.178 91.7168C148.211 91.8394 148.239 91.9618 148.271 92.0824C148.243 91.9618 148.213 91.8394 148.178 91.7168Z" fill="#FF6400"/>
<path d="M118.701 72.7244C118.701 72.7244 118.006 72.6191 118.006 71.5204C118.006 70.4217 117.508 68.3697 117.508 68.3697C117.508 68.3601 117.078 64.796 116.483 64.2294C115.888 63.6628 115.124 60.336 115.124 60.336C115.124 60.336 114.993 58.531 114.727 58.1424C114.46 57.7539 114.1 56.8025 113.569 55.4454C113.038 54.0883 110.823 53.1484 110.823 53.1484C110.823 53.1484 106.818 50.6294 105.683 49.8082C105.58 49.7408 105.484 49.6619 105.396 49.5728C105.198 49.2914 104.337 49.2857 104.337 49.2857C104.247 48.6693 104.16 47.9611 104.132 47.3199C104.132 47.2509 104.132 47.182 104.123 47.1131C105.389 46.3019 106.342 45.0228 106.808 43.5107C106.829 43.438 106.847 43.3614 106.866 43.2887C106.942 43.2616 107.012 43.2176 107.071 43.1596C107.13 43.1016 107.177 43.0308 107.21 42.9518C107.312 42.7049 107.314 42.4158 107.441 42.1861C107.59 41.9143 107.872 41.7688 108.094 41.564C108.656 41.0472 108.8 40.1763 108.774 39.3838C108.756 38.7426 108.661 38.0956 108.698 37.4582L108.708 37.2974C108.719 37.2017 108.731 37.106 108.747 37.0141C108.834 36.5394 109.023 36.0915 109.129 35.6206C109.234 35.1497 109.245 34.6195 108.998 34.2137C108.636 33.6184 107.882 33.4997 107.221 33.4385C106.471 33.3696 105.8 33.4595 105.32 32.7838C105.095 32.4307 104.842 32.0995 104.565 31.7942C104.466 31.6947 103.506 31.0592 103.506 31.0171C102.569 30.5464 101.506 30.458 100.514 30.7682C100.016 30.9252 99.5469 31.1817 99.0422 31.3099C97.9532 31.5894 96.7002 31.287 95.7754 31.9627C95.26 32.3455 94.9512 32.9542 94.6617 33.5476C94.4264 34.0363 94.1876 34.5244 93.9452 35.0119C93.5551 35.8139 93.158 36.6294 92.9939 37.5175C92.9594 37.7108 92.9382 37.9066 92.9304 38.1032V38.1128C92.9304 38.1836 92.9304 38.2545 92.9304 38.3253V38.4152C92.9304 38.4822 92.9304 38.5473 92.941 38.6067C92.9515 38.666 92.9498 38.6851 92.9551 38.7253C92.9604 38.7655 92.9692 38.8555 92.9798 38.9168C92.9904 38.978 93.0115 39.0852 93.0327 39.1694C93.0416 39.2058 93.0539 39.2402 93.0645 39.2747C93.0821 39.3398 93.1033 39.4029 93.1263 39.4661C93.1386 39.4987 93.151 39.5331 93.1651 39.5657C93.1916 39.6326 93.2233 39.6977 93.2551 39.7571C93.2692 39.7839 93.2798 39.8087 93.2939 39.8336C93.3432 39.9226 93.3974 40.0083 93.4563 40.0901C93.834 40.6012 94.3899 40.9266 94.8011 41.4051C94.8011 41.4243 94.8011 41.4434 94.8011 41.4607C94.8011 41.5143 94.8011 41.5659 94.8011 41.6195C94.823 42.6868 95.0849 43.7321 95.5641 44.6645C96.0433 45.5969 96.7253 46.3882 97.5508 46.9696C97.5508 47.0423 97.5597 47.117 97.5632 47.1897C97.5976 47.7579 97.5911 48.3281 97.5438 48.8952C97.4719 48.8034 97.382 48.7303 97.2805 48.6812C97.1791 48.6322 97.0688 48.6085 96.9578 48.6119C96.882 48.6079 96.806 48.615 96.7319 48.633L96.716 48.6196V48.6368C96.3278 48.7402 95.8495 49.1785 95.3924 50.4246C95.3924 50.4246 94.0017 52.1244 92.9427 52.0535C91.8838 51.9827 89.2029 53.8222 89.2029 53.8222C89.2029 53.8222 86.5874 55.6636 86.0261 57.5395C85.7124 58.6032 85.3363 59.6441 84.9001 60.6557L81.6668 67.8816L81.0703 73.6145C81.0703 73.6145 81.4003 76.1641 81.335 76.5527C81.2697 76.9413 82.6922 80.4461 82.6922 80.4461C82.6922 80.4461 87.3921 89.4024 89.3123 89.8618L89.45 89.7565C89.5322 89.803 89.6193 89.8384 89.7094 89.8618L90.1048 89.5593C90.1285 89.8964 90.1185 90.2353 90.0748 90.57C89.81 91.4543 90.1736 97.2255 90.636 98.3567C91.0984 99.488 90.9343 114.321 90.9343 114.321L90.869 115.63C90.869 115.63 90.869 115.672 90.8849 115.745L90.869 116.055L90.9166 116.082C90.9661 116.497 90.95 116.918 90.869 117.328C90.7031 117.902 90.636 119.525 90.636 119.525C90.636 119.525 89.3141 128.69 89.9406 130.532C90.5672 132.373 91.1002 134.391 91.1002 134.391C91.1002 134.391 91.762 136.688 91.1319 137.08C90.5019 137.472 88.7105 138.131 89.0794 139.088C89.4147 139.972 90.6872 142.342 90.876 142.688L90.8601 142.87L90.6007 145.919C90.6427 146.322 90.7434 146.715 90.899 147.083C91.1831 147.747 91.7355 148.437 92.7856 148.362C92.9621 148.348 93.1669 148.326 93.3645 148.297C95.2865 148.017 97.6532 147.087 97.6532 147.087C97.5303 147.002 97.4177 146.901 97.3179 146.787C97.2234 146.687 97.1486 146.568 97.0979 146.437C97.0472 146.305 97.0218 146.164 97.0231 146.021C97.0514 145.466 96.093 142.82 95.8548 142.17C95.8177 142.076 95.7983 142.022 95.7983 142.022C95.7983 142.022 97.9832 139.545 97.6197 137.35C97.6197 137.35 95.2018 135.818 95.9977 134.978C96.7937 134.138 98.2162 131.724 98.2162 131.724C98.2162 131.724 98.2815 122.699 98.2162 121.351C98.1481 120.416 98.189 119.475 98.338 118.551C98.3645 118.411 98.3962 118.275 98.4298 118.141C99.5306 118.32 100.642 118.411 101.755 118.415C102.161 118.415 102.574 118.415 102.99 118.388C102.99 118.516 102.996 118.654 103.006 118.802C103.098 121.037 103.269 124.958 103.409 126.414C103.606 128.503 104.699 134.13 104.699 134.13C104.699 134.13 102.614 135.581 105.062 139.157C105.062 139.157 105.062 140.453 104.9 140.64C104.726 141.253 104.587 141.877 104.482 142.508C104.379 143.182 104.337 143.864 104.503 144.218C104.9 145.064 107.282 144.995 107.282 144.995L107.341 144.983C107.79 144.933 108.245 144.98 108.678 145.122C109.111 145.263 109.514 145.497 109.863 145.808C110.768 146.597 114.204 146.251 116.065 146C116.793 145.9 117.281 145.808 117.281 145.808C117.304 145.719 117.313 145.626 117.305 145.533C117.286 145.037 116.928 143.95 114.499 142.979C114.499 142.979 112.215 141.314 112.247 139.863H112.199H111.935C112.127 139.852 112.251 139.863 112.251 139.863C112.251 139.863 111.356 136.322 111.721 136.035C112.086 135.748 110.992 131.824 110.992 131.824C110.992 131.824 110.366 125.239 110.332 124.778C110.334 124.382 110.389 123.988 110.496 123.61L110.332 120C110.332 120 110.3 118.8 110.332 118.409C110.327 118.07 110.301 117.732 110.256 117.397C110.24 117.263 110.225 117.123 110.207 116.985C111.063 116.75 111.619 116.532 111.619 116.532L111.52 103.965C112.247 102.434 112.381 99.0745 112.378 96.6914C112.378 95.1601 112.314 94.0269 112.314 94.0269L113.308 92.2678C113.308 92.2678 113.537 90.1623 113.174 89.701C113.013 89.4923 113.085 89.276 113.218 89.098C113.286 89.0389 113.359 88.9851 113.435 88.9372C113.435 88.9372 113.424 88.92 113.412 88.8951C113.481 88.8322 113.555 88.7753 113.633 88.7248C113.633 88.7248 113.28 88.1314 113.595 87.8806C113.892 88.0988 114.157 88.2634 114.358 88.3974C114.344 88.5372 114.33 88.6176 114.33 88.6176L114.414 88.4261C114.608 88.5448 114.727 88.6176 114.727 88.6176C114.727 88.6176 116.283 85.2544 116.25 84.7586C116.216 84.2629 117.309 82.1745 117.309 82.1745C117.309 82.1745 117.441 81.0777 118.038 80.6183C118.634 80.1589 118.5 76.8302 118.5 76.8302C118.5 76.8302 118.666 75.096 119.063 74.3878C119.46 73.6796 118.701 72.7244 118.701 72.7244ZM88.917 71.2486L88.947 72.0506C88.7705 71.7424 88.6434 71.5204 88.6434 71.5204L88.917 71.2486Z" fill="url(#paint0_linear)"/>
<path d="M114.812 87.1647L114.43 88.9257C114.43 88.9257 111.377 87.2355 110.826 85.0878C110.276 82.9402 111.748 82.1248 111.748 82.1248L114.593 83.4321L114.812 87.1647Z" fill="white"/>
<path opacity="0.1" d="M114.812 87.1647L114.43 88.9257C114.43 88.9257 111.377 87.2355 110.826 85.0878C110.276 82.9402 111.748 82.1248 111.748 82.1248L114.593 83.4321L114.812 87.1647Z" fill="black"/>
<path d="M97.6812 147.099C97.6812 147.099 94.8574 148.224 92.916 148.366C91.8853 148.441 91.3435 147.755 91.0646 147.095C90.9123 146.728 90.814 146.337 90.7734 145.937L91.0258 142.903L91.1599 141.287L95.2845 140.125L95.8687 142.063L95.9234 142.21C96.1581 142.857 97.0988 145.489 97.0706 146.038C97.0694 146.179 97.0944 146.318 97.1442 146.448C97.1939 146.578 97.2673 146.696 97.36 146.794C97.4547 146.91 97.5626 147.012 97.6812 147.099Z" fill="white"/>
<path d="M116.969 145.556C116.976 145.648 116.968 145.741 116.945 145.829C116.945 145.829 110.905 146.922 109.67 145.829C109.321 145.51 108.915 145.273 108.478 145.134C108.04 144.995 107.58 144.957 107.128 145.022C107.128 145.022 104.792 145.091 104.401 144.256C104.239 143.906 104.281 143.226 104.382 142.556C104.485 141.929 104.621 141.308 104.792 140.698L104.885 140.617L105.441 140.133L111.95 139.924H111.999C111.968 141.368 114.209 143.023 114.209 143.023C116.59 143.98 116.941 145.062 116.969 145.556Z" fill="white"/>
<path opacity="0.1" d="M116.964 145.556C116.971 145.648 116.962 145.741 116.938 145.83C116.938 145.83 110.9 146.923 109.665 145.83C109.317 145.511 108.911 145.274 108.474 145.135C108.036 144.996 107.577 144.957 107.125 145.022C107.125 145.022 104.787 145.091 104.398 144.256C104.236 143.904 104.277 143.226 104.377 142.556C105.277 142.654 106.698 142.897 107.256 143.477C108.099 144.36 109.529 145.24 110.406 145.309C111.093 145.357 115.2 145.498 116.964 145.556Z" fill="black"/>
<path opacity="0.1" d="M97.6773 147.098C97.6773 147.098 94.8535 148.224 92.9121 148.366C91.8814 148.44 91.3396 147.755 91.0625 147.093C91.7808 147.355 92.778 147.631 93.3021 147.378C93.9234 147.079 96.126 146.886 97.3614 146.804C97.4554 146.915 97.5615 147.014 97.6773 147.098Z" fill="black"/>
<path d="M101.871 56.3965C99.5412 55.4145 96.5445 52.17 97.2928 50.654C97.459 50.2715 97.5577 49.8586 97.584 49.4367C97.6321 48.8639 97.6392 48.2879 97.6051 47.7139C97.5527 46.7739 97.4484 45.8381 97.2928 44.9116C97.2928 44.9116 104.566 45.0896 104.142 46.2515C104.019 46.5922 103.999 47.1837 104.033 47.846C104.066 48.5083 104.155 49.2567 104.246 49.8903C104.373 50.7593 104.501 51.4216 104.501 51.4216C104.501 51.4216 104.056 52.0973 103.795 52.1337C103.533 52.17 105.214 57.7957 101.871 56.3965Z" fill="#CF6F80"/>
<path opacity="0.1" d="M95.9132 142.21L95.8585 142.275C93.6841 139.423 91.0545 142.978 91.0545 142.978L91.0156 142.903L91.1498 141.287L95.2743 140.125L95.8585 142.063L95.9132 142.21Z" fill="black"/>
<path opacity="0.1" d="M111.999 140.125C111.999 140.125 110.411 140.089 109.564 140.901C108.717 141.712 104.622 141.077 104.799 140.901C104.851 140.813 104.882 140.713 104.89 140.61L105.446 140.125L111.955 139.917C111.98 140.045 111.999 140.125 111.999 140.125Z" fill="black"/>
<path d="M98.6222 117.728C98.5039 118.045 98.414 118.374 98.3539 118.71C98.2067 119.63 98.1658 120.566 98.2321 121.497C98.2974 122.837 98.2321 131.816 98.2321 131.816C98.2321 131.816 96.8361 134.211 96.0578 135.055C95.2795 135.899 97.6462 137.415 97.6462 137.415C97.9992 139.597 95.8601 142.062 95.8601 142.062C93.6858 139.21 91.0561 142.767 91.0561 142.767C91.0561 142.767 89.6265 140.087 89.27 139.13C88.9135 138.173 90.6661 137.511 91.282 137.122C91.8979 136.733 91.252 134.442 91.252 134.442C91.252 134.442 90.7314 132.434 90.1136 130.602C89.4959 128.771 90.7949 119.652 90.7949 119.652C90.7949 119.652 90.862 118.032 91.0226 117.468C91.1036 117.06 91.1197 116.641 91.0702 116.227C91.0596 116.088 91.0473 115.971 91.0384 115.892C91.0296 115.814 91.0226 115.777 91.0226 115.777L91.0473 115.731L91.9297 113.948C91.9297 113.948 99.0457 116.604 98.6222 117.728Z" fill="#FF6400"/>
<path d="M112.001 139.915C112.001 139.915 110.412 139.878 109.565 140.68C108.718 141.483 104.623 140.857 104.8 140.68C104.976 140.504 104.962 139.201 104.962 139.201C102.56 135.644 104.609 134.201 104.609 134.201C104.609 134.201 103.536 128.602 103.342 126.525C103.206 125.074 103.038 121.175 102.948 118.949C102.91 117.992 102.887 117.334 102.887 117.334L104.849 116.905L105.102 116.849L109.835 115.82C109.835 115.82 109.966 116.777 110.054 117.56C110.098 117.894 110.123 118.231 110.128 118.568C110.096 118.951 110.128 120.149 110.128 120.149L110.289 123.742C110.184 124.119 110.13 124.51 110.128 124.904C110.16 125.362 110.776 131.912 110.776 131.912C110.776 131.912 111.847 135.82 111.482 136.102C111.116 136.383 112.001 139.915 112.001 139.915Z" fill="#FF6400"/>
<path opacity="0.1" d="M104.139 46.2515C104.015 46.5922 103.996 47.1837 104.029 47.846C103.055 48.4822 101.935 48.8076 100.798 48.7845C99.661 48.7615 98.5531 48.3911 97.6014 47.7158C97.5491 46.7752 97.4447 45.8388 97.2891 44.9116C97.2891 44.9116 104.562 45.0858 104.139 46.2515Z" fill="black"/>
<path d="M106.947 42.0216C106.949 42.7113 106.849 43.3969 106.651 44.0525C106.209 45.5213 105.302 46.7733 104.091 47.5873C102.88 48.4012 101.443 48.7246 100.033 48.5003C98.6235 48.2761 97.3324 47.5186 96.388 46.3618C95.4435 45.2049 94.9066 43.7232 94.872 42.1785C94.872 42.1249 94.872 42.0751 94.872 42.0216C94.8583 41.1521 95.0043 40.2883 95.3017 39.4807C95.599 38.6731 96.0416 37.9378 96.6037 37.3176C97.1658 36.6975 97.8361 36.205 98.5755 35.8687C99.315 35.5325 100.109 35.3594 100.911 35.3594C101.712 35.3594 102.506 35.5325 103.246 35.8687C103.985 36.205 104.655 36.6975 105.217 37.3176C105.78 37.9378 106.222 38.6731 106.519 39.4807C106.817 40.2883 106.963 41.1521 106.949 42.0216H106.947Z" fill="#CF6F80"/>
<path opacity="0.1" d="M101.871 56.3969C99.5412 55.4149 96.5445 52.1704 97.2928 50.6544C97.459 50.2718 97.5577 49.859 97.584 49.437L100.773 52.2795L102.746 54.0348L104.246 49.8926C104.373 50.7616 104.501 51.4239 104.501 51.4239C104.501 51.4239 104.056 52.0996 103.795 52.136C103.533 52.1723 105.214 57.7961 101.871 56.3969Z" fill="black"/>
<path d="M110.115 68.9593L107.452 117.483L103.978 117.73L94.9844 89.5938L96.4598 56.19L96.7704 49.1326L100.77 52.6948L102.745 54.4501L104.289 50.1873L107.16 52.9015L110.115 68.9593Z" fill="#FF6400"/>
<path opacity="0.1" d="M98.6174 117.728C98.4991 118.045 98.4092 118.374 98.3491 118.71C95.8218 118.287 93.3672 117.455 91.0672 116.243L91.0195 116.216L91.0354 115.908L91.0442 115.747L91.9267 113.963C91.9267 113.963 99.041 116.604 98.6174 117.728Z" fill="black"/>
<path opacity="0.1" d="M104.889 118.718C104.243 118.837 103.591 118.917 102.937 118.959C102.898 118.002 102.875 117.343 102.875 117.343L104.838 116.915L104.889 118.718Z" fill="black"/>
<path opacity="0.1" d="M110.038 117.569C108.783 117.923 106.846 118.321 105.111 118.072L105.086 116.859L109.819 115.829C109.819 115.829 109.95 116.777 110.038 117.569Z" fill="black"/>
<path opacity="0.1" d="M105.079 118.294C97.8428 119.634 91.2157 115.793 91.2157 115.793L91.2792 114.491C91.2792 114.491 91.4433 99.7347 90.988 98.6035C90.5326 97.4722 90.1779 91.7355 90.4356 90.855C90.6933 89.9745 89.4949 76.7707 89.4949 76.7707L89.3008 71.4111L82.1953 68.2892L85.3721 61.1073C85.8012 60.1004 86.1702 59.0646 86.4769 58.0064C87.0293 56.142 89.5937 54.3102 89.5937 54.3102C89.5937 54.3102 92.2234 52.4802 93.2629 52.5491C94.3024 52.618 95.6649 50.9298 95.6649 50.9298C96.6709 48.1485 97.5816 49.408 97.5816 49.408C97.5816 49.5401 97.5816 49.408 97.5322 49.8196C97.1792 52.8726 103.24 62.5199 103.326 62.6903L103.903 77.9384L104.488 97.2349L105.079 118.294Z" fill="black"/>
<path d="M104.889 118.295C97.6528 119.634 91.0239 115.793 91.0239 115.793L91.0892 114.491C91.0892 114.491 91.2533 99.735 90.7962 98.6037C90.3391 97.4725 89.9861 91.7358 90.2456 90.8553C90.505 89.9748 89.3049 76.771 89.3049 76.771L89.109 71.4114L82 68.2779L85.1768 61.0961C85.6049 60.0887 85.974 59.053 86.2816 57.9951C86.8323 56.1308 89.3984 54.2989 89.3984 54.2989C89.3984 54.2989 92.0281 52.469 93.0659 52.5379C94.1036 52.6068 95.4679 50.9185 95.4679 50.9185C96.4756 48.1373 97.5857 49.3968 97.5857 49.3968C97.5857 49.5289 97.4798 49.5882 97.5363 49.8083C98.3129 52.7695 103.05 62.5087 103.136 62.6791L103.72 77.9271L104.305 97.2236L104.889 118.295Z" fill="white"/>
<path opacity="0.1" d="M102.939 63.1136C102.161 62.7614 98.0383 57.6563 98.0383 57.6563V56.4944C97.8883 56.1116 96.997 56.3451 96.2734 56.6131L96.5841 49.5557L96.937 49.8734C97.7101 52.8327 102.849 62.9432 102.939 63.1136Z" fill="black"/>
<path d="M103.133 62.6905C102.353 62.3383 98.2297 57.2332 98.2297 57.2332V56.0713C98.0797 55.6885 97.1884 55.922 96.4648 56.19L96.7772 49.1326L97.1302 49.4503C97.905 52.4096 103.046 62.522 103.133 62.6905Z" fill="white"/>
<path opacity="0.1" d="M91.2174 88.1504C91.3145 88.1504 96.2491 87.5876 96.2491 87.5876C96.2491 87.5876 99.2371 93.9598 99.0412 95.5103C98.8453 97.0608 98.4905 98.4332 97.2886 98.1901C96.0868 97.947 90.8203 98.3815 90.8203 98.3815L91.2174 88.1504Z" fill="black"/>
<path d="M91.0221 87.7276C91.1192 87.7276 96.0538 87.1648 96.0538 87.1648C96.0538 87.1648 99.04 93.5389 98.8459 95.0875C98.6517 96.636 98.2934 98.0104 97.0933 97.7673C95.8932 97.5242 90.625 97.9587 90.625 97.9587L91.0221 87.7276Z" fill="white"/>
<path d="M94.7415 84.7356C94.7415 84.7356 99.2702 87.3752 99.3672 88.1811C99.4643 88.9869 97.0623 87.8289 96.5434 87.6891C96.2019 87.5999 95.8543 87.541 95.5039 87.513L92.043 87.6145L94.7415 84.7356Z" fill="#CF6F80"/>
<path opacity="0.1" d="M101.672 63.4426C101.935 63.4426 102.148 63.2112 102.148 62.9258C102.148 62.6403 101.935 62.4089 101.672 62.4089C101.409 62.4089 101.195 62.6403 101.195 62.9258C101.195 63.2112 101.409 63.4426 101.672 63.4426Z" fill="black"/>
<path d="M101.672 63.2321C101.935 63.2321 102.148 63.0007 102.148 62.7153C102.148 62.4299 101.935 62.1985 101.672 62.1985C101.409 62.1985 101.195 62.4299 101.195 62.7153C101.195 63.0007 101.409 63.2321 101.672 63.2321Z" fill="#04DD32"/>
<path opacity="0.1" d="M102.551 85.8154C102.814 85.8154 103.027 85.584 103.027 85.2986C103.027 85.0131 102.814 84.7817 102.551 84.7817C102.288 84.7817 102.074 85.0131 102.074 85.2986C102.074 85.584 102.288 85.8154 102.551 85.8154Z" fill="black"/>
<path d="M102.551 85.6027C102.814 85.6027 103.027 85.3713 103.027 85.0859C103.027 84.8005 102.814 84.5691 102.551 84.5691C102.288 84.5691 102.074 84.8005 102.074 85.0859C102.074 85.3713 102.288 85.6027 102.551 85.6027Z" fill="#04DD32"/>
<path opacity="0.1" d="M102.148 74.6291C102.412 74.6291 102.625 74.3977 102.625 74.1123C102.625 73.8268 102.412 73.5955 102.148 73.5955C101.885 73.5955 101.672 73.8268 101.672 74.1123C101.672 74.3977 101.885 74.6291 102.148 74.6291Z" fill="black"/>
<path d="M102.148 74.4184C102.412 74.4184 102.625 74.187 102.625 73.9016C102.625 73.6162 102.412 73.3848 102.148 73.3848C101.885 73.3848 101.672 73.6162 101.672 73.9016C101.672 74.187 101.885 74.4184 102.148 74.4184Z" fill="#04DD32"/>
<path d="M113.13 87.4059C113.13 87.4059 113.455 87.9342 113.13 88.1811C112.805 88.4281 113.162 89.0253 113.162 89.0253C113.162 89.0253 112.351 89.5402 112.708 90.0034C113.064 90.4666 112.839 92.5588 112.839 92.5588L111.864 94.3083C111.864 94.3083 111.923 95.4357 111.926 96.9594C111.926 99.3368 111.797 102.679 111.084 104.203L111.183 116.704C111.183 116.704 107.772 118.055 104.916 117.644L104.492 97.5834C104.492 97.5834 105.11 86.2077 105.338 84.0255C105.471 82.8927 105.525 81.7505 105.5 80.6088C105.5 80.6088 105.403 77.1939 105.077 75.609C105.077 75.609 104.724 68.743 104.688 66.8422C104.672 65.933 104.717 63.28 104.766 60.7572C104.821 57.9989 104.882 55.3976 104.882 55.3976L104.238 49.8695C104.238 49.8695 104.882 49.7987 105.077 50.0801C105.164 50.1682 105.258 50.247 105.359 50.3155C106.471 51.1309 110.4 53.6385 110.4 53.6385C110.4 53.6385 112.574 54.5764 113.094 55.9201C113.615 57.2639 113.977 58.2171 114.229 58.5999C114.482 58.9828 114.619 60.7821 114.619 60.7821C114.619 60.7821 115.368 64.0935 115.952 64.6544C116.536 65.2152 116.963 68.7832 116.963 68.7832L111.801 73.1857C111.801 73.1857 111.347 80.5092 111.25 80.7925C111.153 81.0758 113.13 87.4059 113.13 87.4059Z" fill="white"/>
<path d="M113.33 87.4059C113.33 87.4059 113.653 87.9342 113.33 88.1811C113.007 88.428 113.36 89.0252 113.36 89.0252C113.36 89.0252 112.555 89.5459 112.908 90.0091C113.261 90.4723 113.039 92.5645 113.039 92.5645L112.065 94.314C112.065 94.314 112.123 95.4414 112.128 96.9651C112.128 99.3425 112 102.685 111.286 104.208L111.384 116.71C111.384 116.71 107.967 118.061 105.115 117.649L104.693 97.5891C104.693 97.5891 105.311 86.2133 105.538 84.0312C105.672 82.8984 105.725 81.7562 105.699 80.6145C105.699 80.6145 105.602 77.1996 105.277 75.6147C105.277 75.6147 104.924 68.7487 104.887 66.8479C104.871 65.9387 104.917 63.2857 104.965 60.7629C105.019 58.0046 105.081 55.4032 105.081 55.4032L104.23 49.8005C104.23 49.8005 105.081 49.8005 105.277 50.0857C105.363 50.1749 105.458 50.2538 105.559 50.3212C106.671 51.1366 110.602 53.6441 110.602 53.6441C110.602 53.6441 112.774 54.5821 113.295 55.9258C113.816 57.2695 114.177 58.2228 114.432 58.6056C114.686 58.9884 114.82 60.7877 114.82 60.7877C114.82 60.7877 115.568 64.0992 116.152 64.6601C116.736 65.2209 117.158 68.7812 117.158 68.7812L111.996 73.1838C111.996 73.1838 111.542 80.5073 111.444 80.7906C111.345 81.0739 113.33 87.4059 113.33 87.4059Z" fill="white"/>
<path opacity="0.1" d="M107.147 57.0283L107.613 58.5022L105.16 61.182C105.215 58.4257 105.276 55.8224 105.276 55.8224L104.426 50.2197C104.426 50.2197 105.276 50.2197 105.472 50.5049C105.558 50.5938 105.653 50.6722 105.755 50.7385L107.841 57.2657L107.147 57.0283Z" fill="black"/>
<path d="M106.952 56.6055L107.42 58.0794L104.966 60.7592C105.021 58.0009 105.083 55.3996 105.083 55.3996L104.23 49.7969C104.23 49.7969 105.083 49.7969 105.277 50.0821C105.364 50.1707 105.458 50.2496 105.559 50.3175L107.647 56.8428L106.952 56.6055Z" fill="white"/>
<path opacity="0.1" d="M106.947 42.0216C106.949 42.7113 106.849 43.3969 106.651 44.0525C106.618 44.0581 106.583 44.0564 106.551 44.0476C106.518 44.0387 106.487 44.0228 106.46 44.0008C106.414 42.2781 105.633 40.6606 104.671 39.2843C104.401 38.8688 104.073 38.5008 103.7 38.1933C103.323 37.8859 102.853 37.7419 102.383 37.7894C101.854 37.8679 101.386 38.2583 100.851 38.3081C100.145 38.3713 99.5136 37.8411 98.813 37.8143C98.5281 37.8172 98.2472 37.886 97.9888 38.016C97.7304 38.1461 97.5005 38.3344 97.3146 38.5684C96.9465 39.0407 96.673 39.5909 96.5116 40.184C96.2341 41.0833 96.0829 42.0228 96.0633 42.971C96.0545 43.5069 96.0068 44.1788 95.5479 44.374C95.5825 43.9799 95.5412 43.5822 95.4266 43.2063C95.3121 42.8303 95.1268 42.4843 94.8826 42.19L94.872 42.1785C94.872 42.1249 94.872 42.0752 94.872 42.0216C94.8583 41.1521 95.0043 40.2883 95.3017 39.4807C95.599 38.6731 96.0416 37.9378 96.6037 37.3176C97.1658 36.6975 97.8361 36.205 98.5755 35.8687C99.315 35.5325 100.109 35.3594 100.911 35.3594C101.712 35.3594 102.506 35.5325 103.246 35.8687C103.985 36.205 104.655 36.6975 105.217 37.3176C105.78 37.9378 106.222 38.6731 106.519 39.4807C106.817 40.2883 106.963 41.1521 106.949 42.0216H106.947Z" fill="black"/>
<path d="M103.414 31.6218C102.497 31.1539 101.454 31.0654 100.481 31.373C99.9922 31.5299 99.5316 31.7845 99.0357 31.9128C97.9767 32.1903 96.7413 31.8898 95.8324 32.5617C95.3276 32.9445 95.0241 33.5494 94.7417 34.137L94.0357 35.5956C93.651 36.3938 93.2627 37.2054 93.1021 38.084C92.9415 38.9626 93.0386 39.9464 93.5521 40.6528C93.9263 41.1677 94.4787 41.4911 94.8846 41.9754C95.1278 42.27 95.3123 42.6159 95.4265 42.9914C95.5407 43.3668 95.5821 43.7639 95.5482 44.1576C96.0089 43.9661 96.053 43.2924 96.0636 42.7564C96.0833 41.8083 96.2344 40.8687 96.5119 39.9694C96.6729 39.3761 96.9465 38.8259 97.3149 38.3539C97.501 38.12 97.7309 37.9318 97.9892 37.8018C98.2476 37.6718 98.5285 37.6029 98.8133 37.5997C99.5192 37.6265 100.153 38.1548 100.852 38.0916C101.381 38.0438 101.851 37.6514 102.384 37.5748C102.854 37.5266 103.323 37.6706 103.7 37.9787C104.073 38.2858 104.4 38.6538 104.669 39.0698C105.633 40.446 106.415 42.0596 106.461 43.7862C106.66 43.9451 106.948 43.7384 107.046 43.4933C107.145 43.2483 107.149 42.9612 107.274 42.7277C107.419 42.4578 107.696 42.3142 107.913 42.1113C108.464 41.5964 108.601 40.7293 108.58 39.9426C108.559 39.1559 108.418 38.3577 108.555 37.5844C108.638 37.1097 108.825 36.6656 108.928 36.1966C109.03 35.7277 109.043 35.2013 108.801 34.7974C108.448 34.204 107.705 34.0872 107.057 34.0317C106.321 33.9628 105.663 34.0509 105.193 33.379C104.973 33.0284 104.725 32.6992 104.452 32.3951C104.359 32.2956 103.414 31.6639 103.414 31.6218Z" fill="#512E4E"/>
<path opacity="0.1" d="M84.2332 71.9874L82.3889 68.2893L81.8047 73.9954C81.8047 73.9954 82.1294 76.5297 82.0641 76.9183C81.9988 77.3068 83.3948 80.7906 83.3948 80.7906C83.3948 80.7906 88.0065 89.699 89.8896 90.1584L96.2521 85.2276L94.5648 82.9038C94.5648 82.9038 93.9807 82.6569 93.8342 82.9038C93.8342 82.9038 90.7015 77.058 90.3767 76.635C90.052 76.212 90.1155 75.3678 90.1155 75.3678C90.1155 75.3678 89.6284 74.8051 89.7908 74.2768C89.9532 73.7485 88.8501 71.9166 88.8501 71.9166L89.8561 70.8964L84.2332 71.9874Z" fill="black"/>
<path d="M82.4854 67.8682L81.9982 68.2893L81.4141 73.9953C81.4141 73.9953 81.7388 76.5297 81.6735 76.9182C81.6082 77.3068 83.006 80.7906 83.006 80.7906C83.006 80.7906 87.6159 89.699 89.499 90.1584L95.8632 85.2276L94.1742 82.9038C94.1742 82.9038 93.59 82.6569 93.4435 82.9038C93.4435 82.9038 90.3109 77.058 89.9861 76.635C89.6614 76.2119 89.7267 75.3678 89.7267 75.3678C89.7267 75.3678 89.2396 74.805 89.402 74.2767C89.5643 73.7484 88.4595 71.9166 88.4595 71.9166L89.4655 70.8963L82.4854 67.8682Z" fill="white"/>
<path opacity="0.1" d="M112.709 90.2216C113.062 90.6867 112.84 92.7751 112.84 92.7751L111.866 94.5246C111.866 94.5246 111.924 95.654 111.928 97.1757L110.29 97.7308C110.142 97.7809 109.985 97.792 109.832 97.7629C109.679 97.7339 109.535 97.6657 109.412 97.564C109.288 97.4623 109.189 97.33 109.122 97.1782C109.055 97.0264 109.023 96.8595 109.028 96.6914L109.31 86.8125L113.131 88.3974C112.806 88.6424 113.163 89.2435 113.163 89.2435C113.163 89.2435 112.353 89.7565 112.709 90.2216Z" fill="black"/>
<path d="M112.906 90.0092C113.259 90.4744 113.037 92.5646 113.037 92.5646L112.063 94.3141C112.063 94.3141 112.121 95.4416 112.126 96.9652L110.459 97.5299C110.314 97.5788 110.16 97.5894 110.01 97.5608C109.861 97.5323 109.72 97.4654 109.599 97.3658C109.478 97.2662 109.381 97.1367 109.316 96.9881C109.25 96.8395 109.219 96.6761 109.223 96.5116L109.507 86.6021L113.33 88.187C113.003 88.432 113.36 89.0311 113.36 89.0311C113.36 89.0311 112.553 89.546 112.906 90.0092Z" fill="white"/>
<path d="M114.174 85.3001C114.174 85.3001 113.915 87.0975 113.265 87.2028C112.616 87.308 112.324 90.1104 111.677 90.0108C111.029 89.9113 111.458 87.4057 111.481 86.9195C111.504 86.4333 110.775 84.4196 111.32 83.9621C111.866 83.5046 113.592 83.9621 113.592 83.9621L114.174 85.3001Z" fill="#CF6F80"/>
<path opacity="0.1" d="M115.554 71.4591L116.779 68.7793C116.779 68.7793 117.266 70.8217 117.266 71.9128C117.266 73.0038 117.947 73.111 117.947 73.111C117.947 73.111 118.694 74.0681 118.3 74.7648C117.907 75.4616 117.748 77.1958 117.748 77.1958C117.748 77.1958 117.877 80.5054 117.293 80.9628C116.709 81.4203 116.587 82.5133 116.587 82.5133C116.587 82.5133 115.514 84.5901 115.547 85.084C115.581 85.5778 114.054 88.9219 114.054 88.9219C114.054 88.9219 114.801 84.7662 110.45 82.9708C110.45 82.9708 110.417 81.56 110.741 81.1734C111.066 80.7867 111.573 80.6106 111.255 78.6563C110.937 76.7019 111.163 74.3667 111.163 73.8977C111.163 73.4288 112.137 70.5039 112.137 70.5039L115.554 71.4591Z" fill="black"/>
<path d="M116.086 68.3965L117.155 68.7793C117.155 68.7793 117.644 70.8217 117.644 71.9128C117.644 73.0038 118.325 73.111 118.325 73.111C118.325 73.111 119.072 74.0681 118.678 74.7648C118.285 75.4616 118.128 77.1958 118.128 77.1958C118.128 77.1958 118.257 80.5054 117.672 80.9628C117.088 81.4203 116.958 82.5133 116.958 82.5133C116.958 82.5133 115.886 84.5902 115.92 85.084C115.953 85.5779 114.425 88.9219 114.425 88.9219C114.425 88.9219 115.173 84.7663 110.821 82.9708C110.821 82.9708 110.789 81.5601 111.114 81.1734C111.439 80.7867 111.945 80.6106 111.628 78.6563C111.31 76.702 111.536 74.3667 111.536 73.8977C111.536 73.4288 112.51 70.504 112.51 70.504L116.086 68.3965Z" fill="white"/>
<path opacity="0.1" d="M92.4609 137.855C92.4609 137.855 94.1658 136.693 95.2848 137.537C96.4037 138.382 92.4609 137.855 92.4609 137.855Z" fill="black"/>
<path opacity="0.1" d="M105.707 134.262C105.707 134.262 107.216 134.052 108.483 135.531C109.75 137.011 105.707 134.262 105.707 134.262Z" fill="black"/>
<g opacity="0.1">
<path opacity="0.1" d="M107.912 41.6924C107.695 41.8953 107.416 42.0408 107.271 42.3107C107.148 42.5423 107.144 42.8275 107.046 43.0763C106.947 43.3252 106.659 43.5281 106.46 43.3711C106.414 41.6484 105.63 40.0309 104.668 38.6527C104.399 38.2368 104.072 37.8687 103.699 37.5617C103.322 37.2537 102.851 37.1096 102.381 37.1578C101.851 37.2363 101.386 37.6268 100.851 37.6746C100.145 37.7397 99.5112 37.2095 98.8105 37.1827C98.5258 37.1857 98.245 37.2548 97.9868 37.3852C97.7287 37.5156 97.4993 37.7043 97.3139 37.9388C96.9455 38.4101 96.6719 38.9597 96.5109 39.5524C96.2335 40.4518 96.0824 41.3913 96.0626 42.3394C96.052 42.8734 96.0061 43.5395 95.5508 43.7386C95.5614 43.88 95.5614 44.0221 95.5508 44.1636C96.0097 43.9721 96.0555 43.2984 96.0661 42.7624C96.0858 41.8143 96.2369 40.8747 96.5144 39.9754C96.6755 39.3821 96.949 38.8319 97.3174 38.3599C97.5032 38.1261 97.7328 37.9379 97.9908 37.8079C98.2489 37.6778 98.5295 37.6089 98.8141 37.6057C99.52 37.6325 100.155 38.1608 100.854 38.0976C101.384 38.0498 101.853 37.6574 102.384 37.5808C102.855 37.5327 103.325 37.6767 103.703 37.9847C104.076 38.2918 104.403 38.6598 104.672 39.0758C105.634 40.452 106.417 42.0656 106.463 43.7922C106.663 43.9511 106.95 43.7444 107.049 43.4993C107.148 43.2543 107.151 42.9672 107.275 42.7337C107.42 42.4638 107.699 42.3202 107.916 42.1173C108.466 41.6024 108.604 40.7353 108.583 39.9486C108.583 39.9237 108.583 39.8988 108.583 39.8759C108.549 40.5573 108.382 41.2521 107.912 41.6924Z" fill="black"/>
<path opacity="0.1" d="M94.8871 41.5564C94.4812 41.0721 93.927 40.7486 93.5546 40.2357C93.241 39.7815 93.062 39.2349 93.041 38.668C92.9855 39.3764 93.1679 40.0827 93.5546 40.6568C93.927 41.1717 94.4812 41.4952 94.8871 41.9794C95.2768 42.4531 95.5108 43.0536 95.5525 43.6869C95.5795 43.3015 95.5345 42.9141 95.4202 42.548C95.3058 42.1819 95.1245 41.8447 94.8871 41.5564Z" fill="black"/>
<path opacity="0.1" d="M108.929 35.7777C108.825 36.2466 108.64 36.6926 108.555 37.1654C108.505 37.4814 108.487 37.8023 108.501 38.1225C108.506 37.9401 108.525 37.7584 108.555 37.5789C108.64 37.1042 108.825 36.6601 108.929 36.1911C108.99 35.9325 109.01 35.6645 108.988 35.3987C108.977 35.5264 108.957 35.653 108.929 35.7777Z" fill="black"/>
</g>
<path opacity="0.1" d="M60.6619 145.638C70.1596 145.638 77.859 144.297 77.859 142.642C77.859 140.988 70.1596 139.647 60.6619 139.647C51.1642 139.647 43.4648 140.988 43.4648 142.642C43.4648 144.297 51.1642 145.638 60.6619 145.638Z" fill="#FF6400"/>
<path d="M61.2121 85.2561H60.1055V112.278H61.2121V85.2561Z" fill="#535461"/>
<path d="M68.1692 112.196L68.1003 113.413L68.0015 115.136L67.9609 115.852L67.8638 117.575L67.8215 118.291L67.7227 120.013L66.6072 139.551C66.5588 140.392 66.2168 141.181 65.6509 141.758C65.0849 142.334 64.3376 142.656 63.561 142.656H57.7616C56.9852 142.656 56.2381 142.334 55.6725 141.757C55.1069 141.181 54.7652 140.392 54.7172 139.551L53.6071 120L53.5082 118.277L53.4677 117.561L53.3688 115.839L53.3282 115.123L53.2294 113.4L53.1588 112.183C53.1465 111.948 53.1785 111.714 53.2529 111.493C53.3272 111.273 53.4422 111.071 53.591 110.901C53.7397 110.73 53.919 110.595 54.1178 110.502C54.3166 110.41 54.5308 110.362 54.7472 110.362H66.609C66.8246 110.364 67.0375 110.414 67.2346 110.509C67.4317 110.604 67.6088 110.741 67.755 110.913C67.9012 111.085 68.0134 111.287 68.0846 111.508C68.1558 111.729 68.1846 111.963 68.1692 112.196Z" fill="#3F3D56"/>
<path d="M68.1007 113.414L68.0018 115.131H53.3215L53.2227 113.414H68.1007Z" fill="#9D9CB5"/>
<path d="M67.9585 115.846L67.8615 117.565H53.4582L53.3594 115.846H67.9585Z" fill="#9D9CB5"/>
<path d="M67.8203 118.283L67.7232 120H53.5988L53.5 118.283H67.8203Z" fill="#9D9CB5"/>
<path d="M51.5316 95.3841C57.9752 100.441 60.6649 108.351 60.6649 108.351C60.6649 108.351 52.8994 108.061 46.454 103.004C40.0086 97.9471 37.3242 90.0398 37.3242 90.0398C37.3242 90.0398 45.0862 90.3269 51.5316 95.3841Z" fill="#04DD32"/>
<path d="M37.3203 90.0398C37.3203 90.0398 45.3823 94.8921 47.9679 98.9099C50.5535 102.928 60.6663 108.351 60.6663 108.351" stroke="#535461" stroke-width="2" stroke-miterlimit="10"/>
<path d="M55.6908 85.1971C59.1976 87.9477 60.6642 92.2526 60.6642 92.2526C60.6642 92.2526 56.4373 92.0957 52.9287 89.345C49.4201 86.5944 47.957 82.2876 47.957 82.2876C47.957 82.2876 52.1822 82.4446 55.6908 85.1971Z" fill="#04DD32"/>
<path d="M47.957 82.2876C47.957 82.2876 52.3445 84.9291 53.7512 87.1151C55.1578 89.301 60.6642 92.2526 60.6642 92.2526" stroke="#535461" stroke-width="2" stroke-miterlimit="10"/>
<path d="M65.7606 92.0342C61.7313 96.8368 60.8789 103.113 60.8789 103.113C60.8789 103.113 66.5601 101.601 70.5858 96.7966C74.6115 91.9921 75.4675 85.7175 75.4675 85.7175C75.4675 85.7175 69.7898 87.2316 65.7606 92.0342Z" fill="#04DD32"/>
<path d="M75.471 85.7195C75.471 85.7195 70.2222 90.6427 68.888 94.0345C67.5537 97.4264 60.8789 103.113 60.8789 103.113" stroke="#535461" stroke-width="2" stroke-miterlimit="10"/>
<path d="M213.666 90.344C213.666 90.344 210.752 74.6212 211.867 72.665C211.867 72.665 211.908 70.8465 211.841 68.5285C211.841 68.4405 211.841 68.3524 211.841 68.2624C212.037 68.4043 212.242 68.5322 212.453 68.6453C213.481 69.2179 214.661 69.3831 215.789 69.1123L214.907 68.0461C214.695 67.7916 214.474 67.5159 214.428 67.179C214.382 66.8421 214.509 66.5416 214.619 66.2411C215.457 63.9441 215.501 61.0557 213.886 59.3023C212.522 57.8284 212.19 55.9258 210.71 54.5801C209.628 53.5943 209.033 52.1492 208.472 50.7518C207.997 49.5708 207.519 48.3802 207.247 47.1283C207.035 46.1502 206.95 45.1376 206.659 44.1825C206.368 43.2273 205.823 42.299 204.97 41.8721C204.667 41.7209 204.33 41.6347 204.053 41.4338C203.689 41.1677 203.47 40.7351 203.207 40.3561C201.871 38.442 197.397 39.5694 195.279 40.3465C194.703 40.5422 194.17 40.8626 193.712 41.2883L193.731 41.2538C193.747 41.2251 193.767 41.1964 193.784 41.1677C193.553 41.371 193.352 41.6134 193.191 41.8855C192.883 42.4157 192.754 43.034 192.496 43.6082C192.185 44.2878 190.458 46.1847 191.201 46.9484C191.253 46.9997 191.312 47.0411 191.377 47.0709C191.656 47.1968 191.963 47.2301 192.26 47.1666L192.228 47.2489C191.974 47.9228 191.844 48.6438 191.845 49.3717C191.845 52.5167 194.236 55.0663 197.189 55.0663C197.744 55.0669 198.296 54.9746 198.825 54.7926C198.837 54.8653 198.848 54.9381 198.86 55.0108C198.86 55.0395 198.869 55.0682 198.873 55.0969L198.779 55.2386C198.774 55.2299 198.769 55.2215 198.763 55.2137L195.992 59.4133C195.569 59.7368 193.13 61.651 192.992 63.0866C192.847 64.6581 192.703 66.4976 192.703 66.4976L192.683 66.8919C192.562 67.0016 192.42 67.0816 192.268 67.1262C192.116 67.1708 191.956 67.179 191.801 67.1503C190.936 66.9972 190.936 70.5958 190.936 70.5958C190.936 70.5958 190.361 71.17 189.965 70.6723C189.57 70.1747 188.525 71.861 188.525 71.861L181.977 72.1673L181.827 72.1769L181.474 70.992C181.436 70.867 181.354 70.7634 181.246 70.7035C181.138 70.6436 181.013 70.6324 180.897 70.6723C180.87 70.6821 180.843 70.6943 180.818 70.7087L180.793 70.724L180.747 70.7585L180.724 70.7815C180.712 70.7939 180.7 70.8073 180.689 70.8216L180.668 70.8484L180.657 70.8599C180.616 70.921 180.589 70.9917 180.578 71.0661C180.567 71.1406 180.573 71.2168 180.594 71.2887L180.897 72.3051C179.634 72.5807 178.342 73.3579 179.395 75.4979L174.055 74.4279L175.783 76.0013L184.702 77.9978C184.584 78.2275 184.662 78.5605 185.031 79.0295C186.619 81.0528 189.513 81.6021 190.678 81.7438C190.986 82.4901 191.37 83.1964 191.824 83.8493L191.723 85.8649C191.723 85.8649 188.774 101.228 188.234 102.007C188.506 101.672 188.756 101.316 188.98 100.941C188.124 104.097 186.928 108.417 186.614 109.064C186.109 110.098 185.641 114.28 186.217 114.548C186.393 114.631 186.898 114.591 187.618 114.531V114.878L187.586 128.007C187.586 128.007 187.731 136.06 187.334 136.827C186.937 137.595 186.831 139.205 186.831 139.205C186.831 139.205 185.242 142.38 183.984 143.657C183.975 143.667 183.966 143.676 183.956 143.684L183.917 143.385C183.917 143.385 182.404 145.456 179.058 145.339C179.058 145.339 177.044 146.76 180.031 146.836C183.017 146.913 186.831 146.721 186.831 146.721C186.831 146.721 189.494 142.319 191.725 142.893V146.229H192.408V142.839C192.725 142.613 192.996 142.32 193.205 141.977C193.414 141.633 193.556 141.248 193.624 140.843C193.682 140.426 193.639 139.999 193.5 139.606C193.36 139.212 193.128 138.864 192.826 138.598C192.691 138.465 192.582 138.303 192.507 138.123C192.432 137.942 192.392 137.747 192.39 137.549L192.365 137.572C192.365 137.505 192.35 137.436 192.342 137.365C192.147 135.642 191.901 132.088 192.768 129.458C193.956 125.851 194.316 120.829 193.451 117.839C193.172 116.883 192.943 115.911 192.764 114.927C192.743 114.803 192.724 114.684 192.706 114.573C193.297 114.66 193.883 114.788 194.459 114.956C196.462 115.555 200.844 115.666 204.586 115.634C204.594 115.745 204.605 115.862 204.617 115.978C204.684 116.79 204.823 117.593 205.034 118.375C205.503 119.906 205.719 126.657 205.719 126.657C205.719 126.657 206.324 132.208 205.994 134.467C205.817 135.723 205.641 136.984 205.54 138.251V138.276C205.54 138.276 204.548 141.339 203.823 143.002C203.805 143.044 203.786 143.086 203.768 143.127C203.575 143.146 203.385 143.191 203.202 143.263C203.202 143.263 202.229 145.368 201.26 145.716C200.292 146.065 200.613 147.211 202.807 146.79C205 146.369 208.313 146.025 208.313 146.025L208.456 143.877L209.13 142.962L208.954 145.104L209.672 144.951L209.577 142.346L210.68 140.849C210.68 140.849 212.012 139.562 210.032 137.032V137.087C210.011 137.051 209.991 137.013 209.968 136.976V136.965C209.64 136.414 209.379 135.386 209.857 133.562C210.722 130.265 211.225 127.274 211.225 127.274C211.225 127.274 213.156 119.259 210.835 115.467H210.937C210.7 114.934 210.531 114.367 210.438 113.783C210.426 113.714 210.416 113.643 210.406 113.57C212.123 113.463 213.809 113.126 215.184 112.399C215.178 112.391 214.351 93.3722 213.666 90.344ZM191.864 77.079V77.1173L191.511 77.1364L191.864 77.079ZM190.653 77.2608C190.595 77.2748 190.541 77.3029 190.495 77.3431C190.343 77.576 190.248 77.8466 190.218 78.1299L189.667 77.9959C189.667 77.9959 189.28 77.9059 188.724 77.8045L188.461 77.5173C189.185 77.4522 189.937 77.3565 190.653 77.2608Z" fill="url(#paint1_linear)"/>
<path d="M208.874 142.373L208.664 145.085L209.368 144.932L209.262 141.99L208.874 142.373Z" fill="#1D2366"/>
<path d="M192.805 129.494C191.956 132.117 192.196 135.656 192.387 137.375C192.458 138.01 192.523 138.397 192.523 138.397C192.523 138.397 191.254 141.532 191.148 141.651C191.042 141.77 187.414 144.172 187.414 144.172L184.877 145.778C184.877 145.778 182.304 144.555 183.538 144.134C183.79 144.024 184.017 143.856 184.203 143.642C185.439 142.369 186.99 139.205 186.99 139.205C186.99 139.205 187.096 137.599 187.484 136.835C187.872 136.071 187.731 128.045 187.731 128.045L187.761 114.962V113.257L192.588 113.295C192.619 113.874 192.688 114.45 192.796 115.018C192.97 115.998 193.194 116.967 193.469 117.919C194.32 120.904 193.967 125.901 192.805 129.494Z" fill="#FFB0B1"/>
<path opacity="0.1" d="M192.523 138.397C192.523 138.397 191.254 141.532 191.148 141.651C191.042 141.769 187.414 144.172 187.414 144.172L184.877 145.778C184.877 145.778 182.304 144.555 183.538 144.133C183.79 144.024 184.017 143.856 184.203 143.641L184.313 144.478L185.158 144.44L192.394 137.378C192.458 138.01 192.523 138.397 192.523 138.397Z" fill="black"/>
<path d="M192.437 137.556L185.161 144.666L184.315 144.704L184.139 143.364C184.139 143.364 182.66 145.427 179.374 145.313C179.374 145.313 177.4 146.727 180.325 146.804C183.249 146.88 186.984 146.689 186.984 146.689C186.984 146.689 189.592 142.286 191.775 142.86V146.185H192.446V142.83C192.758 142.602 193.024 142.308 193.229 141.966C193.433 141.624 193.571 141.241 193.636 140.839C193.694 140.425 193.653 140.002 193.516 139.611C193.38 139.219 193.153 138.872 192.857 138.603C192.725 138.469 192.62 138.307 192.548 138.127C192.475 137.947 192.438 137.753 192.437 137.556Z" fill="#1D2366"/>
<path d="M209.542 133.583C209.073 135.401 209.329 136.425 209.65 136.975V136.986C210.062 137.665 210.348 138.423 210.493 139.22L210.522 139.392L207.211 144.628L205.414 145.393C205.414 145.393 202.525 144.323 203.053 144.017C203.185 143.942 203.392 143.544 203.628 142.995C204.334 141.339 205.308 138.284 205.308 138.284V138.259C205.411 136.998 205.573 135.74 205.753 134.488C206.076 132.235 205.483 126.705 205.483 126.705C205.483 126.705 205.271 119.981 204.812 118.452C204.605 117.674 204.467 116.877 204.401 116.07C204.306 115.113 204.285 114.325 204.285 114.325C204.285 114.325 206.187 111.453 209.675 114.554C209.953 114.802 210.199 115.09 210.403 115.412C212.813 119.129 210.873 127.318 210.873 127.318C210.873 127.318 210.388 130.296 209.542 133.583Z" fill="#FFB0B1"/>
<path opacity="0.1" d="M210.526 139.392L207.215 144.627L205.418 145.393C205.418 145.393 202.529 144.323 203.057 144.017C203.189 143.942 203.395 143.544 203.632 142.995C204.855 142.983 205.489 144.246 205.489 144.246L207.038 143.979C207.038 143.979 209.082 139.622 209.541 139.356C210 139.09 209.611 137.367 209.611 137.367V136.929C209.624 136.944 209.634 136.961 209.649 136.977V136.988C210.061 137.666 210.347 138.425 210.492 139.222L210.526 139.392Z" fill="black"/>
<path d="M205.597 144.359C205.597 144.359 204.715 142.602 203.024 143.251C203.024 143.251 202.073 145.356 201.122 145.697C200.17 146.038 200.488 147.186 202.638 146.767C204.787 146.348 208.028 146.002 208.028 146.002L208.169 143.86L210.354 140.841C210.354 140.841 211.656 139.56 209.718 137.04V137.478C209.718 137.478 210.107 139.201 209.648 139.467C209.189 139.733 207.152 144.091 207.152 144.091L205.597 144.359Z" fill="#1D2366"/>
<path opacity="0.1" d="M192.594 113.291C192.624 113.87 192.694 114.446 192.802 115.014C190.815 114.698 188.971 114.855 187.762 114.958V113.253L192.594 113.291Z" fill="black"/>
<path opacity="0.1" d="M210.601 115.888C210.601 115.888 207.777 116.038 204.409 116.068C204.314 115.111 204.293 114.323 204.293 114.323C204.293 114.323 206.196 111.452 209.683 114.552C209.962 114.8 210.207 115.088 210.412 115.41C210.467 115.573 210.53 115.733 210.601 115.888Z" fill="black"/>
<path d="M210.599 115.544C210.599 115.544 198.231 116.193 194.461 115.046C190.692 113.9 186.955 114.893 186.392 114.627C185.829 114.361 186.286 110.194 186.781 109.162C187.275 108.13 189.986 97.6963 189.986 97.6963L192.594 82.9459L195.342 82.1247L195.536 82.0654L200.324 80.6336L203.833 79.5828C203.833 79.5828 210.81 109.124 210.211 111.302C209.994 112.136 209.959 113.014 210.109 113.865C210.2 114.447 210.365 115.011 210.599 115.544Z" fill="#1D2366"/>
<path d="M183.503 72.8584C183.503 72.8584 181.032 75.7296 182.903 77.3298C184.774 78.9301 186.004 77.483 186.004 77.483L183.503 72.8584Z" fill="#C7DAF5"/>
<path opacity="0.1" d="M183.503 72.8584C183.503 72.8584 181.032 75.7296 182.903 77.3298C184.774 78.9301 186.004 77.483 186.004 77.483L183.503 72.8584Z" fill="black"/>
<path d="M203.462 53.9809C203.462 53.9809 203.172 54.2795 202.736 54.7198C202.115 55.3496 201.196 56.2703 200.38 57.0417C199.251 58.1078 198.319 58.8907 198.652 58.2227C198.986 57.5546 198.922 56.3908 198.756 55.3017C198.744 55.229 198.733 55.1562 198.721 55.0854C198.584 54.2855 198.402 53.4954 198.176 52.7195C198.176 52.7195 200.001 50.1622 201.01 49.1535C201.386 48.7706 201.649 48.6137 201.665 48.8797C201.683 49.2377 201.93 50.0282 202.237 50.8666C202.246 50.8934 202.254 50.9183 202.265 50.9451C202.47 51.5193 202.701 52.1089 202.904 52.6181C203.215 53.399 203.462 53.9809 203.462 53.9809Z" fill="#FFB0B1"/>
<path opacity="0.1" d="M202.265 50.9453C202.094 51.9457 201.677 52.8778 201.06 53.6442C200.443 54.4105 199.647 54.9831 198.756 55.3019C198.616 54.4281 198.422 53.5655 198.176 52.7197C198.176 52.7197 201.612 47.9056 201.665 48.8799C201.677 49.2494 201.946 50.0686 202.265 50.9453Z" fill="black"/>
<path opacity="0.1" d="M198.42 56.588L198.865 55.9084C198.865 55.9084 199.16 57.857 200.243 56.9976C201.327 56.1381 201.38 63.4655 201.38 63.4655L200.217 82.3256L191.812 81.78L192.051 72.6668L193.002 68.0728L195.355 61.3944L196.754 59.1874L198.42 56.588Z" fill="black"/>
<path d="M201.375 63.5827L200.316 80.6359L200.205 82.4428L195.519 82.1385L195.342 82.127L191.812 81.8973L192.051 72.7821L193.002 68.1882L195.355 61.5097L196.754 59.3027L198.42 56.6937L198.865 56.0161C198.865 56.0161 199.16 57.9647 200.243 57.1053L200.266 57.088C201.325 56.3607 201.375 63.5827 201.375 63.5827Z" fill="#1D2366"/>
<path d="M193.125 66.5916C193.125 66.5916 192.704 67.5486 191.857 67.3936C191.009 67.2385 191.011 70.839 191.011 70.839C191.011 70.839 190.448 71.4133 190.06 70.9156C189.672 70.4179 188.648 72.1005 188.648 72.1005L182.234 72.4067C182.234 72.4067 185.088 73.8213 184.529 78.1013C184.529 78.1013 194.218 77.4505 194.536 76.4571C194.853 75.4636 193.125 66.5916 193.125 66.5916Z" fill="white"/>
<path opacity="0.03" d="M193.125 66.5916C193.125 66.5916 192.704 67.5486 191.857 67.3936C191.009 67.2385 191.011 70.839 191.011 70.839C191.011 70.839 190.448 71.4133 190.06 70.9156C189.672 70.4179 188.648 72.1005 188.648 72.1005L182.234 72.4067C182.234 72.4067 185.088 73.8213 184.529 78.1013C184.529 78.1013 194.218 77.4505 194.536 76.4571C194.853 75.4636 193.125 66.5916 193.125 66.5916Z" fill="black"/>
<path d="M174.484 74.6558L176.175 76.2215L190.093 79.3933L188.367 77.483L174.484 74.6558Z" fill="white"/>
<path d="M198.443 57.1913C198.212 57.5742 197.55 59.5343 196.997 61.2455C196.537 62.6715 196.152 63.9253 196.152 63.9253C196.152 63.9253 195.254 70.2688 194.795 71.4154C194.336 72.5619 194.585 77.0334 194.585 77.0334L192.875 88.0761C192.875 88.0761 192.1 93.7707 190.903 97.1721C189.723 100.52 188.408 102.09 188.367 102.139C188.897 101.362 191.782 86.0605 191.782 86.0605L192.735 66.7621C192.735 66.7621 192.875 64.9283 193.016 63.3606C193.157 61.7929 196.016 59.6529 196.016 59.6529L198.773 55.4016C199.05 55.8036 198.865 56.5042 198.443 57.1913Z" fill="white"/>
<path d="M191.255 81.9927C191.255 81.9927 187.195 81.8013 185.229 79.2402C183.263 76.679 189.774 78.218 189.774 78.218L191.466 78.6391L191.255 81.9927Z" fill="#FFB0B1"/>
<path opacity="0.1" d="M210.213 111.304C209.996 112.138 209.961 113.016 210.111 113.867C205.682 114.208 200.946 112.91 200.946 112.91C200.063 113.791 197.739 115.088 197.739 115.088L196.472 98.0525C195.661 95.7555 195.344 83.7213 195.344 83.7213C195.344 83.7213 195.416 83.0915 195.52 82.1478C195.52 82.1249 195.52 82.1 195.529 82.077C195.845 79.4412 196.472 74.4932 196.779 73.8251C197.202 72.9063 195.476 70.462 195.476 70.462L196.261 63.1978L196.357 62.3211C198.012 61.5191 199.281 58.958 199.281 58.958L200.255 57.107C201.314 56.37 201.369 63.5921 201.369 63.5921L200.31 80.6452L203.819 79.5944C203.819 79.5944 210.811 109.126 210.213 111.304Z" fill="black"/>
<path d="M214.757 112.481C209.93 115.081 201.156 112.673 201.156 112.673C200.274 113.553 197.95 114.851 197.95 114.851L196.681 97.8151C195.872 95.5181 195.555 83.4839 195.555 83.4839C195.555 83.4839 196.575 74.5046 196.998 73.5877C197.122 73.3198 197.062 72.9216 196.915 72.4928C196.195 70.452 195.93 68.2554 196.142 66.0824L196.481 62.9604L196.575 62.0856C198.232 61.2817 199.501 58.7206 199.501 58.7206L200.383 57.0438L202.007 53.9543L202.777 52.4919L202.907 52.6202L203.904 53.6002C203.904 53.6002 204.328 53.9831 204.963 54.5573C206.345 55.8206 208.733 58.0449 209.965 59.4058C211.049 60.6041 211.391 65.265 211.49 68.7737C211.555 71.084 211.516 72.8948 211.516 72.8948C210.424 74.8453 213.281 90.5049 213.281 90.5049C213.947 93.5312 214.757 112.481 214.757 112.481Z" fill="white"/>
<path opacity="0.03" d="M205.493 58.6823C205.493 58.6823 202.181 65.5216 202.565 68.121C202.95 70.7204 204.044 73.6625 203.517 74.3496C203.335 74.61 203.101 74.8213 202.832 74.9671C202.563 75.1129 202.266 75.1891 201.965 75.1899C201.436 75.2282 200.024 76.2982 200.024 76.4131C200.024 76.5279 198.72 76.5279 197.553 77.0639C196.387 77.5999 194.664 77.9042 194.664 77.9042C194.664 77.9042 191.311 77.7894 190.998 78.1339C190.686 78.4785 190.365 80.54 191.034 82.1842C191.703 83.8285 192.446 85.0555 193.007 85.2794C193.568 85.5034 197.13 84.2094 200.019 83.9032C202.908 83.5969 206.044 81.1142 206.044 81.1142C206.044 81.1142 209.498 79.7743 210.103 77.5214C210.709 75.2684 209.364 62.8858 209.364 62.8858C209.364 62.8858 208.347 57.1147 205.493 58.6823Z" fill="black"/>
<path opacity="0.03" d="M205.07 58.1078C205.07 58.1078 201.758 64.949 202.146 67.5465C202.534 70.144 203.625 73.0879 203.095 73.777C202.915 74.0377 202.681 74.2492 202.412 74.3951C202.143 74.5409 201.847 74.617 201.546 74.6173C201.016 74.6556 199.604 75.7256 199.604 75.8405C199.604 75.9553 198.3 75.9553 197.134 76.4894C195.967 77.0234 194.245 77.3297 194.245 77.3297C194.245 77.3297 190.891 77.2148 190.581 77.5594C190.27 77.9039 189.945 79.9674 190.616 81.6097C191.287 83.2521 192.028 84.4809 192.589 84.7049C193.15 84.9288 196.712 83.6349 199.601 83.3305C202.49 83.0262 205.626 80.5397 205.626 80.5397C205.626 80.5397 209.078 79.1998 209.677 76.9488C210.275 74.6977 208.937 62.3113 208.937 62.3113C208.937 62.3113 207.924 56.5421 205.07 58.1078Z" fill="black"/>
<path d="M205.388 58.3376C205.388 58.3376 202.076 65.1788 202.464 67.7763C202.852 70.3738 203.943 73.3177 203.415 74.0049C203.235 74.2662 203 74.4783 202.731 74.6244C202.462 74.7706 202.165 74.8468 201.864 74.8471C201.334 74.8854 199.923 75.9554 199.923 76.0684C199.923 76.1813 198.62 76.1832 197.452 76.7192C196.283 77.2551 194.563 77.5595 194.563 77.5595C194.563 77.5595 191.209 77.4446 190.897 77.7892C190.584 78.1337 190.263 80.1972 190.932 81.8395C191.601 83.4819 192.344 84.7107 192.905 84.9347C193.467 85.1586 197.028 83.8647 199.917 83.5584C202.806 83.2522 205.943 80.7695 205.943 80.7695C205.943 80.7695 209.396 79.4296 210.002 77.1767C210.607 74.9237 209.271 62.5411 209.271 62.5411C209.271 62.5411 208.24 56.7795 205.388 58.3376Z" fill="white"/>
<path opacity="0.1" d="M205.311 76.6867C205.311 76.6867 202.664 76.1125 203.585 77.0695C204.507 78.0266 204.501 78.865 205.629 78.8267C206.757 78.7884 205.311 76.6867 205.311 76.6867Z" fill="black"/>
<path opacity="0.1" d="M209.789 97.2791C209.789 97.2791 208.593 98.1576 210.882 100.183C213.171 102.208 209.789 97.2791 209.789 97.2791Z" fill="black"/>
<path opacity="0.1" d="M207.505 104.501C207.505 104.616 207.081 108.712 208.666 109.736C210.251 110.76 207.505 104.501 207.505 104.501Z" fill="black"/>
<path d="M182.34 72.3972C181.062 72.4451 178.302 72.8681 179.733 75.7642C180.999 78.3272 183.125 76.6141 184.322 75.3144C184.03 74.1026 183.321 73.0585 182.34 72.3972Z" fill="#FFB0B1"/>
<path d="M184.34 75.2913L184.393 75.2319L184.34 75.2913Z" fill="#FFB0B1"/>
<path opacity="0.1" d="M204.963 54.6739C203.607 55.6789 202.471 56.5268 202.248 56.7029C201.641 57.191 200.483 60.0565 199.737 61.5189C199.142 62.6961 197.209 62.9986 196.48 63.0732L196.574 62.1984C198.231 61.3945 199.5 58.8334 199.5 58.8334L202.776 52.6047L203.904 53.7169C203.904 53.7169 204.327 54.0997 204.963 54.6739Z" fill="black"/>
<path d="M204.963 54.5592C203.607 55.5641 202.471 56.4121 202.248 56.5901C201.641 57.0763 200.483 59.9418 199.737 61.4042C199.142 62.5814 197.209 62.8838 196.48 62.9585L196.574 62.0837C198.231 61.2797 199.5 58.7186 199.5 58.7186L202.776 52.49L203.904 53.5983C203.904 53.5983 204.327 53.9773 204.963 54.5592Z" fill="#DCE7FF"/>
<path d="M202.356 49.682C202.357 50.831 202.035 51.9532 201.435 52.8997C200.725 54.0187 199.669 54.8249 198.459 55.1719C197.248 55.5189 195.963 55.3837 194.836 54.7909C193.71 54.1981 192.816 53.1869 192.318 51.9408C191.82 50.6947 191.751 49.2963 192.122 47.9993C192.494 46.7023 193.281 45.5927 194.342 44.8717C195.404 44.1507 196.668 43.8662 197.906 44.0698C199.144 44.2733 200.274 44.9515 201.09 45.9812C201.907 47.0109 202.356 48.3239 202.356 49.682Z" fill="#FFB0B1"/>
<path opacity="0.1" d="M211.491 68.7754C210.774 68.2972 210.19 67.6171 209.802 66.8076C209.507 66.176 209.311 65.4467 208.808 64.9988C208.354 64.5968 207.749 64.4992 207.184 64.3192C205.328 63.7239 203.771 61.8864 203.713 59.7885C203.684 58.8008 203.969 57.815 203.84 56.8368C203.767 56.2833 203.564 55.7593 203.25 55.3151C203.095 55.1026 202.924 54.9036 202.74 54.7198C202.493 54.4671 202.234 54.2221 202.008 53.9541C201.865 53.7882 201.741 53.6052 201.637 53.4086C201.553 53.2478 201.485 53.0777 201.434 52.9014C201.081 51.7299 201.402 50.3402 201.014 49.1554L200.993 49.0903C200.847 48.6692 200.548 48.2481 200.133 48.2155C199.719 48.183 199.364 48.5563 198.969 48.7228C198.141 49.0712 197.248 48.4778 196.558 47.8729C195.868 47.268 195.089 46.577 194.212 46.711C193.632 46.801 193.173 47.2297 192.638 47.4518C192.517 47.5025 192.393 47.5416 192.266 47.5686C192.718 46.3445 193.55 45.3295 194.617 44.6981C195.685 44.0667 196.922 43.8582 198.116 44.1085C199.31 44.3588 200.386 45.0522 201.16 46.0696C201.933 47.087 202.356 48.3649 202.355 49.6837C202.356 50.0819 202.318 50.4791 202.241 50.8685C202.25 50.8953 202.258 50.9202 202.269 50.947C202.474 51.5213 202.705 52.1108 202.908 52.62L203.905 53.6C203.905 53.6 204.329 53.9829 204.964 54.5571C206.346 55.8204 208.734 58.0447 209.966 59.4056C211.049 60.6077 211.388 65.2668 211.491 68.7754Z" fill="black"/>
<path d="M192.577 43.955C192.83 43.3979 192.955 42.7739 193.257 42.2456C193.7 41.48 194.473 40.9899 195.267 40.6932C197.341 39.918 201.723 38.7925 203.033 40.6932C203.29 41.0761 203.504 41.501 203.86 41.7652C204.132 41.9662 204.46 42.0523 204.759 42.2035C205.594 42.6285 206.127 43.5549 206.411 44.5005C206.695 45.4461 206.78 46.4606 206.988 47.4349C207.254 48.6848 207.722 49.8697 208.188 51.0469C208.737 52.4365 209.319 53.8779 210.378 54.8598C211.824 56.1998 212.143 58.0967 213.484 59.5667C215.073 61.3124 215.022 64.1932 214.203 66.4806C214.095 66.7812 213.973 67.0951 214.016 67.4147C214.058 67.7344 214.277 68.0253 214.483 68.2799L215.352 69.3423C213.297 69.8802 210.973 68.7164 210.016 66.674C209.722 66.0423 209.526 65.3149 209.021 64.8651C208.569 64.4631 207.962 64.3674 207.399 64.1875C205.542 63.5903 203.986 61.7508 203.927 59.6529C203.899 58.6671 204.183 57.6813 204.055 56.7051C203.983 56.1478 203.779 55.6202 203.463 55.1738C202.978 54.4866 202.246 54.0253 201.85 53.2596C201.181 51.9791 201.69 50.3157 201.208 48.9413C201.06 48.5202 200.763 48.0991 200.348 48.0665C199.934 48.034 199.579 48.4073 199.182 48.5738C198.356 48.9222 197.463 48.3307 196.773 47.7239C196.083 47.1171 195.304 46.428 194.425 46.5639C193.845 46.652 193.388 47.0808 192.853 47.3047C192.457 47.4693 191.656 47.6167 191.31 47.2549C190.58 46.5257 192.272 44.6364 192.577 43.955Z" fill="#591D4B"/>
<path opacity="0.1" d="M210.506 66.0422C210.209 65.4105 210.015 64.6831 209.511 64.2352C209.059 63.8333 208.452 63.7356 207.887 63.5557C206.032 62.9604 204.475 61.1209 204.415 59.023C204.387 58.0372 204.671 57.0495 204.544 56.0733C204.47 55.5196 204.267 54.9957 203.953 54.5516C203.466 53.8644 202.733 53.4031 202.34 52.6374C201.671 51.3588 202.179 49.6954 201.696 48.3191C201.549 47.8999 201.251 47.4788 200.838 47.4444C200.425 47.4099 200.067 47.787 199.671 47.9535C198.845 48.3019 197.951 47.7085 197.262 47.1036C196.574 46.4988 195.792 45.8078 194.915 45.9417C194.334 46.0317 193.875 46.4605 193.342 46.6825C192.947 46.8471 192.144 46.9964 191.798 46.6347C191.071 45.869 192.764 43.9836 193.067 43.306C193.319 42.747 193.445 42.1249 193.748 41.5966C193.764 41.5679 193.782 41.5392 193.8 41.5105C193.572 41.7145 193.377 41.9561 193.219 42.2264C192.917 42.7547 192.792 43.3749 192.539 43.9357C192.234 44.6133 190.542 46.5045 191.27 47.2644C191.623 47.6281 192.418 47.4788 192.813 47.3142C193.342 47.0902 193.805 46.6615 194.385 46.5734C195.268 46.4375 196.044 47.1285 196.733 47.7334C197.421 48.3383 198.321 48.9316 199.144 48.5833C199.539 48.4167 199.885 48.0416 200.308 48.076C200.732 48.1105 201.014 48.5297 201.168 48.9508C201.65 50.3251 201.141 51.9885 201.81 53.2691C202.206 54.0214 202.938 54.4922 203.423 55.1832C203.739 55.6297 203.943 56.1573 204.015 56.7146C204.144 57.6908 203.859 58.6766 203.888 59.6623C203.946 61.7679 205.503 63.5997 207.359 64.197C207.919 64.3769 208.529 64.4726 208.981 64.8746C209.488 65.3244 209.687 66.0518 209.976 66.6834C210.933 68.7258 213.257 69.8896 215.312 69.3517L214.902 68.8502C213.122 68.879 211.32 67.7802 210.506 66.0422Z" fill="black"/>
<path opacity="0.1" d="M198.338 57.3059C198.107 57.6888 197.445 59.6489 196.893 61.3601C196.376 61.1419 195.906 59.7503 195.906 59.7503L198.663 55.4971C198.945 55.9182 198.76 56.6168 198.338 57.3059Z" fill="black"/>
<path d="M198.444 57.1912C198.213 57.5741 197.551 59.5341 196.998 61.2454C196.481 61.0291 196.012 59.6356 196.012 59.6356L198.769 55.3843C199.051 55.8035 198.866 56.5041 198.444 57.1912Z" fill="#DCE7FF"/>
<path d="M182.417 76.7461L180.889 71.5185C180.871 71.4573 180.864 71.3929 180.869 71.3288C180.874 71.2648 180.89 71.2024 180.917 71.1453C180.945 71.0882 180.982 71.0375 181.027 70.9961C181.073 70.9547 181.125 70.9235 181.182 70.9041C181.295 70.8656 181.419 70.8774 181.524 70.9369C181.63 70.9964 181.71 71.0988 181.746 71.2219L183.275 76.4436L183.123 77.5366L182.417 76.7461Z" fill="#04DD32"/>
<path opacity="0.1" d="M181.031 71.0591C181.145 71.02 181.269 71.0314 181.375 71.091C181.481 71.1506 181.561 71.2533 181.598 71.3768L183.126 76.5986L183.011 77.4178L183.122 77.5442L183.274 76.4512L181.737 71.2294C181.701 71.1064 181.621 71.004 181.515 70.9445C181.409 70.8849 181.286 70.8732 181.172 70.9117C181.077 70.9453 180.994 71.0127 180.938 71.1031C180.968 71.0856 180.999 71.0709 181.031 71.0591Z" fill="white"/>
<path d="M182.414 76.7459L183.272 76.4512L183.146 77.347L183.12 77.5441L182.869 77.2608L182.414 76.7459Z" fill="#EFC8C4"/>
<path d="M182.871 77.261C182.886 77.2406 182.905 77.2236 182.926 77.2113C182.938 77.2028 182.953 77.1982 182.967 77.1982C182.982 77.1982 182.996 77.2028 183.009 77.2113C183.021 77.227 183.031 77.2444 183.039 77.2629C183.05 77.2841 183.066 77.3021 183.085 77.3157C183.104 77.3292 183.126 77.3381 183.148 77.3414L183.122 77.5328L182.871 77.261Z" fill="#727A9C"/>
<path d="M180.879 73.3753C180.879 73.3753 183.945 73.3561 183.223 74.7707C182.501 76.1852 181.373 76.3556 181.373 76.3556L180.879 73.3753Z" fill="#FFB0B1"/>
<path d="M161.81 9.89258H161.678C156.411 9.89258 151.754 12.915 149.075 17.375C146.395 12.915 141.738 9.89258 136.471 9.89258H136.339C132.387 9.93343 128.609 11.6643 125.827 14.7091C123.045 17.7539 121.483 21.8665 121.48 26.1532C121.48 31.4765 123.63 39.0297 127.822 45.2449C135.808 57.0878 149.075 67.449 149.075 67.449C149.075 67.449 162.341 57.0897 170.326 45.2449C174.519 39.0297 176.667 31.4765 176.667 26.1532C176.665 21.8668 175.103 17.7545 172.321 14.7098C169.539 11.665 165.762 9.93393 161.81 9.89258ZM159.916 46.1561C159.316 46.1536 158.731 45.9545 158.238 45.5849C157.744 45.2152 157.365 44.6924 157.151 44.085H154.002C153.795 44.0836 153.593 44.012 153.425 43.8802C153.257 43.7484 153.131 43.5631 153.065 43.3499L152.098 40.1897L149.037 51.7875C148.978 52.0108 148.853 52.207 148.682 52.3468C148.511 52.4866 148.302 52.5624 148.088 52.5627H148.026C147.803 52.551 147.589 52.4564 147.422 52.2948C147.255 52.1331 147.145 51.9142 147.108 51.6746L143.955 31.1013L141.65 43.2753C141.597 43.5065 141.474 43.7119 141.301 43.8587C141.128 44.0055 140.914 44.0851 140.695 44.085H136.26C136.127 44.0911 135.994 44.0679 135.869 44.017C135.745 43.966 135.631 43.8882 135.535 43.7884C135.439 43.6885 135.363 43.5686 135.31 43.4358C135.258 43.3031 135.231 43.1602 135.231 43.0159C135.231 42.8716 135.258 42.7288 135.31 42.596C135.363 42.4633 135.439 42.3433 135.535 42.2435C135.631 42.1436 135.745 42.0658 135.869 42.0149C135.994 41.9639 136.127 41.9408 136.26 41.9469H139.918L143.183 25.579C143.237 25.337 143.366 25.1227 143.549 24.9728C143.733 24.8228 143.958 24.7465 144.187 24.7569C144.417 24.7673 144.635 24.8638 144.806 25.0298C144.977 25.1958 145.09 25.4211 145.125 25.6671L148.346 46.6538L151.088 36.2772C151.145 36.0586 151.266 35.866 151.432 35.728C151.599 35.59 151.802 35.5141 152.011 35.5115H152.031C152.238 35.5116 152.44 35.5827 152.608 35.7147C152.776 35.8467 152.901 36.0328 152.966 36.2465L154.715 41.9526H157.112C157.282 41.3911 157.592 40.8916 158.008 40.5092C158.424 40.1268 158.929 39.8764 159.467 39.7856C160.006 39.6948 160.557 39.7671 161.06 39.9947C161.563 40.2222 161.998 40.596 162.318 41.0749C162.637 41.5538 162.829 42.1191 162.871 42.7085C162.913 43.2978 162.804 43.8883 162.556 44.4148C162.308 44.9412 161.931 45.3831 161.466 45.6918C161.001 46.0004 160.467 46.1637 159.922 46.1637L159.916 46.1561Z" fill="#FF6400"/>
<defs>
<linearGradient id="paint0_linear" x1="100.122" y1="148.371" x2="100.122" y2="30.5864" gradientUnits="userSpaceOnUse">
<stop stop-color="#808080" stop-opacity="0.25"/>
<stop offset="0.54" stop-color="#808080" stop-opacity="0.12"/>
<stop offset="1" stop-color="#808080" stop-opacity="0.1"/>
</linearGradient>
<linearGradient id="paint1_linear" x1="39432.3" y1="88870.4" x2="39432.3" y2="28410.4" gradientUnits="userSpaceOnUse">
<stop stop-color="#808080" stop-opacity="0.25"/>
<stop offset="0.54" stop-color="#808080" stop-opacity="0.12"/>
<stop offset="1" stop-color="#808080" stop-opacity="0.1"/>
</linearGradient>
</defs>
</svg>
