<svg width="293" height="197" viewBox="0 0 293 197" fill="none" xmlns="http://www.w3.org/2000/svg">
<path d="M13.4265 175.613C13.4265 177.005 12.9465 178.165 11.9865 179.093C11.0425 180.005 9.59453 180.461 7.64253 180.461H4.42653V187.445H2.24253V170.717H7.64253C9.53053 170.717 10.9625 171.173 11.9385 172.085C12.9305 172.997 13.4265 174.173 13.4265 175.613ZM7.64253 178.661C8.85853 178.661 9.75453 178.397 10.3305 177.869C10.9065 177.341 11.1945 176.589 11.1945 175.613C11.1945 173.549 10.0105 172.517 7.64253 172.517H4.42653V178.661H7.64253ZM28.141 180.365C28.141 180.781 28.117 181.221 28.069 181.685H17.557C17.637 182.981 18.077 183.997 18.877 184.733C19.693 185.453 20.677 185.813 21.829 185.813C22.773 185.813 23.557 185.597 24.181 185.165C24.821 184.717 25.269 184.125 25.525 183.389H27.877C27.525 184.653 26.821 185.685 25.765 186.485C24.709 187.269 23.397 187.661 21.829 187.661C20.581 187.661 19.461 187.381 18.469 186.821C17.493 186.261 16.725 185.469 16.165 184.445C15.605 183.405 15.325 182.205 15.325 180.845C15.325 179.485 15.597 178.293 16.141 177.269C16.685 176.245 17.445 175.461 18.421 174.917C19.413 174.357 20.549 174.077 21.829 174.077C23.077 174.077 24.181 174.349 25.141 174.893C26.101 175.437 26.837 176.189 27.349 177.149C27.877 178.093 28.141 179.165 28.141 180.365ZM25.885 179.909C25.885 179.077 25.701 178.365 25.333 177.773C24.965 177.165 24.461 176.709 23.821 176.405C23.197 176.085 22.501 175.925 21.733 175.925C20.629 175.925 19.685 176.277 18.901 176.981C18.133 177.685 17.693 178.661 17.581 179.909H25.885ZM33.2078 176.429C33.5918 175.677 34.1358 175.093 34.8398 174.677C35.5598 174.261 36.4318 174.053 37.4558 174.053V176.309H36.8798C34.4318 176.309 33.2078 177.637 33.2078 180.293V187.445H31.0238V174.293H33.2078V176.429ZM44.6329 187.661C43.6249 187.661 42.7209 187.493 41.9209 187.157C41.1209 186.805 40.4889 186.325 40.0249 185.717C39.5609 185.093 39.3049 184.381 39.2569 183.581H41.5129C41.5769 184.237 41.8809 184.773 42.4249 185.189C42.9849 185.605 43.7129 185.813 44.6089 185.813C45.4409 185.813 46.0969 185.629 46.5769 185.261C47.0569 184.893 47.2969 184.429 47.2969 183.869C47.2969 183.293 47.0409 182.869 46.5289 182.597C46.0169 182.309 45.2249 182.029 44.1529 181.757C43.1769 181.501 42.3769 181.245 41.7529 180.989C41.1449 180.717 40.6169 180.325 40.1689 179.813C39.7369 179.285 39.5209 178.597 39.5209 177.749C39.5209 177.077 39.7209 176.461 40.1209 175.901C40.5209 175.341 41.0889 174.901 41.8249 174.581C42.5609 174.245 43.4009 174.077 44.3449 174.077C45.8009 174.077 46.9769 174.445 47.8729 175.181C48.7689 175.917 49.2489 176.925 49.3129 178.205H47.1289C47.0809 177.517 46.8009 176.965 46.2889 176.549C45.7929 176.133 45.1209 175.925 44.2729 175.925C43.4889 175.925 42.8649 176.093 42.4009 176.429C41.9369 176.765 41.7049 177.205 41.7049 177.749C41.7049 178.181 41.8409 178.541 42.1129 178.829C42.4009 179.101 42.7529 179.325 43.1689 179.501C43.6009 179.661 44.1929 179.845 44.9449 180.053C45.8889 180.309 46.6569 180.565 47.2489 180.821C47.8409 181.061 48.3449 181.429 48.7609 181.925C49.1929 182.421 49.4169 183.069 49.4329 183.869C49.4329 184.589 49.2329 185.237 48.8329 185.813C48.4329 186.389 47.8649 186.845 47.1289 187.181C46.4089 187.501 45.5769 187.661 44.6329 187.661ZM58.252 187.661C57.02 187.661 55.9 187.381 54.892 186.821C53.9 186.261 53.116 185.469 52.54 184.445C51.98 183.405 51.7 182.205 51.7 180.845C51.7 179.501 51.988 178.317 52.564 177.293C53.156 176.253 53.956 175.461 54.964 174.917C55.972 174.357 57.1 174.077 58.348 174.077C59.596 174.077 60.724 174.357 61.732 174.917C62.74 175.461 63.532 176.245 64.108 177.269C64.7 178.293 64.996 179.485 64.996 180.845C64.996 182.205 64.692 183.405 64.084 184.445C63.492 185.469 62.684 186.261 61.66 186.821C60.636 187.381 59.5 187.661 58.252 187.661ZM58.252 185.741C59.036 185.741 59.772 185.557 60.46 185.189C61.148 184.821 61.7 184.269 62.116 183.533C62.548 182.797 62.764 181.901 62.764 180.845C62.764 179.789 62.556 178.893 62.14 178.157C61.724 177.421 61.18 176.877 60.508 176.525C59.836 176.157 59.108 175.973 58.324 175.973C57.524 175.973 56.788 176.157 56.116 176.525C55.46 176.877 54.932 177.421 54.532 178.157C54.132 178.893 53.932 179.789 53.932 180.845C53.932 181.917 54.124 182.821 54.508 183.557C54.908 184.293 55.436 184.845 56.092 185.213C56.748 185.565 57.468 185.741 58.252 185.741ZM74.2755 174.053C75.8755 174.053 77.1715 174.541 78.1635 175.517C79.1555 176.477 79.6515 177.869 79.6515 179.693V187.445H77.4915V180.005C77.4915 178.693 77.1635 177.693 76.5075 177.005C75.8515 176.301 74.9555 175.949 73.8195 175.949C72.6675 175.949 71.7475 176.309 71.0595 177.029C70.3875 177.749 70.0515 178.797 70.0515 180.173V187.445H67.8675V174.293H70.0515V176.165C70.4835 175.493 71.0675 174.973 71.8035 174.605C72.5555 174.237 73.3795 174.053 74.2755 174.053ZM82.4031 180.821C82.4031 179.477 82.6751 178.301 83.2191 177.293C83.7631 176.269 84.5071 175.477 85.4511 174.917C86.4111 174.357 87.4751 174.077 88.6431 174.077C89.7951 174.077 90.7951 174.325 91.6431 174.821C92.4911 175.317 93.1231 175.941 93.5391 176.693V174.293H95.7471V187.445H93.5391V184.997C93.1071 185.765 92.4591 186.405 91.5951 186.917C90.7471 187.413 89.7551 187.661 88.6191 187.661C87.4511 187.661 86.3951 187.373 85.4511 186.797C84.5071 186.221 83.7631 185.413 83.2191 184.373C82.6751 183.333 82.4031 182.149 82.4031 180.821ZM93.5391 180.845C93.5391 179.853 93.3391 178.989 92.9391 178.253C92.5391 177.517 91.9951 176.957 91.3071 176.573C90.6351 176.173 89.8911 175.973 89.0751 175.973C88.2591 175.973 87.5151 176.165 86.8431 176.549C86.1711 176.933 85.6351 177.493 85.2351 178.229C84.8351 178.965 84.6351 179.829 84.6351 180.821C84.6351 181.829 84.8351 182.709 85.2351 183.461C85.6351 184.197 86.1711 184.765 86.8431 185.165C87.5151 185.549 88.2591 185.741 89.0751 185.741C89.8911 185.741 90.6351 185.549 91.3071 185.165C91.9951 184.765 92.5391 184.197 92.9391 183.461C93.3391 182.709 93.5391 181.837 93.5391 180.845ZM101.622 169.685V187.445H99.4378V169.685H101.622ZM128.711 170.837V187.445H126.527V175.061L121.007 187.445H119.471L113.927 175.037V187.445H111.743V170.837H114.095L120.239 184.565L126.383 170.837H128.711ZM144.414 180.365C144.414 180.781 144.39 181.221 144.342 181.685H133.83C133.91 182.981 134.35 183.997 135.15 184.733C135.966 185.453 136.95 185.813 138.102 185.813C139.046 185.813 139.83 185.597 140.454 185.165C141.094 184.717 141.542 184.125 141.798 183.389H144.15C143.798 184.653 143.094 185.685 142.038 186.485C140.982 187.269 139.67 187.661 138.102 187.661C136.854 187.661 135.734 187.381 134.742 186.821C133.766 186.261 132.998 185.469 132.438 184.445C131.878 183.405 131.598 182.205 131.598 180.845C131.598 179.485 131.87 178.293 132.414 177.269C132.958 176.245 133.718 175.461 134.694 174.917C135.686 174.357 136.822 174.077 138.102 174.077C139.35 174.077 140.454 174.349 141.414 174.893C142.374 175.437 143.11 176.189 143.622 177.149C144.15 178.093 144.414 179.165 144.414 180.365ZM142.158 179.909C142.158 179.077 141.974 178.365 141.606 177.773C141.238 177.165 140.734 176.709 140.094 176.405C139.47 176.085 138.774 175.925 138.006 175.925C136.902 175.925 135.958 176.277 135.174 176.981C134.406 177.685 133.966 178.661 133.854 179.909H142.158ZM146.481 180.821C146.481 179.477 146.753 178.301 147.297 177.293C147.841 176.269 148.585 175.477 149.529 174.917C150.489 174.357 151.561 174.077 152.745 174.077C153.769 174.077 154.721 174.317 155.601 174.797C156.481 175.261 157.153 175.877 157.617 176.645V169.685H159.825V187.445H157.617V184.973C157.185 185.757 156.545 186.405 155.697 186.917C154.849 187.413 153.857 187.661 152.721 187.661C151.553 187.661 150.489 187.373 149.529 186.797C148.585 186.221 147.841 185.413 147.297 184.373C146.753 183.333 146.481 182.149 146.481 180.821ZM157.617 180.845C157.617 179.853 157.417 178.989 157.017 178.253C156.617 177.517 156.073 176.957 155.385 176.573C154.713 176.173 153.969 175.973 153.153 175.973C152.337 175.973 151.593 176.165 150.921 176.549C150.249 176.933 149.713 177.493 149.313 178.229C148.913 178.965 148.713 179.829 148.713 180.821C148.713 181.829 148.913 182.709 149.313 183.461C149.713 184.197 150.249 184.765 150.921 185.165C151.593 185.549 152.337 185.741 153.153 185.741C153.969 185.741 154.713 185.549 155.385 185.165C156.073 184.765 156.617 184.197 157.017 183.461C157.417 182.709 157.617 181.837 157.617 180.845ZM164.644 172.157C164.228 172.157 163.876 172.013 163.588 171.725C163.3 171.437 163.156 171.085 163.156 170.669C163.156 170.253 163.3 169.901 163.588 169.613C163.876 169.325 164.228 169.181 164.644 169.181C165.044 169.181 165.38 169.325 165.652 169.613C165.94 169.901 166.084 170.253 166.084 170.669C166.084 171.085 165.94 171.437 165.652 171.725C165.38 172.013 165.044 172.157 164.644 172.157ZM165.7 174.293V187.445H163.516V174.293H165.7ZM168.606 180.845C168.606 179.485 168.878 178.301 169.422 177.293C169.966 176.269 170.718 175.477 171.678 174.917C172.654 174.357 173.766 174.077 175.014 174.077C176.63 174.077 177.958 174.469 178.998 175.253C180.054 176.037 180.75 177.125 181.086 178.517H178.734C178.51 177.717 178.07 177.085 177.414 176.621C176.774 176.157 175.974 175.925 175.014 175.925C173.766 175.925 172.758 176.357 171.99 177.221C171.222 178.069 170.838 179.277 170.838 180.845C170.838 182.429 171.222 183.653 171.99 184.517C172.758 185.381 173.766 185.813 175.014 185.813C175.974 185.813 176.774 185.589 177.414 185.141C178.054 184.693 178.494 184.053 178.734 183.221H181.086C180.734 184.565 180.03 185.645 178.974 186.461C177.918 187.261 176.598 187.661 175.014 187.661C173.766 187.661 172.654 187.381 171.678 186.821C170.718 186.261 169.966 185.469 169.422 184.445C168.878 183.421 168.606 182.221 168.606 180.845ZM183.184 180.821C183.184 179.477 183.456 178.301 184 177.293C184.544 176.269 185.288 175.477 186.232 174.917C187.192 174.357 188.256 174.077 189.424 174.077C190.576 174.077 191.576 174.325 192.424 174.821C193.272 175.317 193.904 175.941 194.32 176.693V174.293H196.528V187.445H194.32V184.997C193.888 185.765 193.24 186.405 192.376 186.917C191.528 187.413 190.536 187.661 189.4 187.661C188.232 187.661 187.176 187.373 186.232 186.797C185.288 186.221 184.544 185.413 184 184.373C183.456 183.333 183.184 182.149 183.184 180.821ZM194.32 180.845C194.32 179.853 194.12 178.989 193.72 178.253C193.32 177.517 192.776 176.957 192.088 176.573C191.416 176.173 190.672 175.973 189.856 175.973C189.04 175.973 188.296 176.165 187.624 176.549C186.952 176.933 186.416 177.493 186.016 178.229C185.616 178.965 185.416 179.829 185.416 180.821C185.416 181.829 185.616 182.709 186.016 183.461C186.416 184.197 186.952 184.765 187.624 185.165C188.296 185.549 189.04 185.741 189.856 185.741C190.672 185.741 191.416 185.549 192.088 185.165C192.776 184.765 193.32 184.197 193.72 183.461C194.12 182.709 194.32 181.837 194.32 180.845ZM202.403 169.685V187.445H200.219V169.685H202.403ZM225.412 170.717V187.445H223.228V179.861H214.708V187.445H212.524V170.717H214.708V178.061H223.228V170.717H225.412ZM230.269 172.157C229.853 172.157 229.501 172.013 229.213 171.725C228.925 171.437 228.781 171.085 228.781 170.669C228.781 170.253 228.925 169.901 229.213 169.613C229.501 169.325 229.853 169.181 230.269 169.181C230.669 169.181 231.005 169.325 231.277 169.613C231.565 169.901 231.709 170.253 231.709 170.669C231.709 171.085 231.565 171.437 231.277 171.725C231.005 172.013 230.669 172.157 230.269 172.157ZM231.325 174.293V187.445H229.141V174.293H231.325ZM239.703 187.661C238.695 187.661 237.791 187.493 236.991 187.157C236.191 186.805 235.559 186.325 235.095 185.717C234.631 185.093 234.375 184.381 234.327 183.581H236.583C236.647 184.237 236.951 184.773 237.495 185.189C238.055 185.605 238.783 185.813 239.679 185.813C240.511 185.813 241.167 185.629 241.647 185.261C242.127 184.893 242.367 184.429 242.367 183.869C242.367 183.293 242.111 182.869 241.599 182.597C241.087 182.309 240.295 182.029 239.223 181.757C238.247 181.501 237.447 181.245 236.823 180.989C236.215 180.717 235.687 180.325 235.239 179.813C234.807 179.285 234.591 178.597 234.591 177.749C234.591 177.077 234.791 176.461 235.191 175.901C235.591 175.341 236.159 174.901 236.895 174.581C237.631 174.245 238.471 174.077 239.415 174.077C240.871 174.077 242.047 174.445 242.943 175.181C243.839 175.917 244.319 176.925 244.383 178.205H242.199C242.151 177.517 241.871 176.965 241.359 176.549C240.863 176.133 240.191 175.925 239.343 175.925C238.559 175.925 237.935 176.093 237.471 176.429C237.007 176.765 236.775 177.205 236.775 177.749C236.775 178.181 236.911 178.541 237.183 178.829C237.471 179.101 237.823 179.325 238.239 179.501C238.671 179.661 239.263 179.845 240.015 180.053C240.959 180.309 241.727 180.565 242.319 180.821C242.911 181.061 243.415 181.429 243.831 181.925C244.263 182.421 244.487 183.069 244.503 183.869C244.503 184.589 244.303 185.237 243.903 185.813C243.503 186.389 242.935 186.845 242.199 187.181C241.479 187.501 240.647 187.661 239.703 187.661ZM250.25 176.093V183.845C250.25 184.485 250.386 184.941 250.658 185.213C250.93 185.469 251.402 185.597 252.074 185.597H253.682V187.445H251.714C250.498 187.445 249.586 187.165 248.978 186.605C248.37 186.045 248.066 185.125 248.066 183.845V176.093H246.362V174.293H248.066V170.981H250.25V174.293H253.682V176.093H250.25ZM262.064 187.661C260.832 187.661 259.712 187.381 258.704 186.821C257.712 186.261 256.928 185.469 256.352 184.445C255.792 183.405 255.512 182.205 255.512 180.845C255.512 179.501 255.8 178.317 256.376 177.293C256.968 176.253 257.768 175.461 258.776 174.917C259.784 174.357 260.912 174.077 262.16 174.077C263.408 174.077 264.536 174.357 265.544 174.917C266.552 175.461 267.344 176.245 267.92 177.269C268.512 178.293 268.808 179.485 268.808 180.845C268.808 182.205 268.504 183.405 267.896 184.445C267.304 185.469 266.496 186.261 265.472 186.821C264.448 187.381 263.312 187.661 262.064 187.661ZM262.064 185.741C262.848 185.741 263.584 185.557 264.272 185.189C264.96 184.821 265.512 184.269 265.928 183.533C266.36 182.797 266.576 181.901 266.576 180.845C266.576 179.789 266.368 178.893 265.952 178.157C265.536 177.421 264.992 176.877 264.32 176.525C263.648 176.157 262.92 175.973 262.136 175.973C261.336 175.973 260.6 176.157 259.928 176.525C259.272 176.877 258.744 177.421 258.344 178.157C257.944 178.893 257.744 179.789 257.744 180.845C257.744 181.917 257.936 182.821 258.32 183.557C258.72 184.293 259.248 184.845 259.904 185.213C260.56 185.565 261.28 185.741 262.064 185.741ZM273.864 176.429C274.248 175.677 274.792 175.093 275.496 174.677C276.216 174.261 277.088 174.053 278.112 174.053V176.309H277.536C275.088 176.309 273.864 177.637 273.864 180.293V187.445H271.68V174.293H273.864V176.429ZM291.961 174.293L284.041 193.637H281.785L284.377 187.301L279.073 174.293H281.497L285.625 184.949L289.705 174.293H291.961Z" fill="black"/>
<path d="M207.073 139.881L218.944 122.313L207.098 141.772L207.122 143.748C206.256 143.755 205.398 143.741 204.548 143.705L205.137 118.293L205.121 118.097L205.142 118.06L205.199 115.658L192.199 96.8742L205.183 113.861L205.229 114.369L205.674 95.1689L194.446 75.6942L205.706 91.7961L205.588 52.0194L205.589 51.887L205.593 52.0172L206.338 83.3666L216.571 70.6325L206.371 86.0673L206.595 103.241L216.011 86.4801L206.629 105.766L206.754 115.315L220.448 91.9675L206.795 118.647L207.073 139.881Z" fill="#E6E6E6"/>
<path d="M247.019 140.436L258.889 122.868L247.043 142.326L247.068 144.303C246.201 144.31 245.343 144.296 244.493 144.26L245.082 118.848L245.066 118.652L245.088 118.614L245.144 116.213L232.145 97.4291L245.129 114.416L245.175 114.924L245.619 95.7239L234.391 76.2491L245.651 92.3511L245.534 52.5743L245.534 52.4419L245.538 52.5721L246.283 83.9215L256.516 71.1874L246.317 86.6222L246.54 103.796L255.957 87.035L246.575 106.321L246.699 115.87L260.393 92.5225L246.741 119.202L247.019 140.436Z" fill="#E6E6E6"/>
<path d="M126.932 0.393799H55.8984V96.019H126.932V0.393799Z" fill="#E6E6E6"/>
<path d="M124.433 3.7644H58.4062V92.6503H124.433V3.7644Z" fill="white"/>
<path d="M115.754 19.3525H67.2957C66.9032 19.352 66.5269 19.1964 66.2496 18.92C65.9722 18.6436 65.8164 18.2689 65.8164 17.8783C65.8164 17.4876 65.9722 17.1129 66.2496 16.8365C66.5269 16.5601 66.9032 16.4046 67.2957 16.4041H115.754C115.948 16.4038 116.141 16.4417 116.321 16.5157C116.501 16.5897 116.665 16.6982 116.802 16.8352C116.94 16.9721 117.049 17.1347 117.124 17.3137C117.199 17.4927 117.237 17.6845 117.237 17.8783C117.237 18.072 117.199 18.2639 117.124 18.4429C117.049 18.6219 116.94 18.7845 116.802 18.9214C116.665 19.0583 116.501 19.1669 116.321 19.2408C116.141 19.3148 115.948 19.3527 115.754 19.3525Z" fill="#E6E6E6"/>
<path d="M115.754 34.5166H67.2957C66.9032 34.516 66.5269 34.3605 66.2496 34.0841C65.9722 33.8077 65.8164 33.433 65.8164 33.0423C65.8164 32.6517 65.9722 32.277 66.2496 32.0006C66.5269 31.7242 66.9032 31.5686 67.2957 31.5681H115.754C115.948 31.5679 116.141 31.6058 116.321 31.6798C116.501 31.7537 116.665 31.8623 116.802 31.9992C116.94 32.1361 117.049 32.2987 117.124 32.4777C117.199 32.6567 117.237 32.8486 117.237 33.0423C117.237 33.2361 117.199 33.428 117.124 33.6069C117.049 33.7859 116.94 33.9485 116.802 34.0855C116.665 34.2224 116.501 34.3309 116.321 34.4049C116.141 34.4789 115.948 34.5168 115.754 34.5166Z" fill="#E6E6E6"/>
<path d="M115.754 49.6809H67.2957C66.9032 49.6804 66.5269 49.5248 66.2496 49.2484C65.9722 48.972 65.8164 48.5973 65.8164 48.2066C65.8164 47.816 65.9722 47.4413 66.2496 47.1649C66.5269 46.8885 66.9032 46.7329 67.2957 46.7324H115.754C115.948 46.7322 116.141 46.7701 116.321 46.8441C116.501 46.9181 116.665 47.0266 116.802 47.1635C116.94 47.3004 117.049 47.4631 117.124 47.642C117.199 47.821 117.237 48.0129 117.237 48.2066C117.237 48.4004 117.199 48.5923 117.124 48.7713C117.049 48.9502 116.94 49.1128 116.802 49.2498C116.665 49.3867 116.501 49.4952 116.321 49.5692C116.141 49.6432 115.948 49.6811 115.754 49.6809Z" fill="#E6E6E6"/>
<path d="M115.754 64.8447H67.2957C66.9032 64.8442 66.5269 64.6886 66.2496 64.4122C65.9722 64.1358 65.8164 63.7611 65.8164 63.3705C65.8164 62.9798 65.9722 62.6051 66.2496 62.3287C66.5269 62.0523 66.9032 61.8968 67.2957 61.8962H115.754C115.948 61.896 116.141 61.9339 116.321 62.0079C116.501 62.0819 116.665 62.1904 116.802 62.3273C116.94 62.4643 117.049 62.6269 117.124 62.8059C117.199 62.9848 117.237 63.1767 117.237 63.3705C117.237 63.5642 117.199 63.7561 117.124 63.9351C117.049 64.1141 116.94 64.2767 116.802 64.4136C116.665 64.5505 116.501 64.659 116.321 64.733C116.141 64.807 115.948 64.8449 115.754 64.8447Z" fill="#E6E6E6"/>
<path d="M115.754 80.007H67.2957C66.9032 80.0065 66.5269 79.851 66.2496 79.5746C65.9722 79.2982 65.8164 78.9235 65.8164 78.5328C65.8164 78.1422 65.9722 77.7675 66.2496 77.4911C66.5269 77.2147 66.9032 77.0591 67.2957 77.0586H115.754C115.948 77.0583 116.141 77.0963 116.321 77.1703C116.501 77.2442 116.665 77.3528 116.802 77.4897C116.94 77.6266 117.049 77.7892 117.124 77.9682C117.199 78.1472 117.237 78.3391 117.237 78.5328C117.237 78.7266 117.199 78.9184 117.124 79.0974C117.049 79.2764 116.94 79.439 116.802 79.5759C116.665 79.7129 116.501 79.8214 116.321 79.8954C116.141 79.9694 115.948 80.0073 115.754 80.007Z" fill="#E6E6E6"/>
<path d="M107.29 19.3525H67.0848C66.8901 19.3527 66.6973 19.3148 66.5173 19.2408C66.3374 19.1669 66.1739 19.0583 66.0361 18.9214C65.8983 18.7845 65.7891 18.6219 65.7145 18.4429C65.6399 18.2639 65.6016 18.072 65.6016 17.8783C65.6016 17.6845 65.6399 17.4927 65.7145 17.3137C65.7891 17.1347 65.8983 16.9721 66.0361 16.8352C66.1739 16.6982 66.3374 16.5897 66.5173 16.5157C66.6973 16.4417 66.8901 16.4038 67.0848 16.4041H107.29C107.683 16.4046 108.059 16.5601 108.336 16.8365C108.614 17.1129 108.769 17.4876 108.769 17.8783C108.769 18.2689 108.614 18.6436 108.336 18.92C108.059 19.1964 107.683 19.352 107.29 19.3525Z" fill="#04DD32"/>
<path d="M94.8033 34.5166H67.0828C66.69 34.5166 66.3132 34.3612 66.0354 34.0848C65.7576 33.8083 65.6016 33.4333 65.6016 33.0423C65.6016 32.6513 65.7576 32.2764 66.0354 31.9999C66.3132 31.7234 66.69 31.5681 67.0828 31.5681H94.8033C94.998 31.5679 95.1908 31.6058 95.3708 31.6798C95.5507 31.7537 95.7142 31.8623 95.852 31.9992C95.9897 32.1361 96.099 32.2987 96.1736 32.4777C96.2481 32.6567 96.2865 32.8486 96.2865 33.0423C96.2865 33.2361 96.2481 33.428 96.1736 33.6069C96.099 33.7859 95.9897 33.9485 95.852 34.0855C95.7142 34.2224 95.5507 34.3309 95.3708 34.4049C95.1908 34.4789 94.998 34.5168 94.8033 34.5166Z" fill="#FF6400"/>
<path d="M79.5696 49.6809H67.0848C66.8901 49.6811 66.6973 49.6432 66.5173 49.5692C66.3374 49.4952 66.1739 49.3867 66.0361 49.2498C65.8983 49.1128 65.7891 48.9502 65.7145 48.7713C65.6399 48.5923 65.6016 48.4004 65.6016 48.2066C65.6016 48.0129 65.6399 47.821 65.7145 47.642C65.7891 47.4631 65.8983 47.3004 66.0361 47.1635C66.1739 47.0266 66.3374 46.9181 66.5173 46.8441C66.6973 46.7701 66.8901 46.7322 67.0848 46.7324H79.5696C79.9621 46.7329 80.3383 46.8885 80.6157 47.1649C80.8931 47.4413 81.0489 47.816 81.0489 48.2066C81.0489 48.5973 80.8931 48.972 80.6157 49.2484C80.3383 49.5248 79.9621 49.6804 79.5696 49.6809Z" fill="#FF6400"/>
<path d="M111.097 64.8447H67.0828C66.69 64.8447 66.3132 64.6894 66.0354 64.4129C65.7576 64.1364 65.6016 63.7615 65.6016 63.3705C65.6016 62.9795 65.7576 62.6045 66.0354 62.328C66.3132 62.0516 66.69 61.8962 67.0828 61.8962H111.097C111.49 61.8962 111.867 62.0516 112.144 62.328C112.422 62.6045 112.578 62.9795 112.578 63.3705C112.578 63.7615 112.422 64.1364 112.144 64.4129C111.867 64.6894 111.49 64.8447 111.097 64.8447Z" fill="#04DD32"/>
<path d="M101.365 80.007H67.0848C66.8901 80.0073 66.6973 79.9694 66.5173 79.8954C66.3374 79.8214 66.1739 79.7129 66.0361 79.5759C65.8983 79.439 65.7891 79.2764 65.7145 79.0974C65.6399 78.9184 65.6016 78.7266 65.6016 78.5328C65.6016 78.3391 65.6399 78.1472 65.7145 77.9682C65.7891 77.7892 65.8983 77.6266 66.0361 77.4897C66.1739 77.3528 66.3374 77.2442 66.5173 77.1703C66.6973 77.0963 66.8901 77.0583 67.0848 77.0586H101.365C101.56 77.0583 101.753 77.0963 101.933 77.1703C102.112 77.2442 102.276 77.3528 102.414 77.4897C102.552 77.6266 102.661 77.7892 102.735 77.9682C102.81 78.1472 102.848 78.3391 102.848 78.5328C102.848 78.7266 102.81 78.9184 102.735 79.0974C102.661 79.2764 102.552 79.439 102.414 79.5759C102.276 79.7129 102.112 79.8214 101.933 79.8954C101.753 79.9694 101.56 80.0073 101.365 80.007Z" fill="#04DD32"/>
<path d="M259.286 143.75H32.3945V144.258H259.286V143.75Z" fill="#3F3D56"/>
<path d="M161.679 69.285C161.679 69.285 160.073 57.5637 157.397 60.7604C154.72 63.9571 157.397 68.7522 157.397 68.7522L159.538 71.4162L161.679 69.8178V69.285Z" fill="#9F616A"/>
<path d="M168.102 73.0142C168.102 73.0142 162.749 67.1535 161.678 68.2191C160.607 69.2847 157.395 69.8175 157.931 71.9486C158.466 74.0798 169.708 81.0061 169.708 81.0061L168.102 73.0142Z" fill="#FF6400"/>
<path opacity="0.1" d="M168.102 73.0142C168.102 73.0142 162.749 67.1535 161.678 68.2191C160.607 69.2847 157.395 69.8175 157.931 71.9486C158.466 74.0798 169.708 81.0061 169.708 81.0061L168.102 73.0142Z" fill="black"/>
<path d="M198.614 72.4805V76.7428C198.614 76.7428 199.149 86.333 195.937 85.8002C192.725 85.2674 194.331 77.2756 194.331 77.2756L194.867 72.4805L198.614 72.4805Z" fill="#9F616A"/>
<path d="M197.007 103.384C197.007 103.384 201.825 110.843 203.431 111.375C205.037 111.908 213.602 116.703 214.673 121.498L222.168 131.089L218.42 135.884C218.42 135.884 201.29 117.769 196.472 116.17C191.654 114.572 186.836 106.58 186.836 106.58L197.007 103.384Z" fill="#9F616A"/>
<path d="M159.003 91.1296C159.003 91.1296 148.832 92.728 150.438 99.1215C152.044 105.515 167.568 118.835 167.568 118.835L168.103 122.031L173.992 123.097L176.669 120.433L176.133 118.835C176.133 118.835 169.709 112.974 169.174 110.843C168.639 108.712 162.75 100.187 160.074 99.6543L163.821 97.5231L159.003 91.1296Z" fill="#9F616A"/>
<path d="M220.566 131.087C220.566 131.087 218.424 127.891 221.636 128.423C224.848 128.956 226.99 129.489 226.99 131.62C226.99 133.751 224.313 148.669 221.101 147.604C217.889 146.538 220.566 141.743 220.566 141.743C220.566 141.743 218.96 137.481 217.889 136.948C216.818 136.415 216.818 133.751 217.889 133.751C218.96 133.751 221.101 132.153 220.566 131.087Z" fill="#2F2E41"/>
<path d="M175.06 119.366C175.06 119.366 175.06 116.702 177.201 119.366C179.342 122.03 180.413 124.161 178.272 125.76C176.13 127.358 168.636 131.088 168.636 131.088C168.636 131.088 160.606 132.686 161.676 128.957C161.676 128.957 167.03 126.293 167.03 124.161C167.03 122.03 167.03 118.301 168.636 119.366C170.242 120.432 175.06 120.965 175.06 119.366Z" fill="#2F2E41"/>
<path d="M185.232 79.408C185.232 79.408 192.726 80.4735 192.191 91.1293C192.191 91.1293 201.827 100.72 199.15 103.916C196.474 107.113 190.585 112.974 188.444 111.375C186.302 109.777 179.879 97.5228 179.879 97.5228C179.879 97.5228 164.889 102.851 162.213 100.187C159.536 97.5228 156.859 91.1293 156.859 91.1293L170.243 84.2031L185.232 79.408Z" fill="#2F2E41"/>
<path d="M164.354 49.0375C167.902 49.0375 170.778 46.175 170.778 42.644C170.778 39.113 167.902 36.2505 164.354 36.2505C160.806 36.2505 157.93 39.113 157.93 42.644C157.93 46.175 160.806 49.0375 164.354 49.0375Z" fill="#9F616A"/>
<path d="M169.174 43.1775C169.174 43.1775 172.921 49.0382 173.992 49.571C175.062 50.1038 166.497 55.4317 166.497 55.4317C166.497 55.4317 166.497 48.5054 163.82 46.907L169.174 43.1775Z" fill="#9F616A"/>
<path d="M169.709 49.0375C169.709 49.0375 178.274 46.3736 179.88 50.6359C181.486 54.8982 185.233 62.8901 184.698 68.218C184.163 73.5459 183.092 72.4803 184.698 74.0787C186.304 75.677 187.375 74.6115 186.839 76.7426C186.304 78.8738 185.769 78.8738 186.304 79.9393C186.839 81.0049 179.88 84.7345 173.992 85.2672L168.103 85.8C168.103 85.8 168.103 76.2098 167.032 74.0787C165.962 71.9475 163.82 67.6852 163.82 66.0868V61.8577C163.82 59.0428 164.558 56.2766 165.962 53.8326C165.962 53.8326 169.174 49.0375 169.709 49.0375Z" fill="#FF6400"/>
<path d="M176.135 51.1687C176.135 51.1687 195.942 52.7671 198.083 58.095C200.225 63.4229 201.295 74.0787 199.154 74.0787C197.013 74.0787 194.336 75.1442 193.801 74.0787C193.265 73.0131 191.124 62.3573 190.589 62.3573C190.053 62.3573 173.994 60.7589 173.994 60.7589C173.994 60.7589 167.034 52.2343 176.135 51.1687Z" fill="#FF6400"/>
<path d="M164.096 41.0599C164.096 41.0599 162.392 38.1114 160.261 40.6724C158.13 43.2334 154.663 38.5271 155.195 37.5229C155.728 36.5187 157.607 37.5681 160.827 36.5203C164.048 35.4725 170.252 33.3379 171.291 40.301C172.33 47.264 169.855 46.534 169.855 46.534C169.855 46.534 168.721 40.364 167.696 42.1363L166.671 43.9086L165.781 44.1264L164.096 41.0599Z" fill="#2F2E41"/>
</svg>
