<svg width="273" height="198" viewBox="0 0 273 198" fill="none" xmlns="http://www.w3.org/2000/svg">
<g clip-path="url(#clip0)">
<path d="M272.069 27.3003V59.0826L271.559 58.2821L234.931 0.93107L234.586 0.393799H254.885L255.227 0.93107L271.559 26.4998L272.069 27.3003Z" fill="#FF6400"/>
<path d="M143.969 0.393433C125.188 0.368163 106.588 4.24871 89.237 11.8121C71.886 19.3755 56.1262 30.4726 42.8632 44.4658C40.5888 46.8593 38.402 49.3191 36.3029 51.8452C31.9913 57.0177 28.0244 62.4974 24.4305 68.2454C23.3941 69.9028 22.3901 71.5818 21.4184 73.2823C17.929 79.3833 14.8555 85.7372 12.2212 92.2963C11.9327 93.0108 11.6511 93.7281 11.3762 94.448C9.84719 98.4158 8.48662 102.435 7.29453 106.507C4.23285 116.948 2.27252 127.711 1.44896 138.604C1.14009 142.663 0.985226 146.75 0.984375 150.867V151.135H272.071V0.393433H143.969ZM271.561 150.598H1.49492C1.50003 146.945 1.62936 143.324 1.88292 139.737C2.64918 128.75 4.57204 117.886 7.61618 107.345C8.80572 103.224 10.1569 99.1814 11.6698 95.2163C14.4691 87.872 17.8194 80.7737 21.689 73.9888C22.6564 72.2829 23.6596 70.5995 24.6985 68.9384C28.2845 63.1713 32.2437 57.6709 36.548 52.4765C62.6871 20.9118 101.153 0.930704 143.969 0.930704H271.561V150.598Z" fill="#3F3D56"/>
<path d="M127.494 129.571C130.937 140.474 129.728 150.713 129.728 150.713C129.728 150.713 122.937 143.272 119.494 132.368C116.051 121.464 117.261 111.226 117.261 111.226C117.261 111.226 124.051 118.667 127.494 129.571Z" fill="#FF6400"/>
<path d="M131.959 129.571C128.516 140.474 129.725 150.713 129.725 150.713C129.725 150.713 136.516 143.272 139.959 132.368C143.402 121.464 142.193 111.226 142.193 111.226C142.193 111.226 135.402 118.667 131.959 129.571Z" fill="#FF6400"/>
<path d="M133.348 129.689C133.579 141.176 129.552 150.582 129.552 150.582C129.552 150.582 125.15 141.364 124.92 129.876C124.689 118.389 128.716 108.982 128.716 108.982C128.716 108.982 133.117 118.201 133.348 129.689Z" fill="#04DD32"/>
<path d="M129.549 151.274C134.926 151.274 139.285 151.022 139.285 150.712C139.285 150.401 134.926 150.15 129.549 150.15C124.172 150.15 119.812 150.401 119.812 150.712C119.812 151.022 124.172 151.274 129.549 151.274Z" fill="#3F3D56"/>
<path d="M36.7235 150.887C39.7745 150.887 42.2477 148.284 42.2477 145.073C42.2477 141.863 39.7745 139.26 36.7235 139.26C33.6725 139.26 31.1992 141.863 31.1992 145.073C31.1992 148.284 33.6725 150.887 36.7235 150.887Z" fill="#F2F2F2"/>
<path d="M37.7386 135.668C35.7581 135.671 33.8595 136.5 32.4593 137.974C31.0591 139.448 30.2716 141.447 30.2695 143.531C30.2695 143.574 30.2695 143.617 30.2721 143.66C30.2964 145.111 30.7012 146.527 31.4417 147.751C32.1822 148.976 33.2297 149.961 34.4686 150.599C34.9071 150.826 35.3664 151.006 35.8394 151.136C37.0853 151.48 38.3944 151.48 39.6403 151.136C40.1133 151.006 40.5726 150.826 41.0111 150.599C42.5301 149.82 43.7534 148.522 44.4813 146.918C45.2093 145.313 45.3988 143.496 45.019 141.763C44.6393 140.031 43.7126 138.485 42.3904 137.378C41.0681 136.271 39.4283 135.668 37.7386 135.668ZM39.5663 150.599C38.9709 150.771 38.3561 150.858 37.7386 150.857C37.6161 150.857 37.4935 150.854 37.3736 150.846H37.371C36.878 150.82 36.3892 150.737 35.9134 150.599C34.9077 150.309 33.9764 149.786 33.1879 149.067C32.3995 148.349 31.7738 147.454 31.357 146.448V146.446C30.7924 145.076 30.6393 143.557 30.9182 142.093C31.1971 140.629 31.8946 139.289 32.9173 138.254C33.94 137.219 35.2389 136.538 36.6399 136.301C38.0409 136.065 39.4771 136.285 40.756 136.932C42.0348 137.579 43.0951 138.622 43.7948 139.921C44.4945 141.22 44.8001 142.713 44.6707 144.2C44.5412 145.687 43.9829 147.097 43.0706 148.241C42.1583 149.384 40.9355 150.207 39.5663 150.599Z" fill="#3F3D56"/>
<path d="M100.537 105.571H59.1836V113.299H100.537V105.571Z" fill="#F2F2F2"/>
<path d="M229.447 33.3081H188.094V41.0358H229.447V33.3081Z" fill="#F2F2F2"/>
<path d="M229.447 50.2319H188.094V57.9596H229.447V50.2319Z" fill="#F2F2F2"/>
<path d="M229.447 66.6189H188.094V74.3466H229.447V66.6189Z" fill="#F2F2F2"/>
<path d="M229.447 83.0056H188.094V90.7333H229.447V83.0056Z" fill="#F2F2F2"/>
<path d="M229.447 99.9297H188.094V107.657H229.447V99.9297Z" fill="#F2F2F2"/>
<path d="M229.447 116.854H188.094V124.581H229.447V116.854Z" fill="#F2F2F2"/>
<path d="M58.9297 102.822V113.567H114.067V102.822H58.9297ZM113.556 113.03H59.4402V103.359H113.556V113.03Z" fill="#3F3D56"/>
<path d="M150.826 45.0651C152.236 45.0651 153.379 43.8624 153.379 42.3787C153.379 40.8951 152.236 39.6924 150.826 39.6924C149.416 39.6924 148.273 40.8951 148.273 42.3787C148.273 43.8624 149.416 45.0651 150.826 45.0651Z" fill="#04DD32"/>
<path d="M150.826 61.7206C152.236 61.7206 153.379 60.5179 153.379 59.0342C153.379 57.5506 152.236 56.3479 150.826 56.3479C149.416 56.3479 148.273 57.5506 148.273 59.0342C148.273 60.5179 149.416 61.7206 150.826 61.7206Z" fill="#04DD32"/>
<path d="M150.826 78.3759C152.236 78.3759 153.379 77.1732 153.379 75.6895C153.379 74.2059 152.236 73.0032 150.826 73.0032C149.416 73.0032 148.273 74.2059 148.273 75.6895C148.273 77.1732 149.416 78.3759 150.826 78.3759Z" fill="#04DD32"/>
<path d="M150.826 95.0314C152.236 95.0314 153.379 93.8287 153.379 92.345C153.379 90.8614 152.236 89.6587 150.826 89.6587C149.416 89.6587 148.273 90.8614 148.273 92.345C148.273 93.8287 149.416 95.0314 150.826 95.0314Z" fill="#04DD32"/>
<path d="M150.826 111.687C152.236 111.687 153.379 110.484 153.379 109.001C153.379 107.517 152.236 106.314 150.826 106.314C149.416 106.314 148.273 107.517 148.273 109.001C148.273 110.484 149.416 111.687 150.826 111.687Z" fill="#04DD32"/>
<path d="M150.826 128.342C152.236 128.342 153.379 127.139 153.379 125.656C153.379 124.172 152.236 122.969 150.826 122.969C149.416 122.969 148.273 124.172 148.273 125.656C148.273 127.139 149.416 128.342 150.826 128.342Z" fill="#04DD32"/>
<path d="M243.74 42.1101H173.797V42.6474H243.74V42.1101Z" fill="#3F3D56"/>
<path d="M243.74 58.7656H173.797V59.3029H243.74V58.7656Z" fill="#3F3D56"/>
<path d="M243.74 75.4209H173.797V75.9582H243.74V75.4209Z" fill="#3F3D56"/>
<path d="M243.74 92.0764H173.797V92.6137H243.74V92.0764Z" fill="#3F3D56"/>
<path d="M243.74 108.732H173.797V109.269H243.74V108.732Z" fill="#3F3D56"/>
<path d="M243.74 125.387H173.797V125.924H243.74V125.387Z" fill="#3F3D56"/>
<path d="M256.339 140.948L249.629 135.155L255.134 128.094L261.844 133.887L256.339 140.948ZM250.347 135.08L256.268 140.192L261.125 133.961L255.205 128.85L250.347 135.08Z" fill="#3F3D56"/>
<path d="M159.124 14.6498L152.809 9.19751L147.628 15.8435L153.943 21.2958L159.124 14.6498Z" fill="#FF6400"/>
<path d="M120.442 59.0342C120.454 66.6116 118.164 73.9945 113.908 80.106C113.423 80.8044 112.915 81.4868 112.381 82.1449C110.874 84.0138 109.189 85.7151 107.352 87.2221C107.169 87.3726 106.982 87.523 106.793 87.6707C106.104 88.2134 105.395 88.7283 104.667 89.2154C104.445 89.3631 104.223 89.5082 103.998 89.6479C103.49 89.973 102.973 90.2828 102.446 90.5774C102.188 90.7224 101.928 90.8648 101.668 91.0018C96.3173 93.8112 90.357 95.0846 84.3892 94.6936C78.4213 94.3026 72.6572 92.2609 67.6792 88.7748C67.4137 88.5922 67.1533 88.4041 66.8955 88.2107C66.4105 87.8507 65.9332 87.4746 65.4686 87.0878C65.0397 86.7332 64.6211 86.3652 64.2101 85.9891C62.0464 84.0091 60.1295 81.7489 58.5049 79.2625C58.1884 78.7762 57.8821 78.2819 57.586 77.7796C54.8325 73.077 53.1525 67.7666 52.6781 62.2655C52.2036 56.7644 52.9476 51.2225 54.8515 46.075C56.7554 40.9275 59.7675 36.3147 63.6511 32.5989C67.5347 28.883 72.1841 26.1653 77.234 24.6593C82.2839 23.1533 87.5968 22.9 92.7555 23.9192C97.9141 24.9384 102.778 27.2024 106.965 30.5335C111.152 33.8645 114.548 38.1717 116.887 43.1169C119.225 48.0621 120.442 53.5105 120.442 59.0342Z" fill="#3F3D56"/>
<path d="M85.2181 57.2715C90.3263 57.2715 94.4674 52.9136 94.4674 47.5377C94.4674 42.1619 90.3263 37.804 85.2181 37.804C80.1098 37.804 75.9688 42.1619 75.9688 47.5377C75.9688 52.9136 80.1098 57.2715 85.2181 57.2715Z" fill="#A0616A"/>
<path d="M78.8582 52.2015C78.8582 52.2015 81.9413 59.5019 77.7021 62.3409C73.4628 65.1799 84.6391 76.9416 84.6391 76.9416L96.9715 63.152C96.9715 63.152 90.4199 58.6907 91.576 51.3904L78.8582 52.2015Z" fill="#A0616A"/>
<path d="M107.355 87.2222C107.171 87.3726 106.985 87.523 106.796 87.6708C106.107 88.2134 105.398 88.7283 104.669 89.2155C104.447 89.3632 104.225 89.5083 104.001 89.648L103.906 89.108L104.795 88.6218L107.355 87.2222Z" fill="#A0616A"/>
<path d="M104 89.648C104.225 89.5083 104.447 89.3632 104.669 89.2155L104.677 89.108L104.794 88.6218L109.688 68.4258L94.8543 61.2424L86.1803 66.8032L78.4101 61.7609C78.4101 61.7609 73.8459 61.9355 72.6896 63.1524C71.7834 64.1061 67.3392 66.3008 65.4502 67.2088C64.9244 67.4614 64.5977 67.6145 64.5977 67.6145C64.5977 67.6145 64.8887 76.8179 65.4707 87.0879C65.9353 87.4747 66.4126 87.8508 66.8976 88.2108C67.1554 88.4042 67.4158 88.5922 67.6813 88.7749C72.6593 92.261 78.4234 94.3027 84.3913 94.6937C90.3591 95.0847 96.3194 93.8112 101.67 91.0019L104 89.648Z" fill="#FF6400"/>
<path d="M67.683 67.209V88.775C67.4176 88.5924 67.1572 88.4043 66.8993 88.2109C66.4144 87.8509 65.937 87.4748 65.4724 87.088C65.0436 86.7334 64.625 86.3654 64.214 85.9893C62.0503 84.0093 60.1333 81.7491 58.5088 79.2627C58.1923 78.7764 57.886 78.2821 57.5898 77.7798C57.84 76.9148 58.1208 75.9593 58.4322 74.9134C60.3595 68.4259 64.5994 67.209 64.5994 67.209H67.683Z" fill="#FF6400"/>
<path d="M104.002 89.6479C104.227 89.5082 104.449 89.3631 104.671 89.2154C105.399 88.7292 106.108 88.2143 106.798 87.6707C106.986 87.523 107.173 87.3726 107.357 87.2221C109.193 85.7151 110.878 84.0138 112.385 82.1449C112.919 81.4867 113.427 80.8044 113.912 80.1059C112.342 74.9428 109.69 68.4257 109.69 68.4257L104.293 68.02C104.293 68.02 102.103 86.4699 101.672 91.0018L104.002 89.6479Z" fill="#FF6400"/>
<path d="M79.5456 36.2712C79.0828 36.6857 78.5999 37.0745 78.0988 37.4362C77.4668 37.9879 76.8831 38.5981 76.3546 39.2595L75.7582 39.9621C75.2507 40.5601 74.7122 41.2426 74.7336 42.0441C74.7415 42.3414 74.8284 42.63 74.8624 42.9253C74.9973 44.0969 74.3169 45.3846 74.877 46.407C75.039 46.7026 75.2894 46.9337 75.468 47.2186C75.6951 47.5836 75.7957 48.0199 75.7529 48.4539C76.3548 48.4799 76.8486 47.9122 77.0373 47.3102C77.2261 46.7081 77.2006 46.0577 77.2925 45.4312C77.3845 44.8046 77.6427 44.1412 78.1837 43.8622C79.338 43.2671 80.6635 44.8145 81.8955 44.4289C82.7558 44.1596 83.2094 43.0374 84.0889 42.8492C84.7184 42.7145 85.3244 43.1081 85.9095 43.3871C86.4947 43.666 87.2834 43.7952 87.6971 43.2781C87.971 42.9357 88.0003 42.387 88.3636 42.1544C88.799 41.8755 89.3443 42.2638 89.674 42.6728C90.0036 43.0819 90.3678 43.5822 90.8773 43.5673C91.5532 43.5475 92.0709 42.6002 92.7125 42.825C93.4367 43.0786 93.1036 44.2981 93.543 44.9548C93.9144 45.5101 94.6923 45.4774 95.3316 45.3856C95.4394 45.3971 95.5483 45.3797 95.6479 45.3348C95.7476 45.29 95.8348 45.2194 95.9014 45.1294C95.968 45.0395 96.0119 44.9332 96.0289 44.8206C96.0459 44.708 96.0354 44.5926 95.9986 44.4854L95.7315 40.7588C95.7304 40.502 95.677 40.2484 95.5749 40.0151C95.389 39.6606 95.004 39.4811 94.7422 39.1845C94.1917 38.5607 94.2182 37.4672 93.5337 37.0137C93.1783 36.7782 92.7134 36.7852 92.3605 36.5456C91.9079 36.2382 91.7621 35.6227 91.445 35.1644C90.9918 34.5093 90.1995 34.2055 89.4335 34.1222C88.6675 34.0388 87.8945 34.1394 87.1247 34.1129C85.5599 34.0592 83.9952 33.5957 82.4227 33.867C81.0508 34.1038 80.4748 35.3289 79.5456 36.2712Z" fill="#2F2E41"/>
<path d="M261.869 34.4288C262.46 34.4288 262.938 33.9253 262.938 33.3043C262.938 32.6832 262.46 32.1797 261.869 32.1797C261.279 32.1797 260.801 32.6832 260.801 33.3043C260.801 33.9253 261.279 34.4288 261.869 34.4288Z" fill="#04DD32"/>
<path d="M254.467 20.7286C255.057 20.7286 255.536 20.2251 255.536 19.6041C255.536 18.983 255.057 18.4795 254.467 18.4795C253.877 18.4795 253.398 18.983 253.398 19.6041C253.398 20.2251 253.877 20.7286 254.467 20.7286Z" fill="#04DD32"/>
<path d="M251.401 5.95349C251.991 5.95349 252.469 5.45 252.469 4.82892C252.469 4.20783 251.991 3.70435 251.401 3.70435C250.81 3.70435 250.332 4.20783 250.332 4.82892C250.332 5.45 250.81 5.95349 251.401 5.95349Z" fill="#04DD32"/>
</g>
<path d="M24.5593 175.562C24.5593 176.954 24.0793 178.114 23.1193 179.042C22.1753 179.954 20.7273 180.41 18.7753 180.41H15.5593V187.394H13.3753V170.666H18.7753C20.6633 170.666 22.0953 171.122 23.0713 172.034C24.0633 172.946 24.5593 174.122 24.5593 175.562ZM18.7753 178.61C19.9913 178.61 20.8873 178.346 21.4633 177.818C22.0393 177.29 22.3273 176.538 22.3273 175.562C22.3273 173.498 21.1433 172.466 18.7753 172.466H15.5593V178.61H18.7753ZM39.2738 180.314C39.2738 180.73 39.2498 181.17 39.2018 181.634H28.6898C28.7698 182.93 29.2098 183.946 30.0098 184.682C30.8258 185.402 31.8098 185.762 32.9618 185.762C33.9058 185.762 34.6898 185.546 35.3138 185.114C35.9538 184.666 36.4018 184.074 36.6578 183.338H39.0098C38.6578 184.602 37.9538 185.634 36.8978 186.434C35.8418 187.218 34.5298 187.61 32.9618 187.61C31.7138 187.61 30.5938 187.33 29.6018 186.77C28.6258 186.21 27.8578 185.418 27.2978 184.394C26.7378 183.354 26.4578 182.154 26.4578 180.794C26.4578 179.434 26.7298 178.242 27.2738 177.218C27.8178 176.194 28.5778 175.41 29.5538 174.866C30.5458 174.306 31.6818 174.026 32.9618 174.026C34.2098 174.026 35.3138 174.298 36.2738 174.842C37.2338 175.386 37.9698 176.138 38.4818 177.098C39.0098 178.042 39.2738 179.114 39.2738 180.314ZM37.0178 179.858C37.0178 179.026 36.8338 178.314 36.4658 177.722C36.0978 177.114 35.5938 176.658 34.9538 176.354C34.3298 176.034 33.6338 175.874 32.8658 175.874C31.7618 175.874 30.8178 176.226 30.0338 176.93C29.2658 177.634 28.8258 178.61 28.7138 179.858H37.0178ZM44.3406 176.378C44.7246 175.626 45.2686 175.042 45.9726 174.626C46.6926 174.21 47.5646 174.002 48.5886 174.002V176.258H48.0126C45.5646 176.258 44.3406 177.586 44.3406 180.242V187.394H42.1566V174.242H44.3406V176.378ZM55.7657 187.61C54.7577 187.61 53.8537 187.442 53.0537 187.106C52.2537 186.754 51.6217 186.274 51.1577 185.666C50.6937 185.042 50.4377 184.33 50.3897 183.53H52.6457C52.7097 184.186 53.0137 184.722 53.5577 185.138C54.1177 185.554 54.8457 185.762 55.7417 185.762C56.5737 185.762 57.2297 185.578 57.7097 185.21C58.1897 184.842 58.4297 184.378 58.4297 183.818C58.4297 183.242 58.1737 182.818 57.6617 182.546C57.1497 182.258 56.3577 181.978 55.2857 181.706C54.3097 181.45 53.5097 181.194 52.8857 180.938C52.2777 180.666 51.7497 180.274 51.3017 179.762C50.8697 179.234 50.6537 178.546 50.6537 177.698C50.6537 177.026 50.8537 176.41 51.2537 175.85C51.6537 175.29 52.2217 174.85 52.9577 174.53C53.6937 174.194 54.5337 174.026 55.4777 174.026C56.9337 174.026 58.1097 174.394 59.0057 175.13C59.9017 175.866 60.3817 176.874 60.4457 178.154H58.2617C58.2137 177.466 57.9337 176.914 57.4217 176.498C56.9257 176.082 56.2537 175.874 55.4057 175.874C54.6217 175.874 53.9977 176.042 53.5337 176.378C53.0697 176.714 52.8377 177.154 52.8377 177.698C52.8377 178.13 52.9737 178.49 53.2457 178.778C53.5337 179.05 53.8857 179.274 54.3017 179.45C54.7337 179.61 55.3257 179.794 56.0777 180.002C57.0217 180.258 57.7897 180.514 58.3817 180.77C58.9737 181.01 59.4777 181.378 59.8937 181.874C60.3257 182.37 60.5497 183.018 60.5657 183.818C60.5657 184.538 60.3657 185.186 59.9657 185.762C59.5657 186.338 58.9977 186.794 58.2617 187.13C57.5417 187.45 56.7097 187.61 55.7657 187.61ZM69.3848 187.61C68.1528 187.61 67.0328 187.33 66.0248 186.77C65.0328 186.21 64.2488 185.418 63.6728 184.394C63.1128 183.354 62.8328 182.154 62.8328 180.794C62.8328 179.45 63.1208 178.266 63.6968 177.242C64.2888 176.202 65.0888 175.41 66.0968 174.866C67.1048 174.306 68.2328 174.026 69.4808 174.026C70.7288 174.026 71.8568 174.306 72.8648 174.866C73.8728 175.41 74.6648 176.194 75.2408 177.218C75.8328 178.242 76.1288 179.434 76.1288 180.794C76.1288 182.154 75.8248 183.354 75.2168 184.394C74.6248 185.418 73.8168 186.21 72.7928 186.77C71.7688 187.33 70.6328 187.61 69.3848 187.61ZM69.3848 185.69C70.1688 185.69 70.9048 185.506 71.5928 185.138C72.2808 184.77 72.8328 184.218 73.2488 183.482C73.6808 182.746 73.8968 181.85 73.8968 180.794C73.8968 179.738 73.6888 178.842 73.2728 178.106C72.8568 177.37 72.3128 176.826 71.6408 176.474C70.9688 176.106 70.2408 175.922 69.4568 175.922C68.6568 175.922 67.9208 176.106 67.2488 176.474C66.5928 176.826 66.0648 177.37 65.6648 178.106C65.2648 178.842 65.0648 179.738 65.0648 180.794C65.0648 181.866 65.2568 182.77 65.6408 183.506C66.0408 184.242 66.5688 184.794 67.2248 185.162C67.8808 185.514 68.6008 185.69 69.3848 185.69ZM85.4083 174.002C87.0083 174.002 88.3043 174.49 89.2963 175.466C90.2883 176.426 90.7843 177.818 90.7843 179.642V187.394H88.6243V179.954C88.6243 178.642 88.2963 177.642 87.6403 176.954C86.9843 176.25 86.0883 175.898 84.9523 175.898C83.8003 175.898 82.8803 176.258 82.1923 176.978C81.5203 177.698 81.1843 178.746 81.1843 180.122V187.394H79.0003V174.242H81.1843V176.114C81.6163 175.442 82.2003 174.922 82.9363 174.554C83.6883 174.186 84.5123 174.002 85.4083 174.002ZM93.5359 180.77C93.5359 179.426 93.8079 178.25 94.3519 177.242C94.8959 176.218 95.6399 175.426 96.5839 174.866C97.5439 174.306 98.6079 174.026 99.7759 174.026C100.928 174.026 101.928 174.274 102.776 174.77C103.624 175.266 104.256 175.89 104.672 176.642V174.242H106.88V187.394H104.672V184.946C104.24 185.714 103.592 186.354 102.728 186.866C101.88 187.362 100.888 187.61 99.7519 187.61C98.5839 187.61 97.5279 187.322 96.5839 186.746C95.6399 186.17 94.8959 185.362 94.3519 184.322C93.8079 183.282 93.5359 182.098 93.5359 180.77ZM104.672 180.794C104.672 179.802 104.472 178.938 104.072 178.202C103.672 177.466 103.128 176.906 102.44 176.522C101.768 176.122 101.024 175.922 100.208 175.922C99.3919 175.922 98.6479 176.114 97.9759 176.498C97.3039 176.882 96.7679 177.442 96.3679 178.178C95.9679 178.914 95.7679 179.778 95.7679 180.77C95.7679 181.778 95.9679 182.658 96.3679 183.41C96.7679 184.146 97.3039 184.714 97.9759 185.114C98.6479 185.498 99.3919 185.69 100.208 185.69C101.024 185.69 101.768 185.498 102.44 185.114C103.128 184.714 103.672 184.146 104.072 183.41C104.472 182.658 104.672 181.786 104.672 180.794ZM112.755 169.634V187.394H110.571V169.634H112.755ZM125.059 170.666V187.394H122.875V170.666H125.059ZM135.19 174.002C136.79 174.002 138.086 174.49 139.078 175.466C140.07 176.426 140.566 177.818 140.566 179.642V187.394H138.406V179.954C138.406 178.642 138.078 177.642 137.422 176.954C136.766 176.25 135.87 175.898 134.734 175.898C133.582 175.898 132.662 176.258 131.974 176.978C131.302 177.698 130.966 178.746 130.966 180.122V187.394H128.782V174.242H130.966V176.114C131.398 175.442 131.982 174.922 132.718 174.554C133.47 174.186 134.294 174.002 135.19 174.002ZM149.485 176.042H146.725V187.394H144.541V176.042H142.837V174.242H144.541V173.306C144.541 171.834 144.917 170.762 145.669 170.09C146.437 169.402 147.661 169.058 149.341 169.058V170.882C148.381 170.882 147.701 171.074 147.301 171.458C146.917 171.826 146.725 172.442 146.725 173.306V174.242H149.485V176.042ZM157.768 187.61C156.536 187.61 155.416 187.33 154.408 186.77C153.416 186.21 152.632 185.418 152.056 184.394C151.496 183.354 151.216 182.154 151.216 180.794C151.216 179.45 151.504 178.266 152.08 177.242C152.672 176.202 153.472 175.41 154.48 174.866C155.488 174.306 156.616 174.026 157.864 174.026C159.112 174.026 160.24 174.306 161.248 174.866C162.256 175.41 163.048 176.194 163.624 177.218C164.216 178.242 164.512 179.434 164.512 180.794C164.512 182.154 164.208 183.354 163.6 184.394C163.008 185.418 162.2 186.21 161.176 186.77C160.152 187.33 159.016 187.61 157.768 187.61ZM157.768 185.69C158.552 185.69 159.288 185.506 159.976 185.138C160.664 184.77 161.216 184.218 161.632 183.482C162.064 182.746 162.28 181.85 162.28 180.794C162.28 179.738 162.072 178.842 161.656 178.106C161.24 177.37 160.696 176.826 160.024 176.474C159.352 176.106 158.624 175.922 157.84 175.922C157.04 175.922 156.304 176.106 155.632 176.474C154.976 176.826 154.448 177.37 154.048 178.106C153.648 178.842 153.448 179.738 153.448 180.794C153.448 181.866 153.64 182.77 154.024 183.506C154.424 184.242 154.952 184.794 155.608 185.162C156.264 185.514 156.984 185.69 157.768 185.69ZM169.567 176.378C169.951 175.626 170.495 175.042 171.199 174.626C171.919 174.21 172.791 174.002 173.815 174.002V176.258H173.239C170.791 176.258 169.567 177.586 169.567 180.242V187.394H167.383V174.242H169.567V176.378ZM192.152 174.002C193.176 174.002 194.088 174.218 194.888 174.65C195.688 175.066 196.32 175.698 196.784 176.546C197.248 177.394 197.48 178.426 197.48 179.642V187.394H195.32V179.954C195.32 178.642 194.992 177.642 194.336 176.954C193.696 176.25 192.824 175.898 191.72 175.898C190.584 175.898 189.68 176.266 189.008 177.002C188.336 177.722 188 178.77 188 180.146V187.394H185.84V179.954C185.84 178.642 185.512 177.642 184.856 176.954C184.216 176.25 183.344 175.898 182.24 175.898C181.104 175.898 180.2 176.266 179.528 177.002C178.856 177.722 178.52 178.77 178.52 180.146V187.394H176.336V174.242H178.52V176.138C178.952 175.45 179.528 174.922 180.248 174.554C180.984 174.186 181.792 174.002 182.672 174.002C183.776 174.002 184.752 174.25 185.6 174.746C186.448 175.242 187.08 175.97 187.496 176.93C187.864 176.002 188.472 175.282 189.32 174.77C190.168 174.258 191.112 174.002 192.152 174.002ZM200.247 180.77C200.247 179.426 200.519 178.25 201.063 177.242C201.607 176.218 202.351 175.426 203.295 174.866C204.255 174.306 205.319 174.026 206.487 174.026C207.639 174.026 208.639 174.274 209.487 174.77C210.335 175.266 210.967 175.89 211.383 176.642V174.242H213.591V187.394H211.383V184.946C210.951 185.714 210.303 186.354 209.439 186.866C208.591 187.362 207.599 187.61 206.463 187.61C205.295 187.61 204.239 187.322 203.295 186.746C202.351 186.17 201.607 185.362 201.063 184.322C200.519 183.282 200.247 182.098 200.247 180.77ZM211.383 180.794C211.383 179.802 211.183 178.938 210.783 178.202C210.383 177.466 209.839 176.906 209.151 176.522C208.479 176.122 207.735 175.922 206.919 175.922C206.103 175.922 205.359 176.114 204.687 176.498C204.015 176.882 203.479 177.442 203.079 178.178C202.679 178.914 202.479 179.778 202.479 180.77C202.479 181.778 202.679 182.658 203.079 183.41C203.479 184.146 204.015 184.714 204.687 185.114C205.359 185.498 206.103 185.69 206.919 185.69C207.735 185.69 208.479 185.498 209.151 185.114C209.839 184.714 210.383 184.146 210.783 183.41C211.183 182.658 211.383 181.786 211.383 180.794ZM219.946 176.042V183.794C219.946 184.434 220.082 184.89 220.354 185.162C220.626 185.418 221.098 185.546 221.77 185.546H223.378V187.394H221.41C220.194 187.394 219.282 187.114 218.674 186.554C218.066 185.994 217.762 185.074 217.762 183.794V176.042H216.058V174.242H217.762V170.93H219.946V174.242H223.378V176.042H219.946ZM227.152 172.106C226.736 172.106 226.384 171.962 226.096 171.674C225.808 171.386 225.664 171.034 225.664 170.618C225.664 170.202 225.808 169.85 226.096 169.562C226.384 169.274 226.736 169.13 227.152 169.13C227.552 169.13 227.888 169.274 228.16 169.562C228.448 169.85 228.592 170.202 228.592 170.618C228.592 171.034 228.448 171.386 228.16 171.674C227.888 171.962 227.552 172.106 227.152 172.106ZM228.208 174.242V187.394H226.024V174.242H228.208ZM237.666 187.61C236.434 187.61 235.314 187.33 234.306 186.77C233.314 186.21 232.53 185.418 231.954 184.394C231.394 183.354 231.114 182.154 231.114 180.794C231.114 179.45 231.402 178.266 231.978 177.242C232.57 176.202 233.37 175.41 234.378 174.866C235.386 174.306 236.514 174.026 237.762 174.026C239.01 174.026 240.138 174.306 241.146 174.866C242.154 175.41 242.946 176.194 243.522 177.218C244.114 178.242 244.41 179.434 244.41 180.794C244.41 182.154 244.106 183.354 243.498 184.394C242.906 185.418 242.098 186.21 241.074 186.77C240.05 187.33 238.914 187.61 237.666 187.61ZM237.666 185.69C238.45 185.69 239.186 185.506 239.874 185.138C240.562 184.77 241.114 184.218 241.53 183.482C241.962 182.746 242.178 181.85 242.178 180.794C242.178 179.738 241.97 178.842 241.554 178.106C241.138 177.37 240.594 176.826 239.922 176.474C239.25 176.106 238.522 175.922 237.738 175.922C236.938 175.922 236.202 176.106 235.53 176.474C234.874 176.826 234.346 177.37 233.946 178.106C233.546 178.842 233.346 179.738 233.346 180.794C233.346 181.866 233.538 182.77 233.922 183.506C234.322 184.242 234.85 184.794 235.506 185.162C236.162 185.514 236.882 185.69 237.666 185.69ZM253.69 174.002C255.29 174.002 256.586 174.49 257.578 175.466C258.57 176.426 259.066 177.818 259.066 179.642V187.394H256.906V179.954C256.906 178.642 256.578 177.642 255.922 176.954C255.266 176.25 254.37 175.898 253.234 175.898C252.082 175.898 251.162 176.258 250.474 176.978C249.802 177.698 249.466 178.746 249.466 180.122V187.394H247.282V174.242H249.466V176.114C249.898 175.442 250.482 174.922 251.218 174.554C251.97 174.186 252.794 174.002 253.69 174.002Z" fill="black"/>
<defs>
<clipPath id="clip0">
<rect x="0.984375" y="0.393799" width="271.087" height="151" fill="white"/>
</clipPath>
</defs>
</svg>
