<svg width="23" height="26" viewBox="0 0 23 26" fill="none" xmlns="http://www.w3.org/2000/svg">
<path d="M5.10938 11.5H7.66493V14.0556H5.10938V11.5ZM5.10938 16.6111H7.66493V19.1667H5.10938V16.6111ZM10.2205 11.5H12.776V14.0556H10.2205V11.5ZM10.2205 16.6111H12.776V19.1667H10.2205V16.6111ZM15.3316 11.5H17.8872V14.0556H15.3316V11.5ZM15.3316 16.6111H17.8872V19.1667H15.3316V16.6111Z" fill="#F2F2F2"/>
<path d="M2.55556 25.5556H20.4444C21.8538 25.5556 23 24.4094 23 23V5.11111C23 3.70172 21.8538 2.55556 20.4444 2.55556H17.8889V0H15.3333V2.55556H7.66667V0H5.11111V2.55556H2.55556C1.14617 2.55556 0 3.70172 0 5.11111V23C0 24.4094 1.14617 25.5556 2.55556 25.5556ZM20.4444 7.66667L20.4457 23H2.55556V7.66667H20.4444Z" fill="#F2F2F2"/>
</svg>
