<svg width="23" height="29" viewBox="0 0 23 29" fill="none" xmlns="http://www.w3.org/2000/svg">
<path d="M18.6875 0H1.4375C1.05625 0 0.690618 0.15145 0.421034 0.421034C0.151451 0.690617 0 1.05625 0 1.4375V24.4375C0 24.8187 0.151451 25.1844 0.421034 25.454C0.690618 25.7236 1.05625 25.875 1.4375 25.875H2.875V27.3125C2.875 27.6937 3.02645 28.0594 3.29603 28.329C3.56562 28.5986 3.93125 28.75 4.3125 28.75C4.69375 28.75 5.05938 28.5986 5.32897 28.329C5.59855 28.0594 5.75 27.6937 5.75 27.3125V25.875H18.6875C19.8312 25.875 20.9281 25.4206 21.7369 24.6119C22.5456 23.8031 23 22.7062 23 21.5625V4.3125C23 3.16875 22.5456 2.07185 21.7369 1.2631C20.9281 0.454352 19.8312 0 18.6875 0ZM14.375 23H2.875V2.875H14.375V23ZM20.125 21.5625C20.125 21.9437 19.9736 22.3094 19.704 22.579C19.4344 22.8486 19.0687 23 18.6875 23H17.25V2.875H18.6875C19.0687 2.875 19.4344 3.02645 19.704 3.29603C19.9736 3.56562 20.125 3.93125 20.125 4.3125V21.5625Z" fill="#F2F2F2"/>
</svg>
