<svg width="23" height="27" viewBox="0 0 23 27" fill="none" xmlns="http://www.w3.org/2000/svg">
<path d="M22.3703 10.201C21.4394 8.61088 19.9312 7.44102 18.1595 6.93483C16.3879 6.42864 14.4892 6.62512 12.8588 7.48338V0.689417H10.1412V7.48338C8.51075 6.62512 6.61214 6.42864 4.84048 6.93483C3.06882 7.44102 1.56059 8.61088 0.629659 10.201C-2.08793 14.2773 4.70604 26.5065 7.42362 26.5065C10.1412 26.5065 10.1412 25.1477 11.5 25.1477C12.8588 25.1477 12.8588 26.5065 15.5764 26.5065C18.294 26.5065 25.0879 14.2773 22.3703 10.201ZM19.9925 14.7937C19.15 18.1499 17.4923 21.2344 15.1687 23.7889C14.897 23.7889 14.5845 23.653 14.3535 23.4492C13.5458 22.7962 12.5386 22.4399 11.5 22.4399C10.4614 22.4399 9.45418 22.7962 8.64654 23.4492C8.41554 23.653 8.10302 23.7889 7.83126 23.7889C5.50127 21.2429 3.84329 18.1558 3.00755 14.8073C2.66785 13.8154 2.59991 12.7419 2.88525 11.7228C3.272 11.0333 3.83069 10.4556 4.50694 10.046C5.1832 9.63647 5.95397 9.40897 6.74423 9.38569C7.50515 9.39928 8.25249 9.57592 8.93188 9.91562L10.1412 10.5271H12.8588L14.0681 9.91562C14.7475 9.57592 15.4949 9.39928 16.2558 9.38569C17.8591 9.42645 19.3266 10.3097 20.1147 11.7092C20.4001 12.7283 20.3322 13.8018 19.9925 14.7937ZM10.1412 3.407C2.50479 7.5785 0.779126 1.74928 0.779126 1.74928C0.779126 1.74928 4.39351 -3.12879 10.1412 3.407Z" fill="white"/>
</svg>
