<svg width="25" height="24" viewBox="0 0 25 24" fill="none" xmlns="http://www.w3.org/2000/svg">
<path d="M15.2869 5.66176L15.287 5.66171L10.2162 0.761274C10.2051 0.758352 10.1724 0.75 10.1324 0.75H2.01876C1.3202 0.75 0.75 1.31622 0.75 2.01471V18.9265C0.75 19.6258 1.32242 20.1912 2.02282 20.1912H14.1912C14.8887 20.1912 15.4559 19.624 15.4559 18.9265V6.07353C15.4559 6.03145 15.4468 5.99777 15.4437 5.98649L15.4436 5.98599L15.4432 5.9845C15.44 5.96445 15.4358 5.94458 15.4304 5.92499C15.4065 5.82623 15.357 5.73545 15.2869 5.66176ZM2.02282 19.0147L2.01984 19.0147C2.00772 19.0149 1.99569 19.0126 1.98444 19.0081C1.97319 19.0036 1.96293 18.9969 1.95426 18.9885C1.94559 18.98 1.93867 18.9699 1.9339 18.9588C1.92926 18.9479 1.92674 18.9363 1.92647 18.9245V2.01471C1.92647 1.96897 1.96518 1.92647 2.01876 1.92647H9.54412V5.39706C9.54412 6.09457 10.1113 6.66177 10.8088 6.66177H14.2794V18.9265C14.2794 18.9499 14.2701 18.9723 14.2536 18.9889L14.4303 19.1656L14.2536 18.9889C14.237 19.0054 14.2146 19.0147 14.1912 19.0147L2.02282 19.0147ZM10.7206 5.39706V2.75829L13.4476 5.48529H10.8088C10.7854 5.48529 10.763 5.476 10.7464 5.45945C10.7299 5.4429 10.7206 5.42046 10.7206 5.39706Z" fill="#F2F2F2" stroke="white" stroke-width="0.5"/>
<path d="M12.5789 8.36345L12.4025 8.53982L12.5789 8.36345C12.4685 8.25314 12.3189 8.19116 12.1629 8.19116H4.04527C3.88926 8.19116 3.73964 8.25314 3.62932 8.36345C3.51901 8.47377 3.45703 8.62339 3.45703 8.7794C3.45703 8.93541 3.51901 9.08503 3.62932 9.19534C3.73964 9.30566 3.88926 9.36763 4.04527 9.36763H12.1629C12.3189 9.36763 12.4685 9.30566 12.5789 9.19534L12.4021 9.01857L12.5789 9.19534C12.6892 9.08503 12.7511 8.93541 12.7511 8.7794C12.7511 8.62339 12.6892 8.47377 12.5789 8.36345Z" fill="#F2F2F2" stroke="white" stroke-width="0.5"/>
<path d="M12.5789 11.0693L12.4025 11.2456L12.5789 11.0693C12.4685 10.9589 12.3189 10.897 12.1629 10.897H4.04527C3.88926 10.897 3.73964 10.9589 3.62932 11.0693C3.51901 11.1796 3.45703 11.3292 3.45703 11.4852C3.45703 11.6412 3.51901 11.7908 3.62932 11.9012C3.73964 12.0115 3.88926 12.0734 4.04527 12.0734H12.1629C12.3189 12.0734 12.4685 12.0115 12.5789 11.9012L12.4021 11.7244L12.5789 11.9012C12.6892 11.7908 12.7511 11.6412 12.7511 11.4852C12.7511 11.3292 12.6892 11.1796 12.5789 11.0693Z" fill="#F2F2F2" stroke="white" stroke-width="0.5"/>
<path d="M4.04527 6.66182H7.42762C7.58363 6.66182 7.73325 6.59985 7.84356 6.48953C7.95388 6.37922 8.01585 6.2296 8.01585 6.07359C8.01585 5.91758 7.95388 5.76796 7.84356 5.65764C7.73325 5.54733 7.58363 5.48535 7.42762 5.48535H4.04527C3.88926 5.48535 3.73964 5.54733 3.62932 5.65764C3.51901 5.76796 3.45703 5.91758 3.45703 6.07359C3.45703 6.2296 3.51901 6.37922 3.62932 6.48953C3.73964 6.59985 3.88926 6.66182 4.04527 6.66182Z" fill="#F2F2F2" stroke="white" stroke-width="0.5"/>
<path d="M12.5789 13.7753L12.4025 13.9517L12.5789 13.7753C12.4685 13.665 12.3189 13.603 12.1629 13.603H4.04527C3.88926 13.603 3.73964 13.665 3.62932 13.7753C3.51901 13.8856 3.45703 14.0353 3.45703 14.1913C3.45703 14.3473 3.51901 14.4969 3.62932 14.6072C3.73964 14.7175 3.88926 14.7795 4.04527 14.7795H12.1629C12.3189 14.7795 12.4685 14.7175 12.5789 14.6072L12.4021 14.4304L12.5789 14.6072C12.6892 14.4969 12.7511 14.3473 12.7511 14.1913C12.7511 14.0353 12.6892 13.8856 12.5789 13.7753Z" fill="#F2F2F2" stroke="white" stroke-width="0.5"/>
<path d="M12.5789 16.4811L12.4025 16.6575L12.5789 16.4811C12.4685 16.3708 12.3189 16.3088 12.1629 16.3088H4.04527C3.88926 16.3088 3.73964 16.3708 3.62932 16.4811C3.51901 16.5914 3.45703 16.7411 3.45703 16.8971C3.45703 17.0531 3.51901 17.2027 3.62932 17.313C3.73964 17.4233 3.88926 17.4853 4.04527 17.4853H12.1629C12.3189 17.4853 12.4685 17.4233 12.5789 17.313L12.4021 17.1362L12.5789 17.313C12.6892 17.2027 12.7511 17.0531 12.7511 16.8971C12.7511 16.7411 12.6892 16.5914 12.5789 16.4811Z" fill="#F2F2F2" stroke="white" stroke-width="0.5"/>
<path d="M10.8158 21.9705H22.9841C23.0739 21.9705 23.1599 21.9349 23.2233 21.8715M10.8158 21.9705L18.9686 3.7146C18.9629 3.71379 18.9573 3.71221 18.9516 3.71061C18.9432 3.70823 18.9346 3.70581 18.9253 3.70581H15.543C15.4533 3.70581 15.3672 3.74145 15.3038 3.80488C15.2404 3.86831 15.2047 3.95434 15.2047 4.04405C15.2047 4.13375 15.2404 4.21978 15.3038 4.28321C15.3672 4.34665 15.4533 4.38228 15.543 4.38228H18.3371V4.63228M10.8158 21.9705C10.7708 21.9711 10.7262 21.9627 10.6845 21.946C10.6428 21.9293 10.6047 21.9045 10.5726 21.8731C10.5404 21.8417 10.5147 21.8043 10.497 21.763C10.4793 21.7216 10.47 21.6772 10.4694 21.6323M10.8158 21.9705L10.4694 21.6323M23.2233 21.8715C23.2867 21.808 23.3224 21.722 23.3224 21.6323V9.36758H23.0724M23.2233 21.8715L23.0465 21.6947C23.0631 21.6781 23.0724 21.6557 23.0724 21.6323V9.36758M23.2233 21.8715L23.0465 21.6947C23.03 21.7112 23.0075 21.7205 22.9841 21.7205L10.8158 21.7205L10.8128 21.7205C10.8007 21.7207 10.7887 21.7184 10.7774 21.7139C10.7662 21.7094 10.7559 21.7027 10.7472 21.6943C10.7386 21.6858 10.7316 21.6757 10.7269 21.6646C10.7222 21.6537 10.7197 21.6421 10.7194 21.6303M23.0724 9.36758V9.11758H19.6018C19.0424 9.11758 18.5871 8.66231 18.5871 8.10287V4.63228H18.3371M23.0724 9.36758H19.6018C18.9043 9.36758 18.3371 8.80038 18.3371 8.10287V4.63228M18.3371 4.63228H15.543C15.387 4.63228 15.2373 4.57031 15.127 4.45999C15.0167 4.34968 14.9547 4.20005 14.9547 4.04405C14.9547 3.88804 15.0167 3.73842 15.127 3.6281C15.2373 3.51779 15.387 3.45581 15.543 3.45581H18.9253C18.9674 3.45581 19.001 3.4649 19.0129 3.46816C19.1347 3.48478 19.2482 3.53954 19.3372 3.62483L19.3409 3.62844L19.3409 3.62847L24.0755 8.36309L24.0799 8.36752L24.0799 8.36757C24.15 8.44126 24.1994 8.53205 24.2233 8.63081M10.7194 21.6303V20.9558C10.7194 20.7998 10.6575 20.6502 10.5472 20.5399C10.4368 20.4296 10.2872 20.3676 10.1312 20.3676C9.9752 20.3676 9.82558 20.4296 9.71526 20.5399C9.60494 20.6502 9.54297 20.7998 9.54297 20.9558V21.6323C9.54297 22.3316 10.1154 22.897 10.8158 22.897H22.9841C23.6817 22.897 24.2489 22.3298 24.2489 21.6323V8.77934C24.2489 8.73726 24.2397 8.70359 24.2367 8.6923L24.2365 8.6918L24.2361 8.69031M10.7194 21.6303V21.6323H10.4694M10.7194 21.6303C10.7194 21.63 10.7194 21.6297 10.7194 21.6293L10.4694 21.6323M24.2361 8.69031C24.233 8.67025 24.2287 8.65039 24.2233 8.63081M24.2361 8.69031C24.2368 8.69433 24.2373 8.69836 24.2379 8.7024L23.9901 8.73537M24.2361 8.69031L24.2347 8.68512C24.2343 8.68375 24.2344 8.68387 24.2345 8.68452C24.2348 8.68577 24.2365 8.69226 24.2378 8.70159L23.9901 8.73537M24.2233 8.63081C24.2239 8.63301 24.2244 8.63521 24.2249 8.63742L23.9813 8.69343M24.2233 8.63081C24.2227 8.62856 24.2221 8.62631 24.2214 8.62407L23.9813 8.69343M23.9813 8.69343C23.9852 8.70717 23.9882 8.72119 23.9901 8.73537M23.9813 8.69343C23.968 8.63577 23.9395 8.58274 23.8987 8.53987L19.1641 3.80525L23.9901 8.73537M23.9901 8.73537C23.9909 8.74149 23.9925 8.74737 23.9942 8.75326C23.9965 8.76171 23.9989 8.77017 23.9989 8.77934V21.6323C23.9989 22.1917 23.5436 22.647 22.9841 22.647H10.8158C10.2516 22.647 9.79297 22.1917 9.79297 21.6323V20.9558C9.79297 20.8661 9.8286 20.7801 9.89204 20.7166C9.95547 20.6532 10.0415 20.6176 10.1312 20.6176C10.2209 20.6176 10.3069 20.6532 10.3704 20.7166C10.4338 20.7801 10.4694 20.8661 10.4694 20.9558V21.6323M23.9901 8.73537L10.4694 21.6323M19.6018 8.1911C19.5784 8.1911 19.5559 8.18181 19.5394 8.16526C19.5229 8.14871 19.5136 8.12627 19.5136 8.10287V5.4641L22.2406 8.1911H19.6018Z" fill="#F2F2F2" stroke="white" stroke-width="0.5"/>
<path d="M16.8968 12.0734H20.9557C21.1117 12.0734 21.2613 12.0115 21.3716 11.9012C21.4819 11.7908 21.5439 11.6412 21.5439 11.4852C21.5439 11.3292 21.4819 11.1796 21.3716 11.0693C21.2613 10.9589 21.1117 10.897 20.9557 10.897H16.8968C16.7408 10.897 16.5912 10.9589 16.4809 11.0693C16.3706 11.1796 16.3086 11.3292 16.3086 11.4852C16.3086 11.6412 16.3706 11.7908 16.4809 11.9012C16.5912 12.0115 16.7408 12.0734 16.8968 12.0734Z" fill="#F2F2F2" stroke="white" stroke-width="0.5"/>
<path d="M16.8968 14.7795H20.9557C21.1117 14.7795 21.2613 14.7175 21.3716 14.6072C21.4819 14.4969 21.5439 14.3473 21.5439 14.1913C21.5439 14.0353 21.4819 13.8856 21.3716 13.7753C21.2613 13.665 21.1117 13.603 20.9557 13.603H16.8968C16.7408 13.603 16.5912 13.665 16.4809 13.7753C16.3706 13.8856 16.3086 14.0353 16.3086 14.1913C16.3086 14.3473 16.3706 14.4969 16.4809 14.6072C16.5912 14.7175 16.7408 14.7795 16.8968 14.7795Z" fill="#F2F2F2" stroke="white" stroke-width="0.5"/>
<path d="M16.8968 17.4853H20.9557C21.1117 17.4853 21.2613 17.4233 21.3716 17.313C21.4819 17.2027 21.5439 17.0531 21.5439 16.8971C21.5439 16.7411 21.4819 16.5914 21.3716 16.4811C21.2613 16.3708 21.1117 16.3088 20.9557 16.3088H16.8968C16.7408 16.3088 16.5912 16.3708 16.4809 16.4811C16.3706 16.5914 16.3086 16.7411 16.3086 16.8971C16.3086 17.0531 16.3706 17.2027 16.4809 17.313C16.5912 17.4233 16.7408 17.4853 16.8968 17.4853Z" fill="#F2F2F2" stroke="white" stroke-width="0.5"/>
<path d="M16.8968 20.1911H20.9557C21.1117 20.1911 21.2613 20.1291 21.3716 20.0188C21.4819 19.9085 21.5439 19.7589 21.5439 19.6029C21.5439 19.4469 21.4819 19.2973 21.3716 19.1869C21.2613 19.0766 21.1117 19.0146 20.9557 19.0146H16.8968C16.7408 19.0146 16.5912 19.0766 16.4809 19.1869C16.3706 19.2973 16.3086 19.4469 16.3086 19.6029C16.3086 19.7589 16.3706 19.9085 16.4809 20.0188C16.5912 20.1291 16.7408 20.1911 16.8968 20.1911Z" fill="#F2F2F2" stroke="white" stroke-width="0.5"/>
</svg>
