<svg width="23" height="29" viewBox="0 0 23 29" fill="none" xmlns="http://www.w3.org/2000/svg">
<path d="M23 18.0967L2.46704 18.125C2.24432 18.125 2.05158 18.2147 1.88883 18.394C1.72607 18.5734 1.64469 18.7905 1.64469 19.0454C1.64469 19.3003 1.72607 19.5127 1.88883 19.6826C2.05158 19.8525 2.24432 19.9375 2.46704 19.9375H13.1575V21.75H2.46704C2.24432 21.75 2.05158 21.8397 1.88883 22.019C1.72607 22.1984 1.64469 22.4108 1.64469 22.6562C1.64469 22.9017 1.72607 23.1141 1.88883 23.2935C2.05158 23.4728 2.24432 23.5625 2.46704 23.5625H13.1575V28.9717H1.64469C1.18212 28.9717 0.792365 28.797 0.475419 28.4478C0.158473 28.0985 0 27.6689 0 27.1592V1.8125C0 1.30273 0.158473 0.87321 0.475419 0.523926C0.792365 0.174642 1.18212 0 1.64469 0H21.3553C21.8179 0 22.2076 0.174642 22.5246 0.523926C22.8415 0.87321 23 1.30273 23 1.8125V18.0967ZM20.533 3.65332H2.46704C2.24432 3.65332 2.05158 3.73828 1.88883 3.9082C1.72607 4.07812 1.64469 4.29053 1.64469 4.54541C1.64469 4.80029 1.72607 5.01742 1.88883 5.19678C2.05158 5.37614 2.24432 5.46582 2.46704 5.46582H20.533C20.7728 5.46582 20.9698 5.37614 21.124 5.19678C21.2782 5.01742 21.3553 4.80029 21.3553 4.54541C21.3553 4.29053 21.2782 4.07812 21.124 3.9082C20.9698 3.73828 20.7728 3.65332 20.533 3.65332ZM20.533 7.27832H2.46704C2.24432 7.27832 2.05158 7.36328 1.88883 7.5332C1.72607 7.70312 1.64469 7.91553 1.64469 8.17041C1.64469 8.42529 1.72607 8.64242 1.88883 8.82178C2.05158 9.00114 2.24432 9.09082 2.46704 9.09082H20.533C20.7728 9.09082 20.9698 9.00114 21.124 8.82178C21.2782 8.64242 21.3553 8.42529 21.3553 8.17041C21.3553 7.91553 21.2782 7.70312 21.124 7.5332C20.9698 7.36328 20.7728 7.27832 20.533 7.27832ZM20.533 10.875H2.46704C2.24432 10.875 2.05158 10.9647 1.88883 11.144C1.72607 11.3234 1.64469 11.5405 1.64469 11.7954C1.64469 12.0503 1.72607 12.2627 1.88883 12.4326C2.05158 12.6025 2.24432 12.6875 2.46704 12.6875H20.533C20.7728 12.6875 20.9698 12.6025 21.124 12.4326C21.2782 12.2627 21.3553 12.0503 21.3553 11.7954C21.3553 11.5405 21.2782 11.3234 21.124 11.144C20.9698 10.9647 20.7728 10.875 20.533 10.875ZM20.533 14.5H2.46704C2.24432 14.5 2.05158 14.5897 1.88883 14.769C1.72607 14.9484 1.64469 15.1655 1.64469 15.4204C1.64469 15.6753 1.72607 15.8877 1.88883 16.0576C2.05158 16.2275 2.24432 16.3125 2.46704 16.3125H20.533C20.7728 16.3125 20.9698 16.2275 21.124 16.0576C21.2782 15.8877 21.3553 15.6753 21.3553 15.4204C21.3553 15.1655 21.2782 14.9484 21.124 14.769C20.9698 14.5897 20.7728 14.5 20.533 14.5ZM22.5117 21.2119L15.933 28.4902C15.6246 28.8301 15.2477 29 14.8022 29V19.9092H23C23 20.4189 22.8372 20.8532 22.5117 21.2119Z" fill="#F2F2F2"/>
</svg>
