<svg width="319" height="319" viewBox="0 0 319 319" fill="none" xmlns="http://www.w3.org/2000/svg">
<g filter="url(#filter0_f)">
<circle cx="159.367" cy="159.396" r="155" fill="black"/>
</g>
<path d="M185.599 140.618H175.464L173.05 133.851C172.883 133.388 172.577 132.988 172.175 132.705C171.772 132.423 171.291 132.271 170.799 132.271H147.937C146.931 132.271 146.029 132.905 145.694 133.851L143.272 140.618H133.137C129.844 140.618 127.176 143.285 127.176 146.579V180.56C127.176 183.854 129.844 186.521 133.137 186.521H185.599C188.893 186.521 191.56 183.854 191.56 180.56V146.579C191.56 143.285 188.893 140.618 185.599 140.618ZM186.195 180.56C186.195 180.888 185.927 181.156 185.599 181.156H133.137C132.809 181.156 132.541 180.888 132.541 180.56V146.579C132.541 146.251 132.809 145.983 133.137 145.983H147.05L148.324 142.421L150.031 137.637H168.698L170.404 142.421L171.679 145.983H185.599C185.927 145.983 186.195 146.251 186.195 146.579V180.56ZM159.368 150.752C152.781 150.752 147.445 156.088 147.445 162.675C147.445 169.263 152.781 174.598 159.368 174.598C165.956 174.598 171.291 169.263 171.291 162.675C171.291 156.088 165.956 150.752 159.368 150.752ZM159.368 169.829C155.419 169.829 152.214 166.625 152.214 162.675C152.214 158.726 155.419 155.521 159.368 155.521C163.318 155.521 166.522 158.726 166.522 162.675C166.522 166.625 163.318 169.829 159.368 169.829Z" fill="white"/>
<defs>
<filter id="filter0_f" x="0.367188" y="0.396484" width="318" height="318" filterUnits="userSpaceOnUse" color-interpolation-filters="sRGB">
<feFlood flood-opacity="0" result="BackgroundImageFix"/>
<feBlend mode="normal" in="SourceGraphic" in2="BackgroundImageFix" result="shape"/>
<feGaussianBlur stdDeviation="2" result="effect1_foregroundBlur"/>
</filter>
</defs>
</svg>
