<svg width="319" height="318" viewBox="0 0 319 318" fill="none" xmlns="http://www.w3.org/2000/svg">
<g filter="url(#filter0_d)">
<circle cx="155.992" cy="155" r="155" fill="#020004"/>
<path d="M182.224 136.221H172.089L169.675 129.455C169.508 128.992 169.202 128.592 168.8 128.309C168.397 128.026 167.916 127.875 167.424 127.875H144.562C143.556 127.875 142.654 128.508 142.319 129.455L139.897 136.221H129.762C126.469 136.221 123.801 138.889 123.801 142.183V176.163C123.801 179.457 126.469 182.125 129.762 182.125H182.224C185.518 182.125 188.185 179.457 188.185 176.163V142.183C188.185 138.889 185.518 136.221 182.224 136.221ZM182.82 176.163C182.82 176.491 182.552 176.76 182.224 176.76H129.762C129.434 176.76 129.166 176.491 129.166 176.163V142.183C129.166 141.855 129.434 141.587 129.762 141.587H143.675L144.949 138.025L146.656 133.24H165.323L167.029 138.025L168.304 141.587H182.224C182.552 141.587 182.82 141.855 182.82 142.183V176.163ZM155.993 146.356C149.406 146.356 144.07 151.691 144.07 158.279C144.07 164.866 149.406 170.202 155.993 170.202C162.581 170.202 167.916 164.866 167.916 158.279C167.916 151.691 162.581 146.356 155.993 146.356ZM155.993 165.433C152.044 165.433 148.839 162.228 148.839 158.279C148.839 154.329 152.044 151.125 155.993 151.125C159.943 151.125 163.147 154.329 163.147 158.279C163.147 162.228 159.943 165.433 155.993 165.433Z" fill="white"/>
</g>
<defs>
<filter id="filter0_d" x="0.992188" y="0" width="318" height="318" filterUnits="userSpaceOnUse" color-interpolation-filters="sRGB">
<feFlood flood-opacity="0" result="BackgroundImageFix"/>
<feColorMatrix in="SourceAlpha" type="matrix" values="0 0 0 0 0 0 0 0 0 0 0 0 0 0 0 0 0 0 127 0"/>
<feOffset dx="4" dy="4"/>
<feGaussianBlur stdDeviation="2"/>
<feColorMatrix type="matrix" values="0 0 0 0 0 0 0 0 0 0 0 0 0 0 0 0 0 0 0.25 0"/>
<feBlend mode="normal" in2="BackgroundImageFix" result="effect1_dropShadow"/>
<feBlend mode="normal" in="SourceGraphic" in2="effect1_dropShadow" result="shape"/>
</filter>
</defs>
</svg>
