<svg width="209" height="52" viewBox="0 0 209 52" fill="none" xmlns="http://www.w3.org/2000/svg">
<path d="M155.894 2.70614C176.144 5.5436 195.826 5.86773 208.327 2.73907C199.281 8.50067 175.201 11.7091 153.907 8.46947C111.054 1.9504 75.502 5.40147 56.0029 9.57707C69.0071 3.73747 106.229 -4.25493 155.894 2.70614Z" fill="#FF6400"/>
<path d="M7.47025 20.3846C7.53724 20.3239 5.65236 21.2963 4.82307 23.7888C4.40843 25.0351 5.48577 26.4703 6.37118 28.2938C7.09002 29.774 7.36524 31.4571 7.6984 33.8699C8.02975 36.2862 8.52768 37.626 9.0238 39.8794C9.52173 42.131 11.1242 48.5668 11.1242 48.5668C11.1242 48.5668 9.70824 44.5992 8.96224 42.5088C8.21444 40.4167 7.09184 35.9724 6.22453 34.5424C4.74522 32.1019 4.6275 35.3259 5.45679 37.9727C6.05431 39.8759 10.208 52.0006 10.208 52.0006C10.208 52.0006 4.73435 38.8879 3.73849 36.957C2.74443 35.026 1.33391 32.7727 0.754493 30.2784C0.625936 29.7307 -0.876915 23.7351 0.754493 19.1782C1.39004 17.4015 2.9436 12.933 5.75918 9.57722C8.41181 6.41215 13.7768 5.01855 13.7768 5.01855C13.7768 5.01855 10.5701 6.19722 9.07632 7.32389C7.58433 8.45056 5.81349 10.3278 4.90273 11.7751C3.99015 13.2242 3.24235 14.9922 3.40893 15.8796C3.5737 16.7636 3.32564 17.1658 4.65285 17.0063C5.98007 16.8451 5.73202 16.9266 6.39472 16.0408C7.05742 15.1551 7.224 14.3508 8.38464 14.2711C9.54528 14.1914 10.8725 15.318 9.95991 16.2835C9.04733 17.2472 8.46794 17.086 7.55537 17.2472C6.64279 17.4084 6.14667 17.892 6.14667 18.5351C6.14667 19.1782 6.31144 19.5803 7.80524 19.1782C9.29904 18.776 10.5158 18.6963 11.5098 18.0532C12.5039 17.4084 13.7768 16.9266 15.0189 15.2366C16.2647 13.5483 18.1713 10.3295 18.1713 10.3295C18.1713 10.3295 16.5109 15.2383 14.3562 17.0878C12.9602 18.2855 11.7851 18.939 10.208 19.5023C8.6309 20.0622 7.47025 20.3846 7.47025 20.3846Z" fill="#333F46"/>
<path d="M95.2455 10.1491C95.2455 10.1491 81.6347 3.8848 71.8843 5.07386C63.0428 6.15026 55.6698 10.1369 47.6956 11.1267C39.6708 12.1199 33.4095 12.0332 24.7328 8.95826C17.1461 6.26813 13.9268 2.7876 13.9268 2.7876C13.9268 2.7876 17.2348 8.83867 26.7118 12.3556C34.0722 15.0873 45.7999 17.1517 60.6075 13.3003C76.7278 9.10733 85.457 9.90466 95.2455 10.1491Z" fill="#04DD32"/>
</svg>
