<svg width="150" height="39" viewBox="0 0 150 39" fill="none" xmlns="http://www.w3.org/2000/svg">
<path d="M94.9874 1.94082C107.351 3.97584 119.368 4.2083 127 1.96444C121.477 6.09662 106.775 8.39767 93.7747 6.07425C67.6111 1.39881 45.905 3.8739 34 6.86861C41.9396 2.68049 64.665 -3.05161 94.9874 1.94082Z" fill="#FF6400"/>
<path d="M4.52212 13.466C4.56268 13.4246 3.42166 14.087 2.91965 15.7846C2.66865 16.6335 3.32081 17.611 3.8568 18.853C4.29195 19.8612 4.45855 21.0076 4.66023 22.651C4.86082 24.2967 5.16224 25.2093 5.46256 26.7441C5.76399 28.2777 6.73403 32.6612 6.73403 32.6612C6.73403 32.6612 5.87689 29.9589 5.4253 28.5351C4.97262 27.1101 4.29305 24.083 3.76802 23.1091C2.87252 21.4468 2.80126 23.6427 3.30327 25.4455C3.66498 26.7417 6.17941 35 6.17941 35C6.17941 35 2.86594 26.0688 2.2631 24.7536C1.66134 23.4384 0.807481 21.9037 0.456733 20.2048C0.378911 19.8317 -0.530841 15.7481 0.456733 12.6443C0.84146 11.4342 1.78191 8.39059 3.48633 6.10496C5.09209 3.9492 8.33979 3 8.33979 3C8.33979 3 6.39863 3.8028 5.49436 4.57019C4.59118 5.33758 3.5192 6.61616 2.96787 7.60195C2.41544 8.58893 1.96276 9.79314 2.0636 10.3976C2.16334 10.9997 2.01318 11.2736 2.81661 11.165C3.62004 11.0552 3.46988 11.1107 3.87105 10.5074C4.27222 9.90411 4.37306 9.35632 5.07565 9.30201C5.77824 9.2477 6.58167 10.0151 6.02924 10.6727C5.47681 11.3291 5.12608 11.2193 4.57365 11.3291C4.02122 11.4389 3.72089 11.7683 3.72089 12.2063C3.72089 12.6443 3.82064 12.9182 4.72491 12.6443C5.62918 12.3704 6.36574 12.3161 6.96749 11.8781C7.56925 11.4389 8.3398 11.1107 9.09172 9.9596C9.84582 8.8097 11 6.61734 11 6.61734C11 6.61734 9.99489 9.96078 8.69055 11.2205C7.84547 12.0363 7.13411 12.4813 6.17941 12.865C5.22472 13.2464 4.52212 13.466 4.52212 13.466Z" fill="#333F46"/>
<path d="M58 6.66246C58 6.66246 49.7986 2.69492 43.9233 3.44803C38.5957 4.12978 34.153 6.65477 29.348 7.28163C24.5125 7.91068 20.7397 7.85579 15.5114 5.90825C10.9399 4.20443 9 2 9 2C9 2 10.9933 5.8325 16.7039 8.05999C21.139 9.79015 28.2057 11.0977 37.1283 8.6583C46.8419 6.00266 52.1018 6.50766 58 6.66246Z" fill="#04DD32"/>
<path d="M22.056 12.272C23.88 12.272 25.456 12.616 26.784 13.304C28.128 13.976 29.152 14.944 29.856 16.208C30.576 17.472 30.936 18.96 30.936 20.672C30.936 22.384 30.576 23.872 29.856 25.136C29.152 26.384 28.128 27.344 26.784 28.016C25.456 28.672 23.88 29 22.056 29H16.848V12.272H22.056ZM22.056 27.2C24.216 27.2 25.864 26.632 27 25.496C28.136 24.344 28.704 22.736 28.704 20.672C28.704 18.592 28.128 16.968 26.976 15.8C25.84 14.632 24.2 14.048 22.056 14.048H19.032V27.2H22.056ZM34.9448 13.712C34.5288 13.712 34.1768 13.568 33.8888 13.28C33.6008 12.992 33.4568 12.64 33.4568 12.224C33.4568 11.808 33.6008 11.456 33.8888 11.168C34.1768 10.88 34.5288 10.736 34.9448 10.736C35.3448 10.736 35.6808 10.88 35.9528 11.168C36.2408 11.456 36.3848 11.808 36.3848 12.224C36.3848 12.64 36.2408 12.992 35.9528 13.28C35.6808 13.568 35.3448 13.712 34.9448 13.712ZM36.0008 15.848V29H33.8168V15.848H36.0008ZM38.907 22.376C38.907 21.032 39.179 19.856 39.723 18.848C40.267 17.824 41.011 17.032 41.955 16.472C42.915 15.912 43.979 15.632 45.147 15.632C46.299 15.632 47.299 15.88 48.147 16.376C48.995 16.872 49.627 17.496 50.043 18.248V15.848H52.251V29H50.043V26.552C49.611 27.32 48.963 27.96 48.099 28.472C47.251 28.968 46.259 29.216 45.123 29.216C43.955 29.216 42.899 28.928 41.955 28.352C41.011 27.776 40.267 26.968 39.723 25.928C39.179 24.888 38.907 23.704 38.907 22.376ZM50.043 22.4C50.043 21.408 49.843 20.544 49.443 19.808C49.043 19.072 48.499 18.512 47.811 18.128C47.139 17.728 46.395 17.528 45.579 17.528C44.763 17.528 44.019 17.72 43.347 18.104C42.675 18.488 42.139 19.048 41.739 19.784C41.339 20.52 41.139 21.384 41.139 22.376C41.139 23.384 41.339 24.264 41.739 25.016C42.139 25.752 42.675 26.32 43.347 26.72C44.019 27.104 44.763 27.296 45.579 27.296C46.395 27.296 47.139 27.104 47.811 26.72C48.499 26.32 49.043 25.752 49.443 25.016C49.843 24.264 50.043 23.392 50.043 22.4ZM58.1258 11.24V29H55.9418V11.24H58.1258ZM70.968 19.28V21.128H61.392V19.28H70.968ZM84.9548 25.28H77.6588L76.3148 29H74.0107L80.0588 12.368H82.5788L88.6028 29H86.2988L84.9548 25.28ZM84.3308 23.504L81.3068 15.056L78.2828 23.504H84.3308ZM100.359 19.28V21.128H90.7826V19.28H100.359ZM109.665 12.272C111.489 12.272 113.065 12.616 114.393 13.304C115.737 13.976 116.761 14.944 117.465 16.208C118.185 17.472 118.545 18.96 118.545 20.672C118.545 22.384 118.185 23.872 117.465 25.136C116.761 26.384 115.737 27.344 114.393 28.016C113.065 28.672 111.489 29 109.665 29H104.457V12.272H109.665ZM109.665 27.2C111.825 27.2 113.473 26.632 114.609 25.496C115.745 24.344 116.313 22.736 116.313 20.672C116.313 18.592 115.737 16.968 114.585 15.8C113.449 14.632 111.809 14.048 109.665 14.048H106.641V27.2H109.665ZM122.554 13.712C122.138 13.712 121.786 13.568 121.498 13.28C121.21 12.992 121.066 12.64 121.066 12.224C121.066 11.808 121.21 11.456 121.498 11.168C121.786 10.88 122.138 10.736 122.554 10.736C122.954 10.736 123.29 10.88 123.562 11.168C123.85 11.456 123.994 11.808 123.994 12.224C123.994 12.64 123.85 12.992 123.562 13.28C123.29 13.568 122.954 13.712 122.554 13.712ZM123.61 15.848V29H121.426V15.848H123.61ZM139.332 21.92C139.332 22.336 139.308 22.776 139.26 23.24H128.748C128.828 24.536 129.268 25.552 130.068 26.288C130.884 27.008 131.868 27.368 133.02 27.368C133.964 27.368 134.748 27.152 135.372 26.72C136.012 26.272 136.46 25.68 136.716 24.944H139.068C138.716 26.208 138.012 27.24 136.956 28.04C135.9 28.824 134.588 29.216 133.02 29.216C131.772 29.216 130.652 28.936 129.66 28.376C128.684 27.816 127.916 27.024 127.356 26C126.796 24.96 126.516 23.76 126.516 22.4C126.516 21.04 126.788 19.848 127.332 18.824C127.876 17.8 128.636 17.016 129.612 16.472C130.604 15.912 131.74 15.632 133.02 15.632C134.268 15.632 135.372 15.904 136.332 16.448C137.292 16.992 138.028 17.744 138.54 18.704C139.068 19.648 139.332 20.72 139.332 21.92ZM137.076 21.464C137.076 20.632 136.892 19.92 136.524 19.328C136.156 18.72 135.652 18.264 135.012 17.96C134.388 17.64 133.692 17.48 132.924 17.48C131.82 17.48 130.876 17.832 130.092 18.536C129.324 19.24 128.884 20.216 128.772 21.464H137.076ZM144.879 17.648V25.4C144.879 26.04 145.015 26.496 145.287 26.768C145.559 27.024 146.031 27.152 146.703 27.152H148.311V29H146.343C145.127 29 144.215 28.72 143.607 28.16C142.999 27.6 142.695 26.68 142.695 25.4V17.648H140.991V15.848H142.695V12.536H144.879V15.848H148.311V17.648H144.879Z" fill="black"/>
</svg>
